%TF.GenerationSoftware,KiCad,Pcbnew,10.0.1*%
%TF.CreationDate,2026-05-03T12:30:56+03:00*%
%TF.ProjectId,i5ether,69356574-6865-4722-9e6b-696361645f70,rev?*%
%TF.SameCoordinates,Original*%
%TF.FileFunction,Copper,L1,Top*%
%TF.FilePolarity,Positive*%
%FSLAX46Y46*%
G04 Gerber Fmt 4.6, Leading zero omitted, Abs format (unit mm)*
G04 Created by KiCad (PCBNEW 10.0.1) date 2026-05-03 12:30:56*
%MOMM*%
%LPD*%
G01*
G04 APERTURE LIST*
G04 Aperture macros list*
%AMRoundRect*
0 Rectangle with rounded corners*
0 $1 Rounding radius*
0 $2 $3 $4 $5 $6 $7 $8 $9 X,Y pos of 4 corners*
0 Add a 4 corners polygon primitive as box body*
4,1,4,$2,$3,$4,$5,$6,$7,$8,$9,$2,$3,0*
0 Add four circle primitives for the rounded corners*
1,1,$1+$1,$2,$3*
1,1,$1+$1,$4,$5*
1,1,$1+$1,$6,$7*
1,1,$1+$1,$8,$9*
0 Add four rect primitives between the rounded corners*
20,1,$1+$1,$2,$3,$4,$5,0*
20,1,$1+$1,$4,$5,$6,$7,0*
20,1,$1+$1,$6,$7,$8,$9,0*
20,1,$1+$1,$8,$9,$2,$3,0*%
G04 Aperture macros list end*
%TA.AperFunction,SMDPad,CuDef*%
%ADD10RoundRect,0.147500X0.147500X0.172500X-0.147500X0.172500X-0.147500X-0.172500X0.147500X-0.172500X0*%
%TD*%
%TA.AperFunction,SMDPad,CuDef*%
%ADD11RoundRect,0.250000X0.312500X1.450000X-0.312500X1.450000X-0.312500X-1.450000X0.312500X-1.450000X0*%
%TD*%
%TA.AperFunction,ComponentPad*%
%ADD12R,1.700000X1.700000*%
%TD*%
%TA.AperFunction,ComponentPad*%
%ADD13O,1.700000X1.700000*%
%TD*%
%TA.AperFunction,ComponentPad*%
%ADD14C,1.297000*%
%TD*%
%TA.AperFunction,ComponentPad*%
%ADD15C,2.082800*%
%TD*%
%TA.AperFunction,SMDPad,CuDef*%
%ADD16RoundRect,0.147500X-0.147500X-0.172500X0.147500X-0.172500X0.147500X0.172500X-0.147500X0.172500X0*%
%TD*%
%TA.AperFunction,SMDPad,CuDef*%
%ADD17R,2.030000X0.640000*%
%TD*%
%TA.AperFunction,ViaPad*%
%ADD18C,0.800000*%
%TD*%
%TA.AperFunction,Conductor*%
%ADD19C,0.250000*%
%TD*%
G04 APERTURE END LIST*
D10*
%TO.P,C1,1*%
%TO.N,Net-(C1-Pad1)*%
X26445000Y57820000D03*
%TO.P,C1,2*%
%TO.N,GND*%
X25475000Y57820000D03*
%TD*%
%TO.P,C2,1*%
%TO.N,Net-(C2-Pad1)*%
X26495000Y34890000D03*
%TO.P,C2,2*%
%TO.N,GND*%
X25525000Y34890000D03*
%TD*%
%TO.P,C3,1*%
%TO.N,Net-(C3-Pad1)*%
X26465000Y54880000D03*
%TO.P,C3,2*%
%TO.N,GND*%
X25495000Y54880000D03*
%TD*%
%TO.P,C4,1*%
%TO.N,Net-(C4-Pad1)*%
X26510000Y31900000D03*
%TO.P,C4,2*%
%TO.N,GND*%
X25540000Y31900000D03*
%TD*%
%TO.P,C5,1*%
%TO.N,Net-(C5-Pad1)*%
X26465000Y51860000D03*
%TO.P,C5,2*%
%TO.N,GND*%
X25495000Y51860000D03*
%TD*%
%TO.P,C6,1*%
%TO.N,Net-(C6-Pad1)*%
X26525000Y28880000D03*
%TO.P,C6,2*%
%TO.N,GND*%
X25555000Y28880000D03*
%TD*%
%TO.P,C7,1*%
%TO.N,Net-(C7-Pad1)*%
X26495000Y48930000D03*
%TO.P,C7,2*%
%TO.N,GND*%
X25525000Y48930000D03*
%TD*%
%TO.P,C8,1*%
%TO.N,Net-(C8-Pad1)*%
X26645000Y25860000D03*
%TO.P,C8,2*%
%TO.N,GND*%
X25675000Y25860000D03*
%TD*%
D11*
%TO.P,C9,1*%
%TO.N,Earth*%
X53137500Y18640000D03*
%TO.P,C9,2*%
%TO.N,GND*%
X48862500Y18640000D03*
%TD*%
%TO.P,C10,1*%
%TO.N,Earth*%
X53137500Y63480000D03*
%TO.P,C10,2*%
%TO.N,GND*%
X48862500Y63480000D03*
%TD*%
D10*
%TO.P,C11,1*%
%TO.N,Earth*%
X54525000Y58770000D03*
%TO.P,C11,2*%
%TO.N,Net-(C11-Pad2)*%
X53555000Y58770000D03*
%TD*%
%TO.P,C12,1*%
%TO.N,Earth*%
X54125000Y36000000D03*
%TO.P,C12,2*%
%TO.N,Net-(C12-Pad2)*%
X53155000Y36000000D03*
%TD*%
D12*
%TO.P,J1,1*%
%TO.N,Net-(J1-Pad1)*%
X12380000Y20230000D03*
D13*
%TO.P,J1,2*%
%TO.N,Net-(J1-Pad2)*%
X9840000Y20230000D03*
%TO.P,J1,3*%
%TO.N,GND*%
X12380000Y22770000D03*
%TO.P,J1,4*%
X9840000Y22770000D03*
%TO.P,J1,5*%
%TO.N,Net-(J1-Pad5)*%
X12380000Y25310000D03*
%TO.P,J1,6*%
%TO.N,Net-(J1-Pad6)*%
X9840000Y25310000D03*
%TO.P,J1,7*%
%TO.N,Net-(J1-Pad7)*%
X12380000Y27850000D03*
%TO.P,J1,8*%
%TO.N,Net-(J1-Pad8)*%
X9840000Y27850000D03*
%TO.P,J1,9*%
%TO.N,Net-(J1-Pad9)*%
X12380000Y30390000D03*
%TO.P,J1,10*%
%TO.N,Net-(J1-Pad10)*%
X9840000Y30390000D03*
%TO.P,J1,11*%
%TO.N,Net-(J1-Pad11)*%
X12380000Y32930000D03*
%TO.P,J1,12*%
%TO.N,Net-(J1-Pad12)*%
X9840000Y32930000D03*
%TO.P,J1,13*%
%TO.N,Net-(J1-Pad13)*%
X12380000Y35470000D03*
%TO.P,J1,14*%
%TO.N,Net-(J1-Pad14)*%
X9840000Y35470000D03*
%TO.P,J1,15*%
%TO.N,Net-(J1-Pad15)*%
X12380000Y38010000D03*
%TO.P,J1,16*%
%TO.N,GND*%
X9840000Y38010000D03*
%TO.P,J1,17*%
%TO.N,Net-(J1-Pad17)*%
X12380000Y40550000D03*
%TO.P,J1,18*%
%TO.N,Net-(J1-Pad18)*%
X9840000Y40550000D03*
%TO.P,J1,19*%
%TO.N,Net-(J1-Pad19)*%
X12380000Y43090000D03*
%TO.P,J1,20*%
%TO.N,Net-(J1-Pad20)*%
X9840000Y43090000D03*
%TO.P,J1,21*%
%TO.N,GND*%
X12380000Y45630000D03*
%TO.P,J1,22*%
X9840000Y45630000D03*
%TO.P,J1,23*%
%TO.N,Net-(J1-Pad23)*%
X12380000Y48170000D03*
%TO.P,J1,24*%
%TO.N,Net-(J1-Pad24)*%
X9840000Y48170000D03*
%TO.P,J1,25*%
%TO.N,Net-(J1-Pad25)*%
X12380000Y50710000D03*
%TO.P,J1,26*%
%TO.N,Net-(J1-Pad26)*%
X9840000Y50710000D03*
%TO.P,J1,27*%
%TO.N,Net-(J1-Pad27)*%
X12380000Y53250000D03*
%TO.P,J1,28*%
%TO.N,Net-(J1-Pad28)*%
X9840000Y53250000D03*
%TO.P,J1,29*%
%TO.N,Net-(J1-Pad29)*%
X12380000Y55790000D03*
%TO.P,J1,30*%
%TO.N,Net-(J1-Pad30)*%
X9840000Y55790000D03*
%TD*%
D14*
%TO.P,J2,1*%
%TO.N,Net-(J2-Pad1)*%
X65360000Y56000000D03*
%TO.P,J2,2*%
%TO.N,Net-(J2-Pad2)*%
X63582000Y54984000D03*
%TO.P,J2,3*%
%TO.N,Net-(J2-Pad3)*%
X65360000Y53968000D03*
%TO.P,J2,4*%
%TO.N,Net-(J2-Pad4)*%
X63582000Y52952000D03*
%TO.P,J2,5*%
%TO.N,Net-(J2-Pad5)*%
X65360000Y51936000D03*
%TO.P,J2,6*%
%TO.N,Net-(J2-Pad6)*%
X63582000Y50920000D03*
%TO.P,J2,7*%
%TO.N,Net-(J2-Pad7)*%
X65360000Y49904000D03*
%TO.P,J2,8*%
%TO.N,Net-(J2-Pad8)*%
X63582000Y48888000D03*
D15*
%TO.P,J2,9*%
%TO.N,Earth*%
X64471000Y60572000D03*
%TO.P,J2,10*%
X64471000Y44316000D03*
%TD*%
D14*
%TO.P,J3,1*%
%TO.N,Net-(J3-Pad1)*%
X65270000Y33070000D03*
%TO.P,J3,2*%
%TO.N,Net-(J3-Pad2)*%
X63492000Y32054000D03*
%TO.P,J3,3*%
%TO.N,Net-(J3-Pad3)*%
X65270000Y31038000D03*
%TO.P,J3,4*%
%TO.N,Net-(J3-Pad4)*%
X63492000Y30022000D03*
%TO.P,J3,5*%
%TO.N,Net-(J3-Pad5)*%
X65270000Y29006000D03*
%TO.P,J3,6*%
%TO.N,Net-(J3-Pad6)*%
X63492000Y27990000D03*
%TO.P,J3,7*%
%TO.N,Net-(J3-Pad7)*%
X65270000Y26974000D03*
%TO.P,J3,8*%
%TO.N,Net-(J3-Pad8)*%
X63492000Y25958000D03*
D15*
%TO.P,J3,9*%
%TO.N,Earth*%
X64381000Y37642000D03*
%TO.P,J3,10*%
X64381000Y21386000D03*
%TD*%
D16*
%TO.P,R1,1*%
%TO.N,Net-(R1-Pad1)*%
X50575000Y48940000D03*
%TO.P,R1,2*%
%TO.N,Net-(C11-Pad2)*%
X51545000Y48940000D03*
%TD*%
%TO.P,R2,1*%
%TO.N,Net-(R2-Pad1)*%
X50655000Y25890000D03*
%TO.P,R2,2*%
%TO.N,Net-(C12-Pad2)*%
X51625000Y25890000D03*
%TD*%
%TO.P,R3,1*%
%TO.N,Net-(R3-Pad1)*%
X50530000Y51860000D03*
%TO.P,R3,2*%
%TO.N,Net-(C11-Pad2)*%
X51500000Y51860000D03*
%TD*%
%TO.P,R4,1*%
%TO.N,Net-(R4-Pad1)*%
X50600000Y28890000D03*
%TO.P,R4,2*%
%TO.N,Net-(C12-Pad2)*%
X51570000Y28890000D03*
%TD*%
%TO.P,R5,1*%
%TO.N,Net-(R5-Pad1)*%
X50555000Y54870000D03*
%TO.P,R5,2*%
%TO.N,Net-(C11-Pad2)*%
X51525000Y54870000D03*
%TD*%
%TO.P,R6,1*%
%TO.N,Net-(R6-Pad1)*%
X50575000Y31900000D03*
%TO.P,R6,2*%
%TO.N,Net-(C12-Pad2)*%
X51545000Y31900000D03*
%TD*%
%TO.P,R7,1*%
%TO.N,Net-(R7-Pad1)*%
X50595000Y57840000D03*
%TO.P,R7,2*%
%TO.N,Net-(C11-Pad2)*%
X51565000Y57840000D03*
%TD*%
%TO.P,R8,1*%
%TO.N,Net-(R8-Pad1)*%
X50535000Y34880000D03*
%TO.P,R8,2*%
%TO.N,Net-(C12-Pad2)*%
X51505000Y34880000D03*
%TD*%
D17*
%TO.P,T1,1*%
%TO.N,Net-(C1-Pad1)*%
X29331000Y57818300D03*
%TO.P,T1,2*%
%TO.N,Net-(J1-Pad23)*%
X29331000Y56827700D03*
%TO.P,T1,3*%
%TO.N,Net-(J1-Pad25)*%
X29331000Y55837100D03*
%TO.P,T1,4*%
%TO.N,Net-(C3-Pad1)*%
X29331000Y54846500D03*
%TO.P,T1,5*%
%TO.N,Net-(J1-Pad29)*%
X29331000Y53855900D03*
%TO.P,T1,6*%
%TO.N,Net-(J1-Pad27)*%
X29331000Y52865300D03*
%TO.P,T1,7*%
%TO.N,Net-(C5-Pad1)*%
X29331000Y51874700D03*
%TO.P,T1,8*%
%TO.N,Net-(J1-Pad24)*%
X29331000Y50884100D03*
%TO.P,T1,9*%
%TO.N,Net-(J1-Pad26)*%
X29331000Y49893500D03*
%TO.P,T1,10*%
%TO.N,Net-(C7-Pad1)*%
X29331000Y48902900D03*
%TO.P,T1,11*%
%TO.N,Net-(J1-Pad30)*%
X29331000Y47912300D03*
%TO.P,T1,12*%
%TO.N,Net-(J1-Pad28)*%
X29331000Y46921700D03*
%TO.P,T1,13*%
%TO.N,Net-(J2-Pad8)*%
X47129000Y46921700D03*
%TO.P,T1,14*%
%TO.N,Net-(J2-Pad7)*%
X47129000Y47912300D03*
%TO.P,T1,15*%
%TO.N,Net-(R1-Pad1)*%
X47129000Y48902900D03*
%TO.P,T1,16*%
%TO.N,Net-(J2-Pad5)*%
X47129000Y49893500D03*
%TO.P,T1,17*%
%TO.N,Net-(J2-Pad4)*%
X47129000Y50884100D03*
%TO.P,T1,18*%
%TO.N,Net-(R3-Pad1)*%
X47129000Y51874700D03*
%TO.P,T1,19*%
%TO.N,Net-(J2-Pad6)*%
X47129000Y52865300D03*
%TO.P,T1,20*%
%TO.N,Net-(J2-Pad3)*%
X47129000Y53855900D03*
%TO.P,T1,21*%
%TO.N,Net-(R5-Pad1)*%
X47129000Y54846500D03*
%TO.P,T1,22*%
%TO.N,Net-(J2-Pad2)*%
X47129000Y55837100D03*
%TO.P,T1,23*%
%TO.N,Net-(J2-Pad1)*%
X47129000Y56827700D03*
%TO.P,T1,24*%
%TO.N,Net-(R7-Pad1)*%
X47129000Y57818300D03*
%TD*%
%TO.P,T2,1*%
%TO.N,Net-(C2-Pad1)*%
X29351000Y34858300D03*
%TO.P,T2,2*%
%TO.N,Net-(J1-Pad11)*%
X29351000Y33867700D03*
%TO.P,T2,3*%
%TO.N,Net-(J1-Pad9)*%
X29351000Y32877100D03*
%TO.P,T2,4*%
%TO.N,Net-(C4-Pad1)*%
X29351000Y31886500D03*
%TO.P,T2,5*%
%TO.N,Net-(J1-Pad5)*%
X29351000Y30895900D03*
%TO.P,T2,6*%
%TO.N,Net-(J1-Pad7)*%
X29351000Y29905300D03*
%TO.P,T2,7*%
%TO.N,Net-(C6-Pad1)*%
X29351000Y28914700D03*
%TO.P,T2,8*%
%TO.N,Net-(J1-Pad12)*%
X29351000Y27924100D03*
%TO.P,T2,9*%
%TO.N,Net-(J1-Pad10)*%
X29351000Y26933500D03*
%TO.P,T2,10*%
%TO.N,Net-(C8-Pad1)*%
X29351000Y25942900D03*
%TO.P,T2,11*%
%TO.N,Net-(J1-Pad6)*%
X29351000Y24952300D03*
%TO.P,T2,12*%
%TO.N,Net-(J1-Pad8)*%
X29351000Y23961700D03*
%TO.P,T2,13*%
%TO.N,Net-(J3-Pad8)*%
X47149000Y23961700D03*
%TO.P,T2,14*%
%TO.N,Net-(J3-Pad7)*%
X47149000Y24952300D03*
%TO.P,T2,15*%
%TO.N,Net-(R2-Pad1)*%
X47149000Y25942900D03*
%TO.P,T2,16*%
%TO.N,Net-(J3-Pad5)*%
X47149000Y26933500D03*
%TO.P,T2,17*%
%TO.N,Net-(J3-Pad4)*%
X47149000Y27924100D03*
%TO.P,T2,18*%
%TO.N,Net-(R4-Pad1)*%
X47149000Y28914700D03*
%TO.P,T2,19*%
%TO.N,Net-(J3-Pad6)*%
X47149000Y29905300D03*
%TO.P,T2,20*%
%TO.N,Net-(J3-Pad3)*%
X47149000Y30895900D03*
%TO.P,T2,21*%
%TO.N,Net-(R6-Pad1)*%
X47149000Y31886500D03*
%TO.P,T2,22*%
%TO.N,Net-(J3-Pad2)*%
X47149000Y32877100D03*
%TO.P,T2,23*%
%TO.N,Net-(J3-Pad1)*%
X47149000Y33867700D03*
%TO.P,T2,24*%
%TO.N,Net-(R8-Pad1)*%
X47149000Y34858300D03*
%TD*%
D18*
%TO.N,GND*%
X25400000Y38100000D03*
X21880000Y57890000D03*
X10930000Y57920000D03*
X23890000Y31850000D03*
X4740000Y43340000D03*
X27940000Y43180000D03*
X10160000Y5080000D03*
X19940000Y31900000D03*
X43180000Y43180000D03*
X33020000Y30480000D03*
X15240000Y10160000D03*
X19990000Y25840000D03*
X20610000Y52384990D03*
X33020000Y40640000D03*
X33188000Y61120000D03*
X17050000Y54650000D03*
X45720000Y15240000D03*
X30480000Y5080000D03*
X20320000Y66040000D03*
X30480000Y43180000D03*
X5080000Y60960000D03*
X43180000Y45720000D03*
X24190000Y25840000D03*
X30648000Y61120000D03*
X19840000Y34760000D03*
X16200000Y57920000D03*
X17930000Y29000000D03*
X43180000Y50800000D03*
X45634000Y20480000D03*
X5080000Y10160000D03*
X40554000Y20480000D03*
X40554000Y61120000D03*
X33020000Y27940000D03*
X16010000Y38960000D03*
X27940000Y38100000D03*
X20320000Y10160000D03*
X23990000Y29000000D03*
X15154000Y17940000D03*
X33020000Y43180000D03*
X4740000Y28100000D03*
X48260000Y44450000D03*
X4740000Y30640000D03*
X7280000Y17940000D03*
X45720000Y5080000D03*
X14980000Y22890000D03*
X40640000Y66040000D03*
X35560000Y15240000D03*
X16480000Y22890000D03*
X25400000Y20320000D03*
X25400000Y60960000D03*
X43180000Y27940000D03*
X22860000Y38100000D03*
X21740000Y34810000D03*
X45380000Y61120000D03*
X48260000Y15240000D03*
X33020000Y25400000D03*
X45720000Y10160000D03*
X10160000Y10160000D03*
X17770000Y45750000D03*
X15240000Y5080000D03*
X20030000Y45790000D03*
X42840000Y61120000D03*
X20320000Y20320000D03*
X4740000Y58326000D03*
X40640000Y15240000D03*
X20610000Y54650000D03*
X43180000Y58420000D03*
X23910000Y45750000D03*
X45380000Y63406000D03*
X17880000Y34860000D03*
X45720000Y66040000D03*
X15480000Y55730000D03*
X35560000Y66040000D03*
X43180000Y33020000D03*
X35560000Y10160000D03*
X4740000Y48420000D03*
X4740000Y50960000D03*
X25400000Y15240000D03*
X4740000Y53500000D03*
X43180000Y53340000D03*
X43180000Y30480000D03*
X10160000Y15240000D03*
X30480000Y10160000D03*
X33020000Y45720000D03*
X37760000Y61120000D03*
X14520000Y57950000D03*
X24080000Y48960000D03*
X30480000Y15240000D03*
X21950000Y45750000D03*
X45720000Y36830000D03*
X9050000Y57920000D03*
X5080000Y66040000D03*
X18840000Y22890000D03*
X25400000Y5080000D03*
X25400000Y66040000D03*
X12810000Y57980000D03*
X15960000Y42920000D03*
X25830000Y45750000D03*
X4740000Y38260000D03*
X20320000Y5080000D03*
X27600000Y20480000D03*
X4740000Y20480000D03*
X10160000Y66040000D03*
X27854000Y61120000D03*
X23800000Y54730000D03*
X21790000Y31900000D03*
X20060000Y57890000D03*
X4740000Y40800000D03*
X4740000Y45880000D03*
X48260000Y21590000D03*
X17990000Y31900000D03*
X35474000Y61120000D03*
X21940000Y29000000D03*
X20890000Y22890000D03*
X45720000Y44450000D03*
X43180000Y35560000D03*
X46870000Y18770000D03*
X9820000Y17940000D03*
X4740000Y35720000D03*
X15920000Y40960000D03*
X18260000Y47100000D03*
X43180000Y25400000D03*
X48260000Y59690000D03*
X20320000Y60960000D03*
X4740000Y25560000D03*
X33020000Y22860000D03*
X30480000Y38100000D03*
X30140000Y20480000D03*
X33020000Y33020000D03*
X43094000Y20480000D03*
X4740000Y55786000D03*
X15980000Y34860000D03*
X30480000Y66040000D03*
X33020000Y55880000D03*
X33020000Y35560000D03*
X43180000Y48260000D03*
X33020000Y48260000D03*
X33020000Y50800000D03*
X24650000Y22890000D03*
X35220000Y20480000D03*
X23740000Y34860000D03*
X43180000Y22860000D03*
X40640000Y10160000D03*
X23770000Y57890000D03*
X15154000Y20480000D03*
X43180000Y40640000D03*
X17940000Y57920000D03*
X4740000Y17940000D03*
X20610000Y56340000D03*
X24090000Y51800000D03*
X12360000Y17940000D03*
X4740000Y33180000D03*
X33020000Y53340000D03*
X4740000Y22766000D03*
X15240000Y66040000D03*
X43180000Y55880000D03*
X25400000Y10160000D03*
X48260000Y36830000D03*
X40640000Y5080000D03*
X15960000Y37040000D03*
X22860000Y43180000D03*
X15240000Y60960000D03*
X20320000Y15240000D03*
X17990000Y25840000D03*
X37760000Y20480000D03*
X22840000Y22890000D03*
X35560000Y5080000D03*
X5080000Y15240000D03*
X19790000Y29000000D03*
X18890000Y54650000D03*
X20320000Y38100000D03*
X20320000Y43180000D03*
X33020000Y38100000D03*
X15920000Y45640000D03*
X15240000Y15240000D03*
X15890000Y47020000D03*
X32680000Y20480000D03*
X22090000Y25890000D03*
X25400000Y43180000D03*
X43180000Y38100000D03*
X10160000Y60960000D03*
X33020000Y58420000D03*
%TO.N,Earth*%
X53340000Y10160000D03*
X63500000Y10160000D03*
X60960000Y35052000D03*
X58166000Y45720000D03*
X58420000Y10160000D03*
X67910000Y18680000D03*
X58420000Y71120000D03*
X61468000Y57912000D03*
X60960000Y45720000D03*
X60452000Y28956000D03*
X55880000Y28956000D03*
X55880000Y22860000D03*
X70780000Y40800000D03*
X60706000Y25908000D03*
X68580000Y66040000D03*
X60558000Y18640000D03*
X63500000Y15240000D03*
X58420000Y28956000D03*
X60440000Y63480000D03*
X60960000Y22860000D03*
X53086000Y40640000D03*
X55880000Y57912000D03*
X58420000Y66040000D03*
X60960000Y32004000D03*
X55880000Y20320000D03*
X53086000Y45720000D03*
X58420000Y32004000D03*
X68580000Y15240000D03*
X58420000Y25908000D03*
X58079994Y40800000D03*
X53340000Y22860000D03*
X55626000Y52070000D03*
X55626000Y49022000D03*
X53340000Y71120000D03*
X55880000Y35052000D03*
X58674000Y57912000D03*
X70830000Y18680000D03*
X55880000Y32004000D03*
X63500000Y57912000D03*
X61214000Y54864000D03*
X63500000Y66040000D03*
X60960000Y49022000D03*
X58674000Y49022000D03*
X55880000Y25908000D03*
X63500000Y5080000D03*
X68240000Y40800000D03*
X58420000Y5080000D03*
X53340000Y5080000D03*
X58420000Y22860000D03*
X58420000Y35052000D03*
X56630000Y63480000D03*
X55880000Y54864000D03*
X53340000Y66040000D03*
X63500000Y71120000D03*
X58420000Y15240000D03*
X68580000Y10160000D03*
X55626000Y45720000D03*
X55539998Y40800000D03*
X65700000Y40800000D03*
X58674000Y52070000D03*
X56748000Y18640000D03*
X58674000Y54864000D03*
X53086000Y42926000D03*
X53340000Y15240000D03*
X60620000Y40800000D03*
X63500000Y35052000D03*
X63159998Y40800000D03*
%TO.N,Net-(C11-Pad2)*%
X52530000Y48920000D03*
X52530000Y54900000D03*
X52490000Y58760000D03*
X52530000Y57860000D03*
X52530000Y51880000D03*
%TO.N,Net-(C12-Pad2)*%
X52770000Y25900000D03*
X52770000Y31970000D03*
X52030000Y35970000D03*
X52730000Y34860000D03*
X52770000Y28910000D03*
%TO.N,Net-(J1-Pad5)*%
X16843745Y31150011D03*
X16670002Y29424990D03*
%TO.N,Net-(J1-Pad6)*%
X15880000Y24140000D03*
%TO.N,Net-(J1-Pad8)*%
X17390000Y24130000D03*
%TO.N,Net-(J1-Pad12)*%
X17537868Y28069891D03*
%TO.N,Net-(J1-Pad23)*%
X21960000Y56580000D03*
X21430000Y50190000D03*
%TO.N,Net-(J1-Pad24)*%
X22760000Y50300000D03*
X22800000Y48637310D03*
%TO.N,Net-(J1-Pad25)*%
X22190000Y52330000D03*
X22880000Y55850000D03*
%TO.N,Net-(J1-Pad26)*%
X16940000Y48775010D03*
X14800000Y49420000D03*
%TO.N,Net-(J1-Pad30)*%
X14800000Y54090000D03*
X21040000Y47240000D03*
%TO.N,Net-(J2-Pad6)*%
X61450000Y53000000D03*
%TO.N,Net-(J3-Pad6)*%
X61750000Y29910000D03*
%TO.N,Net-(J1-Pad10)*%
X16730000Y27310000D03*
%TO.N,Net-(J1-Pad28)*%
X19740000Y47200000D03*
X18590000Y51914990D03*
%TD*%
%TO.N,Net-(C1-Pad1)*%
D19*
X29329300Y57820000D02*
X29331000Y57818300D01*
X26445000Y57820000D02*
X29329300Y57820000D01*
%TO.N,GND*%
X24190000Y25840000D02*
X25655000Y25840000D01*
X4740000Y17940000D02*
X4740000Y15580000D01*
X15980000Y37020000D02*
X15960000Y37040000D01*
X16480000Y22890000D02*
X18840000Y22890000D01*
X23740000Y34860000D02*
X21790000Y34860000D01*
X4740000Y55786000D02*
X4740000Y53500000D01*
X30480000Y66040000D02*
X35560000Y66040000D01*
X16010000Y38960000D02*
X16010000Y40870000D01*
X45380000Y63406000D02*
X45380000Y61120000D01*
X4740000Y40800000D02*
X4740000Y38260000D01*
X18260000Y47100000D02*
X15970000Y47100000D01*
X20690000Y54730000D02*
X20610000Y54650000D01*
X24080000Y48960000D02*
X25495000Y48960000D01*
X10160000Y66040000D02*
X15240000Y66040000D01*
X30480000Y15240000D02*
X35560000Y15240000D01*
X23770000Y57890000D02*
X25405000Y57890000D01*
X24190000Y25840000D02*
X22140000Y25840000D01*
X10160000Y5080000D02*
X15240000Y5080000D01*
X30480000Y10160000D02*
X25400000Y10160000D01*
X20320000Y5080000D02*
X25400000Y5080000D01*
X25495000Y34860000D02*
X25525000Y34890000D01*
X25490000Y31850000D02*
X25540000Y31900000D01*
X15240000Y60960000D02*
X20320000Y60960000D01*
X23800000Y54730000D02*
X25345000Y54730000D01*
X24555685Y29000000D02*
X24705685Y28850000D01*
X48260000Y15240000D02*
X48260000Y17780000D01*
X23800000Y54730000D02*
X20690000Y54730000D01*
X10990000Y57980000D02*
X10930000Y57920000D01*
X20320000Y15240000D02*
X25400000Y15240000D01*
X40640000Y10160000D02*
X35560000Y10160000D01*
X4740000Y20480000D02*
X4740000Y17940000D01*
X16560000Y54650000D02*
X15480000Y55730000D01*
X17980000Y34760000D02*
X17880000Y34860000D01*
X15980000Y34860000D02*
X15980000Y37020000D01*
X20060000Y57890000D02*
X17970000Y57890000D01*
X21840000Y31850000D02*
X21790000Y31900000D01*
X20610000Y57340000D02*
X20060000Y57890000D01*
X25495000Y48960000D02*
X25525000Y48930000D01*
X14860000Y22770000D02*
X14980000Y22890000D01*
X4740000Y35720000D02*
X4740000Y33180000D01*
X19990000Y45750000D02*
X20030000Y45790000D01*
X15970000Y47100000D02*
X15890000Y47020000D01*
X35474000Y61120000D02*
X33188000Y61120000D01*
X25655000Y25840000D02*
X25675000Y25860000D01*
X9840000Y22770000D02*
X12380000Y22770000D01*
X12380000Y22770000D02*
X14860000Y22770000D01*
X23890000Y31850000D02*
X21840000Y31850000D01*
X37760000Y20480000D02*
X35220000Y20480000D01*
X30648000Y61120000D02*
X27854000Y61120000D01*
X40640000Y5080000D02*
X45720000Y5080000D01*
X4740000Y45880000D02*
X4740000Y43340000D01*
X45720000Y15240000D02*
X45720000Y10160000D01*
X4740000Y50960000D02*
X4740000Y48420000D01*
X25405000Y57890000D02*
X25475000Y57820000D01*
X42840000Y61120000D02*
X40554000Y61120000D01*
X5080000Y60960000D02*
X5080000Y66040000D01*
X27600000Y20480000D02*
X25190000Y22890000D01*
X17970000Y57890000D02*
X17940000Y57920000D01*
X23990000Y29000000D02*
X24555685Y29000000D01*
X9840000Y45630000D02*
X12380000Y45630000D01*
X17930000Y29000000D02*
X19790000Y29000000D01*
X20610000Y54650000D02*
X18890000Y54650000D01*
X43094000Y20480000D02*
X40554000Y20480000D01*
X12380000Y45630000D02*
X15910000Y45630000D01*
X20610000Y56340000D02*
X20610000Y57340000D01*
X25345000Y54730000D02*
X25495000Y54880000D01*
X12810000Y57980000D02*
X10990000Y57980000D01*
X23740000Y34860000D02*
X25495000Y34860000D01*
X40640000Y66040000D02*
X45720000Y66040000D01*
X21790000Y34860000D02*
X21740000Y34810000D01*
X25190000Y22890000D02*
X24650000Y22890000D01*
X20320000Y66040000D02*
X25400000Y66040000D01*
X22140000Y25840000D02*
X22090000Y25890000D01*
X24090000Y51800000D02*
X25435000Y51800000D01*
X30480000Y5080000D02*
X35560000Y5080000D01*
X4740000Y30640000D02*
X4740000Y28100000D01*
X5146000Y57920000D02*
X4740000Y58326000D01*
X40640000Y15240000D02*
X45720000Y15240000D01*
X5080000Y60960000D02*
X10160000Y60960000D01*
X20890000Y22890000D02*
X22840000Y22890000D01*
X25435000Y51800000D02*
X25495000Y51860000D01*
X15960000Y45600000D02*
X15920000Y45640000D01*
X45380000Y63406000D02*
X48788500Y63406000D01*
X7280000Y17940000D02*
X9820000Y17940000D01*
X4740000Y15580000D02*
X5080000Y15240000D01*
X16200000Y57920000D02*
X14550000Y57920000D01*
X25400000Y60960000D02*
X27694000Y60960000D01*
X10160000Y10160000D02*
X5080000Y10160000D01*
X48260000Y17780000D02*
X47000000Y18640000D01*
X17050000Y54650000D02*
X16560000Y54650000D01*
X9050000Y57920000D02*
X5146000Y57920000D01*
X17770000Y45750000D02*
X19990000Y45750000D01*
X48862500Y18640000D02*
X48260000Y17780000D01*
X15154000Y17940000D02*
X15154000Y20480000D01*
X12360000Y17940000D02*
X15154000Y17940000D01*
X19990000Y25840000D02*
X17990000Y25840000D01*
X15910000Y45630000D02*
X15920000Y45640000D01*
X24735685Y28880000D02*
X25555000Y28880000D01*
X16010000Y40870000D02*
X15920000Y40960000D01*
X19790000Y29000000D02*
X21940000Y29000000D01*
X4740000Y25560000D02*
X4740000Y22766000D01*
X48788500Y63406000D02*
X48862500Y63480000D01*
X23770000Y57890000D02*
X21880000Y57890000D01*
X10160000Y15240000D02*
X15240000Y15240000D01*
X37760000Y61120000D02*
X35474000Y61120000D01*
X15960000Y42920000D02*
X15960000Y45600000D01*
X32680000Y20480000D02*
X30140000Y20480000D01*
X27694000Y60960000D02*
X27854000Y61120000D01*
X19840000Y34760000D02*
X17980000Y34760000D01*
X24705685Y28850000D02*
X24735685Y28880000D01*
X20320000Y10160000D02*
X15240000Y10160000D01*
X20320000Y20320000D02*
X25400000Y20320000D01*
X47000000Y18640000D02*
X46870000Y18770000D01*
X23890000Y31850000D02*
X25490000Y31850000D01*
X21950000Y45750000D02*
X23910000Y45750000D01*
X14550000Y57920000D02*
X14520000Y57950000D01*
%TO.N,Net-(C2-Pad1)*%
X29319300Y34890000D02*
X29351000Y34858300D01*
X26495000Y34890000D02*
X29319300Y34890000D01*
%TO.N,Net-(C3-Pad1)*%
X26465000Y54880000D02*
X29297500Y54880000D01*
X29297500Y54880000D02*
X29331000Y54846500D01*
%TO.N,Net-(C4-Pad1)*%
X26510000Y31900000D02*
X29337500Y31900000D01*
X29337500Y31900000D02*
X29351000Y31886500D01*
%TO.N,Net-(C5-Pad1)*%
X26465000Y51860000D02*
X29316300Y51860000D01*
X29316300Y51860000D02*
X29331000Y51874700D01*
%TO.N,Net-(C6-Pad1)*%
X26525000Y28880000D02*
X29316300Y28880000D01*
X29316300Y28880000D02*
X29351000Y28914700D01*
%TO.N,Net-(C7-Pad1)*%
X26495000Y48930000D02*
X29303900Y48930000D01*
X29303900Y48930000D02*
X29331000Y48902900D01*
%TO.N,Net-(C8-Pad1)*%
X26645000Y25860000D02*
X29268100Y25860000D01*
X29268100Y25860000D02*
X29351000Y25942900D01*
%TO.N,Earth*%
X56630000Y63480000D02*
X60440000Y63480000D01*
X60440000Y63480000D02*
X61563000Y63480000D01*
X56748000Y18640000D02*
X60558000Y18640000D01*
X60558000Y18640000D02*
X61635000Y18640000D01*
X65512399Y61613399D02*
X70540601Y61613399D01*
X53137500Y63480000D02*
X53137500Y65837500D01*
X70780000Y41365685D02*
X70780000Y40800000D01*
X70780000Y40800000D02*
X70780000Y18730000D01*
X64176000Y40800000D02*
X65700000Y40800000D01*
X64176000Y40800000D02*
X64430000Y40800000D01*
X58079994Y40800000D02*
X60620000Y40800000D01*
X55880000Y28956000D02*
X58420000Y28956000D01*
X61214000Y54864000D02*
X58674000Y54864000D01*
X63415000Y61628000D02*
X64471000Y60572000D01*
X58420000Y35052000D02*
X60960000Y35052000D01*
X54507500Y18640000D02*
X56748000Y18640000D01*
X53340000Y5080000D02*
X58420000Y5080000D01*
X55022000Y58770000D02*
X55880000Y57912000D01*
X68580000Y10160000D02*
X63500000Y10160000D01*
X61563000Y63480000D02*
X63415000Y61628000D01*
X54525000Y58770000D02*
X55022000Y58770000D01*
X64176000Y40800000D02*
X63159998Y40800000D01*
X53086000Y42926000D02*
X53086000Y40640000D01*
X64471000Y37732000D02*
X64381000Y37642000D01*
X53340000Y15240000D02*
X58420000Y15240000D01*
X63500000Y5080000D02*
X68580000Y10160000D01*
X63500000Y15240000D02*
X68580000Y15240000D01*
X55880000Y25908000D02*
X58420000Y25908000D01*
X54200000Y18640000D02*
X53137500Y18640000D01*
X54525000Y63272500D02*
X54317500Y63480000D01*
X61468000Y57912000D02*
X63500000Y57912000D01*
X70540601Y61613399D02*
X70780000Y61374000D01*
X58674000Y57912000D02*
X55880000Y57912000D01*
X54525000Y58770000D02*
X54525000Y63272500D01*
X60960000Y45720000D02*
X58166000Y45720000D01*
X70780000Y61374000D02*
X70780000Y41365685D01*
X68580000Y10160000D02*
X71120000Y10160000D01*
X64471000Y44316000D02*
X64430000Y40800000D01*
X70780000Y18730000D02*
X70830000Y18680000D01*
X53137500Y18640000D02*
X54507500Y18640000D01*
X63500000Y35052000D02*
X64381000Y35933000D01*
X55880000Y20320000D02*
X54200000Y18640000D01*
X54125000Y39385002D02*
X55539998Y40800000D01*
X67087000Y18680000D02*
X64381000Y21386000D01*
X64381000Y35933000D02*
X64381000Y37642000D01*
X53137500Y65837500D02*
X53340000Y66040000D01*
X64430000Y40800000D02*
X64471000Y37732000D01*
X60960000Y22860000D02*
X58420000Y22860000D01*
X55626000Y45720000D02*
X53086000Y45720000D01*
X61635000Y18640000D02*
X64381000Y21386000D01*
X67910000Y18680000D02*
X67087000Y18680000D01*
X54932000Y36000000D02*
X55880000Y35052000D01*
X54317500Y63480000D02*
X56630000Y63480000D01*
X58420000Y10160000D02*
X53340000Y10160000D01*
X55880000Y32004000D02*
X58420000Y32004000D01*
X55626000Y49022000D02*
X58674000Y49022000D01*
X54125000Y36000000D02*
X54932000Y36000000D01*
X54317500Y63480000D02*
X53137500Y63480000D01*
X55880000Y22860000D02*
X53340000Y22860000D01*
X58420000Y71120000D02*
X53340000Y71120000D01*
X68580000Y66040000D02*
X63500000Y71120000D01*
X54125000Y36000000D02*
X54125000Y39385002D01*
X64471000Y60572000D02*
X65512399Y61613399D01*
X58420000Y66040000D02*
X63500000Y66040000D01*
%TO.N,Net-(C11-Pad2)*%
X51585000Y57860000D02*
X51565000Y57840000D01*
X52530000Y54900000D02*
X51555000Y54900000D01*
X52530000Y51880000D02*
X51520000Y51880000D01*
X52530000Y57860000D02*
X51585000Y57860000D01*
X51520000Y51880000D02*
X51500000Y51860000D01*
X51555000Y54900000D02*
X51525000Y54870000D01*
X52500000Y58770000D02*
X52490000Y58760000D01*
X53555000Y58770000D02*
X52500000Y58770000D01*
X52530000Y48920000D02*
X51565000Y48920000D01*
X51565000Y48920000D02*
X51545000Y48940000D01*
%TO.N,Net-(C12-Pad2)*%
X52770000Y25900000D02*
X51635000Y25900000D01*
X52770000Y28910000D02*
X51590000Y28910000D01*
X52730000Y34860000D02*
X51525000Y34860000D01*
X51590000Y28910000D02*
X51570000Y28890000D01*
X52770000Y31970000D02*
X51615000Y31970000D01*
X51525000Y34860000D02*
X51505000Y34880000D01*
X52060000Y36000000D02*
X52030000Y35970000D01*
X51615000Y31970000D02*
X51545000Y31900000D01*
X51635000Y25900000D02*
X51625000Y25890000D01*
X53155000Y36000000D02*
X52060000Y36000000D01*
%TO.N,Net-(J1-Pad5)*%
X17097856Y30895900D02*
X16843745Y31150011D01*
X12380000Y25310000D02*
X16494990Y29424990D01*
X16494990Y29424990D02*
X16670002Y29424990D01*
X29351000Y30895900D02*
X17097856Y30895900D01*
%TO.N,Net-(J1-Pad6)*%
X16692300Y24952300D02*
X29351000Y24952300D01*
X15880000Y24140000D02*
X16692300Y24952300D01*
%TO.N,Net-(J1-Pad7)*%
X28086000Y29905300D02*
X29351000Y29905300D01*
X14680000Y30150000D02*
X27841300Y30150000D01*
X12380000Y27850000D02*
X14680000Y30150000D01*
X27841300Y30150000D02*
X28086000Y29905300D01*
%TO.N,Net-(J1-Pad8)*%
X29182700Y24130000D02*
X29351000Y23961700D01*
X17390000Y24130000D02*
X29182700Y24130000D01*
%TO.N,Net-(J1-Pad11)*%
X16107700Y33867700D02*
X29351000Y33867700D01*
X15170000Y32930000D02*
X16107700Y33867700D01*
X12380000Y32930000D02*
X15170000Y32930000D01*
%TO.N,Net-(J1-Pad12)*%
X17683659Y27924100D02*
X17537868Y28069891D01*
X29351000Y27924100D02*
X17683659Y27924100D01*
%TO.N,Net-(J1-Pad23)*%
X27907700Y56827700D02*
X29331000Y56827700D01*
X16830000Y50190000D02*
X20864315Y50190000D01*
X12380000Y48170000D02*
X14810000Y48170000D01*
X27660000Y56580000D02*
X27907700Y56827700D01*
X21960000Y56580000D02*
X27660000Y56580000D01*
X14810000Y48170000D02*
X16830000Y50190000D01*
X20864315Y50190000D02*
X21430000Y50190000D01*
%TO.N,Net-(J1-Pad24)*%
X11120000Y46890000D02*
X14686996Y46890000D01*
X9840000Y48170000D02*
X11120000Y46890000D01*
X22234315Y48637310D02*
X22800000Y48637310D01*
X23150000Y50690000D02*
X22760000Y50300000D01*
X14686996Y46890000D02*
X15846996Y48050000D01*
X15846996Y48050000D02*
X21647005Y48050000D01*
X27680000Y50690000D02*
X23150000Y50690000D01*
X29331000Y50884100D02*
X27874100Y50884100D01*
X21647005Y48050000D02*
X22234315Y48637310D01*
X27874100Y50884100D02*
X27680000Y50690000D01*
%TO.N,Net-(J1-Pad25)*%
X27952900Y55837100D02*
X29331000Y55837100D01*
X22880000Y55850000D02*
X23060000Y56030000D01*
X12380000Y50710000D02*
X20570000Y50710000D01*
X27760000Y56030000D02*
X27952900Y55837100D01*
X20570000Y50710000D02*
X21790001Y51930001D01*
X23060000Y56030000D02*
X27760000Y56030000D01*
X21790001Y51930001D02*
X22190000Y52330000D01*
%TO.N,Net-(J1-Pad26)*%
X29331000Y49893500D02*
X27856500Y49893500D01*
X23710000Y50140000D02*
X22932312Y49362312D01*
X22175314Y49362312D02*
X21588012Y48775010D01*
X21588012Y48775010D02*
X17505685Y48775010D01*
X27610000Y50140000D02*
X23710000Y50140000D01*
X11130000Y49420000D02*
X14800000Y49420000D01*
X17505685Y48775010D02*
X16940000Y48775010D01*
X9840000Y50710000D02*
X11130000Y49420000D01*
X22932312Y49362312D02*
X22175314Y49362312D01*
X27856500Y49893500D02*
X27610000Y50140000D01*
X29184500Y50040000D02*
X29331000Y49893500D01*
%TO.N,Net-(J1-Pad29)*%
X16323002Y53640000D02*
X27660000Y53640000D01*
X27660000Y53640000D02*
X27875900Y53855900D01*
X29065100Y53590000D02*
X29331000Y53855900D01*
X27875900Y53855900D02*
X29331000Y53855900D01*
X12380000Y55790000D02*
X14173002Y55790000D01*
X14173002Y55790000D02*
X16323002Y53640000D01*
%TO.N,Net-(J1-Pad30)*%
X21700000Y47190000D02*
X21090000Y47190000D01*
X28032300Y47912300D02*
X27810000Y47690000D01*
X27810000Y47690000D02*
X22200000Y47690000D01*
X10689999Y54940001D02*
X9840000Y55790000D01*
X11140001Y54489999D02*
X10689999Y54940001D01*
X14400001Y54489999D02*
X11140001Y54489999D01*
X22200000Y47690000D02*
X21700000Y47190000D01*
X29331000Y47912300D02*
X28032300Y47912300D01*
X21090000Y47190000D02*
X21040000Y47240000D01*
X14800000Y54090000D02*
X14400001Y54489999D01*
%TO.N,Net-(J2-Pad8)*%
X47129000Y46921700D02*
X61615700Y46921700D01*
X61615700Y46921700D02*
X63582000Y48888000D01*
%TO.N,Net-(J2-Pad7)*%
X63157218Y49904000D02*
X64372172Y49904000D01*
X61165518Y47912300D02*
X63157218Y49904000D01*
X64372172Y49904000D02*
X65360000Y49904000D01*
X47129000Y47912300D02*
X61165518Y47912300D01*
%TO.N,Net-(J2-Pad6)*%
X61450000Y53000000D02*
X47263700Y53000000D01*
X47263700Y53000000D02*
X47129000Y52865300D01*
%TO.N,Net-(J2-Pad5)*%
X64442883Y51936000D02*
X65360000Y51936000D01*
X63157218Y51936000D02*
X64442883Y51936000D01*
X61114718Y49893500D02*
X63157218Y51936000D01*
X47129000Y49893500D02*
X61114718Y49893500D01*
%TO.N,Net-(J2-Pad4)*%
X60544100Y50884100D02*
X62612000Y52952000D01*
X62612000Y52952000D02*
X63582000Y52952000D01*
X47129000Y50884100D02*
X60544100Y50884100D01*
%TO.N,Net-(J2-Pad3)*%
X47129000Y53855900D02*
X48394000Y53855900D01*
X64372172Y53968000D02*
X65360000Y53968000D01*
X48506100Y53968000D02*
X64372172Y53968000D01*
X48394000Y53855900D02*
X48506100Y53968000D01*
%TO.N,Net-(J2-Pad2)*%
X47129000Y55837100D02*
X62728900Y55837100D01*
X62728900Y55837100D02*
X63582000Y54984000D01*
%TO.N,Net-(J2-Pad1)*%
X64532300Y56827700D02*
X65360000Y56000000D01*
X47129000Y56827700D02*
X64532300Y56827700D01*
%TO.N,Net-(J3-Pad1)*%
X47149000Y33867700D02*
X64472300Y33867700D01*
X64472300Y33867700D02*
X65270000Y33070000D01*
%TO.N,Net-(J3-Pad2)*%
X62668900Y32877100D02*
X63492000Y32054000D01*
X47149000Y32877100D02*
X62668900Y32877100D01*
%TO.N,Net-(J3-Pad3)*%
X65262000Y31030000D02*
X65270000Y31038000D01*
X63059218Y31030000D02*
X65262000Y31030000D01*
X62925118Y30895900D02*
X63059218Y31030000D01*
X47149000Y30895900D02*
X62925118Y30895900D01*
%TO.N,Net-(J3-Pad4)*%
X63162000Y30022000D02*
X63492000Y30022000D01*
X61064100Y27924100D02*
X63162000Y30022000D01*
X47149000Y27924100D02*
X61064100Y27924100D01*
%TO.N,Net-(J3-Pad5)*%
X63067218Y29006000D02*
X64352883Y29006000D01*
X64352883Y29006000D02*
X65270000Y29006000D01*
X47149000Y26933500D02*
X60994718Y26933500D01*
X60994718Y26933500D02*
X63067218Y29006000D01*
%TO.N,Net-(J3-Pad6)*%
X61745300Y29905300D02*
X61750000Y29910000D01*
X47149000Y29905300D02*
X61745300Y29905300D01*
%TO.N,Net-(J3-Pad7)*%
X63067218Y26974000D02*
X64352883Y26974000D01*
X61045518Y24952300D02*
X63067218Y26974000D01*
X47149000Y24952300D02*
X61045518Y24952300D01*
X64352883Y26974000D02*
X65270000Y26974000D01*
%TO.N,Net-(J3-Pad8)*%
X61495700Y23961700D02*
X63492000Y25958000D01*
X47149000Y23961700D02*
X61495700Y23961700D01*
%TO.N,Net-(R1-Pad1)*%
X50537900Y48902900D02*
X50575000Y48940000D01*
X47129000Y48902900D02*
X50537900Y48902900D01*
%TO.N,Net-(R2-Pad1)*%
X47149000Y25942900D02*
X50602100Y25942900D01*
X50602100Y25942900D02*
X50655000Y25890000D01*
%TO.N,Net-(R3-Pad1)*%
X50515300Y51874700D02*
X50530000Y51860000D01*
X47129000Y51874700D02*
X50515300Y51874700D01*
%TO.N,Net-(R4-Pad1)*%
X47149000Y28914700D02*
X50575300Y28914700D01*
X50575300Y28914700D02*
X50600000Y28890000D01*
%TO.N,Net-(R5-Pad1)*%
X50531500Y54846500D02*
X50555000Y54870000D01*
X47129000Y54846500D02*
X50531500Y54846500D01*
%TO.N,Net-(R6-Pad1)*%
X50561500Y31886500D02*
X50575000Y31900000D01*
X47149000Y31886500D02*
X50561500Y31886500D01*
%TO.N,Net-(R7-Pad1)*%
X50573300Y57818300D02*
X50595000Y57840000D01*
X47129000Y57818300D02*
X50573300Y57818300D01*
%TO.N,Net-(R8-Pad1)*%
X47149000Y34858300D02*
X50513300Y34858300D01*
X50513300Y34858300D02*
X50535000Y34880000D01*
%TO.N,Net-(J1-Pad9)*%
X13875800Y30390000D02*
X12380000Y30390000D01*
X29351000Y32877100D02*
X16362900Y32877100D01*
X16362900Y32877100D02*
X13875800Y30390000D01*
%TO.N,Net-(J1-Pad10)*%
X17060000Y26980000D02*
X16730000Y27310000D01*
X29304500Y26980000D02*
X17060000Y26980000D01*
X29351000Y26933500D02*
X29304500Y26980000D01*
%TO.N,Net-(J1-Pad27)*%
X28066000Y52865300D02*
X29331000Y52865300D01*
X13722081Y53110000D02*
X27630000Y53110000D01*
X27874700Y52865300D02*
X29331000Y52865300D01*
X27630000Y53110000D02*
X27874700Y52865300D01*
X12380000Y53250000D02*
X13582081Y53250000D01*
X13582081Y53250000D02*
X13722081Y53110000D01*
%TO.N,Net-(J1-Pad28)*%
X15760000Y52210000D02*
X18300000Y52210000D01*
X27958300Y46921700D02*
X27810000Y47070000D01*
X15520000Y51970000D02*
X15760000Y52210000D01*
X29331000Y46921700D02*
X27958300Y46921700D01*
X20425002Y46514998D02*
X20139999Y46800001D01*
X11120000Y51970000D02*
X15520000Y51970000D01*
X21661409Y46514998D02*
X20425002Y46514998D01*
X27810000Y47070000D02*
X22216411Y47070000D01*
X18300000Y52210000D02*
X18590000Y51920000D01*
X20139999Y46800001D02*
X19740000Y47200000D01*
X9840000Y53250000D02*
X11120000Y51970000D01*
X19740000Y47200000D02*
X19740000Y47080000D01*
X18590000Y51920000D02*
X18590000Y51914990D01*
X29302700Y46950000D02*
X29331000Y46921700D01*
X22216411Y47070000D02*
X21661409Y46514998D01*
%TD*%
%TA.AperFunction,Conductor*%
%TO.N,GND*%
G36*
X11834336Y23003998D02*
G01*
X11880829Y22950342D01*
X11890933Y22880068D01*
X11887921Y22865387D01*
X11880000Y22835828D01*
X11880000Y22704173D01*
X11887921Y22674613D01*
X11886233Y22603636D01*
X11846439Y22544840D01*
X11781175Y22516891D01*
X11766215Y22516000D01*
X10453785Y22516000D01*
X10385664Y22536002D01*
X10339171Y22589658D01*
X10329067Y22659932D01*
X10332079Y22674613D01*
X10332185Y22675011D01*
X10340000Y22704174D01*
X10340000Y22835826D01*
X10332079Y22865387D01*
X10333767Y22936364D01*
X10373561Y22995160D01*
X10438825Y23023109D01*
X10453785Y23024000D01*
X11766215Y23024000D01*
X11834336Y23003998D01*
G37*
%TD.AperFunction*%
%TA.AperFunction,Conductor*%
G36*
X24691297Y29515070D02*
G01*
X24691312Y29515352D01*
X24695640Y29515123D01*
X24703909Y29513257D01*
X24716835Y29511398D01*
X24720146Y29510426D01*
X24719915Y29509643D01*
X24737025Y29505780D01*
X24739645Y29504699D01*
X24739649Y29504698D01*
X24742718Y29503432D01*
X24742057Y29501832D01*
X24748776Y29497003D01*
X24763212Y29492724D01*
X24777026Y29476700D01*
X24794204Y29464354D01*
X24800533Y29449433D01*
X24809569Y29438951D01*
X24817363Y29409755D01*
X24819532Y29404640D01*
X24819560Y29404643D01*
X24819574Y29404541D01*
X24819586Y29404514D01*
X24820034Y29401341D01*
X24819883Y29400314D01*
X24820245Y29398959D01*
X24820260Y29398803D01*
X24819653Y29398745D01*
X24819508Y29397749D01*
X24811746Y29335668D01*
X24811340Y29334684D01*
X24809836Y29331670D01*
X24809752Y29331093D01*
X24809276Y29330548D01*
X24803322Y29318608D01*
X24801131Y29314904D01*
X24801129Y29314899D01*
X24754922Y29155857D01*
X24754654Y29153973D01*
X24754535Y29150924D01*
X24753924Y29143153D01*
X24753204Y29134000D01*
X25410885Y29134000D01*
X25446377Y29128898D01*
X25461621Y29124422D01*
X25521346Y29086040D01*
X25521358Y29086026D01*
X25522563Y29084635D01*
X25550446Y29028928D01*
X25552118Y29021245D01*
X25555000Y28994452D01*
X25555000Y28770116D01*
X25554999Y28770114D01*
X25555000Y28770113D01*
X25549895Y28734615D01*
X25545420Y28719376D01*
X25507035Y28659650D01*
X25507025Y28659642D01*
X25505634Y28658437D01*
X25449931Y28630554D01*
X25442249Y28628882D01*
X25415452Y28626000D01*
X24753204Y28626000D01*
X24753201Y28625999D01*
X24739690Y28611384D01*
X24739689Y28611380D01*
X24711845Y28588777D01*
X24689602Y28575471D01*
X24624918Y28557600D01*
X18390098Y28557600D01*
X18354600Y28562704D01*
X18348875Y28564385D01*
X18334144Y28568711D01*
X18281346Y28599720D01*
X18276468Y28604512D01*
X18260010Y28624386D01*
X18243546Y28649026D01*
X18117003Y28775569D01*
X17968204Y28874993D01*
X17802868Y28943478D01*
X17727198Y28958530D01*
X17705240Y28962898D01*
X17648815Y28974122D01*
X17615000Y28986051D01*
X17602504Y28992588D01*
X17589466Y29005168D01*
X17585906Y29007030D01*
X17583918Y29010521D01*
X17551414Y29041883D01*
X17535085Y29110972D01*
X17535684Y29122157D01*
X17545091Y29163619D01*
X17552359Y29181170D01*
X17551368Y29184335D01*
X17553768Y29211166D01*
X17578502Y29335511D01*
X17578502Y29372385D01*
X17583605Y29407879D01*
X17588079Y29423118D01*
X17626458Y29482844D01*
X17627867Y29484064D01*
X17683588Y29511951D01*
X17691272Y29513622D01*
X17718050Y29516500D01*
X24681343Y29516500D01*
X24691297Y29515070D01*
G37*
%TD.AperFunction*%
%TA.AperFunction,Conductor*%
G36*
X24610304Y32240801D02*
G01*
X24611526Y32240840D01*
X24618059Y32240114D01*
X24621781Y32239151D01*
X24626334Y32238496D01*
X24633108Y32236507D01*
X24633029Y32236240D01*
X24652728Y32231141D01*
X24654671Y32230329D01*
X24668762Y32218900D01*
X24683554Y32212711D01*
X24692625Y32199546D01*
X24703343Y32190853D01*
X24704544Y32191893D01*
X24712803Y32182361D01*
X24714878Y32179232D01*
X24723585Y32169814D01*
X24723586Y32169812D01*
X24738204Y32154000D01*
X25395885Y32154000D01*
X25431377Y32148898D01*
X25446621Y32144422D01*
X25506346Y32106040D01*
X25506358Y32106026D01*
X25507563Y32104635D01*
X25535446Y32048928D01*
X25537118Y32041245D01*
X25540000Y32014452D01*
X25540000Y31790116D01*
X25539999Y31790114D01*
X25540000Y31790113D01*
X25534895Y31754615D01*
X25530420Y31739376D01*
X25492035Y31679650D01*
X25492025Y31679642D01*
X25490634Y31678437D01*
X25434931Y31650554D01*
X25427249Y31648882D01*
X25400452Y31646000D01*
X24738204Y31646000D01*
X24730998Y31638208D01*
X24730996Y31638205D01*
X24729790Y31632460D01*
X24722164Y31618257D01*
X24719360Y31602381D01*
X24705716Y31587620D01*
X24696208Y31569908D01*
X24681518Y31561439D01*
X24671171Y31550243D01*
X24638088Y31536398D01*
X24630942Y31534547D01*
X24626623Y31533428D01*
X24595021Y31529400D01*
X17768352Y31529400D01*
X17732854Y31534504D01*
X17712398Y31540511D01*
X17659599Y31571521D01*
X17654728Y31576306D01*
X17638260Y31596191D01*
X17629611Y31609135D01*
X17610187Y31638206D01*
X17549423Y31729146D01*
X17422880Y31855689D01*
X17422878Y31855691D01*
X17422875Y31855693D01*
X17352312Y31902842D01*
X17352304Y31902847D01*
X17274081Y31955113D01*
X17274082Y31955113D01*
X17274080Y31955114D01*
X17274076Y31955116D01*
X17174252Y31996465D01*
X17169155Y31999145D01*
X17165699Y32002494D01*
X17148728Y32012564D01*
X17141612Y32018299D01*
X17125623Y32041330D01*
X17118170Y32048552D01*
X17116929Y32053853D01*
X17101124Y32076619D01*
X17098593Y32147570D01*
X17134824Y32208627D01*
X17191723Y32239031D01*
X17196793Y32240230D01*
X17225744Y32243600D01*
X24590836Y32243600D01*
X24610304Y32240801D01*
G37*
%TD.AperFunction*%
%TA.AperFunction,Conductor*%
G36*
X11834336Y45863998D02*
G01*
X11880829Y45810342D01*
X11890933Y45740068D01*
X11887921Y45725387D01*
X11880000Y45695828D01*
X11880000Y45564173D01*
X11887921Y45534613D01*
X11886233Y45463636D01*
X11846439Y45404840D01*
X11781175Y45376891D01*
X11766215Y45376000D01*
X10453785Y45376000D01*
X10385664Y45396002D01*
X10339171Y45449658D01*
X10329067Y45519932D01*
X10332079Y45534613D01*
X10332185Y45535011D01*
X10340000Y45564174D01*
X10340000Y45695826D01*
X10332079Y45725387D01*
X10333767Y45796364D01*
X10373561Y45855160D01*
X10438825Y45883109D01*
X10453785Y45884000D01*
X11766215Y45884000D01*
X11834336Y45863998D01*
G37*
%TD.AperFunction*%
%TA.AperFunction,Conductor*%
G36*
X24661829Y49501399D02*
G01*
X24670048Y49498985D01*
X24670050Y49498985D01*
X24674447Y49497694D01*
X24673916Y49495888D01*
X24729384Y49465721D01*
X24759775Y49410284D01*
X24761564Y49410814D01*
X24762618Y49407260D01*
X24762624Y49405088D01*
X24763513Y49403466D01*
X24763515Y49403459D01*
X24763841Y49401972D01*
X24763401Y49401876D01*
X24762662Y49391285D01*
X24762815Y49336282D01*
X24724922Y49205858D01*
X24724654Y49203974D01*
X24724535Y49200924D01*
X24723204Y49184000D01*
X25380885Y49184000D01*
X25416377Y49178898D01*
X25431621Y49174422D01*
X25491346Y49136040D01*
X25491358Y49136026D01*
X25492563Y49134635D01*
X25520446Y49078928D01*
X25522118Y49071245D01*
X25525000Y49044452D01*
X25525000Y48820116D01*
X25524999Y48820114D01*
X25525000Y48820113D01*
X25519895Y48784615D01*
X25515420Y48769376D01*
X25477035Y48709650D01*
X25477025Y48709642D01*
X25475634Y48708437D01*
X25419931Y48680554D01*
X25412249Y48678882D01*
X25385452Y48676000D01*
X24723204Y48676000D01*
X24724923Y48654145D01*
X24724923Y48654144D01*
X24766288Y48511765D01*
X24766622Y48510523D01*
X24766603Y48509721D01*
X24769985Y48493267D01*
X24773156Y48467550D01*
X24761641Y48397494D01*
X24714087Y48344790D01*
X24709807Y48342159D01*
X24643823Y48323500D01*
X23835524Y48323500D01*
X23835518Y48323501D01*
X23835516Y48323500D01*
X23800020Y48328606D01*
X23794062Y48330356D01*
X23786487Y48332580D01*
X23726763Y48370968D01*
X23697276Y48435540D01*
X23695684Y48446615D01*
X23696821Y48489124D01*
X23708500Y48547831D01*
X23708500Y48726789D01*
X23673587Y48902310D01*
X23623294Y49023727D01*
X23614426Y49058469D01*
X23612727Y49074265D01*
X23625330Y49144128D01*
X23631527Y49156508D01*
X23655100Y49189199D01*
X23922695Y49456792D01*
X23951399Y49478278D01*
X23974861Y49491090D01*
X24035243Y49506500D01*
X24626338Y49506500D01*
X24661829Y49501399D01*
G37*
%TD.AperFunction*%
%TA.AperFunction,Conductor*%
G36*
X24645278Y52471397D02*
G01*
X24658814Y52467423D01*
X24674047Y52457632D01*
X24691425Y52452531D01*
X24703293Y52438836D01*
X24718539Y52429038D01*
X24726064Y52412562D01*
X24737922Y52398879D01*
X24748029Y52364469D01*
X24748744Y52359499D01*
X24740744Y52299241D01*
X24742210Y52298713D01*
X24742235Y52298705D01*
X24742234Y52298704D01*
X24742469Y52298619D01*
X24741128Y52294898D01*
X24694922Y52135857D01*
X24694654Y52133973D01*
X24694535Y52130924D01*
X24693204Y52114000D01*
X25350885Y52114000D01*
X25386377Y52108898D01*
X25401621Y52104422D01*
X25461346Y52066040D01*
X25461358Y52066026D01*
X25462563Y52064635D01*
X25490446Y52008928D01*
X25492118Y52001245D01*
X25495000Y51974452D01*
X25495000Y51750116D01*
X25494999Y51750114D01*
X25495000Y51750113D01*
X25489895Y51714615D01*
X25485420Y51699376D01*
X25447035Y51639650D01*
X25447025Y51639642D01*
X25445634Y51638437D01*
X25389931Y51610554D01*
X25382249Y51608882D01*
X25355452Y51606000D01*
X24693204Y51606000D01*
X24694923Y51584145D01*
X24694923Y51584144D01*
X24719320Y51500171D01*
X24719814Y51498250D01*
X24719715Y51495369D01*
X24723777Y51466528D01*
X24723736Y51452429D01*
X24717538Y51431546D01*
X24717393Y51427294D01*
X24715437Y51424469D01*
X24703536Y51384366D01*
X24649763Y51338038D01*
X24642495Y51334743D01*
X24590469Y51323500D01*
X23087602Y51323500D01*
X23014567Y51308973D01*
X23014568Y51308972D01*
X22984698Y51303031D01*
X22984693Y51303030D01*
X22965215Y51299155D01*
X22965213Y51299155D01*
X22965212Y51299154D01*
X22938123Y51287933D01*
X22937512Y51287680D01*
X22937503Y51287677D01*
X22853144Y51252733D01*
X22853143Y51252733D01*
X22849926Y51251401D01*
X22849917Y51251397D01*
X22832559Y51239798D01*
X22800214Y51224323D01*
X22768073Y51214258D01*
X22730419Y51208500D01*
X22670514Y51208500D01*
X22548230Y51184175D01*
X22548229Y51184175D01*
X22497196Y51174024D01*
X22495263Y51173675D01*
X22494985Y51173583D01*
X22494984Y51173582D01*
X22329666Y51105104D01*
X22329662Y51105102D01*
X22191488Y51012778D01*
X22191482Y51012773D01*
X22180869Y51005681D01*
X22180866Y51005680D01*
X22130760Y50955575D01*
X22129365Y50954260D01*
X22126875Y50952996D01*
X22103362Y50935393D01*
X22089467Y50927805D01*
X22089088Y50928499D01*
X22068859Y50923532D01*
X22066064Y50922112D01*
X22063951Y50922327D01*
X22026457Y50913122D01*
X22026443Y50912319D01*
X22020061Y50912433D01*
X21952311Y50933647D01*
X21937518Y50943531D01*
X21937516Y50943533D01*
X21937515Y50943533D01*
X21910835Y50967499D01*
X21901791Y50978321D01*
X21873456Y51043418D01*
X21884812Y51113497D01*
X21889641Y51123591D01*
X21914203Y51158301D01*
X22127695Y51371792D01*
X22156399Y51393278D01*
X22179861Y51406090D01*
X22240243Y51421500D01*
X22279478Y51421500D01*
X22279479Y51421500D01*
X22455000Y51456413D01*
X22620336Y51524898D01*
X22769135Y51624322D01*
X22895678Y51750865D01*
X22995102Y51899664D01*
X23063587Y52065000D01*
X23098500Y52240521D01*
X23098500Y52332385D01*
X23103603Y52367879D01*
X23105069Y52372871D01*
X23108077Y52383120D01*
X23146456Y52442844D01*
X23147865Y52444064D01*
X23203586Y52471951D01*
X23211270Y52473622D01*
X23238048Y52476500D01*
X24609783Y52476500D01*
X24645278Y52471397D01*
G37*
%TD.AperFunction*%
%TA.AperFunction,Conductor*%
G36*
X21153783Y52471398D02*
G01*
X21164814Y52468159D01*
X21180054Y52458365D01*
X21197438Y52453260D01*
X21209299Y52439571D01*
X21224539Y52429777D01*
X21232065Y52413297D01*
X21243930Y52399604D01*
X21246507Y52381675D01*
X21254033Y52365197D01*
X21251454Y52347263D01*
X21254033Y52329330D01*
X21243931Y52294929D01*
X21243931Y52294923D01*
X21243929Y52294919D01*
X21240691Y52287829D01*
X21215173Y52251078D01*
X20357312Y51393217D01*
X20328607Y51371727D01*
X20305146Y51358915D01*
X20244756Y51343500D01*
X19543322Y51343500D01*
X19543316Y51343501D01*
X19543314Y51343500D01*
X19507818Y51348606D01*
X19501860Y51350356D01*
X19494285Y51352580D01*
X19434561Y51390968D01*
X19405074Y51455543D01*
X19404316Y51460814D01*
X19412624Y51526957D01*
X19463587Y51649990D01*
X19498500Y51825511D01*
X19498500Y52004469D01*
X19463587Y52179990D01*
X19419863Y52285548D01*
X19410996Y52320285D01*
X19409487Y52334317D01*
X19422090Y52404180D01*
X19470462Y52456141D01*
X19475072Y52458876D01*
X19539343Y52476500D01*
X21118291Y52476500D01*
X21153783Y52471398D01*
G37*
%TD.AperFunction*%
%TA.AperFunction,Conductor*%
G36*
X49891377Y73969398D02*
G01*
X49906621Y73964922D01*
X49921868Y73955124D01*
X49939257Y73950015D01*
X49966329Y73926551D01*
X49966346Y73926540D01*
X49966358Y73926526D01*
X49967563Y73925135D01*
X49995446Y73869428D01*
X49997118Y73861745D01*
X50000000Y73834952D01*
X50000000Y65497672D01*
X49994895Y65462169D01*
X49991657Y65451143D01*
X49981863Y65435906D01*
X49976762Y65418529D01*
X49963069Y65406664D01*
X49953271Y65391418D01*
X49936794Y65383895D01*
X49923108Y65372034D01*
X49905172Y65369455D01*
X49888689Y65361928D01*
X49870759Y65364506D01*
X49852834Y65361928D01*
X49818423Y65372031D01*
X49814052Y65374027D01*
X49776922Y65401447D01*
X49776226Y65400750D01*
X49648361Y65528615D01*
X49648350Y65528625D01*
X49648345Y65528630D01*
X49648339Y65528635D01*
X49648337Y65528637D01*
X49648335Y65528638D01*
X49560616Y65582743D01*
X49497525Y65621658D01*
X49329321Y65677394D01*
X49329318Y65677395D01*
X49225516Y65688000D01*
X49116500Y65688000D01*
X49116500Y61272000D01*
X49225517Y61272000D01*
X49272826Y61272000D01*
X49285692Y61275576D01*
X49293728Y61278793D01*
X49297015Y61279306D01*
X49329318Y61282606D01*
X49329321Y61282607D01*
X49497525Y61338343D01*
X49648339Y61431366D01*
X49648345Y61431371D01*
X49768994Y61552021D01*
X49776908Y61557228D01*
X49780427Y61562145D01*
X49785271Y61565752D01*
X49799326Y61575705D01*
X49811166Y61579769D01*
X49811526Y61580005D01*
X49827438Y61586333D01*
X49831360Y61586699D01*
X49866478Y61598750D01*
X49892408Y61592387D01*
X49898129Y61592920D01*
X49905222Y61589243D01*
X49935429Y61581830D01*
X49950823Y61565601D01*
X49961158Y61560243D01*
X49969217Y61546210D01*
X49984282Y61530328D01*
X49986143Y61526696D01*
X49990284Y61509528D01*
X49996516Y61498677D01*
X49995896Y61486265D01*
X50000000Y61469252D01*
X50000000Y58595916D01*
X49994895Y58560415D01*
X49990420Y58545176D01*
X49952035Y58485450D01*
X49952025Y58485442D01*
X49950634Y58484237D01*
X49894931Y58456354D01*
X49887249Y58454682D01*
X49860452Y58451800D01*
X48625698Y58451800D01*
X48625696Y58451801D01*
X48625696Y58451800D01*
X48590202Y58456904D01*
X48568026Y58463415D01*
X48517670Y58492091D01*
X48513974Y58495532D01*
X48513973Y58495532D01*
X48494175Y58513965D01*
X48490026Y58515100D01*
X48480665Y58521471D01*
X48477345Y58523956D01*
X48408867Y58575219D01*
X48390206Y58589189D01*
X48390204Y58589190D01*
X48390194Y58589194D01*
X48253214Y58640286D01*
X48253200Y58640291D01*
X48253187Y58640293D01*
X48192660Y58646800D01*
X48192649Y58646800D01*
X48192638Y58646800D01*
X46065362Y58646800D01*
X46065350Y58646800D01*
X46065338Y58646800D01*
X46004811Y58640293D01*
X46004798Y58640291D01*
X46004784Y58640286D01*
X45867804Y58589194D01*
X45867794Y58589190D01*
X45867788Y58589187D01*
X45750737Y58501563D01*
X45663113Y58384512D01*
X45663110Y58384506D01*
X45663107Y58384497D01*
X45612014Y58247516D01*
X45612009Y58247502D01*
X45612007Y58247489D01*
X45605500Y58186962D01*
X45605500Y57449640D01*
X45612008Y57389109D01*
X45612955Y57384375D01*
X45613985Y57382999D01*
X45621605Y57347962D01*
X45623570Y57320468D01*
X45615981Y57267550D01*
X45615805Y57267077D01*
X45615775Y57266997D01*
X45612009Y57256897D01*
X45612008Y57256895D01*
X45605500Y57196362D01*
X45605500Y56459040D01*
X45612008Y56398509D01*
X45612955Y56393776D01*
X45613986Y56392398D01*
X45621605Y56357360D01*
X45622032Y56351400D01*
X45623571Y56329866D01*
X45615947Y56276854D01*
X45612008Y56266294D01*
X45605500Y56205762D01*
X45605500Y55468440D01*
X45612008Y55407909D01*
X45612955Y55403175D01*
X45613985Y55401799D01*
X45621605Y55366762D01*
X45623570Y55339268D01*
X45615981Y55286350D01*
X45615805Y55285877D01*
X45615775Y55285797D01*
X45612009Y55275697D01*
X45612008Y55275695D01*
X45605500Y55215162D01*
X45605500Y54477840D01*
X45612008Y54417309D01*
X45612954Y54412577D01*
X45613986Y54411199D01*
X45621605Y54376160D01*
X45623570Y54348666D01*
X45615948Y54295658D01*
X45612008Y54285095D01*
X45605500Y54224562D01*
X45605500Y53487240D01*
X45612008Y53426709D01*
X45612955Y53421975D01*
X45613985Y53420599D01*
X45621605Y53385562D01*
X45623570Y53358068D01*
X45615981Y53305150D01*
X45615805Y53304677D01*
X45615775Y53304597D01*
X45612009Y53294497D01*
X45612008Y53294495D01*
X45605500Y53233962D01*
X45605500Y52496640D01*
X45612008Y52436109D01*
X45612954Y52431377D01*
X45613986Y52429999D01*
X45621605Y52394960D01*
X45623570Y52367466D01*
X45615948Y52314458D01*
X45612008Y52303895D01*
X45605500Y52243362D01*
X45605500Y51506040D01*
X45612008Y51445509D01*
X45612954Y51440777D01*
X45613986Y51439399D01*
X45621605Y51404360D01*
X45623570Y51376866D01*
X45615949Y51323863D01*
X45612010Y51313302D01*
X45612008Y51313292D01*
X45605500Y51252762D01*
X45605500Y50515440D01*
X45612008Y50454909D01*
X45612955Y50450175D01*
X45613985Y50448799D01*
X45621605Y50413762D01*
X45623570Y50386268D01*
X45615981Y50333350D01*
X45615805Y50332877D01*
X45615775Y50332797D01*
X45612009Y50322697D01*
X45612008Y50322695D01*
X45605500Y50262162D01*
X45605500Y49524840D01*
X45612008Y49464309D01*
X45612955Y49459575D01*
X45613985Y49458199D01*
X45621605Y49423162D01*
X45623570Y49395668D01*
X45615949Y49342664D01*
X45612009Y49332100D01*
X45612008Y49332096D01*
X45605500Y49271562D01*
X45605500Y48534240D01*
X45612008Y48473709D01*
X45612955Y48468976D01*
X45613986Y48467598D01*
X45621605Y48432560D01*
X45621856Y48429065D01*
X45623571Y48405067D01*
X45615947Y48352055D01*
X45612008Y48341495D01*
X45605500Y48280962D01*
X45605500Y47543640D01*
X45612008Y47483109D01*
X45612955Y47478375D01*
X45613985Y47476999D01*
X45621605Y47441962D01*
X45623570Y47414468D01*
X45615981Y47361550D01*
X45615805Y47361077D01*
X45615775Y47360997D01*
X45612009Y47350897D01*
X45612008Y47350895D01*
X45605500Y47290362D01*
X45605500Y46553040D01*
X45612007Y46492513D01*
X45612009Y46492500D01*
X45612014Y46492486D01*
X45663106Y46355506D01*
X45663110Y46355496D01*
X45663113Y46355490D01*
X45750737Y46238439D01*
X45866057Y46152111D01*
X45866059Y46152111D01*
X45867792Y46150813D01*
X45867794Y46150812D01*
X45867796Y46150811D01*
X45923592Y46130000D01*
X46004795Y46099712D01*
X46004796Y46099712D01*
X46004798Y46099711D01*
X46004800Y46099711D01*
X46004803Y46099710D01*
X46004811Y46099710D01*
X46004812Y46099709D01*
X46063182Y46093434D01*
X46063183Y46093434D01*
X46065350Y46093201D01*
X46065352Y46093201D01*
X46065361Y46093200D01*
X46065362Y46093200D01*
X46065368Y46093200D01*
X48192632Y46093200D01*
X48192638Y46093200D01*
X48192644Y46093201D01*
X48192646Y46093201D01*
X48192649Y46093201D01*
X48192655Y46093202D01*
X48193356Y46093252D01*
X48194799Y46093433D01*
X48213844Y46095480D01*
X48246484Y46098988D01*
X48249751Y46099340D01*
X48253196Y46099710D01*
X48253198Y46099711D01*
X48253201Y46099711D01*
X48390204Y46150811D01*
X48476751Y46215600D01*
X48477821Y46216392D01*
X48496643Y46230165D01*
X48497544Y46230491D01*
X48502556Y46233344D01*
X48513207Y46242573D01*
X48514730Y46243713D01*
X48514731Y46243712D01*
X48539725Y46262421D01*
X48551801Y46267676D01*
X48558837Y46274224D01*
X48592861Y46285545D01*
X48596505Y46286202D01*
X48618856Y46288200D01*
X49855885Y46288200D01*
X49891377Y46283098D01*
X49906621Y46278622D01*
X49966346Y46240240D01*
X49966358Y46240226D01*
X49967563Y46238835D01*
X49995446Y46183128D01*
X49997118Y46175445D01*
X50000000Y46148652D01*
X50000000Y35663034D01*
X49995666Y35630273D01*
X49995289Y35628877D01*
X49991216Y35615003D01*
X49989795Y35608471D01*
X49988990Y35605480D01*
X49972026Y35577727D01*
X49956419Y35549146D01*
X49948788Y35541515D01*
X49920082Y35520025D01*
X49896622Y35507214D01*
X49836235Y35491800D01*
X48645698Y35491800D01*
X48645696Y35491801D01*
X48645696Y35491800D01*
X48610202Y35496904D01*
X48588026Y35503415D01*
X48537670Y35532091D01*
X48533974Y35535532D01*
X48533973Y35535532D01*
X48514175Y35553965D01*
X48510026Y35555100D01*
X48500665Y35561471D01*
X48465276Y35587963D01*
X48429156Y35615003D01*
X48410206Y35629189D01*
X48410204Y35629190D01*
X48410194Y35629194D01*
X48273214Y35680286D01*
X48273200Y35680291D01*
X48273187Y35680293D01*
X48212660Y35686800D01*
X48212649Y35686800D01*
X48212638Y35686800D01*
X46085362Y35686800D01*
X46085350Y35686800D01*
X46085338Y35686800D01*
X46024811Y35680293D01*
X46024798Y35680291D01*
X46024784Y35680286D01*
X45887804Y35629194D01*
X45887794Y35629190D01*
X45887788Y35629187D01*
X45770737Y35541563D01*
X45683113Y35424512D01*
X45683110Y35424506D01*
X45683106Y35424496D01*
X45632014Y35287516D01*
X45632009Y35287502D01*
X45632007Y35287489D01*
X45625500Y35226962D01*
X45625500Y34489640D01*
X45632008Y34429109D01*
X45632955Y34424376D01*
X45633986Y34422998D01*
X45641605Y34387960D01*
X45643210Y34365517D01*
X45643571Y34360467D01*
X45635947Y34307455D01*
X45632008Y34296895D01*
X45625500Y34236362D01*
X45625500Y33499040D01*
X45632008Y33438509D01*
X45632955Y33433775D01*
X45633985Y33432399D01*
X45641605Y33397362D01*
X45643570Y33369868D01*
X45635981Y33316950D01*
X45635805Y33316477D01*
X45635775Y33316397D01*
X45632009Y33306297D01*
X45632008Y33306295D01*
X45625500Y33245762D01*
X45625500Y32508440D01*
X45632008Y32447909D01*
X45632955Y32443175D01*
X45633985Y32441799D01*
X45641605Y32406762D01*
X45643570Y32379268D01*
X45635981Y32326350D01*
X45635805Y32325877D01*
X45635775Y32325797D01*
X45632009Y32315697D01*
X45632008Y32315695D01*
X45625500Y32255162D01*
X45625500Y31517840D01*
X45632008Y31457309D01*
X45632955Y31452576D01*
X45633986Y31451198D01*
X45641605Y31416160D01*
X45643210Y31393717D01*
X45643571Y31388667D01*
X45635948Y31335657D01*
X45632008Y31325094D01*
X45625500Y31264562D01*
X45625500Y30527240D01*
X45632008Y30466709D01*
X45632955Y30461975D01*
X45633985Y30460599D01*
X45641605Y30425562D01*
X45643570Y30398068D01*
X45635981Y30345150D01*
X45635805Y30344677D01*
X45635775Y30344597D01*
X45632009Y30334497D01*
X45632008Y30334495D01*
X45625500Y30273962D01*
X45625500Y29536640D01*
X45632008Y29476109D01*
X45632955Y29471376D01*
X45633986Y29469998D01*
X45641605Y29434960D01*
X45643571Y29407467D01*
X45635948Y29354457D01*
X45632008Y29343894D01*
X45625500Y29283362D01*
X45625500Y28546040D01*
X45632008Y28485509D01*
X45632954Y28480777D01*
X45633986Y28479399D01*
X45641605Y28444360D01*
X45643570Y28416866D01*
X45635949Y28363862D01*
X45632009Y28353300D01*
X45632007Y28353291D01*
X45625500Y28292762D01*
X45625500Y27555440D01*
X45632008Y27494909D01*
X45632955Y27490175D01*
X45633985Y27488799D01*
X45641605Y27453762D01*
X45643570Y27426268D01*
X45635981Y27373350D01*
X45635805Y27372877D01*
X45635775Y27372797D01*
X45632009Y27362697D01*
X45632008Y27362695D01*
X45625500Y27302162D01*
X45625500Y26564840D01*
X45632008Y26504309D01*
X45632955Y26499576D01*
X45633986Y26498198D01*
X45641605Y26463160D01*
X45643571Y26435667D01*
X45635948Y26382657D01*
X45632008Y26372094D01*
X45625500Y26311562D01*
X45625500Y25574240D01*
X45632008Y25513709D01*
X45632955Y25508975D01*
X45633985Y25507599D01*
X45641605Y25472562D01*
X45643570Y25445068D01*
X45635981Y25392150D01*
X45635805Y25391677D01*
X45635775Y25391597D01*
X45632009Y25381497D01*
X45632008Y25381495D01*
X45625500Y25320962D01*
X45625500Y24583640D01*
X45632008Y24523109D01*
X45632954Y24518377D01*
X45633986Y24516999D01*
X45641605Y24481960D01*
X45643570Y24454466D01*
X45635949Y24401462D01*
X45632009Y24390900D01*
X45632007Y24390891D01*
X45625500Y24330362D01*
X45625500Y23593040D01*
X45632007Y23532513D01*
X45632009Y23532500D01*
X45632014Y23532486D01*
X45683106Y23395506D01*
X45683110Y23395496D01*
X45683113Y23395490D01*
X45770737Y23278439D01*
X45872581Y23202200D01*
X45887792Y23190813D01*
X45887794Y23190812D01*
X45887796Y23190811D01*
X45946875Y23168776D01*
X46024795Y23139712D01*
X46024803Y23139710D01*
X46085350Y23133201D01*
X46085355Y23133201D01*
X46085362Y23133200D01*
X46085368Y23133200D01*
X48212632Y23133200D01*
X48212638Y23133200D01*
X48212644Y23133201D01*
X48212646Y23133201D01*
X48212649Y23133201D01*
X48212655Y23133202D01*
X48213356Y23133252D01*
X48214799Y23133433D01*
X48233844Y23135480D01*
X48266484Y23138988D01*
X48269751Y23139340D01*
X48273196Y23139710D01*
X48273198Y23139711D01*
X48273201Y23139711D01*
X48410204Y23190811D01*
X48496751Y23255600D01*
X48497821Y23256392D01*
X48516643Y23270165D01*
X48517544Y23270491D01*
X48522556Y23273344D01*
X48533207Y23282573D01*
X48534730Y23283713D01*
X48534731Y23283712D01*
X48559725Y23302421D01*
X48571801Y23307676D01*
X48578837Y23314224D01*
X48612861Y23325545D01*
X48616505Y23326202D01*
X48638856Y23328200D01*
X49855885Y23328200D01*
X49891377Y23323098D01*
X49906621Y23318622D01*
X49966346Y23280240D01*
X49966358Y23280226D01*
X49967563Y23278835D01*
X49995446Y23223128D01*
X49997118Y23215445D01*
X50000000Y23188652D01*
X50000000Y20657672D01*
X49999999Y20657669D01*
X50000000Y20657667D01*
X49998351Y20646203D01*
X49994895Y20622169D01*
X49991657Y20611143D01*
X49953271Y20551418D01*
X49888689Y20521928D01*
X49818423Y20532031D01*
X49818417Y20532034D01*
X49818416Y20532034D01*
X49818414Y20532035D01*
X49818413Y20532036D01*
X49814052Y20534027D01*
X49776922Y20561447D01*
X49776226Y20560750D01*
X49648361Y20688615D01*
X49648350Y20688625D01*
X49648345Y20688630D01*
X49648339Y20688635D01*
X49648337Y20688637D01*
X49648335Y20688638D01*
X49546443Y20751485D01*
X49497525Y20781658D01*
X49329321Y20837394D01*
X49329318Y20837395D01*
X49225516Y20848000D01*
X49116500Y20848000D01*
X49116500Y16432000D01*
X49225517Y16432000D01*
X49272826Y16432000D01*
X49285692Y16435576D01*
X49293728Y16438793D01*
X49297015Y16439306D01*
X49329318Y16442606D01*
X49329321Y16442607D01*
X49497525Y16498343D01*
X49648339Y16591366D01*
X49648345Y16591371D01*
X49768994Y16712021D01*
X49776908Y16717228D01*
X49780427Y16722145D01*
X49785271Y16725752D01*
X49799326Y16735705D01*
X49811166Y16739769D01*
X49811526Y16740005D01*
X49827438Y16746333D01*
X49831360Y16746699D01*
X49866478Y16758750D01*
X49892408Y16752387D01*
X49898129Y16752920D01*
X49905222Y16749243D01*
X49935429Y16741830D01*
X49950823Y16725601D01*
X49961158Y16720243D01*
X49969217Y16706210D01*
X49984282Y16690328D01*
X49986143Y16686696D01*
X49990284Y16669528D01*
X49996516Y16658677D01*
X49995896Y16646265D01*
X50000000Y16629252D01*
X50000000Y169616D01*
X49994895Y134115D01*
X49990420Y118876D01*
X49952035Y59150D01*
X49952025Y59142D01*
X49950634Y57937D01*
X49894931Y30054D01*
X49887249Y28382D01*
X49860452Y25500D01*
X1832025Y25500D01*
X1832022Y25501D01*
X1832022Y25500D01*
X1796524Y30605D01*
X1781285Y35080D01*
X1721563Y73461D01*
X1721560Y73465D01*
X1721559Y73465D01*
X1721558Y73467D01*
X1717505Y78144D01*
X1691697Y125623D01*
X1691653Y125775D01*
X1687762Y144365D01*
X1681872Y189104D01*
X1663215Y330827D01*
X1662516Y336139D01*
X1660004Y342812D01*
X1651826Y373332D01*
X1605802Y545096D01*
X1520915Y750032D01*
X1520909Y750041D01*
X1520908Y750045D01*
X1519547Y752401D01*
X1519377Y752757D01*
X1518893Y753536D01*
X1410009Y942128D01*
X1410007Y942132D01*
X1410003Y942138D01*
X1274975Y1118109D01*
X1274956Y1118130D01*
X1274946Y1118140D01*
X1274930Y1118157D01*
X1118155Y1274932D01*
X1118137Y1274949D01*
X1118129Y1274957D01*
X1118108Y1274976D01*
X1105985Y1284279D01*
X942143Y1410000D01*
X942126Y1410011D01*
X942126Y1410012D01*
X750054Y1520904D01*
X750045Y1520909D01*
X750027Y1520918D01*
X576592Y1592756D01*
X545096Y1605802D01*
X545093Y1605803D01*
X545091Y1605804D01*
X545090Y1605805D01*
X545086Y1605806D01*
X369106Y1652959D01*
X369105Y1652960D01*
X334036Y1662357D01*
X331541Y1663096D01*
X330833Y1663215D01*
X330832Y1663215D01*
X330826Y1663216D01*
X330811Y1663218D01*
X153022Y1686625D01*
X153022Y1686624D01*
X153020Y1686625D01*
X153016Y1686625D01*
X118493Y1696316D01*
X103965Y1702742D01*
X49759Y1748589D01*
X46343Y1753768D01*
X26821Y1805105D01*
X26798Y1805264D01*
X25500Y1823303D01*
X25500Y4121296D01*
X2149500Y4121296D01*
X2149500Y3878706D01*
X2181158Y3638228D01*
X2181159Y3638223D01*
X2243945Y3403900D01*
X2244596Y3402183D01*
X2244607Y3402157D01*
X2244801Y3401644D01*
X2245657Y3399770D01*
X2337096Y3179016D01*
X2338830Y3176227D01*
X2458056Y2969722D01*
X2458280Y2969387D01*
X2459236Y2968182D01*
X2460113Y2967041D01*
X2605735Y2777262D01*
X2605739Y2777258D01*
X2605744Y2777252D01*
X2606628Y2776368D01*
X2606632Y2776363D01*
X2777240Y2605755D01*
X2777261Y2605736D01*
X2777262Y2605735D01*
X2969711Y2458064D01*
X2969714Y2458062D01*
X2969718Y2458060D01*
X2969718Y2458059D01*
X3176281Y2338800D01*
X3179792Y2336773D01*
X3180061Y2336663D01*
X3403900Y2243946D01*
X3638211Y2181162D01*
X3638215Y2181162D01*
X3638217Y2181161D01*
X3700202Y2173001D01*
X3878712Y2149500D01*
X3878719Y2149500D01*
X4121281Y2149500D01*
X4121288Y2149500D01*
X4338637Y2178115D01*
X4353614Y2180086D01*
X4353615Y2180086D01*
X4354483Y2180201D01*
X4361782Y2181161D01*
X4361782Y2181162D01*
X4361785Y2181162D01*
X4361789Y2181162D01*
X4361793Y2181164D01*
X4387145Y2184500D01*
X4396525Y2190449D01*
X4398607Y2191028D01*
X4596100Y2243946D01*
X4820212Y2336776D01*
X5030289Y2458064D01*
X5222738Y2605735D01*
X5394265Y2777262D01*
X5541936Y2969711D01*
X5663224Y3179788D01*
X5756054Y3403900D01*
X5818838Y3638211D01*
X5850500Y3878712D01*
X5850500Y4121288D01*
X5818840Y4361774D01*
X5818839Y4361783D01*
X5818838Y4361785D01*
X5818838Y4361789D01*
X5756054Y4596100D01*
X5663224Y4820212D01*
X5663218Y4820221D01*
X5663217Y4820225D01*
X5661857Y4822580D01*
X5661688Y4822933D01*
X5661201Y4823717D01*
X5541940Y5030282D01*
X5541937Y5030287D01*
X5541936Y5030289D01*
X5394265Y5222738D01*
X5394263Y5222740D01*
X5394257Y5222748D01*
X5222766Y5394239D01*
X5222756Y5394248D01*
X5222748Y5394256D01*
X5222742Y5394261D01*
X5222738Y5394265D01*
X5222729Y5394272D01*
X5031886Y5540712D01*
X5030623Y5541714D01*
X5030278Y5541944D01*
X4911178Y5610706D01*
X4820224Y5663218D01*
X4820216Y5663222D01*
X4820212Y5663224D01*
X4820207Y5663227D01*
X4654229Y5731976D01*
X4596100Y5756054D01*
X4596097Y5756055D01*
X4596095Y5756056D01*
X4596094Y5756057D01*
X4596090Y5756058D01*
X4441384Y5797511D01*
X4361782Y5818840D01*
X4361779Y5818841D01*
X4361777Y5818841D01*
X4361772Y5818842D01*
X4121294Y5850500D01*
X4121290Y5850500D01*
X4121288Y5850500D01*
X3878712Y5850500D01*
X3878709Y5850500D01*
X3878704Y5850500D01*
X3638226Y5818842D01*
X3638221Y5818841D01*
X3403900Y5756056D01*
X3401636Y5755196D01*
X3399767Y5754343D01*
X3179778Y5663220D01*
X3179773Y5663218D01*
X2969719Y5541943D01*
X2777265Y5394268D01*
X2777246Y5394253D01*
X2605747Y5222754D01*
X2605732Y5222735D01*
X2458057Y5030281D01*
X2336782Y4820227D01*
X2336780Y4820222D01*
X2245657Y4600233D01*
X2244804Y4598364D01*
X2243944Y4596100D01*
X2181159Y4361779D01*
X2181158Y4361774D01*
X2149500Y4121296D01*
X25500Y4121296D01*
X25500Y17139484D01*
X47792000Y17139484D01*
X47802605Y17035682D01*
X47802606Y17035679D01*
X47858342Y16867475D01*
X47858343Y16867474D01*
X47951362Y16716665D01*
X47951363Y16716663D01*
X47951365Y16716661D01*
X47951370Y16716655D01*
X47951375Y16716650D01*
X47951385Y16716639D01*
X48076637Y16591387D01*
X48076648Y16591377D01*
X48076654Y16591371D01*
X48076660Y16591366D01*
X48227474Y16498343D01*
X48395678Y16442607D01*
X48395681Y16442606D01*
X48457057Y16436336D01*
X48459191Y16436043D01*
X48468201Y16432000D01*
X48499483Y16432000D01*
X48608500Y16432000D01*
X48608500Y18386000D01*
X47792000Y18386000D01*
X47792000Y17139484D01*
X25500Y17139484D01*
X25500Y55896916D01*
X8481500Y55896916D01*
X8481500Y55683084D01*
X8498327Y55576846D01*
X8504634Y55537026D01*
X8514953Y55471873D01*
X8564664Y55318880D01*
X8581026Y55268522D01*
X8581028Y55268517D01*
X8581030Y55268513D01*
X8581032Y55268508D01*
X8634818Y55162948D01*
X8659759Y55113998D01*
X8678108Y55077988D01*
X8802311Y54907037D01*
X8802312Y54907036D01*
X8803799Y54904989D01*
X8954987Y54753801D01*
X8955487Y54753391D01*
X8957014Y54752328D01*
X9051226Y54683879D01*
X9118827Y54634764D01*
X9138199Y54617363D01*
X9150702Y54603544D01*
X9181573Y54539611D01*
X9172987Y54469156D01*
X9172979Y54469138D01*
X9172979Y54469136D01*
X9172977Y54469135D01*
X9171645Y54466041D01*
X9138439Y54420669D01*
X9134072Y54416885D01*
X9125621Y54410174D01*
X8957041Y54287693D01*
X8955498Y54286619D01*
X8954983Y54286197D01*
X8803803Y54135017D01*
X8803381Y54134502D01*
X8802307Y54132959D01*
X8678110Y53962017D01*
X8581028Y53771485D01*
X8581025Y53771478D01*
X8514951Y53568120D01*
X8514647Y53566604D01*
X8514375Y53564482D01*
X8481500Y53356916D01*
X8481500Y53143084D01*
X8514045Y52937606D01*
X8514045Y52937603D01*
X8514950Y52931883D01*
X8563684Y52781895D01*
X8581026Y52728522D01*
X8581028Y52728517D01*
X8581030Y52728513D01*
X8581032Y52728508D01*
X8678108Y52537988D01*
X8802311Y52367037D01*
X8802312Y52367036D01*
X8803799Y52364989D01*
X8954987Y52213801D01*
X8955487Y52213391D01*
X8957014Y52212328D01*
X9069057Y52130924D01*
X9118827Y52094764D01*
X9138199Y52077363D01*
X9150702Y52063544D01*
X9181573Y51999611D01*
X9172987Y51929156D01*
X9172979Y51929138D01*
X9172979Y51929136D01*
X9172977Y51929135D01*
X9171645Y51926041D01*
X9138439Y51880669D01*
X9134072Y51876885D01*
X9125621Y51870174D01*
X8957041Y51747693D01*
X8955498Y51746619D01*
X8954983Y51746197D01*
X8803803Y51595017D01*
X8803381Y51594502D01*
X8802307Y51592959D01*
X8678110Y51422017D01*
X8581028Y51231485D01*
X8581025Y51231478D01*
X8514951Y51028120D01*
X8514647Y51026604D01*
X8514375Y51024482D01*
X8497053Y50915112D01*
X8481500Y50816916D01*
X8481500Y50603084D01*
X8508465Y50432837D01*
X8508467Y50432823D01*
X8514953Y50391873D01*
X8567289Y50230801D01*
X8581026Y50188522D01*
X8581028Y50188517D01*
X8581030Y50188513D01*
X8581032Y50188508D01*
X8678108Y49997988D01*
X8802311Y49827037D01*
X8802312Y49827036D01*
X8803799Y49824989D01*
X8954987Y49673801D01*
X8955487Y49673391D01*
X8957014Y49672328D01*
X9111624Y49559998D01*
X9118827Y49554764D01*
X9138199Y49537363D01*
X9150702Y49523544D01*
X9181573Y49459611D01*
X9172987Y49389156D01*
X9172979Y49389138D01*
X9172979Y49389136D01*
X9172977Y49389135D01*
X9171645Y49386041D01*
X9138439Y49340669D01*
X9134072Y49336885D01*
X9125621Y49330174D01*
X8957041Y49207693D01*
X8955498Y49206619D01*
X8954983Y49206197D01*
X8803803Y49055017D01*
X8803381Y49054502D01*
X8802307Y49052959D01*
X8678110Y48882017D01*
X8581028Y48691485D01*
X8581025Y48691478D01*
X8514951Y48488120D01*
X8514647Y48486604D01*
X8514375Y48484482D01*
X8498143Y48381994D01*
X8482136Y48280927D01*
X8481500Y48276914D01*
X8481500Y48063087D01*
X8495500Y47974694D01*
X8514953Y47851874D01*
X8555360Y47727515D01*
X8581028Y47648517D01*
X8678106Y47457991D01*
X8678108Y47457988D01*
X8802311Y47287037D01*
X8802312Y47287036D01*
X8803799Y47284989D01*
X8954987Y47133801D01*
X8955487Y47133391D01*
X8957014Y47132328D01*
X9107003Y47023355D01*
X9119451Y47014311D01*
X9138819Y46996915D01*
X9151183Y46983250D01*
X9182053Y46919316D01*
X9173467Y46848862D01*
X9172125Y46845747D01*
X9138915Y46800372D01*
X9134715Y46796733D01*
X9126268Y46790025D01*
X8955317Y46665822D01*
X8804178Y46514683D01*
X8678538Y46341754D01*
X8678536Y46341751D01*
X8634128Y46254595D01*
X8581490Y46151288D01*
X8515441Y45948011D01*
X8515441Y45948009D01*
X8515440Y45948005D01*
X8505302Y45884000D01*
X9226215Y45884000D01*
X9294336Y45863998D01*
X9340829Y45810342D01*
X9350933Y45740068D01*
X9347921Y45725387D01*
X9340000Y45695828D01*
X9340000Y45564173D01*
X9347921Y45534613D01*
X9346233Y45463636D01*
X9306439Y45404840D01*
X9241175Y45376891D01*
X9226215Y45376000D01*
X8505302Y45376000D01*
X8515439Y45311997D01*
X8515442Y45311989D01*
X8581490Y45108714D01*
X8581493Y45108708D01*
X8678536Y44918250D01*
X8684534Y44909995D01*
X8804178Y44745319D01*
X8955317Y44594180D01*
X9119368Y44474989D01*
X9138735Y44457594D01*
X9151177Y44443844D01*
X9182052Y44379912D01*
X9173462Y44309437D01*
X9173461Y44309436D01*
X9172119Y44306322D01*
X9138929Y44260973D01*
X9134946Y44257521D01*
X9126485Y44250801D01*
X8957041Y44127693D01*
X8955498Y44126619D01*
X8954983Y44126197D01*
X8803803Y43975017D01*
X8803381Y43974502D01*
X8802307Y43972959D01*
X8678110Y43802017D01*
X8581028Y43611485D01*
X8581025Y43611478D01*
X8514951Y43408120D01*
X8514647Y43406604D01*
X8514375Y43404482D01*
X8481500Y43196916D01*
X8481500Y42983084D01*
X8508260Y42814124D01*
X8514951Y42771883D01*
X8514953Y42771874D01*
X8562182Y42626519D01*
X8581026Y42568522D01*
X8581028Y42568517D01*
X8581029Y42568516D01*
X8581032Y42568508D01*
X8634818Y42462948D01*
X8677551Y42379080D01*
X8678108Y42377988D01*
X8802311Y42207037D01*
X8802312Y42207036D01*
X8803799Y42204989D01*
X8954987Y42053801D01*
X8955487Y42053391D01*
X8957014Y42052328D01*
X9111624Y41939998D01*
X9118827Y41934764D01*
X9138199Y41917363D01*
X9150702Y41903544D01*
X9181573Y41839611D01*
X9172987Y41769156D01*
X9172979Y41769138D01*
X9172979Y41769136D01*
X9172977Y41769135D01*
X9171645Y41766041D01*
X9138439Y41720669D01*
X9134072Y41716885D01*
X9125621Y41710174D01*
X8957041Y41587693D01*
X8955498Y41586619D01*
X8954983Y41586197D01*
X8803803Y41435017D01*
X8803381Y41434502D01*
X8802307Y41432959D01*
X8678110Y41262017D01*
X8581028Y41071485D01*
X8581025Y41071478D01*
X8514951Y40868120D01*
X8514647Y40866604D01*
X8514375Y40864482D01*
X8481500Y40656916D01*
X8481500Y40443084D01*
X8508260Y40274124D01*
X8514951Y40231883D01*
X8514953Y40231874D01*
X8562182Y40086519D01*
X8581026Y40028522D01*
X8581028Y40028517D01*
X8581029Y40028516D01*
X8581032Y40028508D01*
X8634818Y39922948D01*
X8677551Y39839080D01*
X8678108Y39837988D01*
X8802311Y39667037D01*
X8802312Y39667036D01*
X8803799Y39664989D01*
X8954987Y39513801D01*
X8955487Y39513391D01*
X8957014Y39512328D01*
X9118827Y39394764D01*
X9119451Y39394311D01*
X9138819Y39376915D01*
X9150917Y39363544D01*
X9151183Y39363250D01*
X9182053Y39299316D01*
X9173467Y39228862D01*
X9172125Y39225747D01*
X9138915Y39180372D01*
X9134715Y39176733D01*
X9126268Y39170025D01*
X8955317Y39045822D01*
X8804178Y38894683D01*
X8678538Y38721754D01*
X8678536Y38721751D01*
X8655506Y38676552D01*
X8581490Y38531288D01*
X8515441Y38328011D01*
X8515440Y38328006D01*
X8515440Y38328005D01*
X8505302Y38264000D01*
X9226215Y38264000D01*
X9294336Y38243998D01*
X9340829Y38190342D01*
X9350933Y38120068D01*
X9347921Y38105387D01*
X9340000Y38075828D01*
X9340000Y37944173D01*
X9347921Y37914613D01*
X9346233Y37843636D01*
X9306439Y37784840D01*
X9241175Y37756891D01*
X9226215Y37756000D01*
X8505302Y37756000D01*
X8515439Y37691997D01*
X8581490Y37488714D01*
X8581493Y37488708D01*
X8678536Y37298250D01*
X8679820Y37296483D01*
X8804178Y37125319D01*
X8955317Y36974180D01*
X9119368Y36854989D01*
X9138735Y36837594D01*
X9151177Y36823844D01*
X9182052Y36759912D01*
X9173462Y36689437D01*
X9173461Y36689436D01*
X9172119Y36686322D01*
X9138929Y36640973D01*
X9134946Y36637521D01*
X9126485Y36630801D01*
X8957041Y36507693D01*
X8955498Y36506619D01*
X8954983Y36506197D01*
X8803803Y36355017D01*
X8803381Y36354502D01*
X8802307Y36352959D01*
X8678110Y36182017D01*
X8581028Y35991485D01*
X8581025Y35991478D01*
X8514951Y35788120D01*
X8514647Y35786604D01*
X8514375Y35784482D01*
X8496137Y35669332D01*
X8481500Y35576916D01*
X8481500Y35363084D01*
X8501290Y35238136D01*
X8512737Y35165861D01*
X8514952Y35151878D01*
X8517512Y35144000D01*
X8581026Y34948522D01*
X8581028Y34948517D01*
X8581029Y34948516D01*
X8581032Y34948508D01*
X8609375Y34892882D01*
X8677551Y34759080D01*
X8678108Y34757988D01*
X8802311Y34587037D01*
X8802312Y34587036D01*
X8803799Y34584989D01*
X8954987Y34433801D01*
X8955487Y34433391D01*
X8957014Y34432328D01*
X9089306Y34336212D01*
X9118827Y34314764D01*
X9138199Y34297363D01*
X9150702Y34283544D01*
X9181573Y34219611D01*
X9172987Y34149156D01*
X9172979Y34149138D01*
X9172979Y34149136D01*
X9172977Y34149135D01*
X9171645Y34146041D01*
X9138439Y34100669D01*
X9134072Y34096885D01*
X9125621Y34090174D01*
X8957041Y33967693D01*
X8955498Y33966619D01*
X8954983Y33966197D01*
X8803803Y33815017D01*
X8803381Y33814502D01*
X8802307Y33812959D01*
X8678110Y33642017D01*
X8581028Y33451485D01*
X8581027Y33451482D01*
X8581026Y33451479D01*
X8556150Y33374917D01*
X8514951Y33248120D01*
X8514647Y33246604D01*
X8514375Y33244482D01*
X8481500Y33036914D01*
X8481500Y32823087D01*
X8502212Y32692316D01*
X8514953Y32611873D01*
X8575399Y32425838D01*
X8575400Y32425838D01*
X8581027Y32408519D01*
X8678107Y32217989D01*
X8678108Y32217987D01*
X8678115Y32217978D01*
X8686773Y32206062D01*
X8802311Y32047037D01*
X8803507Y32045319D01*
X8803701Y32045087D01*
X8954987Y31893801D01*
X8955487Y31893391D01*
X8957014Y31892328D01*
X9007446Y31855687D01*
X9118827Y31774764D01*
X9138199Y31757363D01*
X9150702Y31743544D01*
X9181573Y31679611D01*
X9172987Y31609156D01*
X9172979Y31609138D01*
X9172979Y31609136D01*
X9172977Y31609135D01*
X9171645Y31606041D01*
X9138439Y31560669D01*
X9134072Y31556885D01*
X9125621Y31550174D01*
X8957041Y31427693D01*
X8955498Y31426619D01*
X8954983Y31426197D01*
X8803803Y31275017D01*
X8803381Y31274502D01*
X8802307Y31272959D01*
X8678110Y31102017D01*
X8581028Y30911485D01*
X8581025Y30911478D01*
X8514951Y30708120D01*
X8514647Y30706604D01*
X8514375Y30704482D01*
X8481500Y30496916D01*
X8481500Y30283084D01*
X8493808Y30205376D01*
X8514953Y30071873D01*
X8567289Y29910801D01*
X8581026Y29868522D01*
X8581028Y29868517D01*
X8581030Y29868513D01*
X8581032Y29868508D01*
X8634818Y29762948D01*
X8677551Y29679080D01*
X8678108Y29677988D01*
X8802311Y29507037D01*
X8802312Y29507036D01*
X8803799Y29504989D01*
X8954987Y29353801D01*
X8955487Y29353391D01*
X8957014Y29352328D01*
X9051986Y29283327D01*
X9118827Y29234764D01*
X9138199Y29217363D01*
X9150702Y29203544D01*
X9181573Y29139611D01*
X9172987Y29069156D01*
X9172979Y29069138D01*
X9172979Y29069136D01*
X9172977Y29069135D01*
X9171645Y29066041D01*
X9138439Y29020669D01*
X9134072Y29016885D01*
X9125621Y29010174D01*
X8957041Y28887693D01*
X8955498Y28886619D01*
X8954983Y28886197D01*
X8803803Y28735017D01*
X8803381Y28734502D01*
X8802307Y28732959D01*
X8678110Y28562017D01*
X8581028Y28371485D01*
X8581027Y28371481D01*
X8581026Y28371479D01*
X8572939Y28346589D01*
X8515039Y28168394D01*
X8514953Y28168133D01*
X8495112Y28042862D01*
X8481500Y27956916D01*
X8481500Y27743084D01*
X8500550Y27622808D01*
X8514951Y27531883D01*
X8514953Y27531874D01*
X8547626Y27431317D01*
X8581026Y27328522D01*
X8581028Y27328517D01*
X8581030Y27328513D01*
X8581032Y27328508D01*
X8594471Y27302133D01*
X8677551Y27139080D01*
X8678108Y27137988D01*
X8802311Y26967037D01*
X8802312Y26967036D01*
X8803799Y26964989D01*
X8954987Y26813801D01*
X8955487Y26813391D01*
X8957014Y26812328D01*
X9069131Y26730870D01*
X9118827Y26694764D01*
X9138199Y26677363D01*
X9150702Y26663544D01*
X9181573Y26599611D01*
X9172987Y26529156D01*
X9172979Y26529138D01*
X9172979Y26529136D01*
X9172977Y26529135D01*
X9171645Y26526041D01*
X9138439Y26480669D01*
X9134072Y26476885D01*
X9125621Y26470174D01*
X8957041Y26347693D01*
X8955498Y26346619D01*
X8954983Y26346197D01*
X8803803Y26195017D01*
X8803381Y26194502D01*
X8802307Y26192959D01*
X8678110Y26022017D01*
X8581028Y25831485D01*
X8581027Y25831481D01*
X8515039Y25628394D01*
X8514953Y25628133D01*
X8496833Y25513726D01*
X8481500Y25416916D01*
X8481500Y25203084D01*
X8500139Y25085405D01*
X8511514Y25013583D01*
X8514953Y24991874D01*
X8530151Y24945101D01*
X8581026Y24788522D01*
X8581028Y24788517D01*
X8581029Y24788516D01*
X8581032Y24788508D01*
X8678102Y24597998D01*
X8678102Y24597997D01*
X8678105Y24597993D01*
X8678106Y24597991D01*
X8678108Y24597988D01*
X8697821Y24570855D01*
X8697822Y24570853D01*
X8802311Y24427037D01*
X8802312Y24427036D01*
X8803799Y24424989D01*
X8954987Y24273801D01*
X8955487Y24273391D01*
X8957014Y24272328D01*
X9119451Y24154311D01*
X9138819Y24136915D01*
X9151183Y24123250D01*
X9182053Y24059316D01*
X9173467Y23988862D01*
X9172125Y23985747D01*
X9138915Y23940372D01*
X9134715Y23936733D01*
X9126268Y23930025D01*
X8955317Y23805822D01*
X8804178Y23654683D01*
X8679345Y23482865D01*
X8678536Y23481751D01*
X8634592Y23395506D01*
X8581490Y23291288D01*
X8515441Y23088011D01*
X8515440Y23088006D01*
X8515440Y23088005D01*
X8505302Y23024000D01*
X9226215Y23024000D01*
X9294336Y23003998D01*
X9340829Y22950342D01*
X9350933Y22880068D01*
X9347921Y22865387D01*
X9340000Y22835828D01*
X9340000Y22704173D01*
X9347921Y22674613D01*
X9346233Y22603636D01*
X9306439Y22544840D01*
X9241175Y22516891D01*
X9226215Y22516000D01*
X8505302Y22516000D01*
X8515439Y22451997D01*
X8515442Y22451989D01*
X8581490Y22248714D01*
X8581493Y22248708D01*
X8678536Y22058250D01*
X8684534Y22049995D01*
X8804178Y21885319D01*
X8955317Y21734180D01*
X9119368Y21614989D01*
X9138735Y21597594D01*
X9151177Y21583844D01*
X9182052Y21519912D01*
X9173462Y21449437D01*
X9173461Y21449436D01*
X9172119Y21446322D01*
X9138929Y21400973D01*
X9134946Y21397521D01*
X9126485Y21390801D01*
X8957041Y21267693D01*
X8955498Y21266619D01*
X8954983Y21266197D01*
X8803803Y21115017D01*
X8803381Y21114502D01*
X8802307Y21112959D01*
X8678110Y20942017D01*
X8581028Y20751485D01*
X8581025Y20751478D01*
X8514951Y20548120D01*
X8514647Y20546604D01*
X8514375Y20544482D01*
X8510803Y20521928D01*
X8481500Y20336916D01*
X8481500Y20123084D01*
X8508260Y19954124D01*
X8514951Y19911883D01*
X8514953Y19911874D01*
X8562182Y19766519D01*
X8581026Y19708522D01*
X8581028Y19708517D01*
X8581030Y19708513D01*
X8581032Y19708508D01*
X8678108Y19517988D01*
X8802311Y19347037D01*
X8802312Y19347036D01*
X8803799Y19344989D01*
X8954987Y19193801D01*
X8955487Y19193391D01*
X8957014Y19192328D01*
X9127991Y19068106D01*
X9318517Y18971028D01*
X9424908Y18936460D01*
X9517910Y18906242D01*
X9519762Y18905641D01*
X9521878Y18904953D01*
X9521879Y18904953D01*
X9521884Y18904951D01*
X9733084Y18871500D01*
X9733087Y18871500D01*
X9946913Y18871500D01*
X9946916Y18871500D01*
X10158116Y18904951D01*
X10361483Y18971028D01*
X10552009Y19068106D01*
X10725004Y19193794D01*
X10815176Y19283968D01*
X10843883Y19305456D01*
X10856263Y19312216D01*
X10925636Y19327304D01*
X10992151Y19302493D01*
X10995882Y19299700D01*
X11038428Y19242866D01*
X11079109Y19133798D01*
X11079117Y19133786D01*
X11166737Y19016739D01*
X11282052Y18930416D01*
X11283792Y18929113D01*
X11283794Y18929112D01*
X11283796Y18929111D01*
X11342875Y18907076D01*
X11420795Y18878012D01*
X11420803Y18878010D01*
X11481350Y18871501D01*
X11481355Y18871501D01*
X11481362Y18871500D01*
X11481368Y18871500D01*
X13278632Y18871500D01*
X13278638Y18871500D01*
X13278644Y18871501D01*
X13278646Y18871501D01*
X13278649Y18871501D01*
X13278655Y18871502D01*
X13279356Y18871552D01*
X13280799Y18871733D01*
X13299844Y18873780D01*
X13332484Y18877288D01*
X13335751Y18877640D01*
X13339196Y18878010D01*
X13339198Y18878011D01*
X13339201Y18878011D01*
X13476204Y18929111D01*
X13532199Y18971028D01*
X13593261Y19016739D01*
X13680887Y19133793D01*
X13680887Y19133794D01*
X13680889Y19133796D01*
X13680890Y19133799D01*
X13680968Y19133903D01*
X13681663Y19135870D01*
X13731987Y19270794D01*
X13731986Y19270794D01*
X13731989Y19270799D01*
X13734782Y19296771D01*
X13738499Y19331351D01*
X13738500Y19331368D01*
X13738500Y20140517D01*
X47792000Y20140517D01*
X47792000Y18894000D01*
X48608500Y18894000D01*
X48608500Y20848000D01*
X48499483Y20848000D01*
X48395681Y20837395D01*
X48395678Y20837394D01*
X48227474Y20781658D01*
X48227472Y20781658D01*
X48227472Y20781657D01*
X48076663Y20688638D01*
X48076648Y20688625D01*
X48076637Y20688615D01*
X47951385Y20563363D01*
X47951375Y20563352D01*
X47951362Y20563337D01*
X47858343Y20412528D01*
X47858342Y20412526D01*
X47806632Y20256474D01*
X47806631Y20256471D01*
X47802606Y20244322D01*
X47802605Y20244319D01*
X47792000Y20140517D01*
X13738500Y20140517D01*
X13738500Y21128633D01*
X13738499Y21128650D01*
X13731990Y21189197D01*
X13731988Y21189205D01*
X13703268Y21266204D01*
X13680889Y21326204D01*
X13680885Y21326212D01*
X13593261Y21443263D01*
X13476210Y21530887D01*
X13476208Y21530888D01*
X13454617Y21538941D01*
X13374743Y21568733D01*
X13368462Y21572163D01*
X13343271Y21585920D01*
X13331981Y21594372D01*
X13289435Y21651208D01*
X13284371Y21722017D01*
X13285363Y21726578D01*
X13319383Y21788884D01*
X13415823Y21885323D01*
X13541463Y22058250D01*
X13638506Y22248708D01*
X13638509Y22248714D01*
X13704559Y22451996D01*
X13705555Y22458288D01*
X13714699Y22516000D01*
X13714698Y22516000D01*
X12993785Y22516000D01*
X12925664Y22536002D01*
X12879171Y22589658D01*
X12869067Y22659932D01*
X12872079Y22674613D01*
X12872185Y22675011D01*
X12880000Y22704174D01*
X12880000Y22835826D01*
X12872079Y22865387D01*
X12873767Y22936364D01*
X12913561Y22995160D01*
X12978825Y23023109D01*
X12993785Y23024000D01*
X13714696Y23024000D01*
X13714697Y23024000D01*
X13704559Y23088005D01*
X13638509Y23291287D01*
X13638506Y23291293D01*
X13541463Y23481751D01*
X13415822Y23654680D01*
X13415820Y23654683D01*
X13264685Y23805818D01*
X13264681Y23805821D01*
X13264679Y23805823D01*
X13100623Y23925018D01*
X13081256Y23942415D01*
X13068817Y23956163D01*
X13037945Y24020096D01*
X13046539Y24090570D01*
X13047880Y24093683D01*
X13081080Y24139035D01*
X13085086Y24142506D01*
X13093518Y24149203D01*
X13265004Y24273794D01*
X13416206Y24424996D01*
X13541894Y24597991D01*
X13638972Y24788517D01*
X13705049Y24991884D01*
X13738500Y25203084D01*
X13738500Y25416916D01*
X13705049Y25628116D01*
X13705047Y25628123D01*
X13704619Y25629906D01*
X13701186Y25655732D01*
X13700666Y25673933D01*
X13717344Y25740266D01*
X13724085Y25752005D01*
X13744250Y25778349D01*
X15628240Y27662338D01*
X15656946Y27683827D01*
X15667036Y27689337D01*
X15684721Y27693183D01*
X15700605Y27701861D01*
X15718690Y27700572D01*
X15736410Y27704426D01*
X15753369Y27698100D01*
X15771422Y27696813D01*
X15785939Y27685951D01*
X15802930Y27679613D01*
X15813783Y27665118D01*
X15828268Y27654280D01*
X15845463Y27622808D01*
X15846292Y27620587D01*
X15851826Y27551944D01*
X15821500Y27399489D01*
X15821500Y27399485D01*
X15821500Y27220519D01*
X15837198Y27141602D01*
X15856413Y27045000D01*
X15924898Y26879664D01*
X16024322Y26730865D01*
X16150865Y26604322D01*
X16299664Y26504898D01*
X16465000Y26436413D01*
X16640521Y26401500D01*
X16763733Y26401500D01*
X16788308Y26399081D01*
X16812192Y26394330D01*
X16835823Y26387162D01*
X16856221Y26378712D01*
X16871090Y26372553D01*
X16874537Y26370980D01*
X16875214Y26370846D01*
X16875215Y26370845D01*
X16925744Y26360794D01*
X16997600Y26346501D01*
X16997603Y26346501D01*
X16997606Y26346500D01*
X24750192Y26346500D01*
X24785685Y26341397D01*
X24799221Y26337423D01*
X24858946Y26299038D01*
X24888436Y26234470D01*
X24889571Y26226572D01*
X24885853Y26173478D01*
X24874923Y26135859D01*
X24874922Y26135851D01*
X24873203Y26114001D01*
X24873204Y26114001D01*
X24873204Y26114000D01*
X25530885Y26114000D01*
X25566377Y26108898D01*
X25581621Y26104422D01*
X25641346Y26066040D01*
X25641358Y26066026D01*
X25642563Y26064635D01*
X25670446Y26008928D01*
X25672118Y26001245D01*
X25675000Y25974452D01*
X25675000Y25750116D01*
X25674999Y25750114D01*
X25675000Y25750113D01*
X25669895Y25714615D01*
X25665420Y25699376D01*
X25627035Y25639650D01*
X25627025Y25639642D01*
X25625634Y25638437D01*
X25569931Y25610554D01*
X25562249Y25608882D01*
X25535452Y25606000D01*
X24858054Y25606000D01*
X24854156Y25603669D01*
X24789476Y25585800D01*
X16629896Y25585800D01*
X16507515Y25561456D01*
X16507505Y25561453D01*
X16438445Y25532849D01*
X16438436Y25532844D01*
X16392896Y25513980D01*
X16392272Y25513726D01*
X16392223Y25513700D01*
X16288463Y25444370D01*
X16288458Y25444366D01*
X15942315Y25098223D01*
X15942314Y25098220D01*
X15913605Y25076726D01*
X15899691Y25069129D01*
X15890144Y25063915D01*
X15829755Y25048500D01*
X15790512Y25048500D01*
X15659770Y25022493D01*
X15659768Y25022493D01*
X15617183Y25014023D01*
X15615270Y25013678D01*
X15614985Y25013583D01*
X15614984Y25013582D01*
X15449666Y24945104D01*
X15449662Y24945102D01*
X15300861Y24845676D01*
X15300856Y24845672D01*
X15174328Y24719144D01*
X15174324Y24719139D01*
X15074900Y24570340D01*
X15006413Y24405002D01*
X14971500Y24229486D01*
X14971500Y24050517D01*
X14983058Y23992410D01*
X14988838Y23963355D01*
X15006413Y23875000D01*
X15074898Y23709664D01*
X15174322Y23560865D01*
X15300865Y23434322D01*
X15449664Y23334898D01*
X15615000Y23266413D01*
X15790521Y23231500D01*
X15790522Y23231500D01*
X15969478Y23231500D01*
X15969479Y23231500D01*
X16145000Y23266413D01*
X16310336Y23334898D01*
X16459135Y23434322D01*
X16528099Y23503287D01*
X16556799Y23524772D01*
X16570748Y23532389D01*
X16640117Y23547479D01*
X16641952Y23547348D01*
X16701082Y23527668D01*
X16707697Y23523417D01*
X16728674Y23506513D01*
X16810865Y23424322D01*
X16959664Y23324898D01*
X17125000Y23256413D01*
X17300521Y23221500D01*
X17300522Y23221500D01*
X17479478Y23221500D01*
X17479479Y23221500D01*
X17655000Y23256413D01*
X17820336Y23324898D01*
X17969135Y23424322D01*
X17991603Y23446791D01*
X18020302Y23468275D01*
X18043768Y23481089D01*
X18104153Y23496500D01*
X27741840Y23496500D01*
X27777332Y23491398D01*
X27792576Y23486922D01*
X27852300Y23448541D01*
X27860281Y23439331D01*
X27863248Y23434330D01*
X27865928Y23432324D01*
X27883115Y23400848D01*
X27884335Y23397577D01*
X27884985Y23395735D01*
X27885112Y23395492D01*
X27972737Y23278439D01*
X28074581Y23202200D01*
X28089792Y23190813D01*
X28089794Y23190812D01*
X28089796Y23190811D01*
X28148875Y23168776D01*
X28226795Y23139712D01*
X28226803Y23139710D01*
X28287350Y23133201D01*
X28287355Y23133201D01*
X28287362Y23133200D01*
X28287368Y23133200D01*
X30414632Y23133200D01*
X30414638Y23133200D01*
X30414644Y23133201D01*
X30414646Y23133201D01*
X30414649Y23133201D01*
X30414655Y23133202D01*
X30415356Y23133252D01*
X30416799Y23133433D01*
X30435844Y23135480D01*
X30468484Y23138988D01*
X30471751Y23139340D01*
X30475196Y23139710D01*
X30475198Y23139711D01*
X30475201Y23139711D01*
X30612204Y23190811D01*
X30666560Y23231501D01*
X30729261Y23278439D01*
X30816887Y23395493D01*
X30816887Y23395494D01*
X30816889Y23395496D01*
X30816889Y23395498D01*
X30816967Y23395601D01*
X30817651Y23397542D01*
X30867989Y23532499D01*
X30869884Y23550118D01*
X30874499Y23593051D01*
X30874500Y23593068D01*
X30874500Y24330333D01*
X30874499Y24330350D01*
X30867990Y24390897D01*
X30867989Y24390899D01*
X30867989Y24390901D01*
X30867988Y24390903D01*
X30867972Y24391055D01*
X30865636Y24397512D01*
X30865526Y24399294D01*
X30864815Y24401719D01*
X30865366Y24401881D01*
X30865029Y24407352D01*
X30858439Y24431394D01*
X30856427Y24459517D01*
X30864053Y24512547D01*
X30865194Y24515609D01*
X30867989Y24523099D01*
X30873068Y24570336D01*
X30874499Y24583651D01*
X30874500Y24583668D01*
X30874500Y25320933D01*
X30874499Y25320950D01*
X30867990Y25381497D01*
X30867989Y25381499D01*
X30867989Y25381501D01*
X30867988Y25381503D01*
X30867972Y25381655D01*
X30865636Y25388112D01*
X30865526Y25389894D01*
X30864815Y25392319D01*
X30865366Y25392481D01*
X30865029Y25397952D01*
X30858439Y25421994D01*
X30856838Y25444366D01*
X30856427Y25450118D01*
X30864052Y25503145D01*
X30867989Y25513699D01*
X30874500Y25574262D01*
X30874500Y26311538D01*
X30874497Y26311562D01*
X30872892Y26326497D01*
X30872892Y26326498D01*
X30867990Y26372097D01*
X30867989Y26372099D01*
X30867989Y26372100D01*
X30867989Y26372101D01*
X30867988Y26372103D01*
X30867972Y26372254D01*
X30865636Y26378712D01*
X30865526Y26380494D01*
X30864815Y26382919D01*
X30865366Y26383081D01*
X30865029Y26388552D01*
X30858439Y26412594D01*
X30856427Y26440717D01*
X30864052Y26493746D01*
X30867989Y26504299D01*
X30868054Y26504898D01*
X30874499Y26564851D01*
X30874500Y26564868D01*
X30874500Y27302133D01*
X30874499Y27302150D01*
X30867990Y27362697D01*
X30867989Y27362699D01*
X30867989Y27362701D01*
X30867988Y27362703D01*
X30867972Y27362855D01*
X30865636Y27369312D01*
X30865526Y27371094D01*
X30864815Y27373519D01*
X30865366Y27373681D01*
X30865029Y27379152D01*
X30858439Y27403194D01*
X30856427Y27431317D01*
X30864053Y27484347D01*
X30867988Y27494897D01*
X30867987Y27494897D01*
X30867989Y27494899D01*
X30870717Y27520267D01*
X30874499Y27555451D01*
X30874500Y27555468D01*
X30874500Y28292733D01*
X30874499Y28292750D01*
X30867990Y28353297D01*
X30867989Y28353299D01*
X30867989Y28353301D01*
X30867988Y28353303D01*
X30867972Y28353455D01*
X30865636Y28359912D01*
X30865526Y28361694D01*
X30864815Y28364119D01*
X30865366Y28364281D01*
X30865029Y28369752D01*
X30858439Y28393794D01*
X30856427Y28421917D01*
X30864053Y28474947D01*
X30865031Y28477573D01*
X30867989Y28485499D01*
X30869573Y28500227D01*
X30874499Y28546051D01*
X30874500Y28546068D01*
X30874500Y29283333D01*
X30874499Y29283350D01*
X30867990Y29343897D01*
X30867989Y29343899D01*
X30867989Y29343900D01*
X30867989Y29343901D01*
X30867988Y29343903D01*
X30867972Y29344055D01*
X30865636Y29350512D01*
X30865526Y29352294D01*
X30864815Y29354719D01*
X30865366Y29354881D01*
X30865029Y29360352D01*
X30858439Y29384394D01*
X30857412Y29398745D01*
X30856427Y29412518D01*
X30864053Y29465547D01*
X30867988Y29476097D01*
X30867989Y29476099D01*
X30869627Y29491330D01*
X30874499Y29536651D01*
X30874500Y29536668D01*
X30874500Y30273933D01*
X30874499Y30273950D01*
X30867990Y30334497D01*
X30867989Y30334499D01*
X30867989Y30334500D01*
X30867989Y30334501D01*
X30867988Y30334503D01*
X30867972Y30334655D01*
X30865636Y30341112D01*
X30865526Y30342894D01*
X30864815Y30345319D01*
X30865366Y30345481D01*
X30865029Y30350952D01*
X30858439Y30374994D01*
X30856427Y30403117D01*
X30864053Y30456147D01*
X30867988Y30466697D01*
X30867987Y30466697D01*
X30867989Y30466699D01*
X30870717Y30492067D01*
X30874499Y30527251D01*
X30874500Y30527268D01*
X30874500Y31264533D01*
X30874499Y31264550D01*
X30867990Y31325097D01*
X30867989Y31325099D01*
X30867989Y31325101D01*
X30867988Y31325103D01*
X30867972Y31325255D01*
X30865636Y31331712D01*
X30865526Y31333494D01*
X30864815Y31335919D01*
X30865366Y31336081D01*
X30865029Y31341552D01*
X30858439Y31365594D01*
X30857918Y31372872D01*
X30856427Y31393718D01*
X30864052Y31446745D01*
X30865713Y31451198D01*
X30867989Y31457299D01*
X30874500Y31517862D01*
X30874500Y32255138D01*
X30874499Y32255150D01*
X30867990Y32315697D01*
X30867989Y32315699D01*
X30867989Y32315700D01*
X30867989Y32315701D01*
X30867988Y32315703D01*
X30867972Y32315854D01*
X30865636Y32322312D01*
X30865526Y32324094D01*
X30864815Y32326519D01*
X30865366Y32326681D01*
X30865029Y32332152D01*
X30858439Y32356194D01*
X30856427Y32384317D01*
X30864053Y32437347D01*
X30867988Y32447897D01*
X30867987Y32447897D01*
X30867989Y32447899D01*
X30870717Y32473267D01*
X30874499Y32508451D01*
X30874500Y32508468D01*
X30874500Y33245733D01*
X30874499Y33245750D01*
X30867990Y33306297D01*
X30867989Y33306299D01*
X30867989Y33306300D01*
X30867989Y33306301D01*
X30867988Y33306303D01*
X30867972Y33306455D01*
X30865636Y33312912D01*
X30865526Y33314694D01*
X30864815Y33317119D01*
X30865366Y33317281D01*
X30865029Y33322752D01*
X30858439Y33346794D01*
X30856427Y33374917D01*
X30864053Y33427947D01*
X30865031Y33430573D01*
X30867989Y33438499D01*
X30869385Y33451479D01*
X30874499Y33499051D01*
X30874500Y33499068D01*
X30874500Y34236333D01*
X30874499Y34236350D01*
X30867990Y34296897D01*
X30867989Y34296899D01*
X30867989Y34296901D01*
X30867988Y34296903D01*
X30867972Y34297055D01*
X30865636Y34303512D01*
X30865526Y34305294D01*
X30864815Y34307719D01*
X30865366Y34307881D01*
X30865029Y34313352D01*
X30858439Y34337394D01*
X30856427Y34365517D01*
X30864052Y34418546D01*
X30867989Y34429099D01*
X30868201Y34431071D01*
X30868497Y34433810D01*
X30873540Y34480730D01*
X30874499Y34489651D01*
X30874500Y34489668D01*
X30874500Y35226933D01*
X30874499Y35226950D01*
X30867990Y35287497D01*
X30867988Y35287505D01*
X30816889Y35424503D01*
X30816887Y35424508D01*
X30816885Y35424512D01*
X30729261Y35541563D01*
X30612210Y35629187D01*
X30612204Y35629190D01*
X30612194Y35629194D01*
X30475214Y35680286D01*
X30475200Y35680291D01*
X30475187Y35680293D01*
X30414660Y35686800D01*
X30414649Y35686800D01*
X30414638Y35686800D01*
X28287362Y35686800D01*
X28287350Y35686800D01*
X28287338Y35686800D01*
X28226811Y35680293D01*
X28226798Y35680291D01*
X28226784Y35680286D01*
X28105657Y35635107D01*
X28105652Y35635104D01*
X28089797Y35629190D01*
X28089796Y35629190D01*
X28034723Y35587963D01*
X28032013Y35585935D01*
X28031993Y35585921D01*
X27996683Y35559488D01*
X27965213Y35542303D01*
X27947062Y35535532D01*
X27937840Y35532092D01*
X27936108Y35531446D01*
X27892071Y35523500D01*
X27179531Y35523500D01*
X27144033Y35528604D01*
X27121603Y35535190D01*
X27118387Y35536135D01*
X27064790Y35567936D01*
X27047768Y35584958D01*
X27047761Y35584964D01*
X27042690Y35587963D01*
X26905105Y35669331D01*
X26745939Y35715573D01*
X26745935Y35715574D01*
X26743613Y35715860D01*
X26740988Y35715963D01*
X26734205Y35716497D01*
X26708762Y35718500D01*
X26708755Y35718500D01*
X26281254Y35718500D01*
X26278541Y35718287D01*
X26244062Y35715574D01*
X26104730Y35675095D01*
X26104714Y35675090D01*
X26084906Y35669335D01*
X26084902Y35669333D01*
X26084900Y35669333D01*
X26084900Y35669332D01*
X26084119Y35668870D01*
X26081199Y35667144D01*
X26055559Y35658479D01*
X26050723Y35658285D01*
X26046208Y35655717D01*
X26038238Y35653695D01*
X25971752Y35654931D01*
X25960470Y35658244D01*
X25942349Y35666117D01*
X25942178Y35665721D01*
X25934901Y35668870D01*
X25779000Y35714164D01*
X25779000Y35441309D01*
X25774534Y35408060D01*
X25765920Y35376574D01*
X25752841Y35345686D01*
X25740668Y35325103D01*
X25694428Y35165946D01*
X25694426Y35165933D01*
X25694425Y35165922D01*
X25691500Y35128764D01*
X25691500Y35034116D01*
X25691499Y35034114D01*
X25691500Y35034113D01*
X25686395Y34998615D01*
X25681920Y34983376D01*
X25643535Y34923650D01*
X25643525Y34923642D01*
X25642134Y34922437D01*
X25586431Y34894554D01*
X25578749Y34892882D01*
X25551952Y34890000D01*
X25525000Y34890000D01*
X25525000Y34780116D01*
X25524999Y34780114D01*
X25525000Y34780113D01*
X25519895Y34744615D01*
X25515420Y34729376D01*
X25477035Y34669650D01*
X25477025Y34669642D01*
X25475634Y34668437D01*
X25419931Y34640554D01*
X25412249Y34638882D01*
X25385452Y34636000D01*
X24723203Y34636000D01*
X24722799Y34635564D01*
X24716223Y34604262D01*
X24708596Y34590057D01*
X24705792Y34574181D01*
X24692148Y34559420D01*
X24682641Y34541710D01*
X24667952Y34533241D01*
X24657603Y34522043D01*
X24624520Y34508198D01*
X24617374Y34506347D01*
X24613055Y34505228D01*
X24581453Y34501200D01*
X16045302Y34501200D01*
X15972267Y34486673D01*
X15972268Y34486672D01*
X15942395Y34480730D01*
X15942393Y34480730D01*
X15922915Y34476855D01*
X15922913Y34476855D01*
X15922912Y34476854D01*
X15895217Y34465383D01*
X15895207Y34465379D01*
X15874546Y34456821D01*
X15855375Y34448879D01*
X15818958Y34433794D01*
X15818956Y34433794D01*
X15807622Y34429099D01*
X15703863Y34359769D01*
X15703858Y34359765D01*
X14957316Y33613223D01*
X14957315Y33613220D01*
X14957311Y33613218D01*
X14957310Y33613216D01*
X14937468Y33598361D01*
X14928606Y33591726D01*
X14914692Y33584129D01*
X14905145Y33578915D01*
X14844756Y33563500D01*
X13677224Y33563500D01*
X13641723Y33568605D01*
X13625081Y33573492D01*
X13567148Y33609852D01*
X13557818Y33620164D01*
X13543814Y33638874D01*
X13541899Y33641999D01*
X13541894Y33642009D01*
X13416206Y33815004D01*
X13416203Y33815007D01*
X13416201Y33815010D01*
X13416200Y33815011D01*
X13416198Y33815014D01*
X13265015Y33966197D01*
X13264502Y33966618D01*
X13262963Y33967689D01*
X13101176Y34085234D01*
X13081815Y34102623D01*
X13069299Y34116455D01*
X13038426Y34180384D01*
X13039618Y34190162D01*
X13047012Y34250850D01*
X13048354Y34253964D01*
X13081550Y34299321D01*
X13085953Y34303137D01*
X13094379Y34309829D01*
X13265004Y34433794D01*
X13416206Y34584996D01*
X13541894Y34757991D01*
X13638972Y34948517D01*
X13702487Y35144000D01*
X24723204Y35144000D01*
X25271000Y35144000D01*
X25271000Y35714164D01*
X25115101Y35668870D01*
X25115094Y35668868D01*
X24972548Y35584566D01*
X24972540Y35584560D01*
X24972535Y35584556D01*
X24855444Y35467465D01*
X24855440Y35467460D01*
X24855434Y35467452D01*
X24771130Y35324904D01*
X24724922Y35165857D01*
X24724654Y35163973D01*
X24724535Y35160924D01*
X24723204Y35144000D01*
X13702487Y35144000D01*
X13705049Y35151884D01*
X13738500Y35363084D01*
X13738500Y35576916D01*
X13705049Y35788116D01*
X13638972Y35991483D01*
X13541894Y36182009D01*
X13416206Y36355004D01*
X13416203Y36355007D01*
X13416201Y36355010D01*
X13416200Y36355011D01*
X13416198Y36355014D01*
X13265015Y36506197D01*
X13264502Y36506618D01*
X13262963Y36507689D01*
X13101176Y36625234D01*
X13081815Y36642623D01*
X13069299Y36656455D01*
X13038426Y36720384D01*
X13039618Y36730165D01*
X13047012Y36790850D01*
X13048354Y36793964D01*
X13081550Y36839321D01*
X13085953Y36843137D01*
X13094379Y36849829D01*
X13265004Y36973794D01*
X13416206Y37124996D01*
X13541894Y37297991D01*
X13638972Y37488517D01*
X13705049Y37691884D01*
X13738500Y37903084D01*
X13738500Y38116916D01*
X13705049Y38328116D01*
X13638972Y38531483D01*
X13541894Y38722009D01*
X13416206Y38895004D01*
X13416203Y38895007D01*
X13416201Y38895010D01*
X13416200Y38895011D01*
X13416198Y38895014D01*
X13265015Y39046197D01*
X13264507Y39046614D01*
X13262981Y39047676D01*
X13134781Y39140818D01*
X13101176Y39165234D01*
X13081815Y39182623D01*
X13069299Y39196455D01*
X13038426Y39260384D01*
X13047012Y39330850D01*
X13048354Y39333964D01*
X13081550Y39379321D01*
X13085953Y39383137D01*
X13094379Y39389829D01*
X13265004Y39513794D01*
X13416206Y39664996D01*
X13541894Y39837991D01*
X13638972Y40028517D01*
X13705049Y40231884D01*
X13738500Y40443084D01*
X13738500Y40656916D01*
X13705049Y40868116D01*
X13638972Y41071483D01*
X13541894Y41262009D01*
X13416206Y41435004D01*
X13416203Y41435007D01*
X13416201Y41435010D01*
X13416200Y41435011D01*
X13416198Y41435014D01*
X13265015Y41586197D01*
X13264502Y41586618D01*
X13262963Y41587689D01*
X13101176Y41705234D01*
X13081815Y41722623D01*
X13069299Y41736455D01*
X13038426Y41800384D01*
X13039618Y41810162D01*
X13047012Y41870850D01*
X13048354Y41873964D01*
X13081550Y41919321D01*
X13085953Y41923137D01*
X13094379Y41929829D01*
X13265004Y42053794D01*
X13416206Y42204996D01*
X13541894Y42377991D01*
X13638972Y42568517D01*
X13705049Y42771884D01*
X13738500Y42983084D01*
X13738500Y43196916D01*
X13705049Y43408116D01*
X13638972Y43611483D01*
X13541894Y43802009D01*
X13416206Y43975004D01*
X13416203Y43975007D01*
X13416201Y43975010D01*
X13416200Y43975011D01*
X13416198Y43975014D01*
X13265016Y44126196D01*
X13264496Y44126622D01*
X13262975Y44127681D01*
X13195806Y44176482D01*
X13100543Y44245695D01*
X13081169Y44263098D01*
X13068814Y44276754D01*
X13037944Y44340688D01*
X13046539Y44411160D01*
X13047882Y44414276D01*
X13081081Y44459625D01*
X13085311Y44463291D01*
X13093731Y44469978D01*
X13264679Y44594178D01*
X13415822Y44745321D01*
X13541463Y44918250D01*
X13638506Y45108708D01*
X13638509Y45108714D01*
X13704559Y45311996D01*
X13705555Y45318288D01*
X13714699Y45376000D01*
X13714698Y45376000D01*
X12993785Y45376000D01*
X12925664Y45396002D01*
X12879171Y45449658D01*
X12869067Y45519932D01*
X12872079Y45534613D01*
X12872185Y45535011D01*
X12880000Y45564174D01*
X12880000Y45695826D01*
X12872079Y45725387D01*
X12873767Y45796364D01*
X12913561Y45855160D01*
X12978825Y45883109D01*
X12993785Y45884000D01*
X13714696Y45884000D01*
X13714697Y45884000D01*
X13704559Y45948005D01*
X13663511Y46074338D01*
X13657396Y46109665D01*
X13656993Y46123769D01*
X13675041Y46192431D01*
X13727346Y46240438D01*
X13727354Y46240442D01*
X13733727Y46243575D01*
X13789315Y46256500D01*
X14749389Y46256500D01*
X14749390Y46256500D01*
X14871781Y46280845D01*
X14987071Y46328600D01*
X15090829Y46397929D01*
X16059691Y47366791D01*
X16088390Y47388275D01*
X16111856Y47401089D01*
X16172241Y47416500D01*
X18687385Y47416500D01*
X18722877Y47411398D01*
X18738121Y47406922D01*
X18797846Y47368540D01*
X18797858Y47368526D01*
X18799063Y47367135D01*
X18826946Y47311428D01*
X18828618Y47303745D01*
X18831500Y47276952D01*
X18831500Y47110517D01*
X18848838Y47023356D01*
X18848838Y47023355D01*
X18862534Y46954497D01*
X18866412Y46935002D01*
X18866413Y46934999D01*
X18886473Y46886570D01*
X18886472Y46886570D01*
X18934895Y46769669D01*
X18934897Y46769665D01*
X18934898Y46769664D01*
X19034322Y46620865D01*
X19160865Y46494322D01*
X19309664Y46394898D01*
X19475000Y46326413D01*
X19650521Y46291500D01*
X19682291Y46291500D01*
X19717788Y46286397D01*
X19738696Y46280257D01*
X19743434Y46278866D01*
X19797031Y46247065D01*
X19932931Y46111165D01*
X20021169Y46022927D01*
X20124927Y45953598D01*
X20240217Y45905843D01*
X20362608Y45881498D01*
X20362609Y45881498D01*
X21723802Y45881498D01*
X21723803Y45881498D01*
X21846194Y45905843D01*
X21961484Y45953598D01*
X22065242Y46022927D01*
X22429104Y46386790D01*
X22436037Y46391979D01*
X22457804Y46408275D01*
X22481270Y46421089D01*
X22541655Y46436500D01*
X27487847Y46436500D01*
X27523340Y46431398D01*
X27555663Y46421907D01*
X27590161Y46405779D01*
X27658225Y46360300D01*
X27740030Y46326415D01*
X27769403Y46314248D01*
X27772839Y46312680D01*
X27773511Y46312547D01*
X27773512Y46312546D01*
X27773513Y46312546D01*
X27773515Y46312545D01*
X27853792Y46296578D01*
X27887610Y46284649D01*
X27912467Y46271646D01*
X27945277Y46243723D01*
X27946366Y46244811D01*
X27952734Y46238443D01*
X27952738Y46238440D01*
X27952739Y46238439D01*
X27972924Y46223329D01*
X28069792Y46150813D01*
X28069794Y46150812D01*
X28069796Y46150811D01*
X28125592Y46130000D01*
X28206795Y46099712D01*
X28206796Y46099712D01*
X28206798Y46099711D01*
X28206800Y46099711D01*
X28206803Y46099710D01*
X28206811Y46099710D01*
X28206812Y46099709D01*
X28265182Y46093434D01*
X28265183Y46093434D01*
X28267350Y46093201D01*
X28267352Y46093201D01*
X28267361Y46093200D01*
X28267362Y46093200D01*
X28267368Y46093200D01*
X30394632Y46093200D01*
X30394638Y46093200D01*
X30394644Y46093201D01*
X30394646Y46093201D01*
X30394649Y46093201D01*
X30394655Y46093202D01*
X30395356Y46093252D01*
X30396799Y46093433D01*
X30415844Y46095480D01*
X30448484Y46098988D01*
X30451751Y46099340D01*
X30455196Y46099710D01*
X30455198Y46099711D01*
X30455201Y46099711D01*
X30592204Y46150811D01*
X30592842Y46151288D01*
X30625111Y46175445D01*
X30677339Y46214542D01*
X30709261Y46238439D01*
X30796887Y46355493D01*
X30796887Y46355494D01*
X30796889Y46355496D01*
X30796890Y46355499D01*
X30796968Y46355603D01*
X30797662Y46357569D01*
X30798681Y46360300D01*
X30847989Y46492499D01*
X30848131Y46493820D01*
X30848189Y46494352D01*
X30854496Y46553024D01*
X30854499Y46553051D01*
X30854500Y46553068D01*
X30854500Y47290333D01*
X30854499Y47290350D01*
X30847990Y47350897D01*
X30847989Y47350899D01*
X30847989Y47350901D01*
X30847988Y47350903D01*
X30847972Y47351055D01*
X30845636Y47357512D01*
X30845526Y47359294D01*
X30844815Y47361719D01*
X30845366Y47361881D01*
X30845029Y47367352D01*
X30838439Y47391394D01*
X30837745Y47401088D01*
X30836427Y47419518D01*
X30844053Y47472547D01*
X30845194Y47475609D01*
X30847989Y47483099D01*
X30852333Y47523500D01*
X30854499Y47543651D01*
X30854500Y47543668D01*
X30854500Y48280933D01*
X30854499Y48280950D01*
X30847990Y48341497D01*
X30847989Y48341499D01*
X30847989Y48341501D01*
X30847988Y48341503D01*
X30847972Y48341655D01*
X30845636Y48348112D01*
X30845526Y48349894D01*
X30844815Y48352319D01*
X30845366Y48352481D01*
X30845029Y48357952D01*
X30838439Y48381994D01*
X30836427Y48410117D01*
X30844053Y48463148D01*
X30846227Y48468976D01*
X30847989Y48473699D01*
X30848031Y48474082D01*
X30854499Y48534251D01*
X30854500Y48534268D01*
X30854500Y49271533D01*
X30854499Y49271550D01*
X30847990Y49332097D01*
X30847989Y49332099D01*
X30847989Y49332100D01*
X30847989Y49332101D01*
X30847988Y49332103D01*
X30847972Y49332255D01*
X30845636Y49338712D01*
X30845526Y49340494D01*
X30844815Y49342919D01*
X30845366Y49343081D01*
X30845029Y49348552D01*
X30838439Y49372594D01*
X30837255Y49389138D01*
X30836427Y49400718D01*
X30844052Y49453745D01*
X30847989Y49464299D01*
X30848559Y49469596D01*
X30854499Y49524851D01*
X30854500Y49524868D01*
X30854500Y50262133D01*
X30854499Y50262150D01*
X30847990Y50322697D01*
X30847989Y50322699D01*
X30847989Y50322701D01*
X30847988Y50322703D01*
X30847972Y50322855D01*
X30845636Y50329312D01*
X30845526Y50331094D01*
X30844815Y50333519D01*
X30845366Y50333681D01*
X30845029Y50339152D01*
X30838439Y50363194D01*
X30836427Y50391317D01*
X30844052Y50444345D01*
X30847989Y50454899D01*
X30854500Y50515462D01*
X30854500Y51252738D01*
X30854499Y51252750D01*
X30847990Y51313297D01*
X30847989Y51313299D01*
X30847989Y51313301D01*
X30847988Y51313303D01*
X30847972Y51313454D01*
X30845636Y51319912D01*
X30845526Y51321694D01*
X30844815Y51324119D01*
X30845366Y51324281D01*
X30845029Y51329752D01*
X30838439Y51353794D01*
X30838421Y51354041D01*
X30836427Y51381918D01*
X30844052Y51434946D01*
X30847989Y51445499D01*
X30849163Y51456413D01*
X30854499Y51506051D01*
X30854500Y51506068D01*
X30854500Y52243333D01*
X30854499Y52243350D01*
X30847990Y52303897D01*
X30847989Y52303899D01*
X30847989Y52303901D01*
X30847988Y52303903D01*
X30847972Y52304055D01*
X30845636Y52310512D01*
X30845526Y52312294D01*
X30844815Y52314719D01*
X30845366Y52314881D01*
X30845029Y52320352D01*
X30838439Y52344394D01*
X30837358Y52359499D01*
X30836427Y52372518D01*
X30844053Y52425547D01*
X30845631Y52429777D01*
X30847989Y52436099D01*
X30851109Y52465114D01*
X30854499Y52496651D01*
X30854500Y52496668D01*
X30854500Y53233933D01*
X30854499Y53233950D01*
X30847990Y53294497D01*
X30847989Y53294499D01*
X30847989Y53294501D01*
X30847988Y53294503D01*
X30847972Y53294655D01*
X30845636Y53301112D01*
X30845526Y53302894D01*
X30844815Y53305319D01*
X30845366Y53305481D01*
X30845029Y53310952D01*
X30838439Y53334994D01*
X30836427Y53363117D01*
X30844052Y53416145D01*
X30847989Y53426699D01*
X30854500Y53487262D01*
X30854500Y54224538D01*
X30854499Y54224550D01*
X30847990Y54285097D01*
X30847989Y54285099D01*
X30847989Y54285101D01*
X30847988Y54285103D01*
X30847972Y54285254D01*
X30845636Y54291712D01*
X30845526Y54293494D01*
X30844815Y54295919D01*
X30845366Y54296081D01*
X30845029Y54301552D01*
X30838439Y54325594D01*
X30836427Y54353717D01*
X30844053Y54406747D01*
X30847123Y54414977D01*
X30847989Y54417299D01*
X30850160Y54437487D01*
X30854499Y54477851D01*
X30854500Y54477868D01*
X30854500Y55215133D01*
X30854499Y55215150D01*
X30847990Y55275697D01*
X30847989Y55275699D01*
X30847989Y55275700D01*
X30847989Y55275701D01*
X30847988Y55275703D01*
X30847972Y55275855D01*
X30845636Y55282312D01*
X30845526Y55284094D01*
X30844815Y55286519D01*
X30845366Y55286681D01*
X30845029Y55292152D01*
X30838439Y55316194D01*
X30837963Y55322842D01*
X30836427Y55344318D01*
X30844053Y55397347D01*
X30847988Y55407897D01*
X30847987Y55407897D01*
X30847989Y55407899D01*
X30850717Y55433267D01*
X30854499Y55468451D01*
X30854500Y55468468D01*
X30854500Y56205733D01*
X30854499Y56205750D01*
X30847990Y56266297D01*
X30847989Y56266299D01*
X30847989Y56266300D01*
X30847989Y56266301D01*
X30847988Y56266303D01*
X30847972Y56266455D01*
X30845636Y56272912D01*
X30845526Y56274694D01*
X30844815Y56277119D01*
X30845366Y56277281D01*
X30845029Y56282752D01*
X30838439Y56306794D01*
X30838103Y56311485D01*
X30836427Y56334918D01*
X30844052Y56387946D01*
X30847989Y56398499D01*
X30848060Y56399154D01*
X30854499Y56459051D01*
X30854500Y56459068D01*
X30854500Y57196333D01*
X30854499Y57196350D01*
X30847990Y57256897D01*
X30847989Y57256899D01*
X30847989Y57256901D01*
X30847988Y57256903D01*
X30847972Y57257055D01*
X30845636Y57263512D01*
X30845526Y57265294D01*
X30844815Y57267719D01*
X30845366Y57267881D01*
X30845029Y57273352D01*
X30838439Y57297394D01*
X30836427Y57325517D01*
X30844052Y57378545D01*
X30847989Y57389099D01*
X30854500Y57449662D01*
X30854500Y58186938D01*
X30854499Y58186950D01*
X30847990Y58247497D01*
X30847988Y58247505D01*
X30818924Y58325425D01*
X30814211Y58338060D01*
X30801810Y58371309D01*
X30796889Y58384504D01*
X30796888Y58384506D01*
X30796887Y58384508D01*
X30787191Y58397460D01*
X30709261Y58501563D01*
X30592210Y58589187D01*
X30592204Y58589190D01*
X30592194Y58589194D01*
X30455214Y58640286D01*
X30455200Y58640291D01*
X30455187Y58640293D01*
X30394660Y58646800D01*
X30394649Y58646800D01*
X30394638Y58646800D01*
X28267362Y58646800D01*
X28267350Y58646800D01*
X28267338Y58646800D01*
X28206811Y58640293D01*
X28206798Y58640291D01*
X28206784Y58640286D01*
X28069804Y58589194D01*
X28069794Y58589190D01*
X28069788Y58589186D01*
X27983760Y58524786D01*
X27982639Y58523956D01*
X27945075Y58496480D01*
X27944839Y58496716D01*
X27921012Y58478879D01*
X27920439Y58478459D01*
X27915859Y58476809D01*
X27868432Y58456161D01*
X27864792Y58455504D01*
X27854091Y58454546D01*
X27853648Y58454386D01*
X27853270Y58454473D01*
X27842411Y58453500D01*
X27129531Y58453500D01*
X27094033Y58458604D01*
X27068388Y58466134D01*
X27014790Y58497936D01*
X26997768Y58514958D01*
X26997761Y58514964D01*
X26997531Y58515100D01*
X26855105Y58599331D01*
X26695939Y58645573D01*
X26695935Y58645574D01*
X26693613Y58645860D01*
X26690988Y58645963D01*
X26684205Y58646497D01*
X26658762Y58648500D01*
X26658755Y58648500D01*
X26231254Y58648500D01*
X26228541Y58648287D01*
X26194062Y58645574D01*
X26054730Y58605095D01*
X26054714Y58605090D01*
X26034906Y58599335D01*
X26034902Y58599333D01*
X26034900Y58599333D01*
X26034900Y58599332D01*
X26034119Y58598870D01*
X26031199Y58597144D01*
X26005559Y58588479D01*
X26000723Y58588285D01*
X25996208Y58585717D01*
X25988238Y58583695D01*
X25921752Y58584931D01*
X25910470Y58588244D01*
X25892349Y58596117D01*
X25892178Y58595721D01*
X25884901Y58598870D01*
X25729000Y58644164D01*
X25729000Y58371309D01*
X25724534Y58338060D01*
X25715920Y58306574D01*
X25702841Y58275686D01*
X25690668Y58255103D01*
X25644428Y58095946D01*
X25644426Y58095933D01*
X25644425Y58095922D01*
X25641500Y58058764D01*
X25641500Y57964116D01*
X25641499Y57964114D01*
X25641500Y57964113D01*
X25636395Y57928615D01*
X25631920Y57913376D01*
X25593535Y57853650D01*
X25593525Y57853642D01*
X25592134Y57852437D01*
X25536431Y57824554D01*
X25528749Y57822882D01*
X25501952Y57820000D01*
X25475000Y57820000D01*
X25475000Y57710116D01*
X25474999Y57710114D01*
X25475000Y57710113D01*
X25469895Y57674615D01*
X25465420Y57659376D01*
X25427035Y57599650D01*
X25427025Y57599642D01*
X25425634Y57598437D01*
X25369931Y57570554D01*
X25362249Y57568882D01*
X25335452Y57566000D01*
X24673204Y57566000D01*
X24674923Y57544145D01*
X24674923Y57544144D01*
X24716288Y57401765D01*
X24716622Y57400523D01*
X24716603Y57399721D01*
X24719985Y57383267D01*
X24723156Y57357550D01*
X24711641Y57287494D01*
X24664087Y57234790D01*
X24659807Y57232159D01*
X24593823Y57213500D01*
X22681618Y57213500D01*
X22681615Y57213501D01*
X22681615Y57213500D01*
X22646117Y57218605D01*
X22620471Y57226136D01*
X22566877Y57257936D01*
X22539137Y57285676D01*
X22539135Y57285678D01*
X22390336Y57385102D01*
X22265394Y57436855D01*
X22265394Y57436856D01*
X22265392Y57436856D01*
X22229141Y57451872D01*
X22225793Y57453400D01*
X22216114Y57455685D01*
X22212830Y57456008D01*
X22136645Y57471162D01*
X22107590Y57476942D01*
X22049483Y57488500D01*
X22049481Y57488500D01*
X22049479Y57488500D01*
X21870521Y57488500D01*
X21870518Y57488500D01*
X21870512Y57488500D01*
X21739770Y57462493D01*
X21739768Y57462493D01*
X21697183Y57454023D01*
X21695270Y57453678D01*
X21694985Y57453583D01*
X21694984Y57453582D01*
X21529666Y57385104D01*
X21529662Y57385102D01*
X21380861Y57285676D01*
X21380856Y57285672D01*
X21254328Y57159144D01*
X21254324Y57159139D01*
X21154900Y57010340D01*
X21086413Y56845002D01*
X21051500Y56669486D01*
X21051500Y56490516D01*
X21071018Y56392398D01*
X21086414Y56314997D01*
X21100053Y56282071D01*
X21154898Y56149664D01*
X21254322Y56000865D01*
X21380865Y55874322D01*
X21529664Y55774898D01*
X21695000Y55706413D01*
X21870521Y55671500D01*
X21870528Y55671500D01*
X21876677Y55670894D01*
X21876623Y55670348D01*
X21891126Y55668263D01*
X21904102Y55666398D01*
X21919346Y55661922D01*
X21979069Y55623543D01*
X21986637Y55614809D01*
X22009275Y55576846D01*
X22016922Y55556616D01*
X22022965Y55545039D01*
X22074898Y55419664D01*
X22174322Y55270865D01*
X22300865Y55144322D01*
X22449664Y55044898D01*
X22615000Y54976413D01*
X22790521Y54941500D01*
X22790522Y54941500D01*
X22969478Y54941500D01*
X22969479Y54941500D01*
X23145000Y54976413D01*
X23310336Y55044898D01*
X23459135Y55144322D01*
X23585678Y55270865D01*
X23622148Y55325447D01*
X23646107Y55352119D01*
X23662469Y55365792D01*
X23717580Y55392463D01*
X23724272Y55393856D01*
X23749948Y55396500D01*
X24578906Y55396500D01*
X24614401Y55391397D01*
X24627937Y55387423D01*
X24643171Y55377632D01*
X24660547Y55372531D01*
X24672415Y55358837D01*
X24687662Y55349038D01*
X24695186Y55332563D01*
X24707045Y55318880D01*
X24717152Y55284470D01*
X24718287Y55276572D01*
X24714569Y55223477D01*
X24694922Y55155856D01*
X24694654Y55153974D01*
X24694535Y55150924D01*
X24693204Y55134000D01*
X25350885Y55134000D01*
X25375794Y55130419D01*
X25386377Y55128898D01*
X25401621Y55124422D01*
X25461346Y55086040D01*
X25461358Y55086026D01*
X25462563Y55084635D01*
X25490446Y55028928D01*
X25492118Y55021245D01*
X25495000Y54994452D01*
X25495000Y54770116D01*
X25494999Y54770114D01*
X25495000Y54770113D01*
X25489895Y54734615D01*
X25485420Y54719376D01*
X25447035Y54659650D01*
X25447025Y54659642D01*
X25445634Y54658437D01*
X25389931Y54630554D01*
X25382249Y54628882D01*
X25355452Y54626000D01*
X24693204Y54626000D01*
X24694923Y54604145D01*
X24694923Y54604144D01*
X24736288Y54461765D01*
X24736622Y54460523D01*
X24736603Y54459721D01*
X24739985Y54443267D01*
X24743156Y54417550D01*
X24731641Y54347494D01*
X24684087Y54294790D01*
X24679807Y54292159D01*
X24613823Y54273500D01*
X16655711Y54273500D01*
X16655708Y54273501D01*
X16655708Y54273500D01*
X16620210Y54278605D01*
X16594564Y54286136D01*
X16540970Y54317936D01*
X14576837Y56282069D01*
X14576835Y56282071D01*
X14473077Y56351400D01*
X14357787Y56399155D01*
X14284088Y56413815D01*
X14284087Y56413816D01*
X14235400Y56423500D01*
X14235398Y56423500D01*
X14235396Y56423500D01*
X13677224Y56423500D01*
X13677221Y56423501D01*
X13677221Y56423500D01*
X13641723Y56428605D01*
X13625081Y56433492D01*
X13567148Y56469852D01*
X13557820Y56480162D01*
X13543814Y56498874D01*
X13541899Y56501999D01*
X13541894Y56502009D01*
X13416206Y56675004D01*
X13416203Y56675007D01*
X13416201Y56675010D01*
X13416200Y56675011D01*
X13416198Y56675014D01*
X13265015Y56826197D01*
X13264502Y56826618D01*
X13262963Y56827689D01*
X13092012Y56951892D01*
X13092011Y56951893D01*
X13092009Y56951894D01*
X12998633Y56999472D01*
X12901482Y57048973D01*
X12792591Y57084353D01*
X12762646Y57104829D01*
X12658801Y57121276D01*
X12658801Y57121277D01*
X12528264Y57141952D01*
X12486916Y57148500D01*
X12486914Y57148500D01*
X12273087Y57148500D01*
X12273084Y57148500D01*
X12061884Y57115049D01*
X12061878Y57115048D01*
X12061875Y57115048D01*
X12061874Y57115047D01*
X11858522Y57048975D01*
X11858515Y57048972D01*
X11667983Y56951890D01*
X11497041Y56827693D01*
X11495498Y56826619D01*
X11494983Y56826197D01*
X11343803Y56675017D01*
X11343381Y56674502D01*
X11342307Y56672959D01*
X11224761Y56511172D01*
X11207360Y56491799D01*
X11193542Y56479297D01*
X11129608Y56448427D01*
X11059140Y56457019D01*
X11056026Y56458361D01*
X11010666Y56491563D01*
X11010008Y56492322D01*
X11006875Y56495938D01*
X11000168Y56504385D01*
X10958679Y56561490D01*
X10876206Y56675004D01*
X10876203Y56675007D01*
X10876201Y56675010D01*
X10876200Y56675011D01*
X10876198Y56675014D01*
X10725015Y56826197D01*
X10724502Y56826618D01*
X10722963Y56827689D01*
X10552012Y56951892D01*
X10552011Y56951893D01*
X10552009Y56951894D01*
X10458633Y56999472D01*
X10361482Y57048973D01*
X10252591Y57084353D01*
X10222646Y57104829D01*
X10118801Y57121276D01*
X10118801Y57121277D01*
X9988264Y57141952D01*
X9946916Y57148500D01*
X9946914Y57148500D01*
X9733087Y57148500D01*
X9733084Y57148500D01*
X9521884Y57115049D01*
X9521878Y57115048D01*
X9521875Y57115048D01*
X9521874Y57115047D01*
X9318522Y57048975D01*
X9318515Y57048972D01*
X9127983Y56951890D01*
X8957041Y56827693D01*
X8955498Y56826619D01*
X8954983Y56826197D01*
X8803803Y56675017D01*
X8803381Y56674502D01*
X8802307Y56672959D01*
X8678110Y56502017D01*
X8581028Y56311485D01*
X8581025Y56311478D01*
X8514951Y56108120D01*
X8514647Y56106604D01*
X8514443Y56105012D01*
X8514442Y56104911D01*
X8514381Y56104523D01*
X8481500Y55896916D01*
X25500Y55896916D01*
X25500Y58074000D01*
X24673204Y58074000D01*
X25221000Y58074000D01*
X25221000Y58644164D01*
X25065101Y58598870D01*
X25065094Y58598868D01*
X24922548Y58514566D01*
X24922540Y58514560D01*
X24922535Y58514556D01*
X24805444Y58397465D01*
X24805440Y58397460D01*
X24805434Y58397452D01*
X24721130Y58254904D01*
X24674922Y58095857D01*
X24674654Y58093973D01*
X24674535Y58090924D01*
X24673204Y58074000D01*
X25500Y58074000D01*
X25500Y61979484D01*
X47792000Y61979484D01*
X47802605Y61875682D01*
X47802606Y61875679D01*
X47858342Y61707475D01*
X47858343Y61707474D01*
X47951362Y61556665D01*
X47951363Y61556663D01*
X47951365Y61556661D01*
X47951370Y61556655D01*
X47951375Y61556650D01*
X47951385Y61556639D01*
X48076637Y61431387D01*
X48076648Y61431377D01*
X48076654Y61431371D01*
X48076660Y61431366D01*
X48227474Y61338343D01*
X48395678Y61282607D01*
X48395681Y61282606D01*
X48457057Y61276336D01*
X48459191Y61276043D01*
X48468201Y61272000D01*
X48499483Y61272000D01*
X48608500Y61272000D01*
X48608500Y63226000D01*
X47792000Y63226000D01*
X47792000Y61979484D01*
X25500Y61979484D01*
X25500Y64980517D01*
X47792000Y64980517D01*
X47792000Y63734000D01*
X48608500Y63734000D01*
X48608500Y65688000D01*
X48499483Y65688000D01*
X48395681Y65677395D01*
X48395678Y65677394D01*
X48227474Y65621658D01*
X48227472Y65621658D01*
X48227472Y65621657D01*
X48076663Y65528638D01*
X48076648Y65528625D01*
X48076637Y65528615D01*
X47951385Y65403363D01*
X47951375Y65403352D01*
X47951362Y65403337D01*
X47858343Y65252528D01*
X47858342Y65252526D01*
X47806632Y65096474D01*
X47806631Y65096471D01*
X47802606Y65084322D01*
X47802605Y65084319D01*
X47792000Y64980517D01*
X25500Y64980517D01*
X25500Y70121296D01*
X2149500Y70121296D01*
X2149500Y69878706D01*
X2181158Y69638228D01*
X2181159Y69638223D01*
X2243945Y69403900D01*
X2244596Y69402183D01*
X2244607Y69402157D01*
X2244801Y69401644D01*
X2245657Y69399770D01*
X2337096Y69179016D01*
X2338830Y69176227D01*
X2458056Y68969722D01*
X2458280Y68969387D01*
X2459236Y68968182D01*
X2460113Y68967041D01*
X2605735Y68777262D01*
X2605739Y68777258D01*
X2605744Y68777252D01*
X2606628Y68776368D01*
X2606632Y68776363D01*
X2777240Y68605755D01*
X2777261Y68605736D01*
X2777262Y68605735D01*
X2969711Y68458064D01*
X2969714Y68458062D01*
X2969718Y68458060D01*
X2969718Y68458059D01*
X3176281Y68338800D01*
X3179792Y68336773D01*
X3180061Y68336663D01*
X3403900Y68243946D01*
X3638211Y68181162D01*
X3638215Y68181162D01*
X3638217Y68181161D01*
X3700202Y68173001D01*
X3878712Y68149500D01*
X3878719Y68149500D01*
X4121281Y68149500D01*
X4121288Y68149500D01*
X4338637Y68178115D01*
X4353614Y68180086D01*
X4353615Y68180086D01*
X4354483Y68180201D01*
X4361782Y68181161D01*
X4361782Y68181162D01*
X4361785Y68181162D01*
X4361789Y68181162D01*
X4361793Y68181164D01*
X4387145Y68184500D01*
X4396525Y68190449D01*
X4398607Y68191028D01*
X4596100Y68243946D01*
X4820212Y68336776D01*
X5030289Y68458064D01*
X5222738Y68605735D01*
X5394265Y68777262D01*
X5541936Y68969711D01*
X5663224Y69179788D01*
X5756054Y69403900D01*
X5818838Y69638211D01*
X5850500Y69878712D01*
X5850500Y70121288D01*
X5818840Y70361774D01*
X5818839Y70361783D01*
X5818838Y70361785D01*
X5818838Y70361789D01*
X5756054Y70596100D01*
X5663224Y70820212D01*
X5663218Y70820221D01*
X5663217Y70820225D01*
X5661857Y70822580D01*
X5661688Y70822933D01*
X5661201Y70823717D01*
X5541940Y71030282D01*
X5541937Y71030287D01*
X5541936Y71030289D01*
X5394265Y71222738D01*
X5394263Y71222740D01*
X5394257Y71222748D01*
X5222766Y71394239D01*
X5222756Y71394248D01*
X5222748Y71394256D01*
X5222742Y71394261D01*
X5222738Y71394265D01*
X5222729Y71394272D01*
X5031886Y71540712D01*
X5030623Y71541714D01*
X5030278Y71541944D01*
X4911178Y71610706D01*
X4820224Y71663218D01*
X4820216Y71663222D01*
X4820212Y71663224D01*
X4820207Y71663227D01*
X4654229Y71731976D01*
X4596100Y71756054D01*
X4596097Y71756055D01*
X4596095Y71756056D01*
X4596094Y71756057D01*
X4596090Y71756058D01*
X4441384Y71797511D01*
X4361782Y71818840D01*
X4361779Y71818841D01*
X4361777Y71818841D01*
X4361772Y71818842D01*
X4121294Y71850500D01*
X4121290Y71850500D01*
X4121288Y71850500D01*
X3878712Y71850500D01*
X3878709Y71850500D01*
X3878704Y71850500D01*
X3638226Y71818842D01*
X3638221Y71818841D01*
X3403900Y71756056D01*
X3401636Y71755196D01*
X3399767Y71754343D01*
X3179778Y71663220D01*
X3179773Y71663218D01*
X2969719Y71541943D01*
X2777265Y71394268D01*
X2777246Y71394253D01*
X2605747Y71222754D01*
X2605732Y71222735D01*
X2458057Y71030281D01*
X2336782Y70820227D01*
X2336780Y70820222D01*
X2245657Y70600233D01*
X2244804Y70598364D01*
X2243944Y70596100D01*
X2181159Y70361779D01*
X2181158Y70361774D01*
X2149500Y70121296D01*
X25500Y70121296D01*
X25500Y73830385D01*
X30603Y73865879D01*
X35077Y73881118D01*
X73456Y73940844D01*
X74865Y73942064D01*
X130586Y73969951D01*
X138270Y73971622D01*
X165048Y73974500D01*
X49855885Y73974500D01*
X49891377Y73969398D01*
G37*
%TD.AperFunction*%
%TD*%
%TA.AperFunction,Conductor*%
%TO.N,Earth*%
G36*
X72916621Y73954498D02*
G01*
X72963114Y73900842D01*
X72974500Y73848500D01*
X72974500Y151500D01*
X72954498Y83379D01*
X72900842Y36886D01*
X72848500Y25500D01*
X51126000Y25500D01*
X51057879Y45502D01*
X51011386Y99158D01*
X51000000Y151500D01*
X51000000Y4121291D01*
X67149500Y4121291D01*
X67149500Y3878710D01*
X67181160Y3638218D01*
X67243944Y3403905D01*
X67243945Y3403903D01*
X67243946Y3403900D01*
X67336776Y3179788D01*
X67336777Y3179787D01*
X67336782Y3179776D01*
X67458061Y2969715D01*
X67458063Y2969712D01*
X67458064Y2969711D01*
X67605735Y2777262D01*
X67605739Y2777258D01*
X67605744Y2777252D01*
X67777251Y2605745D01*
X67777256Y2605741D01*
X67777262Y2605735D01*
X67969711Y2458064D01*
X67969714Y2458062D01*
X68179775Y2336783D01*
X68179779Y2336782D01*
X68179788Y2336776D01*
X68403900Y2243946D01*
X68638211Y2181162D01*
X68638215Y2181162D01*
X68638217Y2181161D01*
X68700202Y2173001D01*
X68878712Y2149500D01*
X68878719Y2149500D01*
X69121281Y2149500D01*
X69121288Y2149500D01*
X69338637Y2178115D01*
X69361782Y2181161D01*
X69361782Y2181162D01*
X69361789Y2181162D01*
X69596100Y2243946D01*
X69820212Y2336776D01*
X70030289Y2458064D01*
X70222738Y2605735D01*
X70394265Y2777262D01*
X70541936Y2969711D01*
X70663224Y3179788D01*
X70756054Y3403900D01*
X70818838Y3638211D01*
X70850500Y3878712D01*
X70850500Y4121288D01*
X70818838Y4361789D01*
X70756054Y4596100D01*
X70663224Y4820212D01*
X70663218Y4820221D01*
X70663217Y4820225D01*
X70541938Y5030286D01*
X70541936Y5030289D01*
X70394265Y5222738D01*
X70394259Y5222744D01*
X70394255Y5222749D01*
X70222748Y5394256D01*
X70222742Y5394261D01*
X70222738Y5394265D01*
X70030289Y5541936D01*
X70030288Y5541937D01*
X70030285Y5541939D01*
X69820224Y5663218D01*
X69820216Y5663222D01*
X69820212Y5663224D01*
X69596100Y5756054D01*
X69596097Y5756055D01*
X69596095Y5756056D01*
X69361782Y5818840D01*
X69121290Y5850500D01*
X69121288Y5850500D01*
X68878712Y5850500D01*
X68878709Y5850500D01*
X68638217Y5818840D01*
X68403904Y5756056D01*
X68403900Y5756054D01*
X68179786Y5663223D01*
X68179775Y5663218D01*
X67969714Y5541939D01*
X67777262Y5394265D01*
X67777251Y5394256D01*
X67605744Y5222749D01*
X67605735Y5222738D01*
X67458061Y5030286D01*
X67336782Y4820225D01*
X67336777Y4820214D01*
X67243946Y4596100D01*
X67243944Y4596096D01*
X67181160Y4361783D01*
X67149500Y4121291D01*
X51000000Y4121291D01*
X51000000Y17139484D01*
X52067000Y17139484D01*
X52077605Y17035682D01*
X52077606Y17035679D01*
X52133342Y16867475D01*
X52226365Y16716661D01*
X52226370Y16716655D01*
X52351654Y16591371D01*
X52351660Y16591366D01*
X52502474Y16498343D01*
X52670678Y16442607D01*
X52670681Y16442606D01*
X52774483Y16432001D01*
X52774483Y16432000D01*
X52883500Y16432000D01*
X53391500Y16432000D01*
X53500517Y16432000D01*
X53500516Y16432001D01*
X53604318Y16442606D01*
X53604321Y16442607D01*
X53772525Y16498343D01*
X53923339Y16591366D01*
X53923345Y16591371D01*
X54048629Y16716655D01*
X54048634Y16716661D01*
X54141657Y16867475D01*
X54197393Y17035679D01*
X54197394Y17035682D01*
X54207999Y17139484D01*
X54208000Y17139484D01*
X54208000Y18386000D01*
X53391500Y18386000D01*
X53391500Y16432000D01*
X52883500Y16432000D01*
X52883500Y18386000D01*
X52067000Y18386000D01*
X52067000Y17139484D01*
X51000000Y17139484D01*
X51000000Y20140517D01*
X52067000Y20140517D01*
X52067000Y18894000D01*
X52883500Y18894000D01*
X53391500Y18894000D01*
X54208000Y18894000D01*
X54208000Y20140510D01*
X54205926Y20160811D01*
X54205926Y20160814D01*
X54197394Y20244319D01*
X54197393Y20244322D01*
X54141657Y20412526D01*
X54048634Y20563340D01*
X54048629Y20563346D01*
X53923345Y20688630D01*
X53923339Y20688635D01*
X53772525Y20781658D01*
X53604321Y20837394D01*
X53604318Y20837395D01*
X53500516Y20848000D01*
X53391500Y20848000D01*
X53391500Y18894000D01*
X52883500Y18894000D01*
X52883500Y20848000D01*
X52774483Y20848000D01*
X52670681Y20837395D01*
X52670678Y20837394D01*
X52502474Y20781658D01*
X52351660Y20688635D01*
X52351654Y20688630D01*
X52226370Y20563346D01*
X52226365Y20563340D01*
X52133342Y20412526D01*
X52077606Y20244322D01*
X52077605Y20244319D01*
X52067000Y20140517D01*
X51000000Y20140517D01*
X51000000Y21507937D01*
X62831600Y21507937D01*
X62831600Y21264064D01*
X62869752Y21023178D01*
X62945115Y20791236D01*
X63055834Y20573937D01*
X63120592Y20484805D01*
X63120594Y20484805D01*
X63673139Y21037351D01*
X63683215Y21013026D01*
X63769386Y20884062D01*
X63879062Y20774386D01*
X64008026Y20688215D01*
X64032348Y20678141D01*
X63479803Y20125596D01*
X63479803Y20125594D01*
X63568936Y20060835D01*
X63786235Y19950116D01*
X64018177Y19874753D01*
X64259063Y19836600D01*
X64502937Y19836600D01*
X64743822Y19874753D01*
X64975764Y19950116D01*
X65193064Y20060835D01*
X65282195Y20125594D01*
X65282195Y20125596D01*
X64729650Y20678141D01*
X64753974Y20688215D01*
X64882938Y20774386D01*
X64992614Y20884062D01*
X65078785Y21013026D01*
X65088859Y21037350D01*
X65641404Y20484805D01*
X65641406Y20484805D01*
X65706165Y20573936D01*
X65816884Y20791236D01*
X65892247Y21023178D01*
X65930400Y21264064D01*
X65930400Y21507937D01*
X65892247Y21748823D01*
X65816884Y21980765D01*
X65706165Y22198064D01*
X65641406Y22287197D01*
X65641404Y22287197D01*
X65088859Y21734652D01*
X65078785Y21758974D01*
X64992614Y21887938D01*
X64882938Y21997614D01*
X64753974Y22083785D01*
X64729650Y22093861D01*
X65282195Y22646406D01*
X65282195Y22646408D01*
X65193063Y22711166D01*
X64975764Y22821885D01*
X64743822Y22897248D01*
X64502937Y22935400D01*
X64259063Y22935400D01*
X64018177Y22897248D01*
X63786235Y22821885D01*
X63568942Y22711170D01*
X63479803Y22646407D01*
X63479803Y22646406D01*
X64032349Y22093860D01*
X64008026Y22083785D01*
X63879062Y21997614D01*
X63769386Y21887938D01*
X63683215Y21758974D01*
X63673140Y21734651D01*
X63120594Y22287197D01*
X63120593Y22287197D01*
X63055830Y22198058D01*
X62945115Y21980765D01*
X62869752Y21748823D01*
X62831600Y21507937D01*
X51000000Y21507937D01*
X51000000Y23202200D01*
X51020002Y23270321D01*
X51039215Y23286969D01*
X65933900Y23286969D01*
X65933900Y23041032D01*
X65965999Y22797214D01*
X65966000Y22797208D01*
X65966001Y22797206D01*
X66029653Y22559654D01*
X66123767Y22332442D01*
X66123768Y22332441D01*
X66123773Y22332431D01*
X66246730Y22119463D01*
X66246732Y22119460D01*
X66246733Y22119459D01*
X66340228Y21997614D01*
X66396447Y21924347D01*
X66396456Y21924337D01*
X66570336Y21750457D01*
X66570346Y21750448D01*
X66570347Y21750447D01*
X66765459Y21600733D01*
X66978442Y21477767D01*
X67205654Y21383653D01*
X67443206Y21320001D01*
X67443212Y21320001D01*
X67443213Y21320000D01*
X67471188Y21316317D01*
X67687034Y21287900D01*
X67687041Y21287900D01*
X67932959Y21287900D01*
X67932966Y21287900D01*
X68176794Y21320001D01*
X68414346Y21383653D01*
X68641558Y21477767D01*
X68854541Y21600733D01*
X69049653Y21750447D01*
X69223553Y21924347D01*
X69373267Y22119459D01*
X69496233Y22332442D01*
X69590347Y22559654D01*
X69653999Y22797206D01*
X69686100Y23041034D01*
X69686100Y23286966D01*
X69653999Y23530794D01*
X69590347Y23768346D01*
X69496233Y23995558D01*
X69373267Y24208541D01*
X69223553Y24403653D01*
X69223552Y24403654D01*
X69223543Y24403664D01*
X69049663Y24577544D01*
X69049653Y24577553D01*
X68854537Y24727270D01*
X68641569Y24850227D01*
X68641564Y24850230D01*
X68641558Y24850233D01*
X68414346Y24944347D01*
X68176794Y25007999D01*
X68176792Y25008000D01*
X68176786Y25008001D01*
X67932968Y25040100D01*
X67932966Y25040100D01*
X67687034Y25040100D01*
X67687031Y25040100D01*
X67443213Y25008001D01*
X67443206Y25007999D01*
X67205654Y24944347D01*
X67074222Y24889906D01*
X66978440Y24850232D01*
X66978430Y24850227D01*
X66765462Y24727270D01*
X66570346Y24577553D01*
X66570336Y24577544D01*
X66396456Y24403664D01*
X66396447Y24403654D01*
X66246730Y24208538D01*
X66123773Y23995570D01*
X66123768Y23995560D01*
X66029653Y23768346D01*
X65965999Y23530787D01*
X65933900Y23286969D01*
X51039215Y23286969D01*
X51073658Y23316814D01*
X51126000Y23328200D01*
X61558093Y23328200D01*
X61558094Y23328200D01*
X61680485Y23352545D01*
X61795775Y23400300D01*
X61899533Y23469629D01*
X63208758Y24778855D01*
X63271068Y24812878D01*
X63317556Y24814207D01*
X63400942Y24801000D01*
X63400945Y24801000D01*
X63583055Y24801000D01*
X63583058Y24801000D01*
X63762932Y24829489D01*
X63936134Y24885766D01*
X64098400Y24968445D01*
X64245735Y25075490D01*
X64374510Y25204265D01*
X64481555Y25351600D01*
X64564234Y25513866D01*
X64620511Y25687068D01*
X64640182Y25811268D01*
X64670593Y25875419D01*
X64730861Y25912946D01*
X64801851Y25911932D01*
X64821828Y25903824D01*
X64825866Y25901766D01*
X64999068Y25845489D01*
X65178942Y25817000D01*
X65178945Y25817000D01*
X65361055Y25817000D01*
X65361058Y25817000D01*
X65540932Y25845489D01*
X65714134Y25901766D01*
X65876400Y25984445D01*
X66023735Y26091490D01*
X66152510Y26220265D01*
X66259555Y26367600D01*
X66342234Y26529866D01*
X66398511Y26703068D01*
X66427000Y26882942D01*
X66427000Y27065058D01*
X66398511Y27244932D01*
X66342234Y27418134D01*
X66259555Y27580400D01*
X66152510Y27727735D01*
X66152507Y27727738D01*
X66152505Y27727741D01*
X66023740Y27856506D01*
X66023737Y27856508D01*
X66023735Y27856510D01*
X65980303Y27888065D01*
X65936950Y27944286D01*
X65930875Y28015022D01*
X65964006Y28077814D01*
X65980300Y28091934D01*
X66023735Y28123490D01*
X66152510Y28252265D01*
X66259555Y28399600D01*
X66342234Y28561866D01*
X66398511Y28735068D01*
X66427000Y28914942D01*
X66427000Y29097058D01*
X66398511Y29276932D01*
X66342234Y29450134D01*
X66259555Y29612400D01*
X66152510Y29759735D01*
X66152507Y29759738D01*
X66152505Y29759741D01*
X66023740Y29888506D01*
X66023737Y29888508D01*
X66023735Y29888510D01*
X65980303Y29920065D01*
X65936950Y29976286D01*
X65930875Y30047022D01*
X65964006Y30109814D01*
X65980300Y30123934D01*
X66023735Y30155490D01*
X66152510Y30284265D01*
X66259555Y30431600D01*
X66342234Y30593866D01*
X66398511Y30767068D01*
X66427000Y30946942D01*
X66427000Y31129058D01*
X66398511Y31308932D01*
X66342234Y31482134D01*
X66259555Y31644400D01*
X66152510Y31791735D01*
X66152507Y31791738D01*
X66152505Y31791741D01*
X66023740Y31920506D01*
X66023737Y31920508D01*
X66023735Y31920510D01*
X65980303Y31952065D01*
X65936950Y32008286D01*
X65930875Y32079022D01*
X65964006Y32141814D01*
X65980300Y32155934D01*
X66023735Y32187490D01*
X66152510Y32316265D01*
X66259555Y32463600D01*
X66342234Y32625866D01*
X66398511Y32799068D01*
X66427000Y32978942D01*
X66427000Y33161058D01*
X66398511Y33340932D01*
X66342234Y33514134D01*
X66259555Y33676400D01*
X66152510Y33823735D01*
X66152507Y33823738D01*
X66152505Y33823741D01*
X66023740Y33952506D01*
X66023737Y33952508D01*
X66023735Y33952510D01*
X65876400Y34059555D01*
X65714134Y34142234D01*
X65714133Y34142235D01*
X65714130Y34142236D01*
X65540937Y34198510D01*
X65540933Y34198511D01*
X65540932Y34198511D01*
X65361058Y34227000D01*
X65178942Y34227000D01*
X65095558Y34213795D01*
X65025147Y34222896D01*
X64986755Y34249149D01*
X64876135Y34359769D01*
X64876133Y34359771D01*
X64772375Y34429100D01*
X64657085Y34476855D01*
X64583386Y34491515D01*
X64534696Y34501200D01*
X64534694Y34501200D01*
X53738460Y34501200D01*
X53670339Y34521202D01*
X53623846Y34574858D01*
X53613742Y34645132D01*
X53614877Y34651763D01*
X53638500Y34770521D01*
X53638500Y34949479D01*
X53616921Y35057963D01*
X53623249Y35128672D01*
X53666802Y35184740D01*
X53733755Y35208360D01*
X53775653Y35203538D01*
X53871000Y35175838D01*
X54379000Y35175838D01*
X54534902Y35221132D01*
X54677453Y35305437D01*
X54677457Y35305440D01*
X54794560Y35422543D01*
X54794563Y35422547D01*
X54878869Y35565099D01*
X54925076Y35724144D01*
X54925076Y35724145D01*
X54926796Y35746000D01*
X54379000Y35746000D01*
X54379000Y35175838D01*
X53871000Y35175838D01*
X53871000Y35465614D01*
X53888547Y35529753D01*
X53909330Y35564896D01*
X53909330Y35564898D01*
X53909332Y35564900D01*
X53955573Y35724063D01*
X53958499Y35761246D01*
X53958500Y35761246D01*
X53958500Y35798191D01*
X53958500Y35880521D01*
X53958500Y35986969D01*
X65933900Y35986969D01*
X65933900Y35741032D01*
X65965999Y35497214D01*
X65966000Y35497208D01*
X65966001Y35497206D01*
X66029653Y35259654D01*
X66123767Y35032442D01*
X66123768Y35032441D01*
X66123773Y35032431D01*
X66246730Y34819463D01*
X66396447Y34624347D01*
X66396456Y34624337D01*
X66570336Y34450457D01*
X66570346Y34450448D01*
X66570347Y34450447D01*
X66688521Y34359769D01*
X66765462Y34300731D01*
X66854805Y34249149D01*
X66978442Y34177767D01*
X67205654Y34083653D01*
X67443206Y34020001D01*
X67443212Y34020001D01*
X67443213Y34020000D01*
X67471188Y34016317D01*
X67687034Y33987900D01*
X67687041Y33987900D01*
X67932959Y33987900D01*
X67932966Y33987900D01*
X68176794Y34020001D01*
X68414346Y34083653D01*
X68641558Y34177767D01*
X68854541Y34300733D01*
X69049653Y34450447D01*
X69223553Y34624347D01*
X69373267Y34819459D01*
X69496233Y35032442D01*
X69590347Y35259654D01*
X69653999Y35497206D01*
X69686100Y35741034D01*
X69686100Y35986966D01*
X69653999Y36230794D01*
X69590347Y36468346D01*
X69496233Y36695558D01*
X69373267Y36908541D01*
X69223553Y37103653D01*
X69223552Y37103654D01*
X69223543Y37103664D01*
X69049663Y37277544D01*
X69049653Y37277553D01*
X68854537Y37427270D01*
X68641569Y37550227D01*
X68641564Y37550230D01*
X68641558Y37550233D01*
X68414346Y37644347D01*
X68176794Y37707999D01*
X68176792Y37708000D01*
X68176786Y37708001D01*
X67932968Y37740100D01*
X67932966Y37740100D01*
X67687034Y37740100D01*
X67687031Y37740100D01*
X67443213Y37708001D01*
X67443206Y37707999D01*
X67205654Y37644347D01*
X67012761Y37564448D01*
X66978440Y37550232D01*
X66978430Y37550227D01*
X66765462Y37427270D01*
X66570346Y37277553D01*
X66570336Y37277544D01*
X66396456Y37103664D01*
X66396447Y37103654D01*
X66246730Y36908538D01*
X66123773Y36695570D01*
X66123768Y36695560D01*
X66123767Y36695558D01*
X66115532Y36675676D01*
X66029653Y36468346D01*
X65965999Y36230787D01*
X65933900Y35986969D01*
X53958500Y35986969D01*
X53958499Y36238746D01*
X53957299Y36254000D01*
X54379000Y36254000D01*
X54926795Y36254000D01*
X54925076Y36275856D01*
X54925076Y36275857D01*
X54890618Y36394463D01*
X54878869Y36434902D01*
X54794563Y36577454D01*
X54794560Y36577458D01*
X54677457Y36694561D01*
X54677453Y36694564D01*
X54534902Y36778869D01*
X54379000Y36824164D01*
X54379000Y36254000D01*
X53957299Y36254000D01*
X53955573Y36275937D01*
X53909332Y36435100D01*
X53888546Y36470248D01*
X53871000Y36534386D01*
X53871000Y36824164D01*
X53715095Y36778869D01*
X53704626Y36772677D01*
X53635809Y36755219D01*
X53576353Y36772677D01*
X53565100Y36779332D01*
X53405942Y36825572D01*
X53405938Y36825573D01*
X53405937Y36825573D01*
X53405933Y36825574D01*
X53405929Y36825574D01*
X53368755Y36828500D01*
X52941254Y36828500D01*
X52904064Y36825574D01*
X52744898Y36779332D01*
X52658817Y36728423D01*
X52590001Y36710964D01*
X52524677Y36732111D01*
X52511665Y36740805D01*
X52460336Y36775102D01*
X52338492Y36825572D01*
X52295003Y36843586D01*
X52295001Y36843587D01*
X52295000Y36843587D01*
X52206645Y36861162D01*
X52119481Y36878500D01*
X52119479Y36878500D01*
X51940521Y36878500D01*
X51940518Y36878500D01*
X51809771Y36852493D01*
X51765000Y36843587D01*
X51764999Y36843587D01*
X51764996Y36843586D01*
X51633902Y36789284D01*
X51608759Y36778869D01*
X51599662Y36775101D01*
X51450869Y36675681D01*
X51450862Y36675676D01*
X51324324Y36549138D01*
X51324319Y36549131D01*
X51230765Y36409117D01*
X51176288Y36363589D01*
X51105845Y36354741D01*
X51041801Y36385382D01*
X51004490Y36445784D01*
X51000000Y36479119D01*
X51000000Y37763937D01*
X62831600Y37763937D01*
X62831600Y37520064D01*
X62869752Y37279178D01*
X62945115Y37047236D01*
X63055834Y36829937D01*
X63120592Y36740805D01*
X63120594Y36740805D01*
X63673139Y37293351D01*
X63683215Y37269026D01*
X63769386Y37140062D01*
X63879062Y37030386D01*
X64008026Y36944215D01*
X64032348Y36934141D01*
X63479803Y36381596D01*
X63479803Y36381594D01*
X63568936Y36316835D01*
X63786235Y36206116D01*
X64018177Y36130753D01*
X64259063Y36092600D01*
X64502937Y36092600D01*
X64647776Y36115540D01*
X64743822Y36130753D01*
X64975764Y36206116D01*
X65193064Y36316835D01*
X65282195Y36381594D01*
X65282195Y36381596D01*
X64729650Y36934141D01*
X64753974Y36944215D01*
X64882938Y37030386D01*
X64992614Y37140062D01*
X65078785Y37269026D01*
X65088859Y37293350D01*
X65641404Y36740805D01*
X65641406Y36740805D01*
X65706165Y36829936D01*
X65816884Y37047236D01*
X65892247Y37279178D01*
X65930400Y37520064D01*
X65930400Y37763937D01*
X65892247Y38004823D01*
X65816884Y38236765D01*
X65706165Y38454064D01*
X65641406Y38543197D01*
X65641404Y38543197D01*
X65088859Y37990652D01*
X65078785Y38014974D01*
X64992614Y38143938D01*
X64882938Y38253614D01*
X64753974Y38339785D01*
X64729650Y38349861D01*
X65282195Y38902406D01*
X65282195Y38902408D01*
X65193063Y38967166D01*
X64975764Y39077885D01*
X64743822Y39153248D01*
X64502937Y39191400D01*
X64259063Y39191400D01*
X64018177Y39153248D01*
X63786235Y39077885D01*
X63568942Y38967170D01*
X63479803Y38902407D01*
X63479803Y38902406D01*
X64032349Y38349860D01*
X64008026Y38339785D01*
X63879062Y38253614D01*
X63769386Y38143938D01*
X63683215Y38014974D01*
X63673140Y37990651D01*
X63120594Y38543197D01*
X63120593Y38543197D01*
X63055830Y38454058D01*
X62945115Y38236765D01*
X62869752Y38004823D01*
X62831600Y37763937D01*
X51000000Y37763937D01*
X51000000Y44437937D01*
X62921600Y44437937D01*
X62921600Y44194064D01*
X62959752Y43953178D01*
X63035115Y43721236D01*
X63145834Y43503937D01*
X63210592Y43414805D01*
X63210594Y43414805D01*
X63763139Y43967351D01*
X63773215Y43943026D01*
X63859386Y43814062D01*
X63969062Y43704386D01*
X64098026Y43618215D01*
X64122348Y43608141D01*
X63569803Y43055596D01*
X63569803Y43055594D01*
X63658936Y42990835D01*
X63876235Y42880116D01*
X64108177Y42804753D01*
X64349063Y42766600D01*
X64592937Y42766600D01*
X64833822Y42804753D01*
X65065764Y42880116D01*
X65283064Y42990835D01*
X65372195Y43055594D01*
X65372195Y43055596D01*
X64819650Y43608141D01*
X64843974Y43618215D01*
X64972938Y43704386D01*
X65082614Y43814062D01*
X65168785Y43943026D01*
X65178859Y43967350D01*
X65731404Y43414805D01*
X65731406Y43414805D01*
X65796165Y43503936D01*
X65906884Y43721236D01*
X65982247Y43953178D01*
X66020400Y44194064D01*
X66020400Y44437937D01*
X65982247Y44678823D01*
X65906884Y44910765D01*
X65796165Y45128064D01*
X65731406Y45217197D01*
X65731404Y45217197D01*
X65178859Y44664652D01*
X65168785Y44688974D01*
X65082614Y44817938D01*
X64972938Y44927614D01*
X64843974Y45013785D01*
X64819650Y45023861D01*
X65372195Y45576406D01*
X65372195Y45576408D01*
X65283063Y45641166D01*
X65065764Y45751885D01*
X64833822Y45827248D01*
X64592937Y45865400D01*
X64349063Y45865400D01*
X64108177Y45827248D01*
X63876235Y45751885D01*
X63658942Y45641170D01*
X63569803Y45576407D01*
X63569803Y45576406D01*
X64122349Y45023860D01*
X64098026Y45013785D01*
X63969062Y44927614D01*
X63859386Y44817938D01*
X63773215Y44688974D01*
X63763140Y44664651D01*
X63210594Y45217197D01*
X63210593Y45217197D01*
X63145830Y45128058D01*
X63035115Y44910765D01*
X62959752Y44678823D01*
X62921600Y44437937D01*
X51000000Y44437937D01*
X51000000Y46162200D01*
X51016082Y46216969D01*
X66023900Y46216969D01*
X66023900Y45971032D01*
X66055999Y45727214D01*
X66056000Y45727208D01*
X66056001Y45727206D01*
X66119653Y45489654D01*
X66213767Y45262442D01*
X66213768Y45262441D01*
X66213773Y45262431D01*
X66336730Y45049463D01*
X66336732Y45049460D01*
X66336733Y45049459D01*
X66430228Y44927614D01*
X66486447Y44854347D01*
X66486456Y44854337D01*
X66660336Y44680457D01*
X66660346Y44680448D01*
X66660347Y44680447D01*
X66855459Y44530733D01*
X67068442Y44407767D01*
X67295654Y44313653D01*
X67533206Y44250001D01*
X67533212Y44250001D01*
X67533213Y44250000D01*
X67561188Y44246317D01*
X67777034Y44217900D01*
X67777041Y44217900D01*
X68022959Y44217900D01*
X68022966Y44217900D01*
X68266794Y44250001D01*
X68504346Y44313653D01*
X68731558Y44407767D01*
X68944541Y44530733D01*
X69139653Y44680447D01*
X69313553Y44854347D01*
X69463267Y45049459D01*
X69586233Y45262442D01*
X69680347Y45489654D01*
X69743999Y45727206D01*
X69776100Y45971034D01*
X69776100Y46216966D01*
X69743999Y46460794D01*
X69680347Y46698346D01*
X69586233Y46925558D01*
X69463267Y47138541D01*
X69313553Y47333653D01*
X69313552Y47333654D01*
X69313543Y47333664D01*
X69139663Y47507544D01*
X69139653Y47507553D01*
X68944537Y47657270D01*
X68731569Y47780227D01*
X68731564Y47780230D01*
X68731558Y47780233D01*
X68504346Y47874347D01*
X68266794Y47937999D01*
X68266792Y47938000D01*
X68266786Y47938001D01*
X68022968Y47970100D01*
X68022966Y47970100D01*
X67777034Y47970100D01*
X67777031Y47970100D01*
X67533213Y47938001D01*
X67295654Y47874347D01*
X67068440Y47780232D01*
X67068430Y47780227D01*
X66855462Y47657270D01*
X66660346Y47507553D01*
X66660336Y47507544D01*
X66486456Y47333664D01*
X66486447Y47333654D01*
X66336730Y47138538D01*
X66213773Y46925570D01*
X66213768Y46925560D01*
X66119653Y46698346D01*
X66055999Y46460787D01*
X66023900Y46216969D01*
X51016082Y46216969D01*
X51020002Y46230321D01*
X51073658Y46276814D01*
X51126000Y46288200D01*
X61678093Y46288200D01*
X61678094Y46288200D01*
X61800485Y46312545D01*
X61860731Y46337501D01*
X61860735Y46337501D01*
X61915770Y46360298D01*
X61915769Y46360298D01*
X61915775Y46360300D01*
X62019533Y46429629D01*
X63298758Y47708856D01*
X63361067Y47742878D01*
X63407556Y47744207D01*
X63490942Y47731000D01*
X63490945Y47731000D01*
X63673055Y47731000D01*
X63673058Y47731000D01*
X63852932Y47759489D01*
X64026134Y47815766D01*
X64188400Y47898445D01*
X64335735Y48005490D01*
X64464510Y48134265D01*
X64571555Y48281600D01*
X64654234Y48443866D01*
X64710511Y48617068D01*
X64730182Y48741268D01*
X64760593Y48805419D01*
X64820861Y48842946D01*
X64891851Y48841932D01*
X64911828Y48833824D01*
X64915866Y48831766D01*
X65089068Y48775489D01*
X65268942Y48747000D01*
X65268945Y48747000D01*
X65451055Y48747000D01*
X65451058Y48747000D01*
X65630932Y48775489D01*
X65804134Y48831766D01*
X65966400Y48914445D01*
X66113735Y49021490D01*
X66242510Y49150265D01*
X66349555Y49297600D01*
X66432234Y49459866D01*
X66488511Y49633068D01*
X66517000Y49812942D01*
X66517000Y49995058D01*
X66488511Y50174932D01*
X66432234Y50348134D01*
X66349555Y50510400D01*
X66242510Y50657735D01*
X66242507Y50657738D01*
X66242505Y50657741D01*
X66113740Y50786506D01*
X66113737Y50786508D01*
X66113735Y50786510D01*
X66070303Y50818065D01*
X66026950Y50874286D01*
X66020875Y50945022D01*
X66054006Y51007814D01*
X66070300Y51021934D01*
X66113735Y51053490D01*
X66242510Y51182265D01*
X66349555Y51329600D01*
X66432234Y51491866D01*
X66488511Y51665068D01*
X66517000Y51844942D01*
X66517000Y52027058D01*
X66488511Y52206932D01*
X66432234Y52380134D01*
X66349555Y52542400D01*
X66242510Y52689735D01*
X66242507Y52689738D01*
X66242505Y52689741D01*
X66113740Y52818506D01*
X66113737Y52818508D01*
X66113735Y52818510D01*
X66070303Y52850065D01*
X66026950Y52906286D01*
X66020875Y52977022D01*
X66054006Y53039814D01*
X66070300Y53053934D01*
X66113735Y53085490D01*
X66242510Y53214265D01*
X66349555Y53361600D01*
X66432234Y53523866D01*
X66488511Y53697068D01*
X66517000Y53876942D01*
X66517000Y54059058D01*
X66488511Y54238932D01*
X66432234Y54412134D01*
X66349555Y54574400D01*
X66242510Y54721735D01*
X66242507Y54721738D01*
X66242505Y54721741D01*
X66113740Y54850506D01*
X66113737Y54850508D01*
X66113735Y54850510D01*
X66070303Y54882065D01*
X66026950Y54938286D01*
X66020875Y55009022D01*
X66054006Y55071814D01*
X66070300Y55085934D01*
X66113735Y55117490D01*
X66242510Y55246265D01*
X66349555Y55393600D01*
X66432234Y55555866D01*
X66488511Y55729068D01*
X66517000Y55908942D01*
X66517000Y56091058D01*
X66488511Y56270932D01*
X66432234Y56444134D01*
X66349555Y56606400D01*
X66242510Y56753735D01*
X66242507Y56753738D01*
X66242505Y56753741D01*
X66113740Y56882506D01*
X66113737Y56882508D01*
X66113735Y56882510D01*
X65966400Y56989555D01*
X65804134Y57072234D01*
X65804133Y57072235D01*
X65804130Y57072236D01*
X65630937Y57128510D01*
X65630933Y57128511D01*
X65630932Y57128511D01*
X65451058Y57157000D01*
X65268942Y57157000D01*
X65243029Y57152896D01*
X65185561Y57143795D01*
X65115150Y57152896D01*
X65076757Y57179148D01*
X64936133Y57319771D01*
X64832375Y57389100D01*
X64717085Y57436855D01*
X64643386Y57451515D01*
X64594696Y57461200D01*
X64594694Y57461200D01*
X53530504Y57461200D01*
X53512823Y57466392D01*
X53494399Y57466484D01*
X53479468Y57476186D01*
X53462383Y57481202D01*
X53450316Y57495128D01*
X53434866Y57505167D01*
X53427550Y57521401D01*
X53415890Y57534858D01*
X53413267Y57553097D01*
X53405698Y57569895D01*
X53406570Y57599677D01*
X53405786Y57605132D01*
X53405878Y57605758D01*
X53406328Y57608781D01*
X53438500Y57770521D01*
X53438500Y57824832D01*
X53439874Y57834059D01*
X53451023Y57858152D01*
X53458502Y57883622D01*
X53465694Y57889854D01*
X53469691Y57898491D01*
X53492096Y57912732D01*
X53512158Y57930115D01*
X53523239Y57932526D01*
X53529609Y57936574D01*
X53541573Y57936514D01*
X53564500Y57941501D01*
X53768746Y57941501D01*
X53805937Y57944427D01*
X53965100Y57990668D01*
X53976349Y57997321D01*
X54045162Y58014782D01*
X54104631Y57997322D01*
X54115099Y57991131D01*
X54271000Y57945838D01*
X54779000Y57945838D01*
X54934902Y57991132D01*
X55077453Y58075437D01*
X55077457Y58075440D01*
X55194560Y58192543D01*
X55194563Y58192547D01*
X55278869Y58335099D01*
X55325076Y58494144D01*
X55325076Y58494145D01*
X55326796Y58516000D01*
X54779000Y58516000D01*
X54779000Y57945838D01*
X54271000Y57945838D01*
X54271000Y58235614D01*
X54288547Y58299753D01*
X54309330Y58334896D01*
X54309330Y58334898D01*
X54309332Y58334900D01*
X54355573Y58494063D01*
X54358499Y58531246D01*
X54358500Y58531246D01*
X54358500Y58568191D01*
X54358500Y58668500D01*
X54358499Y58916969D01*
X66023900Y58916969D01*
X66023900Y58671032D01*
X66055999Y58427214D01*
X66056000Y58427208D01*
X66056001Y58427206D01*
X66119653Y58189654D01*
X66213767Y57962442D01*
X66213768Y57962441D01*
X66213773Y57962431D01*
X66336730Y57749463D01*
X66336732Y57749460D01*
X66336733Y57749459D01*
X66451664Y57599677D01*
X66486447Y57554347D01*
X66486456Y57554337D01*
X66660336Y57380457D01*
X66660346Y57380448D01*
X66660347Y57380447D01*
X66854416Y57231533D01*
X66855462Y57230731D01*
X66983168Y57157000D01*
X67068442Y57107767D01*
X67295654Y57013653D01*
X67533206Y56950001D01*
X67533212Y56950001D01*
X67533213Y56950000D01*
X67561188Y56946317D01*
X67777034Y56917900D01*
X67777041Y56917900D01*
X68022959Y56917900D01*
X68022966Y56917900D01*
X68266794Y56950001D01*
X68504346Y57013653D01*
X68731558Y57107767D01*
X68944541Y57230733D01*
X69139653Y57380447D01*
X69313553Y57554347D01*
X69463267Y57749459D01*
X69586233Y57962442D01*
X69680347Y58189654D01*
X69743999Y58427206D01*
X69776100Y58671034D01*
X69776100Y58916966D01*
X69743999Y59160794D01*
X69680347Y59398346D01*
X69586233Y59625558D01*
X69463267Y59838541D01*
X69313553Y60033653D01*
X69313552Y60033654D01*
X69313543Y60033664D01*
X69139663Y60207544D01*
X69139653Y60207553D01*
X68944537Y60357270D01*
X68731569Y60480227D01*
X68731564Y60480230D01*
X68731558Y60480233D01*
X68504346Y60574347D01*
X68266794Y60637999D01*
X68266792Y60638000D01*
X68266786Y60638001D01*
X68022968Y60670100D01*
X68022966Y60670100D01*
X67777034Y60670100D01*
X67777031Y60670100D01*
X67533213Y60638001D01*
X67533206Y60637999D01*
X67295654Y60574347D01*
X67102761Y60494448D01*
X67068440Y60480232D01*
X67068430Y60480227D01*
X66855462Y60357270D01*
X66660346Y60207553D01*
X66660336Y60207544D01*
X66486456Y60033664D01*
X66486447Y60033654D01*
X66336730Y59838538D01*
X66213773Y59625570D01*
X66213768Y59625560D01*
X66213767Y59625558D01*
X66179437Y59542677D01*
X66119653Y59398346D01*
X66055999Y59160787D01*
X66023900Y58916969D01*
X54358499Y58916969D01*
X54358499Y59008746D01*
X54357299Y59024000D01*
X54779000Y59024000D01*
X55326795Y59024000D01*
X55325076Y59045856D01*
X55325076Y59045857D01*
X55278869Y59204902D01*
X55225303Y59295476D01*
X55225302Y59295478D01*
X55194565Y59347451D01*
X55194560Y59347458D01*
X55077457Y59464561D01*
X55077453Y59464564D01*
X54934902Y59548869D01*
X54779000Y59594164D01*
X54779000Y59024000D01*
X54357299Y59024000D01*
X54355573Y59045937D01*
X54309332Y59205100D01*
X54288546Y59240248D01*
X54271000Y59304386D01*
X54271000Y59594164D01*
X54115095Y59548869D01*
X54104626Y59542677D01*
X54035809Y59525219D01*
X53976353Y59542677D01*
X53965100Y59549332D01*
X53805942Y59595572D01*
X53805938Y59595573D01*
X53805937Y59595573D01*
X53805933Y59595574D01*
X53805929Y59595574D01*
X53768755Y59598500D01*
X53341254Y59598500D01*
X53304064Y59595574D01*
X53144899Y59549332D01*
X53106522Y59526636D01*
X53037705Y59509178D01*
X52972384Y59530325D01*
X52920336Y59565102D01*
X52755003Y59633586D01*
X52755001Y59633587D01*
X52755000Y59633587D01*
X52666645Y59651162D01*
X52579481Y59668500D01*
X52579479Y59668500D01*
X52400521Y59668500D01*
X52400518Y59668500D01*
X52269771Y59642493D01*
X52225000Y59633587D01*
X52224999Y59633587D01*
X52224996Y59633586D01*
X52059662Y59565101D01*
X51910869Y59465681D01*
X51910862Y59465676D01*
X51784324Y59339138D01*
X51784319Y59339131D01*
X51684899Y59190338D01*
X51616414Y59025004D01*
X51581500Y58849482D01*
X51581500Y58794500D01*
X51561498Y58726379D01*
X51507842Y58679886D01*
X51455501Y58668500D01*
X51351254Y58668500D01*
X51314062Y58665573D01*
X51161152Y58621149D01*
X51090156Y58621352D01*
X51030540Y58659906D01*
X51001232Y58724571D01*
X51000000Y58742146D01*
X51000000Y60693937D01*
X62921600Y60693937D01*
X62921600Y60450064D01*
X62959752Y60209178D01*
X63035115Y59977236D01*
X63145834Y59759937D01*
X63210592Y59670805D01*
X63210594Y59670805D01*
X63763139Y60223351D01*
X63773215Y60199026D01*
X63859386Y60070062D01*
X63969062Y59960386D01*
X64098026Y59874215D01*
X64122348Y59864141D01*
X63569803Y59311596D01*
X63569803Y59311594D01*
X63658936Y59246835D01*
X63876235Y59136116D01*
X64108177Y59060753D01*
X64349063Y59022600D01*
X64592937Y59022600D01*
X64737776Y59045540D01*
X64833822Y59060753D01*
X65065764Y59136116D01*
X65283064Y59246835D01*
X65372195Y59311594D01*
X65372195Y59311596D01*
X64819650Y59864141D01*
X64843974Y59874215D01*
X64972938Y59960386D01*
X65082614Y60070062D01*
X65168785Y60199026D01*
X65178859Y60223350D01*
X65731404Y59670805D01*
X65731406Y59670805D01*
X65796165Y59759936D01*
X65906884Y59977236D01*
X65982247Y60209178D01*
X66020400Y60450064D01*
X66020400Y60693937D01*
X65982247Y60934823D01*
X65906884Y61166765D01*
X65796165Y61384064D01*
X65731406Y61473197D01*
X65731404Y61473197D01*
X65178859Y60920652D01*
X65168785Y60944974D01*
X65082614Y61073938D01*
X64972938Y61183614D01*
X64843974Y61269785D01*
X64819650Y61279861D01*
X65372195Y61832406D01*
X65372195Y61832408D01*
X65283063Y61897166D01*
X65065764Y62007885D01*
X64833822Y62083248D01*
X64592937Y62121400D01*
X64349063Y62121400D01*
X64108177Y62083248D01*
X63876235Y62007885D01*
X63658942Y61897170D01*
X63569803Y61832407D01*
X63569803Y61832406D01*
X64122349Y61279860D01*
X64098026Y61269785D01*
X63969062Y61183614D01*
X63859386Y61073938D01*
X63773215Y60944974D01*
X63763140Y60920651D01*
X63210594Y61473197D01*
X63210593Y61473197D01*
X63145830Y61384058D01*
X63035115Y61166765D01*
X62959752Y60934823D01*
X62921600Y60693937D01*
X51000000Y60693937D01*
X51000000Y61979484D01*
X52067000Y61979484D01*
X52077605Y61875682D01*
X52077606Y61875679D01*
X52133342Y61707475D01*
X52226365Y61556661D01*
X52226370Y61556655D01*
X52351654Y61431371D01*
X52351660Y61431366D01*
X52502474Y61338343D01*
X52670678Y61282607D01*
X52670681Y61282606D01*
X52774483Y61272001D01*
X52774483Y61272000D01*
X52883500Y61272000D01*
X53391500Y61272000D01*
X53500517Y61272000D01*
X53500516Y61272001D01*
X53604318Y61282606D01*
X53604321Y61282607D01*
X53772525Y61338343D01*
X53923339Y61431366D01*
X53923345Y61431371D01*
X54048629Y61556655D01*
X54048634Y61556661D01*
X54141659Y61707479D01*
X54180274Y61824011D01*
X54180276Y61824017D01*
X54197393Y61875675D01*
X54197394Y61875682D01*
X54207999Y61979484D01*
X54208000Y61979484D01*
X54208000Y63226000D01*
X53391500Y63226000D01*
X53391500Y61272000D01*
X52883500Y61272000D01*
X52883500Y63226000D01*
X52067000Y63226000D01*
X52067000Y61979484D01*
X51000000Y61979484D01*
X51000000Y64980517D01*
X52067000Y64980517D01*
X52067000Y63734000D01*
X52883500Y63734000D01*
X53391500Y63734000D01*
X54208000Y63734000D01*
X54208000Y64980517D01*
X54197394Y65084319D01*
X54197393Y65084322D01*
X54141657Y65252526D01*
X54048634Y65403340D01*
X54048629Y65403346D01*
X53923345Y65528630D01*
X53923339Y65528635D01*
X53772525Y65621658D01*
X53604321Y65677394D01*
X53604318Y65677395D01*
X53500516Y65688000D01*
X53391500Y65688000D01*
X53391500Y63734000D01*
X52883500Y63734000D01*
X52883500Y65688000D01*
X52774483Y65688000D01*
X52670681Y65677395D01*
X52670678Y65677394D01*
X52502474Y65621658D01*
X52351660Y65528635D01*
X52351654Y65528630D01*
X52226370Y65403346D01*
X52226365Y65403340D01*
X52133342Y65252526D01*
X52077606Y65084322D01*
X52077605Y65084319D01*
X52067000Y64980517D01*
X51000000Y64980517D01*
X51000000Y70121291D01*
X67149500Y70121291D01*
X67149500Y69878710D01*
X67181160Y69638218D01*
X67243944Y69403905D01*
X67243945Y69403903D01*
X67243946Y69403900D01*
X67336776Y69179788D01*
X67336777Y69179787D01*
X67336782Y69179776D01*
X67458061Y68969715D01*
X67458063Y68969712D01*
X67458064Y68969711D01*
X67605735Y68777262D01*
X67605739Y68777258D01*
X67605744Y68777252D01*
X67777251Y68605745D01*
X67777256Y68605741D01*
X67777262Y68605735D01*
X67969711Y68458064D01*
X67969714Y68458062D01*
X68179775Y68336783D01*
X68179779Y68336782D01*
X68179788Y68336776D01*
X68403900Y68243946D01*
X68638211Y68181162D01*
X68638215Y68181162D01*
X68638217Y68181161D01*
X68700202Y68173001D01*
X68878712Y68149500D01*
X68878719Y68149500D01*
X69121281Y68149500D01*
X69121288Y68149500D01*
X69338637Y68178115D01*
X69361782Y68181161D01*
X69361782Y68181162D01*
X69361789Y68181162D01*
X69596100Y68243946D01*
X69820212Y68336776D01*
X70030289Y68458064D01*
X70222738Y68605735D01*
X70394265Y68777262D01*
X70541936Y68969711D01*
X70663224Y69179788D01*
X70756054Y69403900D01*
X70818838Y69638211D01*
X70850500Y69878712D01*
X70850500Y70121288D01*
X70818838Y70361789D01*
X70756054Y70596100D01*
X70663224Y70820212D01*
X70663218Y70820221D01*
X70663217Y70820225D01*
X70541938Y71030286D01*
X70541936Y71030289D01*
X70394265Y71222738D01*
X70394259Y71222744D01*
X70394255Y71222749D01*
X70222748Y71394256D01*
X70222742Y71394261D01*
X70222738Y71394265D01*
X70030289Y71541936D01*
X70030288Y71541937D01*
X70030285Y71541939D01*
X69820224Y71663218D01*
X69820216Y71663222D01*
X69820212Y71663224D01*
X69596100Y71756054D01*
X69596097Y71756055D01*
X69596095Y71756056D01*
X69361782Y71818840D01*
X69121290Y71850500D01*
X69121288Y71850500D01*
X68878712Y71850500D01*
X68878709Y71850500D01*
X68638217Y71818840D01*
X68403904Y71756056D01*
X68403900Y71756054D01*
X68179786Y71663223D01*
X68179775Y71663218D01*
X67969714Y71541939D01*
X67777262Y71394265D01*
X67777251Y71394256D01*
X67605744Y71222749D01*
X67605735Y71222738D01*
X67458061Y71030286D01*
X67336782Y70820225D01*
X67336777Y70820214D01*
X67243946Y70596100D01*
X67243944Y70596096D01*
X67181160Y70361783D01*
X67149500Y70121291D01*
X51000000Y70121291D01*
X51000000Y73848500D01*
X51020002Y73916621D01*
X51073658Y73963114D01*
X51126000Y73974500D01*
X72848500Y73974500D01*
X72916621Y73954498D01*
G37*
%TD.AperFunction*%
%TA.AperFunction,Conductor*%
G36*
X61312441Y26299692D02*
G01*
X61348673Y26238637D01*
X61346144Y26167686D01*
X61315685Y26118372D01*
X60820019Y25622705D01*
X60757706Y25588680D01*
X60730923Y25585800D01*
X53787332Y25585800D01*
X53719211Y25605802D01*
X53672718Y25659458D01*
X53662614Y25729732D01*
X53663753Y25736381D01*
X53678499Y25810516D01*
X53678500Y25810523D01*
X53678500Y25989478D01*
X53678499Y25989482D01*
X53658208Y26091495D01*
X53646686Y26149420D01*
X53653014Y26220132D01*
X53696568Y26276200D01*
X53763521Y26299819D01*
X53770265Y26300000D01*
X61057111Y26300000D01*
X61057112Y26300000D01*
X61179503Y26324345D01*
X61179507Y26324347D01*
X61179513Y26324348D01*
X61185437Y26326144D01*
X61185880Y26324681D01*
X61248951Y26331467D01*
X61312441Y26299692D01*
G37*
%TD.AperFunction*%
%TA.AperFunction,Conductor*%
G36*
X61081112Y29263017D02*
G01*
X61111582Y29256388D01*
X61116677Y29252574D01*
X61119318Y29251798D01*
X61140292Y29234895D01*
X61170865Y29204322D01*
X61189408Y29191932D01*
X61209588Y29178448D01*
X61255116Y29123971D01*
X61263964Y29053528D01*
X61233323Y28989484D01*
X61228682Y28984588D01*
X60838601Y28594505D01*
X60776289Y28560480D01*
X60749505Y28557600D01*
X53779733Y28557600D01*
X53711612Y28577602D01*
X53665119Y28631258D01*
X53655015Y28701532D01*
X53656150Y28708162D01*
X53678500Y28820521D01*
X53678500Y28999479D01*
X53654284Y29121221D01*
X53660612Y29191932D01*
X53704166Y29247999D01*
X53771118Y29271619D01*
X53777863Y29271800D01*
X61051197Y29271800D01*
X61081112Y29263017D01*
G37*
%TD.AperFunction*%
%TA.AperFunction,Conductor*%
G36*
X62277121Y32223598D02*
G01*
X62323614Y32169942D01*
X62335000Y32117600D01*
X62335000Y31962942D01*
X62363489Y31783068D01*
X62389922Y31701715D01*
X62392320Y31694337D01*
X62394348Y31623369D01*
X62357685Y31562571D01*
X62293973Y31531246D01*
X62272487Y31529400D01*
X53759424Y31529400D01*
X53691303Y31549402D01*
X53644810Y31603058D01*
X53634706Y31673332D01*
X53643016Y31703619D01*
X53643584Y31704993D01*
X53643583Y31704993D01*
X53643587Y31705000D01*
X53678500Y31880521D01*
X53678500Y32059479D01*
X53671829Y32093019D01*
X53678157Y32163733D01*
X53721712Y32219800D01*
X53788664Y32243419D01*
X53795408Y32243600D01*
X62209000Y32243600D01*
X62277121Y32223598D01*
G37*
%TD.AperFunction*%
%TA.AperFunction,Conductor*%
G36*
X61432440Y49259696D02*
G01*
X61468674Y49198642D01*
X61466147Y49127690D01*
X61435687Y49078374D01*
X60940017Y48582704D01*
X60877707Y48548680D01*
X60850924Y48545800D01*
X53535397Y48545800D01*
X53467276Y48565802D01*
X53420783Y48619458D01*
X53410679Y48689732D01*
X53411818Y48696382D01*
X53420746Y48741265D01*
X53438500Y48830521D01*
X53438500Y49009479D01*
X53418621Y49109419D01*
X53424949Y49180133D01*
X53468503Y49236200D01*
X53535456Y49259819D01*
X53542200Y49260000D01*
X61177111Y49260000D01*
X61177112Y49260000D01*
X61299503Y49284345D01*
X61299507Y49284347D01*
X61299513Y49284348D01*
X61305437Y49286144D01*
X61305880Y49284682D01*
X61368949Y49291468D01*
X61432440Y49259696D01*
G37*
%TD.AperFunction*%
%TA.AperFunction,Conductor*%
G36*
X60814618Y52346498D02*
G01*
X60835588Y52329599D01*
X60870865Y52294322D01*
X60875243Y52289944D01*
X60873242Y52287944D01*
X60906375Y52239321D01*
X60908289Y52168350D01*
X60875576Y52111481D01*
X60318601Y51554505D01*
X60256288Y51520480D01*
X60229505Y51517600D01*
X53537744Y51517600D01*
X53469623Y51537602D01*
X53423130Y51591258D01*
X53413026Y51661532D01*
X53414165Y51668182D01*
X53418488Y51689915D01*
X53438500Y51790521D01*
X53438500Y51969479D01*
X53403587Y52145000D01*
X53391254Y52174775D01*
X53384003Y52192281D01*
X53376413Y52262870D01*
X53408191Y52326358D01*
X53469249Y52362586D01*
X53500411Y52366500D01*
X60746497Y52366500D01*
X60814618Y52346498D01*
G37*
%TD.AperFunction*%
%TA.AperFunction,Conductor*%
G36*
X62367121Y55183598D02*
G01*
X62413614Y55129942D01*
X62425000Y55077600D01*
X62425000Y55075058D01*
X62425000Y54892942D01*
X62448152Y54746763D01*
X62448175Y54746615D01*
X62443481Y54711614D01*
X62438982Y54676800D01*
X62438780Y54676562D01*
X62438739Y54676249D01*
X62415886Y54649365D01*
X62393260Y54622486D01*
X62392960Y54622394D01*
X62392757Y54622154D01*
X62359049Y54611908D01*
X62325432Y54601513D01*
X62324838Y54601509D01*
X62324830Y54601506D01*
X62324820Y54601509D01*
X62323633Y54601500D01*
X53550455Y54601500D01*
X53482334Y54621502D01*
X53435841Y54675158D01*
X53425737Y54745432D01*
X53426876Y54752081D01*
X53438499Y54810516D01*
X53438500Y54810523D01*
X53438500Y54989478D01*
X53438499Y54989482D01*
X53425861Y55053020D01*
X53432189Y55123732D01*
X53475743Y55179799D01*
X53542695Y55203419D01*
X53549440Y55203600D01*
X62299000Y55203600D01*
X62367121Y55183598D01*
G37*
%TD.AperFunction*%
%TD*%
M02*
