%TF.GenerationSoftware,KiCad,Pcbnew,10.0.1*%
%TF.CreationDate,2026-05-03T12:30:56+03:00*%
%TF.ProjectId,i5ether,69356574-6865-4722-9e6b-696361645f70,rev?*%
%TF.SameCoordinates,Original*%
%TF.FileFunction,Legend,Bot*%
%TF.FilePolarity,Positive*%
%FSLAX46Y46*%
G04 Gerber Fmt 4.6, Leading zero omitted, Abs format (unit mm)*
G04 Created by KiCad (PCBNEW 10.0.1) date 2026-05-03 12:30:56*
%MOMM*%
%LPD*%
G01*
G04 APERTURE LIST*
%ADD10C,0.010000*%
G04 APERTURE END LIST*
D10*
%TO.C,REF\u002A\u002A*%
X16982302Y65211947D02*
X17026800Y65204426D01*
X17078066Y65192002D01*
X17168566Y65154112D01*
X17247655Y65099836D01*
X17313472Y65031770D01*
X17364160Y64952511D01*
X17397860Y64864654D01*
X17412714Y64770795D01*
X17406864Y64673530D01*
X17380601Y64577220D01*
X17335582Y64488494D01*
X17274627Y64413419D01*
X17199816Y64353641D01*
X17113232Y64310809D01*
X17016957Y64286571D01*
X16913072Y64282576D01*
X16835438Y64292850D01*
X16752687Y64320053D01*
X16677594Y64365484D01*
X16605702Y64431302D01*
X16567154Y64475567D01*
X16527744Y64533961D01*
X16502554Y64594586D01*
X16489139Y64663865D01*
X16485052Y64748222D01*
X16485331Y64794307D01*
X16487540Y64835450D01*
X16493106Y64867582D01*
X16503414Y64898122D01*
X16519852Y64934489D01*
X16533800Y64961728D01*
X16592335Y65047429D01*
X16664381Y65116617D01*
X16748053Y65167741D01*
X16841469Y65199250D01*
X16874566Y65206225D01*
X16915040Y65213094D01*
X16948001Y65214919D01*
X16982302Y65211947D01*
G36*
X16982302Y65211947D02*
G01*
X17026800Y65204426D01*
X17078066Y65192002D01*
X17168566Y65154112D01*
X17247655Y65099836D01*
X17313472Y65031770D01*
X17364160Y64952511D01*
X17397860Y64864654D01*
X17412714Y64770795D01*
X17406864Y64673530D01*
X17380601Y64577220D01*
X17335582Y64488494D01*
X17274627Y64413419D01*
X17199816Y64353641D01*
X17113232Y64310809D01*
X17016957Y64286571D01*
X16913072Y64282576D01*
X16835438Y64292850D01*
X16752687Y64320053D01*
X16677594Y64365484D01*
X16605702Y64431302D01*
X16567154Y64475567D01*
X16527744Y64533961D01*
X16502554Y64594586D01*
X16489139Y64663865D01*
X16485052Y64748222D01*
X16485331Y64794307D01*
X16487540Y64835450D01*
X16493106Y64867582D01*
X16503414Y64898122D01*
X16519852Y64934489D01*
X16533800Y64961728D01*
X16592335Y65047429D01*
X16664381Y65116617D01*
X16748053Y65167741D01*
X16841469Y65199250D01*
X16874566Y65206225D01*
X16915040Y65213094D01*
X16948001Y65214919D01*
X16982302Y65211947D01*
G37*
X19638622Y68735140D02*
X19786327Y68722136D01*
X19924221Y68697133D01*
X20057986Y68659318D01*
X20081438Y68650889D01*
X20129388Y68631408D01*
X20185860Y68606473D01*
X20247621Y68577722D01*
X20311437Y68546790D01*
X20374074Y68515315D01*
X20432297Y68484934D01*
X20482873Y68457283D01*
X20522567Y68433999D01*
X20548146Y68416718D01*
X20556375Y68407079D01*
X20554924Y68403984D01*
X20543750Y68384079D01*
X20522866Y68348420D01*
X20493735Y68299459D01*
X20457819Y68239646D01*
X20416580Y68171433D01*
X20371483Y68097271D01*
X20190215Y67800008D01*
X20143685Y67844539D01*
X20052277Y67922865D01*
X19938666Y67997439D01*
X19820878Y68051474D01*
X19700441Y68084290D01*
X19578883Y68095211D01*
X19537415Y68093868D01*
X19419920Y68075612D01*
X19309911Y68036617D01*
X19208570Y67977670D01*
X19117079Y67899557D01*
X19036620Y67803064D01*
X18968373Y67688978D01*
X18952092Y67654724D01*
X18906018Y67531240D01*
X18870894Y67392918D01*
X18846803Y67243561D01*
X18833827Y67086973D01*
X18832051Y66926956D01*
X18841557Y66767314D01*
X18862428Y66611850D01*
X18894748Y66464366D01*
X18938601Y66328667D01*
X18976018Y66242076D01*
X19040815Y66128688D01*
X19116228Y66035070D01*
X19202582Y65960959D01*
X19300205Y65906094D01*
X19409423Y65870212D01*
X19530561Y65853051D01*
X19599962Y65851880D01*
X19722832Y65866141D01*
X19838336Y65901241D01*
X19945047Y65956682D01*
X20041536Y66031964D01*
X20057280Y66046440D01*
X20087850Y66072962D01*
X20110191Y66090138D01*
X20120309Y66094787D01*
X20122294Y66092597D01*
X20136759Y66073721D01*
X20160600Y66040397D01*
X20191971Y65995380D01*
X20229026Y65941425D01*
X20269917Y65881285D01*
X20312798Y65817718D01*
X20355822Y65753476D01*
X20397143Y65691315D01*
X20434914Y65633991D01*
X20467288Y65584257D01*
X20492418Y65544868D01*
X20508458Y65518580D01*
X20513561Y65508147D01*
X20508950Y65503941D01*
X20489733Y65498933D01*
X20480162Y65496386D01*
X20452191Y65485249D01*
X20410552Y65466802D01*
X20359005Y65442725D01*
X20301310Y65414699D01*
X20290043Y65409154D01*
X20112313Y65329889D01*
X19942510Y65270385D01*
X19778570Y65230245D01*
X19618429Y65209071D01*
X19460023Y65206466D01*
X19301289Y65222033D01*
X19205732Y65239523D01*
X19041442Y65284564D01*
X18887411Y65347656D01*
X18741491Y65429915D01*
X18601534Y65532457D01*
X18465392Y65656399D01*
X18421527Y65701661D01*
X18309242Y65833865D01*
X18216028Y65971832D01*
X18139281Y66119750D01*
X18076397Y66281803D01*
X18072580Y66293391D01*
X18022493Y66479392D01*
X17989101Y66675521D01*
X17972416Y66877568D01*
X17972449Y67081325D01*
X17989209Y67282581D01*
X18022708Y67477128D01*
X18072956Y67660756D01*
X18116810Y67778053D01*
X18194652Y67940951D01*
X18288172Y68094866D01*
X18395178Y68236671D01*
X18513481Y68363239D01*
X18640889Y68471441D01*
X18718394Y68524120D01*
X18845275Y68593750D01*
X18982757Y68652468D01*
X19124284Y68697587D01*
X19263298Y68726422D01*
X19277403Y68728106D01*
X19320847Y68731434D01*
X19378277Y68734275D01*
X19443878Y68736373D01*
X19511833Y68737468D01*
X19638622Y68735140D01*
G36*
X19638622Y68735140D02*
G01*
X19786327Y68722136D01*
X19924221Y68697133D01*
X20057986Y68659318D01*
X20081438Y68650889D01*
X20129388Y68631408D01*
X20185860Y68606473D01*
X20247621Y68577722D01*
X20311437Y68546790D01*
X20374074Y68515315D01*
X20432297Y68484934D01*
X20482873Y68457283D01*
X20522567Y68433999D01*
X20548146Y68416718D01*
X20556375Y68407079D01*
X20554924Y68403984D01*
X20543750Y68384079D01*
X20522866Y68348420D01*
X20493735Y68299459D01*
X20457819Y68239646D01*
X20416580Y68171433D01*
X20371483Y68097271D01*
X20190215Y67800008D01*
X20143685Y67844539D01*
X20052277Y67922865D01*
X19938666Y67997439D01*
X19820878Y68051474D01*
X19700441Y68084290D01*
X19578883Y68095211D01*
X19537415Y68093868D01*
X19419920Y68075612D01*
X19309911Y68036617D01*
X19208570Y67977670D01*
X19117079Y67899557D01*
X19036620Y67803064D01*
X18968373Y67688978D01*
X18952092Y67654724D01*
X18906018Y67531240D01*
X18870894Y67392918D01*
X18846803Y67243561D01*
X18833827Y67086973D01*
X18832051Y66926956D01*
X18841557Y66767314D01*
X18862428Y66611850D01*
X18894748Y66464366D01*
X18938601Y66328667D01*
X18976018Y66242076D01*
X19040815Y66128688D01*
X19116228Y66035070D01*
X19202582Y65960959D01*
X19300205Y65906094D01*
X19409423Y65870212D01*
X19530561Y65853051D01*
X19599962Y65851880D01*
X19722832Y65866141D01*
X19838336Y65901241D01*
X19945047Y65956682D01*
X20041536Y66031964D01*
X20057280Y66046440D01*
X20087850Y66072962D01*
X20110191Y66090138D01*
X20120309Y66094787D01*
X20122294Y66092597D01*
X20136759Y66073721D01*
X20160600Y66040397D01*
X20191971Y65995380D01*
X20229026Y65941425D01*
X20269917Y65881285D01*
X20312798Y65817718D01*
X20355822Y65753476D01*
X20397143Y65691315D01*
X20434914Y65633991D01*
X20467288Y65584257D01*
X20492418Y65544868D01*
X20508458Y65518580D01*
X20513561Y65508147D01*
X20508950Y65503941D01*
X20489733Y65498933D01*
X20480162Y65496386D01*
X20452191Y65485249D01*
X20410552Y65466802D01*
X20359005Y65442725D01*
X20301310Y65414699D01*
X20290043Y65409154D01*
X20112313Y65329889D01*
X19942510Y65270385D01*
X19778570Y65230245D01*
X19618429Y65209071D01*
X19460023Y65206466D01*
X19301289Y65222033D01*
X19205732Y65239523D01*
X19041442Y65284564D01*
X18887411Y65347656D01*
X18741491Y65429915D01*
X18601534Y65532457D01*
X18465392Y65656399D01*
X18421527Y65701661D01*
X18309242Y65833865D01*
X18216028Y65971832D01*
X18139281Y66119750D01*
X18076397Y66281803D01*
X18072580Y66293391D01*
X18022493Y66479392D01*
X17989101Y66675521D01*
X17972416Y66877568D01*
X17972449Y67081325D01*
X17989209Y67282581D01*
X18022708Y67477128D01*
X18072956Y67660756D01*
X18116810Y67778053D01*
X18194652Y67940951D01*
X18288172Y68094866D01*
X18395178Y68236671D01*
X18513481Y68363239D01*
X18640889Y68471441D01*
X18718394Y68524120D01*
X18845275Y68593750D01*
X18982757Y68652468D01*
X19124284Y68697587D01*
X19263298Y68726422D01*
X19277403Y68728106D01*
X19320847Y68731434D01*
X19378277Y68734275D01*
X19443878Y68736373D01*
X19511833Y68737468D01*
X19638622Y68735140D01*
G37*
X24195764Y68729539D02*
X24278616Y68719578D01*
X24347113Y68705012D01*
X24377965Y68695364D01*
X24455270Y68665123D01*
X24532321Y68627617D01*
X24601800Y68586614D01*
X24656385Y68545879D01*
X24679084Y68526505D01*
X24701799Y68508662D01*
X24713221Y68501778D01*
X24714463Y68503424D01*
X24717272Y68521205D01*
X24719224Y68554370D01*
X24719955Y68597733D01*
X24719955Y68693689D01*
X25578104Y68693689D01*
X25543839Y68632974D01*
X25538645Y68623868D01*
X25530285Y68609249D01*
X25522712Y68595173D01*
X25515888Y68580540D01*
X25509773Y68564249D01*
X25504327Y68545198D01*
X25499513Y68522286D01*
X25495292Y68494413D01*
X25491623Y68460478D01*
X25488469Y68419379D01*
X25485789Y68370015D01*
X25483546Y68311286D01*
X25481701Y68242090D01*
X25480213Y68161326D01*
X25479045Y68067894D01*
X25478156Y67960692D01*
X25477509Y67838620D01*
X25477064Y67700576D01*
X25476782Y67545459D01*
X25476625Y67372168D01*
X25476552Y67179603D01*
X25476526Y66966662D01*
X25476507Y66732245D01*
X25476311Y65047378D01*
X24570983Y65047378D01*
X24595415Y65084067D01*
X24601682Y65093647D01*
X24627792Y65139981D01*
X24645531Y65187102D01*
X24657092Y65242251D01*
X24664669Y65312667D01*
X24665161Y65319650D01*
X24666938Y65357641D01*
X24668556Y65411576D01*
X24670001Y65478703D01*
X24671260Y65556271D01*
X24672320Y65641528D01*
X24673171Y65731724D01*
X24673797Y65824107D01*
X24674188Y65915925D01*
X24674330Y66004427D01*
X24674210Y66086862D01*
X24673817Y66160479D01*
X24673138Y66222526D01*
X24672159Y66270251D01*
X24670868Y66300904D01*
X24669253Y66311733D01*
X24661043Y66307333D01*
X24639353Y66292362D01*
X24609986Y66270448D01*
X24561121Y66236236D01*
X24472875Y66189714D01*
X24374084Y66156046D01*
X24261490Y66134231D01*
X24131836Y66123265D01*
X24039330Y66122219D01*
X23917989Y66132014D01*
X23807901Y66156174D01*
X23704611Y66195785D01*
X23603662Y66251932D01*
X23558497Y66282883D01*
X23453089Y66374115D01*
X23361462Y66483106D01*
X23283668Y66609726D01*
X23219759Y66753845D01*
X23169786Y66915332D01*
X23133802Y67094059D01*
X23111857Y67289895D01*
X23106100Y67445934D01*
X23935217Y67445934D01*
X23937670Y67352720D01*
X23942739Y67264594D01*
X23950381Y67186788D01*
X23960552Y67124533D01*
X23961833Y67118666D01*
X23990874Y67008121D01*
X24025390Y66917575D01*
X24066544Y66844953D01*
X24115501Y66788181D01*
X24173426Y66745184D01*
X24205380Y66729615D01*
X24278216Y66710722D01*
X24359557Y66707465D01*
X24444681Y66719389D01*
X24528867Y66746040D01*
X24607392Y66786962D01*
X24674800Y66830530D01*
X24674800Y67980721D01*
X24604244Y68027089D01*
X24563583Y68050791D01*
X24509454Y68076639D01*
X24460311Y68094829D01*
X24396835Y68110551D01*
X24300669Y68121541D01*
X24216100Y68113365D01*
X24142781Y68085805D01*
X24080363Y68038642D01*
X24028498Y67971658D01*
X23986840Y67884633D01*
X23955038Y67777350D01*
X23952455Y67765009D01*
X23944000Y67703772D01*
X23938337Y67626692D01*
X23935424Y67539002D01*
X23935217Y67445934D01*
X23106100Y67445934D01*
X23104006Y67502711D01*
X23104732Y67580158D01*
X23113311Y67731594D01*
X23132167Y67868283D01*
X23162163Y67994276D01*
X23204164Y68113625D01*
X23259031Y68230381D01*
X23325833Y68341179D01*
X23416637Y68454739D01*
X23520292Y68550211D01*
X23636113Y68627073D01*
X23763414Y68684797D01*
X23901511Y68722858D01*
X23939207Y68728666D01*
X24018248Y68734396D01*
X24106371Y68734583D01*
X24195764Y68729539D01*
G36*
X24195764Y68729539D02*
G01*
X24278616Y68719578D01*
X24347113Y68705012D01*
X24377965Y68695364D01*
X24455270Y68665123D01*
X24532321Y68627617D01*
X24601800Y68586614D01*
X24656385Y68545879D01*
X24679084Y68526505D01*
X24701799Y68508662D01*
X24713221Y68501778D01*
X24714463Y68503424D01*
X24717272Y68521205D01*
X24719224Y68554370D01*
X24719955Y68597733D01*
X24719955Y68693689D01*
X25578104Y68693689D01*
X25543839Y68632974D01*
X25538645Y68623868D01*
X25530285Y68609249D01*
X25522712Y68595173D01*
X25515888Y68580540D01*
X25509773Y68564249D01*
X25504327Y68545198D01*
X25499513Y68522286D01*
X25495292Y68494413D01*
X25491623Y68460478D01*
X25488469Y68419379D01*
X25485789Y68370015D01*
X25483546Y68311286D01*
X25481701Y68242090D01*
X25480213Y68161326D01*
X25479045Y68067894D01*
X25478156Y67960692D01*
X25477509Y67838620D01*
X25477064Y67700576D01*
X25476782Y67545459D01*
X25476625Y67372168D01*
X25476552Y67179603D01*
X25476526Y66966662D01*
X25476507Y66732245D01*
X25476311Y65047378D01*
X24570983Y65047378D01*
X24595415Y65084067D01*
X24601682Y65093647D01*
X24627792Y65139981D01*
X24645531Y65187102D01*
X24657092Y65242251D01*
X24664669Y65312667D01*
X24665161Y65319650D01*
X24666938Y65357641D01*
X24668556Y65411576D01*
X24670001Y65478703D01*
X24671260Y65556271D01*
X24672320Y65641528D01*
X24673171Y65731724D01*
X24673797Y65824107D01*
X24674188Y65915925D01*
X24674330Y66004427D01*
X24674210Y66086862D01*
X24673817Y66160479D01*
X24673138Y66222526D01*
X24672159Y66270251D01*
X24670868Y66300904D01*
X24669253Y66311733D01*
X24661043Y66307333D01*
X24639353Y66292362D01*
X24609986Y66270448D01*
X24561121Y66236236D01*
X24472875Y66189714D01*
X24374084Y66156046D01*
X24261490Y66134231D01*
X24131836Y66123265D01*
X24039330Y66122219D01*
X23917989Y66132014D01*
X23807901Y66156174D01*
X23704611Y66195785D01*
X23603662Y66251932D01*
X23558497Y66282883D01*
X23453089Y66374115D01*
X23361462Y66483106D01*
X23283668Y66609726D01*
X23219759Y66753845D01*
X23169786Y66915332D01*
X23133802Y67094059D01*
X23111857Y67289895D01*
X23106100Y67445934D01*
X23935217Y67445934D01*
X23937670Y67352720D01*
X23942739Y67264594D01*
X23950381Y67186788D01*
X23960552Y67124533D01*
X23961833Y67118666D01*
X23990874Y67008121D01*
X24025390Y66917575D01*
X24066544Y66844953D01*
X24115501Y66788181D01*
X24173426Y66745184D01*
X24205380Y66729615D01*
X24278216Y66710722D01*
X24359557Y66707465D01*
X24444681Y66719389D01*
X24528867Y66746040D01*
X24607392Y66786962D01*
X24674800Y66830530D01*
X24674800Y67980721D01*
X24604244Y68027089D01*
X24563583Y68050791D01*
X24509454Y68076639D01*
X24460311Y68094829D01*
X24396835Y68110551D01*
X24300669Y68121541D01*
X24216100Y68113365D01*
X24142781Y68085805D01*
X24080363Y68038642D01*
X24028498Y67971658D01*
X23986840Y67884633D01*
X23955038Y67777350D01*
X23952455Y67765009D01*
X23944000Y67703772D01*
X23938337Y67626692D01*
X23935424Y67539002D01*
X23935217Y67445934D01*
X23106100Y67445934D01*
X23104006Y67502711D01*
X23104732Y67580158D01*
X23113311Y67731594D01*
X23132167Y67868283D01*
X23162163Y67994276D01*
X23204164Y68113625D01*
X23259031Y68230381D01*
X23325833Y68341179D01*
X23416637Y68454739D01*
X23520292Y68550211D01*
X23636113Y68627073D01*
X23763414Y68684797D01*
X23901511Y68722858D01*
X23939207Y68728666D01*
X24018248Y68734396D01*
X24106371Y68734583D01*
X24195764Y68729539D01*
G37*
X21541925Y68729659D02*
X21625278Y68719666D01*
X21694349Y68704978D01*
X21780813Y68674749D01*
X21890714Y68620057D01*
X21988044Y68552543D01*
X22050133Y68501556D01*
X22053395Y68597622D01*
X22056657Y68693689D01*
X22479550Y68693689D01*
X22490457Y68693686D01*
X22584944Y68693380D01*
X22671669Y68692616D01*
X22748163Y68691451D01*
X22811957Y68689942D01*
X22860582Y68688147D01*
X22891567Y68686121D01*
X22902444Y68683922D01*
X22902422Y68683463D01*
X22895386Y68667910D01*
X22879566Y68645071D01*
X22875266Y68639638D01*
X22864223Y68625606D01*
X22854689Y68612186D01*
X22846539Y68597722D01*
X22839648Y68580556D01*
X22833889Y68559034D01*
X22829138Y68531498D01*
X22825269Y68496292D01*
X22822156Y68451760D01*
X22819675Y68396246D01*
X22817700Y68328093D01*
X22816106Y68245645D01*
X22814766Y68147246D01*
X22813556Y68031239D01*
X22812351Y67895968D01*
X22811025Y67739778D01*
X22809772Y67597012D01*
X22808349Y67451942D01*
X22806824Y67326027D01*
X22805067Y67217436D01*
X22802949Y67124334D01*
X22800340Y67044891D01*
X22797110Y66977273D01*
X22793131Y66919649D01*
X22788272Y66870185D01*
X22782403Y66827050D01*
X22775396Y66788410D01*
X22767120Y66752434D01*
X22757446Y66717289D01*
X22746244Y66681142D01*
X22733384Y66642161D01*
X22717910Y66599091D01*
X22675006Y66506871D01*
X22621265Y66427099D01*
X22552424Y66352965D01*
X22474815Y66289405D01*
X22370239Y66227725D01*
X22250756Y66180202D01*
X22115492Y66146567D01*
X21963574Y66126552D01*
X21794128Y66119889D01*
X21736110Y66120287D01*
X21670602Y66122335D01*
X21609307Y66126704D01*
X21547903Y66134035D01*
X21482068Y66144969D01*
X21407480Y66160147D01*
X21319816Y66180209D01*
X21214755Y66205797D01*
X21186194Y66212820D01*
X21110946Y66230776D01*
X21040612Y66246820D01*
X20979433Y66260028D01*
X20931646Y66269474D01*
X20901489Y66274231D01*
X20873217Y66277910D01*
X20846940Y66283187D01*
X20836941Y66287942D01*
X20840048Y66296781D01*
X20850806Y66324072D01*
X20868136Y66366906D01*
X20890874Y66422425D01*
X20917853Y66487772D01*
X20947910Y66560089D01*
X20954507Y66575879D01*
X20993093Y66666484D01*
X21024232Y66736217D01*
X21048083Y66785405D01*
X21064802Y66814374D01*
X21074546Y66823452D01*
X21082234Y66821405D01*
X21108585Y66811760D01*
X21147018Y66796190D01*
X21192178Y66776815D01*
X21286707Y66738814D01*
X21423520Y66697780D01*
X21564711Y66672612D01*
X21602686Y66668611D01*
X21705941Y66666447D01*
X21793048Y66679622D01*
X21864871Y66708756D01*
X21922269Y66754466D01*
X21966104Y66817372D01*
X21997238Y66898092D01*
X22016530Y66997245D01*
X22023950Y67056224D01*
X21862064Y67049445D01*
X21735505Y67047813D01*
X21584049Y67054194D01*
X21435604Y67068777D01*
X21299422Y67090882D01*
X21234755Y67105821D01*
X21102510Y67148741D01*
X20980238Y67205340D01*
X20870315Y67274017D01*
X20775117Y67353170D01*
X20697020Y67441196D01*
X20638401Y67536493D01*
X20614405Y67588864D01*
X20588768Y67659590D01*
X20572522Y67730812D01*
X20564178Y67809712D01*
X20562310Y67900282D01*
X21322248Y67900282D01*
X21329480Y67828693D01*
X21354204Y67765645D01*
X21398751Y67707758D01*
X21453681Y67660808D01*
X21526106Y67620961D01*
X21612660Y67593263D01*
X21715330Y67577096D01*
X21836106Y67571842D01*
X21844993Y67571857D01*
X21900340Y67572655D01*
X21947264Y67574488D01*
X21981047Y67577111D01*
X21996972Y67580274D01*
X22001057Y67586741D01*
X22005428Y67608875D01*
X22008396Y67647988D01*
X22010086Y67705939D01*
X22010622Y67784586D01*
X22010622Y67980462D01*
X21965952Y68036973D01*
X21953215Y68052212D01*
X21906396Y68094844D01*
X21845745Y68130672D01*
X21835103Y68135850D01*
X21796324Y68152745D01*
X21761308Y68162909D01*
X21721278Y68168325D01*
X21667459Y68170978D01*
X21649352Y68171383D01*
X21573989Y68168540D01*
X21513257Y68156620D01*
X21461548Y68134037D01*
X21413254Y68099211D01*
X21408197Y68094798D01*
X21359728Y68039160D01*
X21331541Y67975333D01*
X21322248Y67900282D01*
X20562310Y67900282D01*
X20562245Y67903467D01*
X20562739Y67937363D01*
X20566368Y68012202D01*
X20573978Y68074401D01*
X20586312Y68130984D01*
X20630687Y68257076D01*
X20693600Y68371679D01*
X20773762Y68472568D01*
X20870260Y68558924D01*
X20982178Y68629932D01*
X21108603Y68684776D01*
X21248622Y68722638D01*
X21284851Y68728351D01*
X21363845Y68734313D01*
X21452159Y68734646D01*
X21541925Y68729659D01*
G36*
X21541925Y68729659D02*
G01*
X21625278Y68719666D01*
X21694349Y68704978D01*
X21780813Y68674749D01*
X21890714Y68620057D01*
X21988044Y68552543D01*
X22050133Y68501556D01*
X22053395Y68597622D01*
X22056657Y68693689D01*
X22479550Y68693689D01*
X22490457Y68693686D01*
X22584944Y68693380D01*
X22671669Y68692616D01*
X22748163Y68691451D01*
X22811957Y68689942D01*
X22860582Y68688147D01*
X22891567Y68686121D01*
X22902444Y68683922D01*
X22902422Y68683463D01*
X22895386Y68667910D01*
X22879566Y68645071D01*
X22875266Y68639638D01*
X22864223Y68625606D01*
X22854689Y68612186D01*
X22846539Y68597722D01*
X22839648Y68580556D01*
X22833889Y68559034D01*
X22829138Y68531498D01*
X22825269Y68496292D01*
X22822156Y68451760D01*
X22819675Y68396246D01*
X22817700Y68328093D01*
X22816106Y68245645D01*
X22814766Y68147246D01*
X22813556Y68031239D01*
X22812351Y67895968D01*
X22811025Y67739778D01*
X22809772Y67597012D01*
X22808349Y67451942D01*
X22806824Y67326027D01*
X22805067Y67217436D01*
X22802949Y67124334D01*
X22800340Y67044891D01*
X22797110Y66977273D01*
X22793131Y66919649D01*
X22788272Y66870185D01*
X22782403Y66827050D01*
X22775396Y66788410D01*
X22767120Y66752434D01*
X22757446Y66717289D01*
X22746244Y66681142D01*
X22733384Y66642161D01*
X22717910Y66599091D01*
X22675006Y66506871D01*
X22621265Y66427099D01*
X22552424Y66352965D01*
X22474815Y66289405D01*
X22370239Y66227725D01*
X22250756Y66180202D01*
X22115492Y66146567D01*
X21963574Y66126552D01*
X21794128Y66119889D01*
X21736110Y66120287D01*
X21670602Y66122335D01*
X21609307Y66126704D01*
X21547903Y66134035D01*
X21482068Y66144969D01*
X21407480Y66160147D01*
X21319816Y66180209D01*
X21214755Y66205797D01*
X21186194Y66212820D01*
X21110946Y66230776D01*
X21040612Y66246820D01*
X20979433Y66260028D01*
X20931646Y66269474D01*
X20901489Y66274231D01*
X20873217Y66277910D01*
X20846940Y66283187D01*
X20836941Y66287942D01*
X20840048Y66296781D01*
X20850806Y66324072D01*
X20868136Y66366906D01*
X20890874Y66422425D01*
X20917853Y66487772D01*
X20947910Y66560089D01*
X20954507Y66575879D01*
X20993093Y66666484D01*
X21024232Y66736217D01*
X21048083Y66785405D01*
X21064802Y66814374D01*
X21074546Y66823452D01*
X21082234Y66821405D01*
X21108585Y66811760D01*
X21147018Y66796190D01*
X21192178Y66776815D01*
X21286707Y66738814D01*
X21423520Y66697780D01*
X21564711Y66672612D01*
X21602686Y66668611D01*
X21705941Y66666447D01*
X21793048Y66679622D01*
X21864871Y66708756D01*
X21922269Y66754466D01*
X21966104Y66817372D01*
X21997238Y66898092D01*
X22016530Y66997245D01*
X22023950Y67056224D01*
X21862064Y67049445D01*
X21735505Y67047813D01*
X21584049Y67054194D01*
X21435604Y67068777D01*
X21299422Y67090882D01*
X21234755Y67105821D01*
X21102510Y67148741D01*
X20980238Y67205340D01*
X20870315Y67274017D01*
X20775117Y67353170D01*
X20697020Y67441196D01*
X20638401Y67536493D01*
X20614405Y67588864D01*
X20588768Y67659590D01*
X20572522Y67730812D01*
X20564178Y67809712D01*
X20562310Y67900282D01*
X21322248Y67900282D01*
X21329480Y67828693D01*
X21354204Y67765645D01*
X21398751Y67707758D01*
X21453681Y67660808D01*
X21526106Y67620961D01*
X21612660Y67593263D01*
X21715330Y67577096D01*
X21836106Y67571842D01*
X21844993Y67571857D01*
X21900340Y67572655D01*
X21947264Y67574488D01*
X21981047Y67577111D01*
X21996972Y67580274D01*
X22001057Y67586741D01*
X22005428Y67608875D01*
X22008396Y67647988D01*
X22010086Y67705939D01*
X22010622Y67784586D01*
X22010622Y67980462D01*
X21965952Y68036973D01*
X21953215Y68052212D01*
X21906396Y68094844D01*
X21845745Y68130672D01*
X21835103Y68135850D01*
X21796324Y68152745D01*
X21761308Y68162909D01*
X21721278Y68168325D01*
X21667459Y68170978D01*
X21649352Y68171383D01*
X21573989Y68168540D01*
X21513257Y68156620D01*
X21461548Y68134037D01*
X21413254Y68099211D01*
X21408197Y68094798D01*
X21359728Y68039160D01*
X21331541Y67975333D01*
X21322248Y67900282D01*
X20562310Y67900282D01*
X20562245Y67903467D01*
X20562739Y67937363D01*
X20566368Y68012202D01*
X20573978Y68074401D01*
X20586312Y68130984D01*
X20630687Y68257076D01*
X20693600Y68371679D01*
X20773762Y68472568D01*
X20870260Y68558924D01*
X20982178Y68629932D01*
X21108603Y68684776D01*
X21248622Y68722638D01*
X21284851Y68728351D01*
X21363845Y68734313D01*
X21452159Y68734646D01*
X21541925Y68729659D01*
G37*
X16344804Y69201524D02*
X16529633Y69201430D01*
X16696627Y69201243D01*
X16846710Y69200939D01*
X16980804Y69200494D01*
X17099834Y69199885D01*
X17204721Y69199089D01*
X17296390Y69198080D01*
X17375763Y69196837D01*
X17443763Y69195335D01*
X17501314Y69193551D01*
X17549338Y69191461D01*
X17588760Y69189042D01*
X17620501Y69186270D01*
X17645486Y69183121D01*
X17664636Y69179572D01*
X17678877Y69175598D01*
X17689129Y69171178D01*
X17696318Y69166286D01*
X17701365Y69160900D01*
X17705195Y69154996D01*
X17708729Y69148549D01*
X17712892Y69141537D01*
X17713975Y69139687D01*
X17716187Y69134180D01*
X17718214Y69125868D01*
X17720062Y69113809D01*
X17721739Y69097063D01*
X17723255Y69074687D01*
X17724617Y69045740D01*
X17725833Y69009280D01*
X17726911Y68964367D01*
X17727860Y68910057D01*
X17728688Y68845410D01*
X17729403Y68769484D01*
X17730013Y68681338D01*
X17730526Y68580029D01*
X17730950Y68464617D01*
X17731294Y68334160D01*
X17731566Y68187716D01*
X17731773Y68024344D01*
X17731924Y67843101D01*
X17732028Y67643048D01*
X17732092Y67423241D01*
X17732124Y67182739D01*
X17732133Y66920602D01*
X17732133Y64729031D01*
X17693751Y64690649D01*
X17666645Y64666911D01*
X17639747Y64655111D01*
X17603440Y64652267D01*
X17551511Y64652267D01*
X17551511Y64740206D01*
X17549573Y64790102D01*
X17530801Y64900523D01*
X17493783Y65001987D01*
X17440631Y65093152D01*
X17373454Y65172673D01*
X17294362Y65239205D01*
X17205466Y65291406D01*
X17108875Y65327930D01*
X17006700Y65347434D01*
X16901050Y65348573D01*
X16794036Y65330005D01*
X16687768Y65290384D01*
X16590781Y65232516D01*
X16505707Y65157684D01*
X16436985Y65069615D01*
X16386082Y64970616D01*
X16354465Y64862993D01*
X16343600Y64749054D01*
X16343600Y64652267D01*
X14723247Y64652267D01*
X14512103Y64652280D01*
X14307980Y64652330D01*
X14124314Y64652430D01*
X13960009Y64652592D01*
X13813971Y64652829D01*
X13685106Y64653153D01*
X13572317Y64653575D01*
X13474512Y64654109D01*
X13390596Y64654767D01*
X13319473Y64655561D01*
X13260050Y64656504D01*
X13211232Y64657608D01*
X13171923Y64658884D01*
X13141031Y64660347D01*
X13117459Y64662007D01*
X13100114Y64663878D01*
X13087901Y64665972D01*
X13079725Y64668300D01*
X13074492Y64670876D01*
X13068496Y64674445D01*
X13061721Y64677978D01*
X13055522Y64681488D01*
X13049874Y64685918D01*
X13044753Y64692208D01*
X13040131Y64701301D01*
X13035985Y64714139D01*
X13032287Y64731662D01*
X13029013Y64754813D01*
X13026137Y64784534D01*
X13023633Y64821765D01*
X13021476Y64867449D01*
X13019640Y64922527D01*
X13018100Y64987941D01*
X13016830Y65064633D01*
X13015805Y65153544D01*
X13014999Y65255617D01*
X13014966Y65261867D01*
X13317803Y65261867D01*
X14377686Y65261867D01*
X14339689Y65324966D01*
X14325007Y65350005D01*
X14310469Y65377586D01*
X14298373Y65405700D01*
X14288468Y65436551D01*
X14280506Y65472344D01*
X14274239Y65515283D01*
X14269418Y65567574D01*
X14265794Y65631419D01*
X14263119Y65709025D01*
X14261143Y65802594D01*
X14259618Y65914333D01*
X14258296Y66046445D01*
X14257387Y66166434D01*
X14256980Y66283063D01*
X14257233Y66378531D01*
X14258143Y66452556D01*
X14259707Y66504855D01*
X14261921Y66535149D01*
X14264780Y66543156D01*
X14267839Y66539858D01*
X14285994Y66518408D01*
X14315725Y66481889D01*
X14355361Y66432442D01*
X14403229Y66372207D01*
X14457657Y66303327D01*
X14516973Y66227943D01*
X14579505Y66148196D01*
X14643579Y66066228D01*
X14707525Y65984180D01*
X14769669Y65904194D01*
X14828339Y65828411D01*
X14881863Y65758973D01*
X14928570Y65698021D01*
X14966786Y65647696D01*
X14994839Y65610140D01*
X15011057Y65587495D01*
X15056365Y65515212D01*
X15096339Y65435463D01*
X15117870Y65367188D01*
X15121173Y65309844D01*
X15115884Y65261867D01*
X16247644Y65262117D01*
X16208133Y65292722D01*
X16198752Y65300089D01*
X16135817Y65354438D01*
X16067003Y65422259D01*
X15990404Y65505516D01*
X15904112Y65606178D01*
X15886948Y65626847D01*
X15846167Y65676409D01*
X15796412Y65737326D01*
X15739045Y65807898D01*
X15675431Y65886424D01*
X15606931Y65971204D01*
X15534910Y66060537D01*
X15460730Y66152722D01*
X15445483Y66171702D01*
X15385754Y66246060D01*
X15311347Y66338848D01*
X15238869Y66429388D01*
X15169686Y66515978D01*
X15105159Y66596918D01*
X15046653Y66670506D01*
X14995530Y66735044D01*
X14953153Y66788829D01*
X14920885Y66830162D01*
X14900090Y66857342D01*
X14892131Y66868668D01*
X14893889Y66872771D01*
X14906770Y66893334D01*
X14931115Y66929561D01*
X14965753Y66979824D01*
X15009514Y67042492D01*
X15061225Y67115936D01*
X15119716Y67198527D01*
X15183816Y67288636D01*
X15252354Y67384631D01*
X15324157Y67484885D01*
X15398056Y67587768D01*
X15472879Y67691650D01*
X15547455Y67794901D01*
X15620613Y67895892D01*
X15691181Y67992994D01*
X15757989Y68084577D01*
X15819865Y68169011D01*
X15875639Y68244667D01*
X15924138Y68309916D01*
X15964193Y68363128D01*
X15994631Y68402673D01*
X16015056Y68428026D01*
X16061101Y68482295D01*
X16111388Y68538775D01*
X16158185Y68588669D01*
X16244347Y68677257D01*
X16456489Y68677257D01*
X16457678Y68674037D01*
X16467824Y68656452D01*
X16484960Y68630158D01*
X16493460Y68617691D01*
X16502671Y68603622D01*
X16510767Y68589351D01*
X16517815Y68573479D01*
X16523883Y68554609D01*
X16529039Y68531341D01*
X16533349Y68502278D01*
X16536881Y68466021D01*
X16539703Y68421170D01*
X16541882Y68366328D01*
X16543486Y68300097D01*
X16544581Y68221077D01*
X16545235Y68127871D01*
X16545516Y68019079D01*
X16545491Y67893303D01*
X16545228Y67749145D01*
X16544794Y67585207D01*
X16544255Y67400089D01*
X16543721Y67221232D01*
X16543195Y67062374D01*
X16542650Y66923316D01*
X16542055Y66802665D01*
X16541381Y66699028D01*
X16540597Y66611011D01*
X16539674Y66537223D01*
X16538581Y66476269D01*
X16537288Y66426757D01*
X16535765Y66387293D01*
X16533981Y66356484D01*
X16531908Y66332938D01*
X16529514Y66315260D01*
X16526770Y66302059D01*
X16523644Y66291940D01*
X16520108Y66283511D01*
X16516209Y66275375D01*
X16496562Y66238544D01*
X16477775Y66208391D01*
X16476728Y66206908D01*
X16462398Y66184659D01*
X16456489Y66171702D01*
X16457496Y66171249D01*
X16474695Y66169803D01*
X16511344Y66168480D01*
X16565038Y66167316D01*
X16633370Y66166347D01*
X16713936Y66165611D01*
X16804330Y66165142D01*
X16902147Y66164978D01*
X17347805Y66164978D01*
X17350880Y67341845D01*
X17353955Y68518711D01*
X17380593Y68577622D01*
X17392515Y68602183D01*
X17409754Y68632434D01*
X17422926Y68649560D01*
X17430924Y68657591D01*
X17438622Y68672493D01*
X17434740Y68673765D01*
X17411480Y68675791D01*
X17369126Y68677626D01*
X17309868Y68679227D01*
X17235893Y68680549D01*
X17149390Y68681548D01*
X17052548Y68682180D01*
X16947555Y68682400D01*
X16878644Y68682349D01*
X16780393Y68682091D01*
X16690970Y68681637D01*
X16612667Y68681010D01*
X16547777Y68680235D01*
X16498589Y68679335D01*
X16467396Y68678334D01*
X16456489Y68677257D01*
X16244347Y68677257D01*
X16249349Y68682400D01*
X15094910Y68682400D01*
X15095544Y68606200D01*
X15094426Y68564160D01*
X15088696Y68528334D01*
X15076110Y68490772D01*
X15054432Y68442577D01*
X15051211Y68435897D01*
X15025812Y68386359D01*
X14999004Y68338369D01*
X14976083Y68301466D01*
X14971515Y68294834D01*
X14949484Y68263593D01*
X14917307Y68218654D01*
X14876543Y68162147D01*
X14828755Y68096204D01*
X14775502Y68022957D01*
X14718345Y67944536D01*
X14658845Y67863072D01*
X14598563Y67780698D01*
X14539060Y67699544D01*
X14481895Y67621742D01*
X14428630Y67549423D01*
X14380826Y67484718D01*
X14340043Y67429759D01*
X14307842Y67386676D01*
X14285784Y67357602D01*
X14275429Y67344667D01*
X14270956Y67340351D01*
X14266764Y67338312D01*
X14263357Y67340926D01*
X14260675Y67349986D01*
X14258659Y67367285D01*
X14257252Y67394614D01*
X14256395Y67433765D01*
X14256030Y67486533D01*
X14256097Y67554707D01*
X14256540Y67640082D01*
X14257298Y67744449D01*
X14258315Y67869600D01*
X14258692Y67914300D01*
X14259831Y68035395D01*
X14261028Y68136688D01*
X14262364Y68220262D01*
X14263923Y68288204D01*
X14265785Y68342599D01*
X14268034Y68385532D01*
X14270752Y68419089D01*
X14274021Y68445355D01*
X14277922Y68466416D01*
X14282539Y68484357D01*
X14290808Y68510770D01*
X14314417Y68572772D01*
X14340315Y68625573D01*
X14365465Y68662645D01*
X14366661Y68664075D01*
X14368832Y68668424D01*
X14366672Y68672026D01*
X14358356Y68674951D01*
X14342060Y68677269D01*
X14315959Y68679051D01*
X14278229Y68680367D01*
X14227044Y68681286D01*
X14160580Y68681878D01*
X14077013Y68682215D01*
X13974517Y68682365D01*
X13851268Y68682400D01*
X13319704Y68682400D01*
X13358477Y68624783D01*
X13364568Y68615893D01*
X13375024Y68601069D01*
X13384421Y68587422D01*
X13392817Y68573765D01*
X13400267Y68558911D01*
X13406827Y68541670D01*
X13412554Y68520855D01*
X13417505Y68495280D01*
X13421734Y68463755D01*
X13425299Y68425093D01*
X13428256Y68378107D01*
X13430660Y68321608D01*
X13432569Y68254409D01*
X13434038Y68175322D01*
X13435124Y68083160D01*
X13435882Y67976734D01*
X13436370Y67854857D01*
X13436642Y67716341D01*
X13436757Y67559999D01*
X13436769Y67384642D01*
X13436735Y67189082D01*
X13436711Y66972133D01*
X13436720Y66849513D01*
X13436757Y66644447D01*
X13436773Y66460116D01*
X13436712Y66295334D01*
X13436516Y66148916D01*
X13436130Y66019674D01*
X13435495Y65906422D01*
X13434556Y65807975D01*
X13433255Y65723144D01*
X13431536Y65650744D01*
X13429341Y65589589D01*
X13426615Y65538492D01*
X13423299Y65496267D01*
X13419338Y65461727D01*
X13414675Y65433686D01*
X13409253Y65410958D01*
X13403014Y65392356D01*
X13395903Y65376693D01*
X13387862Y65362784D01*
X13378834Y65349441D01*
X13368764Y65335479D01*
X13357593Y65319711D01*
X13317803Y65261867D01*
X13014966Y65261867D01*
X13014386Y65371792D01*
X13013941Y65503011D01*
X13013638Y65650216D01*
X13013452Y65814349D01*
X13013358Y65996352D01*
X13013329Y66197165D01*
X13013339Y66417732D01*
X13013364Y66658992D01*
X13013378Y66921889D01*
X13013378Y66964040D01*
X13013354Y67224668D01*
X13013315Y67463796D01*
X13013292Y67682360D01*
X13013313Y67881295D01*
X13013407Y68061535D01*
X13013605Y68224015D01*
X13013937Y68369670D01*
X13014431Y68499434D01*
X13015117Y68614243D01*
X13016024Y68715030D01*
X13017183Y68802730D01*
X13018622Y68878279D01*
X13020371Y68942611D01*
X13022460Y68996661D01*
X13024917Y69041363D01*
X13027773Y69077652D01*
X13031057Y69106463D01*
X13034798Y69128731D01*
X13039026Y69145390D01*
X13043771Y69157375D01*
X13049061Y69165621D01*
X13054927Y69171062D01*
X13061398Y69174634D01*
X13068503Y69177270D01*
X13076272Y69179906D01*
X13084734Y69183477D01*
X13089092Y69185145D01*
X13097605Y69187111D01*
X13110306Y69188911D01*
X13128115Y69190555D01*
X13151951Y69192047D01*
X13182734Y69193397D01*
X13221383Y69194611D01*
X13268818Y69195697D01*
X13325957Y69196661D01*
X13393721Y69197511D01*
X13473029Y69198253D01*
X13564801Y69198897D01*
X13669956Y69199447D01*
X13789413Y69199913D01*
X13924092Y69200300D01*
X14074912Y69200616D01*
X14242794Y69200869D01*
X14428655Y69201066D01*
X14633417Y69201213D01*
X14857998Y69201318D01*
X15103318Y69201389D01*
X15370296Y69201432D01*
X15408679Y69201437D01*
X15674078Y69201480D01*
X15917950Y69201525D01*
X16141217Y69201548D01*
X16344804Y69201524D01*
G36*
X16344804Y69201524D02*
G01*
X16529633Y69201430D01*
X16696627Y69201243D01*
X16846710Y69200939D01*
X16980804Y69200494D01*
X17099834Y69199885D01*
X17204721Y69199089D01*
X17296390Y69198080D01*
X17375763Y69196837D01*
X17443763Y69195335D01*
X17501314Y69193551D01*
X17549338Y69191461D01*
X17588760Y69189042D01*
X17620501Y69186270D01*
X17645486Y69183121D01*
X17664636Y69179572D01*
X17678877Y69175598D01*
X17689129Y69171178D01*
X17696318Y69166286D01*
X17701365Y69160900D01*
X17705195Y69154996D01*
X17708729Y69148549D01*
X17712892Y69141537D01*
X17713975Y69139687D01*
X17716187Y69134180D01*
X17718214Y69125868D01*
X17720062Y69113809D01*
X17721739Y69097063D01*
X17723255Y69074687D01*
X17724617Y69045740D01*
X17725833Y69009280D01*
X17726911Y68964367D01*
X17727860Y68910057D01*
X17728688Y68845410D01*
X17729403Y68769484D01*
X17730013Y68681338D01*
X17730526Y68580029D01*
X17730950Y68464617D01*
X17731294Y68334160D01*
X17731566Y68187716D01*
X17731773Y68024344D01*
X17731924Y67843101D01*
X17732028Y67643048D01*
X17732092Y67423241D01*
X17732124Y67182739D01*
X17732133Y66920602D01*
X17732133Y64729031D01*
X17693751Y64690649D01*
X17666645Y64666911D01*
X17639747Y64655111D01*
X17603440Y64652267D01*
X17551511Y64652267D01*
X17551511Y64740206D01*
X17549573Y64790102D01*
X17530801Y64900523D01*
X17493783Y65001987D01*
X17440631Y65093152D01*
X17373454Y65172673D01*
X17294362Y65239205D01*
X17205466Y65291406D01*
X17108875Y65327930D01*
X17006700Y65347434D01*
X16901050Y65348573D01*
X16794036Y65330005D01*
X16687768Y65290384D01*
X16590781Y65232516D01*
X16505707Y65157684D01*
X16436985Y65069615D01*
X16386082Y64970616D01*
X16354465Y64862993D01*
X16343600Y64749054D01*
X16343600Y64652267D01*
X14723247Y64652267D01*
X14512103Y64652280D01*
X14307980Y64652330D01*
X14124314Y64652430D01*
X13960009Y64652592D01*
X13813971Y64652829D01*
X13685106Y64653153D01*
X13572317Y64653575D01*
X13474512Y64654109D01*
X13390596Y64654767D01*
X13319473Y64655561D01*
X13260050Y64656504D01*
X13211232Y64657608D01*
X13171923Y64658884D01*
X13141031Y64660347D01*
X13117459Y64662007D01*
X13100114Y64663878D01*
X13087901Y64665972D01*
X13079725Y64668300D01*
X13074492Y64670876D01*
X13068496Y64674445D01*
X13061721Y64677978D01*
X13055522Y64681488D01*
X13049874Y64685918D01*
X13044753Y64692208D01*
X13040131Y64701301D01*
X13035985Y64714139D01*
X13032287Y64731662D01*
X13029013Y64754813D01*
X13026137Y64784534D01*
X13023633Y64821765D01*
X13021476Y64867449D01*
X13019640Y64922527D01*
X13018100Y64987941D01*
X13016830Y65064633D01*
X13015805Y65153544D01*
X13014999Y65255617D01*
X13014966Y65261867D01*
X13317803Y65261867D01*
X14377686Y65261867D01*
X14339689Y65324966D01*
X14325007Y65350005D01*
X14310469Y65377586D01*
X14298373Y65405700D01*
X14288468Y65436551D01*
X14280506Y65472344D01*
X14274239Y65515283D01*
X14269418Y65567574D01*
X14265794Y65631419D01*
X14263119Y65709025D01*
X14261143Y65802594D01*
X14259618Y65914333D01*
X14258296Y66046445D01*
X14257387Y66166434D01*
X14256980Y66283063D01*
X14257233Y66378531D01*
X14258143Y66452556D01*
X14259707Y66504855D01*
X14261921Y66535149D01*
X14264780Y66543156D01*
X14267839Y66539858D01*
X14285994Y66518408D01*
X14315725Y66481889D01*
X14355361Y66432442D01*
X14403229Y66372207D01*
X14457657Y66303327D01*
X14516973Y66227943D01*
X14579505Y66148196D01*
X14643579Y66066228D01*
X14707525Y65984180D01*
X14769669Y65904194D01*
X14828339Y65828411D01*
X14881863Y65758973D01*
X14928570Y65698021D01*
X14966786Y65647696D01*
X14994839Y65610140D01*
X15011057Y65587495D01*
X15056365Y65515212D01*
X15096339Y65435463D01*
X15117870Y65367188D01*
X15121173Y65309844D01*
X15115884Y65261867D01*
X16247644Y65262117D01*
X16208133Y65292722D01*
X16198752Y65300089D01*
X16135817Y65354438D01*
X16067003Y65422259D01*
X15990404Y65505516D01*
X15904112Y65606178D01*
X15886948Y65626847D01*
X15846167Y65676409D01*
X15796412Y65737326D01*
X15739045Y65807898D01*
X15675431Y65886424D01*
X15606931Y65971204D01*
X15534910Y66060537D01*
X15460730Y66152722D01*
X15445483Y66171702D01*
X15385754Y66246060D01*
X15311347Y66338848D01*
X15238869Y66429388D01*
X15169686Y66515978D01*
X15105159Y66596918D01*
X15046653Y66670506D01*
X14995530Y66735044D01*
X14953153Y66788829D01*
X14920885Y66830162D01*
X14900090Y66857342D01*
X14892131Y66868668D01*
X14893889Y66872771D01*
X14906770Y66893334D01*
X14931115Y66929561D01*
X14965753Y66979824D01*
X15009514Y67042492D01*
X15061225Y67115936D01*
X15119716Y67198527D01*
X15183816Y67288636D01*
X15252354Y67384631D01*
X15324157Y67484885D01*
X15398056Y67587768D01*
X15472879Y67691650D01*
X15547455Y67794901D01*
X15620613Y67895892D01*
X15691181Y67992994D01*
X15757989Y68084577D01*
X15819865Y68169011D01*
X15875639Y68244667D01*
X15924138Y68309916D01*
X15964193Y68363128D01*
X15994631Y68402673D01*
X16015056Y68428026D01*
X16061101Y68482295D01*
X16111388Y68538775D01*
X16158185Y68588669D01*
X16244347Y68677257D01*
X16456489Y68677257D01*
X16457678Y68674037D01*
X16467824Y68656452D01*
X16484960Y68630158D01*
X16493460Y68617691D01*
X16502671Y68603622D01*
X16510767Y68589351D01*
X16517815Y68573479D01*
X16523883Y68554609D01*
X16529039Y68531341D01*
X16533349Y68502278D01*
X16536881Y68466021D01*
X16539703Y68421170D01*
X16541882Y68366328D01*
X16543486Y68300097D01*
X16544581Y68221077D01*
X16545235Y68127871D01*
X16545516Y68019079D01*
X16545491Y67893303D01*
X16545228Y67749145D01*
X16544794Y67585207D01*
X16544255Y67400089D01*
X16543721Y67221232D01*
X16543195Y67062374D01*
X16542650Y66923316D01*
X16542055Y66802665D01*
X16541381Y66699028D01*
X16540597Y66611011D01*
X16539674Y66537223D01*
X16538581Y66476269D01*
X16537288Y66426757D01*
X16535765Y66387293D01*
X16533981Y66356484D01*
X16531908Y66332938D01*
X16529514Y66315260D01*
X16526770Y66302059D01*
X16523644Y66291940D01*
X16520108Y66283511D01*
X16516209Y66275375D01*
X16496562Y66238544D01*
X16477775Y66208391D01*
X16476728Y66206908D01*
X16462398Y66184659D01*
X16456489Y66171702D01*
X16457496Y66171249D01*
X16474695Y66169803D01*
X16511344Y66168480D01*
X16565038Y66167316D01*
X16633370Y66166347D01*
X16713936Y66165611D01*
X16804330Y66165142D01*
X16902147Y66164978D01*
X17347805Y66164978D01*
X17350880Y67341845D01*
X17353955Y68518711D01*
X17380593Y68577622D01*
X17392515Y68602183D01*
X17409754Y68632434D01*
X17422926Y68649560D01*
X17430924Y68657591D01*
X17438622Y68672493D01*
X17434740Y68673765D01*
X17411480Y68675791D01*
X17369126Y68677626D01*
X17309868Y68679227D01*
X17235893Y68680549D01*
X17149390Y68681548D01*
X17052548Y68682180D01*
X16947555Y68682400D01*
X16878644Y68682349D01*
X16780393Y68682091D01*
X16690970Y68681637D01*
X16612667Y68681010D01*
X16547777Y68680235D01*
X16498589Y68679335D01*
X16467396Y68678334D01*
X16456489Y68677257D01*
X16244347Y68677257D01*
X16249349Y68682400D01*
X15094910Y68682400D01*
X15095544Y68606200D01*
X15094426Y68564160D01*
X15088696Y68528334D01*
X15076110Y68490772D01*
X15054432Y68442577D01*
X15051211Y68435897D01*
X15025812Y68386359D01*
X14999004Y68338369D01*
X14976083Y68301466D01*
X14971515Y68294834D01*
X14949484Y68263593D01*
X14917307Y68218654D01*
X14876543Y68162147D01*
X14828755Y68096204D01*
X14775502Y68022957D01*
X14718345Y67944536D01*
X14658845Y67863072D01*
X14598563Y67780698D01*
X14539060Y67699544D01*
X14481895Y67621742D01*
X14428630Y67549423D01*
X14380826Y67484718D01*
X14340043Y67429759D01*
X14307842Y67386676D01*
X14285784Y67357602D01*
X14275429Y67344667D01*
X14270956Y67340351D01*
X14266764Y67338312D01*
X14263357Y67340926D01*
X14260675Y67349986D01*
X14258659Y67367285D01*
X14257252Y67394614D01*
X14256395Y67433765D01*
X14256030Y67486533D01*
X14256097Y67554707D01*
X14256540Y67640082D01*
X14257298Y67744449D01*
X14258315Y67869600D01*
X14258692Y67914300D01*
X14259831Y68035395D01*
X14261028Y68136688D01*
X14262364Y68220262D01*
X14263923Y68288204D01*
X14265785Y68342599D01*
X14268034Y68385532D01*
X14270752Y68419089D01*
X14274021Y68445355D01*
X14277922Y68466416D01*
X14282539Y68484357D01*
X14290808Y68510770D01*
X14314417Y68572772D01*
X14340315Y68625573D01*
X14365465Y68662645D01*
X14366661Y68664075D01*
X14368832Y68668424D01*
X14366672Y68672026D01*
X14358356Y68674951D01*
X14342060Y68677269D01*
X14315959Y68679051D01*
X14278229Y68680367D01*
X14227044Y68681286D01*
X14160580Y68681878D01*
X14077013Y68682215D01*
X13974517Y68682365D01*
X13851268Y68682400D01*
X13319704Y68682400D01*
X13358477Y68624783D01*
X13364568Y68615893D01*
X13375024Y68601069D01*
X13384421Y68587422D01*
X13392817Y68573765D01*
X13400267Y68558911D01*
X13406827Y68541670D01*
X13412554Y68520855D01*
X13417505Y68495280D01*
X13421734Y68463755D01*
X13425299Y68425093D01*
X13428256Y68378107D01*
X13430660Y68321608D01*
X13432569Y68254409D01*
X13434038Y68175322D01*
X13435124Y68083160D01*
X13435882Y67976734D01*
X13436370Y67854857D01*
X13436642Y67716341D01*
X13436757Y67559999D01*
X13436769Y67384642D01*
X13436735Y67189082D01*
X13436711Y66972133D01*
X13436720Y66849513D01*
X13436757Y66644447D01*
X13436773Y66460116D01*
X13436712Y66295334D01*
X13436516Y66148916D01*
X13436130Y66019674D01*
X13435495Y65906422D01*
X13434556Y65807975D01*
X13433255Y65723144D01*
X13431536Y65650744D01*
X13429341Y65589589D01*
X13426615Y65538492D01*
X13423299Y65496267D01*
X13419338Y65461727D01*
X13414675Y65433686D01*
X13409253Y65410958D01*
X13403014Y65392356D01*
X13395903Y65376693D01*
X13387862Y65362784D01*
X13378834Y65349441D01*
X13368764Y65335479D01*
X13357593Y65319711D01*
X13317803Y65261867D01*
X13014966Y65261867D01*
X13014386Y65371792D01*
X13013941Y65503011D01*
X13013638Y65650216D01*
X13013452Y65814349D01*
X13013358Y65996352D01*
X13013329Y66197165D01*
X13013339Y66417732D01*
X13013364Y66658992D01*
X13013378Y66921889D01*
X13013378Y66964040D01*
X13013354Y67224668D01*
X13013315Y67463796D01*
X13013292Y67682360D01*
X13013313Y67881295D01*
X13013407Y68061535D01*
X13013605Y68224015D01*
X13013937Y68369670D01*
X13014431Y68499434D01*
X13015117Y68614243D01*
X13016024Y68715030D01*
X13017183Y68802730D01*
X13018622Y68878279D01*
X13020371Y68942611D01*
X13022460Y68996661D01*
X13024917Y69041363D01*
X13027773Y69077652D01*
X13031057Y69106463D01*
X13034798Y69128731D01*
X13039026Y69145390D01*
X13043771Y69157375D01*
X13049061Y69165621D01*
X13054927Y69171062D01*
X13061398Y69174634D01*
X13068503Y69177270D01*
X13076272Y69179906D01*
X13084734Y69183477D01*
X13089092Y69185145D01*
X13097605Y69187111D01*
X13110306Y69188911D01*
X13128115Y69190555D01*
X13151951Y69192047D01*
X13182734Y69193397D01*
X13221383Y69194611D01*
X13268818Y69195697D01*
X13325957Y69196661D01*
X13393721Y69197511D01*
X13473029Y69198253D01*
X13564801Y69198897D01*
X13669956Y69199447D01*
X13789413Y69199913D01*
X13924092Y69200300D01*
X14074912Y69200616D01*
X14242794Y69200869D01*
X14428655Y69201066D01*
X14633417Y69201213D01*
X14857998Y69201318D01*
X15103318Y69201389D01*
X15370296Y69201432D01*
X15408679Y69201437D01*
X15674078Y69201480D01*
X15917950Y69201525D01*
X16141217Y69201548D01*
X16344804Y69201524D01*
G37*
X32876828Y69809981D02*
X32905946Y69797670D01*
X32906819Y69797272D01*
X32921940Y69789356D01*
X32932109Y69778495D01*
X32938309Y69759471D01*
X32941522Y69727069D01*
X32942730Y69676071D01*
X32942914Y69601261D01*
X32943286Y69553804D01*
X32947250Y69464615D01*
X32956327Y69399287D01*
X32971476Y69354393D01*
X32993655Y69326507D01*
X33023825Y69312203D01*
X33028010Y69311206D01*
X33084520Y69310427D01*
X33128590Y69335744D01*
X33159028Y69386502D01*
X33164456Y69401175D01*
X33176829Y69433649D01*
X33183095Y69448572D01*
X33195964Y69446516D01*
X33224067Y69435357D01*
X33250279Y69416927D01*
X33262229Y69382098D01*
X33258664Y69357151D01*
X33236765Y69306547D01*
X33201356Y69259128D01*
X33159948Y69226334D01*
X33142600Y69218752D01*
X33076911Y69206076D01*
X33007171Y69211097D01*
X32947247Y69233355D01*
X32922327Y69250080D01*
X32897090Y69274043D01*
X32879088Y69304526D01*
X32867142Y69346023D01*
X32860070Y69403032D01*
X32856692Y69480047D01*
X32855829Y69581565D01*
X32855998Y69634027D01*
X32856847Y69705715D01*
X32858289Y69762925D01*
X32860186Y69800809D01*
X32862403Y69814514D01*
X32876828Y69809981D01*
G36*
X32876828Y69809981D02*
G01*
X32905946Y69797670D01*
X32906819Y69797272D01*
X32921940Y69789356D01*
X32932109Y69778495D01*
X32938309Y69759471D01*
X32941522Y69727069D01*
X32942730Y69676071D01*
X32942914Y69601261D01*
X32943286Y69553804D01*
X32947250Y69464615D01*
X32956327Y69399287D01*
X32971476Y69354393D01*
X32993655Y69326507D01*
X33023825Y69312203D01*
X33028010Y69311206D01*
X33084520Y69310427D01*
X33128590Y69335744D01*
X33159028Y69386502D01*
X33164456Y69401175D01*
X33176829Y69433649D01*
X33183095Y69448572D01*
X33195964Y69446516D01*
X33224067Y69435357D01*
X33250279Y69416927D01*
X33262229Y69382098D01*
X33258664Y69357151D01*
X33236765Y69306547D01*
X33201356Y69259128D01*
X33159948Y69226334D01*
X33142600Y69218752D01*
X33076911Y69206076D01*
X33007171Y69211097D01*
X32947247Y69233355D01*
X32922327Y69250080D01*
X32897090Y69274043D01*
X32879088Y69304526D01*
X32867142Y69346023D01*
X32860070Y69403032D01*
X32856692Y69480047D01*
X32855829Y69581565D01*
X32855998Y69634027D01*
X32856847Y69705715D01*
X32858289Y69762925D01*
X32860186Y69800809D01*
X32862403Y69814514D01*
X32876828Y69809981D01*
G37*
X28929775Y69814491D02*
X28964732Y69801156D01*
X28990903Y69788323D01*
X29007987Y69771780D01*
X29017914Y69746465D01*
X29022614Y69707316D01*
X29024018Y69649268D01*
X29024057Y69567261D01*
X29024256Y69501895D01*
X29025441Y69439173D01*
X29028271Y69396334D01*
X29033391Y69368220D01*
X29041447Y69349675D01*
X29053086Y69335543D01*
X29081697Y69315600D01*
X29129761Y69308083D01*
X29177312Y69327079D01*
X29180450Y69329511D01*
X29190231Y69340748D01*
X29197447Y69358770D01*
X29202701Y69388026D01*
X29206598Y69432962D01*
X29209744Y69498028D01*
X29212743Y69587670D01*
X29220000Y69827697D01*
X29281686Y69800044D01*
X29343371Y69772391D01*
X29343371Y69553246D01*
X29343116Y69493711D01*
X29340914Y69410892D01*
X29335339Y69349227D01*
X29325059Y69303748D01*
X29308742Y69269484D01*
X29285057Y69241466D01*
X29252672Y69214723D01*
X29206093Y69187780D01*
X29132713Y69170191D01*
X29058980Y69177822D01*
X28991190Y69209680D01*
X28935634Y69264770D01*
X28924119Y69282016D01*
X28914568Y69301562D01*
X28907794Y69326198D01*
X28903181Y69360711D01*
X28900112Y69409889D01*
X28897971Y69478519D01*
X28896141Y69571389D01*
X28891596Y69829007D01*
X28929775Y69814491D01*
G36*
X28929775Y69814491D02*
G01*
X28964732Y69801156D01*
X28990903Y69788323D01*
X29007987Y69771780D01*
X29017914Y69746465D01*
X29022614Y69707316D01*
X29024018Y69649268D01*
X29024057Y69567261D01*
X29024256Y69501895D01*
X29025441Y69439173D01*
X29028271Y69396334D01*
X29033391Y69368220D01*
X29041447Y69349675D01*
X29053086Y69335543D01*
X29081697Y69315600D01*
X29129761Y69308083D01*
X29177312Y69327079D01*
X29180450Y69329511D01*
X29190231Y69340748D01*
X29197447Y69358770D01*
X29202701Y69388026D01*
X29206598Y69432962D01*
X29209744Y69498028D01*
X29212743Y69587670D01*
X29220000Y69827697D01*
X29281686Y69800044D01*
X29343371Y69772391D01*
X29343371Y69553246D01*
X29343116Y69493711D01*
X29340914Y69410892D01*
X29335339Y69349227D01*
X29325059Y69303748D01*
X29308742Y69269484D01*
X29285057Y69241466D01*
X29252672Y69214723D01*
X29206093Y69187780D01*
X29132713Y69170191D01*
X29058980Y69177822D01*
X28991190Y69209680D01*
X28935634Y69264770D01*
X28924119Y69282016D01*
X28914568Y69301562D01*
X28907794Y69326198D01*
X28903181Y69360711D01*
X28900112Y69409889D01*
X28897971Y69478519D01*
X28896141Y69571389D01*
X28891596Y69829007D01*
X28929775Y69814491D01*
G37*
X30797102Y69810452D02*
X30829362Y69798144D01*
X30836959Y69794545D01*
X30848824Y69786398D01*
X30857006Y69773004D01*
X30862357Y69749608D01*
X30865731Y69711455D01*
X30867981Y69653790D01*
X30869960Y69571857D01*
X30870502Y69547907D01*
X30872597Y69472266D01*
X30875317Y69419328D01*
X30879485Y69384075D01*
X30885921Y69361487D01*
X30895450Y69346544D01*
X30908894Y69334227D01*
X30948695Y69312634D01*
X30997659Y69308476D01*
X31041471Y69324999D01*
X31072992Y69359210D01*
X31085086Y69408114D01*
X31085422Y69421407D01*
X31092028Y69445472D01*
X31111530Y69449144D01*
X31149717Y69434813D01*
X31158562Y69430217D01*
X31182466Y69403186D01*
X31182939Y69362994D01*
X31160164Y69307409D01*
X31139273Y69277117D01*
X31085858Y69234084D01*
X31019926Y69209755D01*
X30949426Y69206443D01*
X30882309Y69226467D01*
X30877727Y69229003D01*
X30840296Y69258057D01*
X30806830Y69295410D01*
X30800993Y69303852D01*
X30789835Y69323553D01*
X30781864Y69346935D01*
X30776382Y69379067D01*
X30772693Y69425019D01*
X30770101Y69489859D01*
X30767908Y69578657D01*
X30767598Y69593669D01*
X30766600Y69690999D01*
X30768006Y69759934D01*
X30771836Y69800948D01*
X30778111Y69814514D01*
X30797102Y69810452D01*
G36*
X30797102Y69810452D02*
G01*
X30829362Y69798144D01*
X30836959Y69794545D01*
X30848824Y69786398D01*
X30857006Y69773004D01*
X30862357Y69749608D01*
X30865731Y69711455D01*
X30867981Y69653790D01*
X30869960Y69571857D01*
X30870502Y69547907D01*
X30872597Y69472266D01*
X30875317Y69419328D01*
X30879485Y69384075D01*
X30885921Y69361487D01*
X30895450Y69346544D01*
X30908894Y69334227D01*
X30948695Y69312634D01*
X30997659Y69308476D01*
X31041471Y69324999D01*
X31072992Y69359210D01*
X31085086Y69408114D01*
X31085422Y69421407D01*
X31092028Y69445472D01*
X31111530Y69449144D01*
X31149717Y69434813D01*
X31158562Y69430217D01*
X31182466Y69403186D01*
X31182939Y69362994D01*
X31160164Y69307409D01*
X31139273Y69277117D01*
X31085858Y69234084D01*
X31019926Y69209755D01*
X30949426Y69206443D01*
X30882309Y69226467D01*
X30877727Y69229003D01*
X30840296Y69258057D01*
X30806830Y69295410D01*
X30800993Y69303852D01*
X30789835Y69323553D01*
X30781864Y69346935D01*
X30776382Y69379067D01*
X30772693Y69425019D01*
X30770101Y69489859D01*
X30767908Y69578657D01*
X30767598Y69593669D01*
X30766600Y69690999D01*
X30768006Y69759934D01*
X30771836Y69800948D01*
X30778111Y69814514D01*
X30797102Y69810452D01*
G37*
X30089215Y69814468D02*
X30107027Y69809420D01*
X30139491Y69798580D01*
X30185200Y69782646D01*
X30185177Y69577237D01*
X30185143Y69558951D01*
X30183222Y69463626D01*
X30177322Y69391543D01*
X30165999Y69337813D01*
X30147813Y69297549D01*
X30121321Y69265861D01*
X30085082Y69237861D01*
X30049737Y69220333D01*
X29993227Y69206785D01*
X29937644Y69206015D01*
X29894914Y69219195D01*
X29891702Y69221015D01*
X29881795Y69220820D01*
X29875025Y69205572D01*
X29870139Y69170613D01*
X29865886Y69111289D01*
X29858629Y68989547D01*
X29811457Y69009444D01*
X29764286Y69029342D01*
X29764286Y69426509D01*
X29764481Y69529498D01*
X29765002Y69622141D01*
X29765801Y69700700D01*
X29766828Y69761439D01*
X29768037Y69800623D01*
X29769377Y69814514D01*
X29769901Y69814468D01*
X29787713Y69809420D01*
X29820177Y69798580D01*
X29865886Y69782646D01*
X29865886Y69578173D01*
X29866176Y69497832D01*
X29867526Y69439562D01*
X29870631Y69399909D01*
X29876188Y69373618D01*
X29884893Y69355436D01*
X29897444Y69340107D01*
X29906001Y69331955D01*
X29952272Y69309375D01*
X30003272Y69311375D01*
X30050007Y69338073D01*
X30056811Y69344698D01*
X30067707Y69358456D01*
X30075164Y69376642D01*
X30079831Y69404177D01*
X30082358Y69445981D01*
X30083398Y69506973D01*
X30083600Y69592073D01*
X30083697Y69635234D01*
X30084326Y69706224D01*
X30085444Y69763076D01*
X30086937Y69800828D01*
X30088691Y69814514D01*
X30089215Y69814468D01*
G36*
X30089215Y69814468D02*
G01*
X30107027Y69809420D01*
X30139491Y69798580D01*
X30185200Y69782646D01*
X30185177Y69577237D01*
X30185143Y69558951D01*
X30183222Y69463626D01*
X30177322Y69391543D01*
X30165999Y69337813D01*
X30147813Y69297549D01*
X30121321Y69265861D01*
X30085082Y69237861D01*
X30049737Y69220333D01*
X29993227Y69206785D01*
X29937644Y69206015D01*
X29894914Y69219195D01*
X29891702Y69221015D01*
X29881795Y69220820D01*
X29875025Y69205572D01*
X29870139Y69170613D01*
X29865886Y69111289D01*
X29858629Y68989547D01*
X29811457Y69009444D01*
X29764286Y69029342D01*
X29764286Y69426509D01*
X29764481Y69529498D01*
X29765002Y69622141D01*
X29765801Y69700700D01*
X29766828Y69761439D01*
X29768037Y69800623D01*
X29769377Y69814514D01*
X29769901Y69814468D01*
X29787713Y69809420D01*
X29820177Y69798580D01*
X29865886Y69782646D01*
X29865886Y69578173D01*
X29866176Y69497832D01*
X29867526Y69439562D01*
X29870631Y69399909D01*
X29876188Y69373618D01*
X29884893Y69355436D01*
X29897444Y69340107D01*
X29906001Y69331955D01*
X29952272Y69309375D01*
X30003272Y69311375D01*
X30050007Y69338073D01*
X30056811Y69344698D01*
X30067707Y69358456D01*
X30075164Y69376642D01*
X30079831Y69404177D01*
X30082358Y69445981D01*
X30083398Y69506973D01*
X30083600Y69592073D01*
X30083697Y69635234D01*
X30084326Y69706224D01*
X30085444Y69763076D01*
X30086937Y69800828D01*
X30088691Y69814514D01*
X30089215Y69814468D01*
G37*
X31925674Y69808321D02*
X31943432Y69806114D01*
X31989233Y69801445D01*
X32021257Y69799585D01*
X32030756Y69799869D01*
X32069726Y69802948D01*
X32116840Y69808321D01*
X32131915Y69810168D01*
X32169890Y69810893D01*
X32197675Y69799429D01*
X32229326Y69771127D01*
X32275257Y69725196D01*
X32275257Y69465055D01*
X32274899Y69388180D01*
X32273784Y69314886D01*
X32272048Y69256850D01*
X32269833Y69218663D01*
X32267279Y69204914D01*
X32266744Y69204951D01*
X32248192Y69211793D01*
X32216847Y69226868D01*
X32174392Y69248822D01*
X32170396Y69477240D01*
X32166400Y69705657D01*
X32079314Y69705657D01*
X32075343Y69455286D01*
X32074084Y69387227D01*
X32072282Y69314482D01*
X32070329Y69256730D01*
X32068388Y69218648D01*
X32066623Y69204914D01*
X32066115Y69204962D01*
X32048518Y69210015D01*
X32016166Y69220849D01*
X31970457Y69236783D01*
X31970235Y69456706D01*
X31970012Y69494909D01*
X31968469Y69569146D01*
X31965708Y69631145D01*
X31962023Y69675308D01*
X31957708Y69696041D01*
X31942268Y69707131D01*
X31910759Y69710556D01*
X31876114Y69705657D01*
X31872143Y69455286D01*
X31870722Y69391663D01*
X31867775Y69316356D01*
X31863921Y69257286D01*
X31859458Y69218718D01*
X31854683Y69204914D01*
X31836059Y69209282D01*
X31804226Y69221758D01*
X31767257Y69238602D01*
X31767257Y69725196D01*
X31813188Y69771127D01*
X31823680Y69781427D01*
X31852745Y69804320D01*
X31882057Y69811735D01*
X31925674Y69808321D01*
G36*
X31925674Y69808321D02*
G01*
X31943432Y69806114D01*
X31989233Y69801445D01*
X32021257Y69799585D01*
X32030756Y69799869D01*
X32069726Y69802948D01*
X32116840Y69808321D01*
X32131915Y69810168D01*
X32169890Y69810893D01*
X32197675Y69799429D01*
X32229326Y69771127D01*
X32275257Y69725196D01*
X32275257Y69465055D01*
X32274899Y69388180D01*
X32273784Y69314886D01*
X32272048Y69256850D01*
X32269833Y69218663D01*
X32267279Y69204914D01*
X32266744Y69204951D01*
X32248192Y69211793D01*
X32216847Y69226868D01*
X32174392Y69248822D01*
X32170396Y69477240D01*
X32166400Y69705657D01*
X32079314Y69705657D01*
X32075343Y69455286D01*
X32074084Y69387227D01*
X32072282Y69314482D01*
X32070329Y69256730D01*
X32068388Y69218648D01*
X32066623Y69204914D01*
X32066115Y69204962D01*
X32048518Y69210015D01*
X32016166Y69220849D01*
X31970457Y69236783D01*
X31970235Y69456706D01*
X31970012Y69494909D01*
X31968469Y69569146D01*
X31965708Y69631145D01*
X31962023Y69675308D01*
X31957708Y69696041D01*
X31942268Y69707131D01*
X31910759Y69710556D01*
X31876114Y69705657D01*
X31872143Y69455286D01*
X31870722Y69391663D01*
X31867775Y69316356D01*
X31863921Y69257286D01*
X31859458Y69218718D01*
X31854683Y69204914D01*
X31836059Y69209282D01*
X31804226Y69221758D01*
X31767257Y69238602D01*
X31767257Y69725196D01*
X31813188Y69771127D01*
X31823680Y69781427D01*
X31852745Y69804320D01*
X31882057Y69811735D01*
X31925674Y69808321D01*
G37*
X27518769Y69804535D02*
X27590355Y69768707D01*
X27650626Y69708887D01*
X27655714Y69700873D01*
X27672270Y69654342D01*
X27683427Y69589552D01*
X27688840Y69514727D01*
X27688167Y69438096D01*
X27681063Y69367882D01*
X27667185Y69312312D01*
X27649351Y69275301D01*
X27599145Y69217733D01*
X27531115Y69181962D01*
X27447842Y69169665D01*
X27425602Y69170331D01*
X27360109Y69183947D01*
X27306313Y69218249D01*
X27256943Y69277338D01*
X27254005Y69281722D01*
X27240713Y69305299D01*
X27232068Y69331949D01*
X27227096Y69368159D01*
X27224826Y69420413D01*
X27224322Y69490192D01*
X27369429Y69490192D01*
X27370875Y69428150D01*
X27378093Y69369042D01*
X27392994Y69331686D01*
X27417364Y69312152D01*
X27452992Y69306514D01*
X27466560Y69307635D01*
X27504570Y69328194D01*
X27529688Y69374299D01*
X27541752Y69445513D01*
X27540598Y69541399D01*
X27540134Y69547569D01*
X27533371Y69600478D01*
X27521329Y69634029D01*
X27500995Y69657016D01*
X27466903Y69678548D01*
X27433186Y69679680D01*
X27398457Y69654857D01*
X27392416Y69648325D01*
X27380583Y69628779D01*
X27373596Y69600386D01*
X27370273Y69556430D01*
X27369429Y69490192D01*
X27224322Y69490192D01*
X27224286Y69495200D01*
X27224299Y69510935D01*
X27225086Y69581119D01*
X27227790Y69630022D01*
X27233394Y69664178D01*
X27242881Y69690124D01*
X27257232Y69714397D01*
X27260763Y69719433D01*
X27298122Y69759143D01*
X27340689Y69789092D01*
X27362548Y69798810D01*
X27441092Y69815020D01*
X27518769Y69804535D01*
G36*
X27518769Y69804535D02*
G01*
X27590355Y69768707D01*
X27650626Y69708887D01*
X27655714Y69700873D01*
X27672270Y69654342D01*
X27683427Y69589552D01*
X27688840Y69514727D01*
X27688167Y69438096D01*
X27681063Y69367882D01*
X27667185Y69312312D01*
X27649351Y69275301D01*
X27599145Y69217733D01*
X27531115Y69181962D01*
X27447842Y69169665D01*
X27425602Y69170331D01*
X27360109Y69183947D01*
X27306313Y69218249D01*
X27256943Y69277338D01*
X27254005Y69281722D01*
X27240713Y69305299D01*
X27232068Y69331949D01*
X27227096Y69368159D01*
X27224826Y69420413D01*
X27224322Y69490192D01*
X27369429Y69490192D01*
X27370875Y69428150D01*
X27378093Y69369042D01*
X27392994Y69331686D01*
X27417364Y69312152D01*
X27452992Y69306514D01*
X27466560Y69307635D01*
X27504570Y69328194D01*
X27529688Y69374299D01*
X27541752Y69445513D01*
X27540598Y69541399D01*
X27540134Y69547569D01*
X27533371Y69600478D01*
X27521329Y69634029D01*
X27500995Y69657016D01*
X27466903Y69678548D01*
X27433186Y69679680D01*
X27398457Y69654857D01*
X27392416Y69648325D01*
X27380583Y69628779D01*
X27373596Y69600386D01*
X27370273Y69556430D01*
X27369429Y69490192D01*
X27224322Y69490192D01*
X27224286Y69495200D01*
X27224299Y69510935D01*
X27225086Y69581119D01*
X27227790Y69630022D01*
X27233394Y69664178D01*
X27242881Y69690124D01*
X27257232Y69714397D01*
X27260763Y69719433D01*
X27298122Y69759143D01*
X27340689Y69789092D01*
X27362548Y69798810D01*
X27441092Y69815020D01*
X27518769Y69804535D01*
G37*
X33566335Y69810230D02*
X33597615Y69807283D01*
X33635347Y69798283D01*
X33665506Y69778720D01*
X33700592Y69742267D01*
X33705280Y69736943D01*
X33736823Y69695969D01*
X33751872Y69660283D01*
X33755714Y69617966D01*
X33755714Y69555779D01*
X33712258Y69572182D01*
X33680576Y69591356D01*
X33653038Y69636347D01*
X33647289Y69650752D01*
X33615145Y69691546D01*
X33571389Y69712081D01*
X33523746Y69710235D01*
X33479943Y69683886D01*
X33464889Y69667455D01*
X33451237Y69642667D01*
X33455507Y69620144D01*
X33480084Y69596964D01*
X33527349Y69570202D01*
X33599686Y69536934D01*
X33748457Y69471816D01*
X33752405Y69407308D01*
X33750662Y69359064D01*
X33728719Y69298096D01*
X33701021Y69264497D01*
X33643595Y69226966D01*
X33575473Y69208006D01*
X33505053Y69209507D01*
X33440733Y69233355D01*
X33426574Y69242513D01*
X33394096Y69270849D01*
X33371884Y69306695D01*
X33358196Y69355384D01*
X33351285Y69422249D01*
X33350372Y69466247D01*
X33438007Y69466247D01*
X33441631Y69426257D01*
X33450758Y69387152D01*
X33479227Y69337884D01*
X33520322Y69310122D01*
X33569410Y69306364D01*
X33621856Y69329109D01*
X33636391Y69340481D01*
X33653990Y69366220D01*
X33646632Y69391657D01*
X33613152Y69418814D01*
X33552386Y69449714D01*
X33542331Y69454190D01*
X33494249Y69475017D01*
X33458274Y69489665D01*
X33441556Y69495200D01*
X33439023Y69491126D01*
X33438007Y69466247D01*
X33350372Y69466247D01*
X33349410Y69512622D01*
X33349693Y69551305D01*
X33353238Y69627521D01*
X33362517Y69683294D01*
X33379625Y69724613D01*
X33406656Y69757467D01*
X33445708Y69787846D01*
X33470555Y69801660D01*
X33510385Y69810965D01*
X33566335Y69810230D01*
G36*
X33566335Y69810230D02*
G01*
X33597615Y69807283D01*
X33635347Y69798283D01*
X33665506Y69778720D01*
X33700592Y69742267D01*
X33705280Y69736943D01*
X33736823Y69695969D01*
X33751872Y69660283D01*
X33755714Y69617966D01*
X33755714Y69555779D01*
X33712258Y69572182D01*
X33680576Y69591356D01*
X33653038Y69636347D01*
X33647289Y69650752D01*
X33615145Y69691546D01*
X33571389Y69712081D01*
X33523746Y69710235D01*
X33479943Y69683886D01*
X33464889Y69667455D01*
X33451237Y69642667D01*
X33455507Y69620144D01*
X33480084Y69596964D01*
X33527349Y69570202D01*
X33599686Y69536934D01*
X33748457Y69471816D01*
X33752405Y69407308D01*
X33750662Y69359064D01*
X33728719Y69298096D01*
X33701021Y69264497D01*
X33643595Y69226966D01*
X33575473Y69208006D01*
X33505053Y69209507D01*
X33440733Y69233355D01*
X33426574Y69242513D01*
X33394096Y69270849D01*
X33371884Y69306695D01*
X33358196Y69355384D01*
X33351285Y69422249D01*
X33350372Y69466247D01*
X33438007Y69466247D01*
X33441631Y69426257D01*
X33450758Y69387152D01*
X33479227Y69337884D01*
X33520322Y69310122D01*
X33569410Y69306364D01*
X33621856Y69329109D01*
X33636391Y69340481D01*
X33653990Y69366220D01*
X33646632Y69391657D01*
X33613152Y69418814D01*
X33552386Y69449714D01*
X33542331Y69454190D01*
X33494249Y69475017D01*
X33458274Y69489665D01*
X33441556Y69495200D01*
X33439023Y69491126D01*
X33438007Y69466247D01*
X33350372Y69466247D01*
X33349410Y69512622D01*
X33349693Y69551305D01*
X33353238Y69627521D01*
X33362517Y69683294D01*
X33379625Y69724613D01*
X33406656Y69757467D01*
X33445708Y69787846D01*
X33470555Y69801660D01*
X33510385Y69810965D01*
X33566335Y69810230D01*
G37*
X31539264Y69801377D02*
X31601855Y69765945D01*
X31651221Y69709418D01*
X31657182Y69698995D01*
X31665055Y69680733D01*
X31670894Y69657429D01*
X31675001Y69625085D01*
X31677675Y69579704D01*
X31679219Y69517287D01*
X31679933Y69433837D01*
X31680117Y69325358D01*
X31680171Y68988601D01*
X31633000Y69008362D01*
X31620528Y69013770D01*
X31600676Y69025985D01*
X31589313Y69044482D01*
X31583067Y69076829D01*
X31578571Y69130593D01*
X31574465Y69178866D01*
X31569037Y69210557D01*
X31561261Y69222383D01*
X31549543Y69219212D01*
X31519682Y69208067D01*
X31466316Y69205304D01*
X31408907Y69215625D01*
X31359375Y69237861D01*
X31332124Y69258443D01*
X31297135Y69298600D01*
X31274726Y69350086D01*
X31262810Y69418568D01*
X31259458Y69505647D01*
X31360857Y69505647D01*
X31361163Y69456122D01*
X31363278Y69407782D01*
X31368610Y69376587D01*
X31378540Y69355647D01*
X31394450Y69338073D01*
X31403796Y69330159D01*
X31452224Y69308843D01*
X31502960Y69312198D01*
X31547013Y69340107D01*
X31556496Y69351173D01*
X31568061Y69372009D01*
X31574748Y69401106D01*
X31577827Y69445381D01*
X31578571Y69511748D01*
X31578228Y69564577D01*
X31576058Y69612362D01*
X31570693Y69643209D01*
X31560783Y69663935D01*
X31544979Y69681356D01*
X31541276Y69684705D01*
X31493701Y69709419D01*
X31443365Y69706890D01*
X31396483Y69677288D01*
X31382523Y69661953D01*
X31370840Y69641622D01*
X31364314Y69613514D01*
X31361476Y69570550D01*
X31360857Y69505647D01*
X31259458Y69505647D01*
X31259302Y69509714D01*
X31260463Y69566313D01*
X31268655Y69643462D01*
X31286481Y69701276D01*
X31316025Y69745422D01*
X31359375Y69781568D01*
X31400668Y69802463D01*
X31470013Y69814090D01*
X31539264Y69801377D01*
G36*
X31539264Y69801377D02*
G01*
X31601855Y69765945D01*
X31651221Y69709418D01*
X31657182Y69698995D01*
X31665055Y69680733D01*
X31670894Y69657429D01*
X31675001Y69625085D01*
X31677675Y69579704D01*
X31679219Y69517287D01*
X31679933Y69433837D01*
X31680117Y69325358D01*
X31680171Y68988601D01*
X31633000Y69008362D01*
X31620528Y69013770D01*
X31600676Y69025985D01*
X31589313Y69044482D01*
X31583067Y69076829D01*
X31578571Y69130593D01*
X31574465Y69178866D01*
X31569037Y69210557D01*
X31561261Y69222383D01*
X31549543Y69219212D01*
X31519682Y69208067D01*
X31466316Y69205304D01*
X31408907Y69215625D01*
X31359375Y69237861D01*
X31332124Y69258443D01*
X31297135Y69298600D01*
X31274726Y69350086D01*
X31262810Y69418568D01*
X31259458Y69505647D01*
X31360857Y69505647D01*
X31361163Y69456122D01*
X31363278Y69407782D01*
X31368610Y69376587D01*
X31378540Y69355647D01*
X31394450Y69338073D01*
X31403796Y69330159D01*
X31452224Y69308843D01*
X31502960Y69312198D01*
X31547013Y69340107D01*
X31556496Y69351173D01*
X31568061Y69372009D01*
X31574748Y69401106D01*
X31577827Y69445381D01*
X31578571Y69511748D01*
X31578228Y69564577D01*
X31576058Y69612362D01*
X31570693Y69643209D01*
X31560783Y69663935D01*
X31544979Y69681356D01*
X31541276Y69684705D01*
X31493701Y69709419D01*
X31443365Y69706890D01*
X31396483Y69677288D01*
X31382523Y69661953D01*
X31370840Y69641622D01*
X31364314Y69613514D01*
X31361476Y69570550D01*
X31360857Y69505647D01*
X31259458Y69505647D01*
X31259302Y69509714D01*
X31260463Y69566313D01*
X31268655Y69643462D01*
X31286481Y69701276D01*
X31316025Y69745422D01*
X31359375Y69781568D01*
X31400668Y69802463D01*
X31470013Y69814090D01*
X31539264Y69801377D01*
G37*
X28652711Y69793097D02*
X28712804Y69749062D01*
X28759171Y69684322D01*
X28759950Y69682761D01*
X28775357Y69642558D01*
X28786643Y69596866D01*
X28792630Y69553972D01*
X28792139Y69522160D01*
X28783993Y69509714D01*
X28776756Y69510471D01*
X28742149Y69524235D01*
X28702922Y69549546D01*
X28669552Y69578845D01*
X28652517Y69604572D01*
X28634808Y69639471D01*
X28598515Y69671212D01*
X28556370Y69683886D01*
X28540923Y69680221D01*
X28510431Y69661774D01*
X28483872Y69636166D01*
X28472514Y69612934D01*
X28472518Y69612848D01*
X28485404Y69602179D01*
X28519759Y69582933D01*
X28570407Y69557813D01*
X28632171Y69529524D01*
X28632511Y69529374D01*
X28699612Y69499498D01*
X28744589Y69477973D01*
X28771855Y69461437D01*
X28785822Y69446531D01*
X28790903Y69429893D01*
X28791510Y69408162D01*
X28786167Y69356086D01*
X28759749Y69285335D01*
X28715527Y69229735D01*
X28658303Y69191239D01*
X28592880Y69171797D01*
X28524063Y69173359D01*
X28456653Y69197878D01*
X28395456Y69247302D01*
X28361550Y69296212D01*
X28337194Y69366027D01*
X28333233Y69402748D01*
X28472514Y69402748D01*
X28480034Y69362915D01*
X28506103Y69326717D01*
X28543846Y69307950D01*
X28585923Y69309845D01*
X28624995Y69335632D01*
X28640353Y69353451D01*
X28644000Y69367013D01*
X28629209Y69379949D01*
X28592356Y69399333D01*
X28591275Y69399881D01*
X28547795Y69420587D01*
X28508898Y69437105D01*
X28484222Y69444093D01*
X28474324Y69434753D01*
X28472514Y69402748D01*
X28333233Y69402748D01*
X28327701Y69454055D01*
X28332316Y69564078D01*
X28334922Y69587387D01*
X28354340Y69670352D01*
X28389427Y69733448D01*
X28442788Y69781808D01*
X28445804Y69783804D01*
X28513638Y69812185D01*
X28584465Y69814711D01*
X28652711Y69793097D01*
G36*
X28652711Y69793097D02*
G01*
X28712804Y69749062D01*
X28759171Y69684322D01*
X28759950Y69682761D01*
X28775357Y69642558D01*
X28786643Y69596866D01*
X28792630Y69553972D01*
X28792139Y69522160D01*
X28783993Y69509714D01*
X28776756Y69510471D01*
X28742149Y69524235D01*
X28702922Y69549546D01*
X28669552Y69578845D01*
X28652517Y69604572D01*
X28634808Y69639471D01*
X28598515Y69671212D01*
X28556370Y69683886D01*
X28540923Y69680221D01*
X28510431Y69661774D01*
X28483872Y69636166D01*
X28472514Y69612934D01*
X28472518Y69612848D01*
X28485404Y69602179D01*
X28519759Y69582933D01*
X28570407Y69557813D01*
X28632171Y69529524D01*
X28632511Y69529374D01*
X28699612Y69499498D01*
X28744589Y69477973D01*
X28771855Y69461437D01*
X28785822Y69446531D01*
X28790903Y69429893D01*
X28791510Y69408162D01*
X28786167Y69356086D01*
X28759749Y69285335D01*
X28715527Y69229735D01*
X28658303Y69191239D01*
X28592880Y69171797D01*
X28524063Y69173359D01*
X28456653Y69197878D01*
X28395456Y69247302D01*
X28361550Y69296212D01*
X28337194Y69366027D01*
X28333233Y69402748D01*
X28472514Y69402748D01*
X28480034Y69362915D01*
X28506103Y69326717D01*
X28543846Y69307950D01*
X28585923Y69309845D01*
X28624995Y69335632D01*
X28640353Y69353451D01*
X28644000Y69367013D01*
X28629209Y69379949D01*
X28592356Y69399333D01*
X28591275Y69399881D01*
X28547795Y69420587D01*
X28508898Y69437105D01*
X28484222Y69444093D01*
X28474324Y69434753D01*
X28472514Y69402748D01*
X28333233Y69402748D01*
X28327701Y69454055D01*
X28332316Y69564078D01*
X28334922Y69587387D01*
X28354340Y69670352D01*
X28389427Y69733448D01*
X28442788Y69781808D01*
X28445804Y69783804D01*
X28513638Y69812185D01*
X28584465Y69814711D01*
X28652711Y69793097D01*
G37*
X30600470Y69814423D02*
X30619763Y69807110D01*
X30651716Y69791678D01*
X30695876Y69768842D01*
X30690629Y69563078D01*
X30690264Y69549432D01*
X30686096Y69453651D01*
X30678732Y69381462D01*
X30666670Y69328058D01*
X30648407Y69288633D01*
X30622440Y69258380D01*
X30587267Y69232493D01*
X30586616Y69232087D01*
X30529744Y69210968D01*
X30463967Y69207400D01*
X30400517Y69220569D01*
X30350624Y69249661D01*
X30328675Y69272327D01*
X30286496Y69340082D01*
X30272286Y69413950D01*
X30272286Y69464770D01*
X30319001Y69445128D01*
X30351308Y69425308D01*
X30376769Y69384160D01*
X30379384Y69375675D01*
X30407522Y69332451D01*
X30449933Y69309103D01*
X30498630Y69308100D01*
X30545627Y69331914D01*
X30552643Y69338056D01*
X30576107Y69364745D01*
X30579981Y69388014D01*
X30562232Y69410862D01*
X30520821Y69436287D01*
X30453714Y69467288D01*
X30449176Y69469252D01*
X30374678Y69503990D01*
X30323797Y69534763D01*
X30292475Y69565488D01*
X30276657Y69600082D01*
X30272286Y69642462D01*
X30278014Y69689446D01*
X30306938Y69749585D01*
X30357822Y69792788D01*
X30394626Y69805759D01*
X30446566Y69812856D01*
X30497001Y69811340D01*
X30533017Y69800632D01*
X30536842Y69797966D01*
X30547002Y69779337D01*
X30539952Y69746505D01*
X30527703Y69720735D01*
X30508061Y69710006D01*
X30470809Y69710539D01*
X30419092Y69707462D01*
X30385299Y69686212D01*
X30373886Y69646877D01*
X30373896Y69645747D01*
X30380813Y69622913D01*
X30404341Y69601963D01*
X30450086Y69577815D01*
X30512296Y69548741D01*
X30553501Y69532925D01*
X30577288Y69533944D01*
X30588403Y69554837D01*
X30591592Y69598641D01*
X30591600Y69668393D01*
X30591956Y69711452D01*
X30593587Y69764626D01*
X30596239Y69801022D01*
X30599578Y69814514D01*
X30600470Y69814423D01*
G36*
X30600470Y69814423D02*
G01*
X30619763Y69807110D01*
X30651716Y69791678D01*
X30695876Y69768842D01*
X30690629Y69563078D01*
X30690264Y69549432D01*
X30686096Y69453651D01*
X30678732Y69381462D01*
X30666670Y69328058D01*
X30648407Y69288633D01*
X30622440Y69258380D01*
X30587267Y69232493D01*
X30586616Y69232087D01*
X30529744Y69210968D01*
X30463967Y69207400D01*
X30400517Y69220569D01*
X30350624Y69249661D01*
X30328675Y69272327D01*
X30286496Y69340082D01*
X30272286Y69413950D01*
X30272286Y69464770D01*
X30319001Y69445128D01*
X30351308Y69425308D01*
X30376769Y69384160D01*
X30379384Y69375675D01*
X30407522Y69332451D01*
X30449933Y69309103D01*
X30498630Y69308100D01*
X30545627Y69331914D01*
X30552643Y69338056D01*
X30576107Y69364745D01*
X30579981Y69388014D01*
X30562232Y69410862D01*
X30520821Y69436287D01*
X30453714Y69467288D01*
X30449176Y69469252D01*
X30374678Y69503990D01*
X30323797Y69534763D01*
X30292475Y69565488D01*
X30276657Y69600082D01*
X30272286Y69642462D01*
X30278014Y69689446D01*
X30306938Y69749585D01*
X30357822Y69792788D01*
X30394626Y69805759D01*
X30446566Y69812856D01*
X30497001Y69811340D01*
X30533017Y69800632D01*
X30536842Y69797966D01*
X30547002Y69779337D01*
X30539952Y69746505D01*
X30527703Y69720735D01*
X30508061Y69710006D01*
X30470809Y69710539D01*
X30419092Y69707462D01*
X30385299Y69686212D01*
X30373886Y69646877D01*
X30373896Y69645747D01*
X30380813Y69622913D01*
X30404341Y69601963D01*
X30450086Y69577815D01*
X30512296Y69548741D01*
X30553501Y69532925D01*
X30577288Y69533944D01*
X30588403Y69554837D01*
X30591592Y69598641D01*
X30591600Y69668393D01*
X30591956Y69711452D01*
X30593587Y69764626D01*
X30596239Y69801022D01*
X30599578Y69814514D01*
X30600470Y69814423D01*
G37*
X27818376Y70030414D02*
X27840764Y70021648D01*
X27869679Y70007769D01*
X27875858Y70004808D01*
X27901587Y69990311D01*
X27915024Y69973065D01*
X27920166Y69944308D01*
X27921010Y69895283D01*
X27921048Y69807257D01*
X28011724Y69807257D01*
X28067502Y69804815D01*
X28111360Y69794908D01*
X28147782Y69774886D01*
X28150497Y69772929D01*
X28187454Y69739869D01*
X28213174Y69699931D01*
X28229394Y69647657D01*
X28237852Y69577588D01*
X28240286Y69484267D01*
X28239747Y69416169D01*
X28237293Y69364587D01*
X28231842Y69328816D01*
X28222314Y69302015D01*
X28207629Y69277338D01*
X28194148Y69258480D01*
X28145201Y69207568D01*
X28089744Y69179918D01*
X28020072Y69171165D01*
X27940336Y69179890D01*
X27871405Y69211185D01*
X27816887Y69266381D01*
X27812777Y69272224D01*
X27803192Y69287753D01*
X27795849Y69305498D01*
X27790388Y69329290D01*
X27786450Y69362958D01*
X27783677Y69410333D01*
X27781708Y69475245D01*
X27781472Y69488603D01*
X27920971Y69488603D01*
X27921650Y69451130D01*
X27929017Y69382980D01*
X27945832Y69338330D01*
X27973766Y69313926D01*
X28014491Y69306514D01*
X28031650Y69308094D01*
X28061340Y69323766D01*
X28080969Y69358691D01*
X28091812Y69415901D01*
X28095143Y69498430D01*
X28095118Y69511697D01*
X28093739Y69571584D01*
X28089313Y69610732D01*
X28080539Y69636153D01*
X28066114Y69654857D01*
X28065216Y69655750D01*
X28029763Y69679952D01*
X27995404Y69677567D01*
X27956597Y69648260D01*
X27947105Y69638244D01*
X27933124Y69617708D01*
X27925240Y69590997D01*
X27921755Y69550499D01*
X27920971Y69488603D01*
X27781472Y69488603D01*
X27780185Y69561524D01*
X27778748Y69673000D01*
X27778349Y69705339D01*
X27777071Y69813455D01*
X27776815Y69896186D01*
X27778366Y69956426D01*
X27782510Y69997073D01*
X27790036Y70021023D01*
X27801729Y70031171D01*
X27818376Y70030414D01*
G36*
X27818376Y70030414D02*
G01*
X27840764Y70021648D01*
X27869679Y70007769D01*
X27875858Y70004808D01*
X27901587Y69990311D01*
X27915024Y69973065D01*
X27920166Y69944308D01*
X27921010Y69895283D01*
X27921048Y69807257D01*
X28011724Y69807257D01*
X28067502Y69804815D01*
X28111360Y69794908D01*
X28147782Y69774886D01*
X28150497Y69772929D01*
X28187454Y69739869D01*
X28213174Y69699931D01*
X28229394Y69647657D01*
X28237852Y69577588D01*
X28240286Y69484267D01*
X28239747Y69416169D01*
X28237293Y69364587D01*
X28231842Y69328816D01*
X28222314Y69302015D01*
X28207629Y69277338D01*
X28194148Y69258480D01*
X28145201Y69207568D01*
X28089744Y69179918D01*
X28020072Y69171165D01*
X27940336Y69179890D01*
X27871405Y69211185D01*
X27816887Y69266381D01*
X27812777Y69272224D01*
X27803192Y69287753D01*
X27795849Y69305498D01*
X27790388Y69329290D01*
X27786450Y69362958D01*
X27783677Y69410333D01*
X27781708Y69475245D01*
X27781472Y69488603D01*
X27920971Y69488603D01*
X27921650Y69451130D01*
X27929017Y69382980D01*
X27945832Y69338330D01*
X27973766Y69313926D01*
X28014491Y69306514D01*
X28031650Y69308094D01*
X28061340Y69323766D01*
X28080969Y69358691D01*
X28091812Y69415901D01*
X28095143Y69498430D01*
X28095118Y69511697D01*
X28093739Y69571584D01*
X28089313Y69610732D01*
X28080539Y69636153D01*
X28066114Y69654857D01*
X28065216Y69655750D01*
X28029763Y69679952D01*
X27995404Y69677567D01*
X27956597Y69648260D01*
X27947105Y69638244D01*
X27933124Y69617708D01*
X27925240Y69590997D01*
X27921755Y69550499D01*
X27920971Y69488603D01*
X27781472Y69488603D01*
X27780185Y69561524D01*
X27778748Y69673000D01*
X27778349Y69705339D01*
X27777071Y69813455D01*
X27776815Y69896186D01*
X27778366Y69956426D01*
X27782510Y69997073D01*
X27790036Y70021023D01*
X27801729Y70031171D01*
X27818376Y70030414D01*
G37*
X32702656Y69809981D02*
X32731774Y69797670D01*
X32768743Y69780826D01*
X32768743Y69564721D01*
X32768507Y69509327D01*
X32766271Y69425207D01*
X32760577Y69362800D01*
X32750097Y69317358D01*
X32733503Y69284133D01*
X32709469Y69258378D01*
X32676667Y69235344D01*
X32634876Y69216335D01*
X32557713Y69204914D01*
X32522505Y69206220D01*
X32491401Y69214121D01*
X32462441Y69233817D01*
X32425169Y69270484D01*
X32401199Y69296378D01*
X32376230Y69329997D01*
X32364969Y69361506D01*
X32362343Y69401485D01*
X32362343Y69466917D01*
X32406965Y69443842D01*
X32442327Y69415724D01*
X32466549Y69377848D01*
X32470709Y69367551D01*
X32502406Y69327637D01*
X32546446Y69307624D01*
X32594469Y69309572D01*
X32638114Y69335543D01*
X32656580Y69356635D01*
X32667337Y69383619D01*
X32655822Y69407634D01*
X32620019Y69431791D01*
X32557910Y69459199D01*
X32548485Y69462985D01*
X32491942Y69487759D01*
X32443420Y69512189D01*
X32412549Y69531486D01*
X32381629Y69565953D01*
X32361073Y69620957D01*
X32363256Y69679983D01*
X32387576Y69735845D01*
X32433432Y69781355D01*
X32470562Y69800727D01*
X32542289Y69814292D01*
X32582148Y69812462D01*
X32619047Y69802568D01*
X32633203Y69781806D01*
X32627909Y69747613D01*
X32626369Y69743092D01*
X32614158Y69719116D01*
X32593826Y69710042D01*
X32555092Y69710649D01*
X32527743Y69711474D01*
X32495743Y69704392D01*
X32473818Y69683219D01*
X32461330Y69657152D01*
X32459938Y69629845D01*
X32460002Y69629685D01*
X32476193Y69614930D01*
X32510845Y69593457D01*
X32555679Y69569458D01*
X32602418Y69547125D01*
X32642783Y69530652D01*
X32668496Y69524229D01*
X32672321Y69530518D01*
X32677136Y69560115D01*
X32680434Y69608447D01*
X32681657Y69669372D01*
X32681942Y69711542D01*
X32683282Y69764653D01*
X32685472Y69801025D01*
X32688231Y69814514D01*
X32702656Y69809981D01*
G36*
X32702656Y69809981D02*
G01*
X32731774Y69797670D01*
X32768743Y69780826D01*
X32768743Y69564721D01*
X32768507Y69509327D01*
X32766271Y69425207D01*
X32760577Y69362800D01*
X32750097Y69317358D01*
X32733503Y69284133D01*
X32709469Y69258378D01*
X32676667Y69235344D01*
X32634876Y69216335D01*
X32557713Y69204914D01*
X32522505Y69206220D01*
X32491401Y69214121D01*
X32462441Y69233817D01*
X32425169Y69270484D01*
X32401199Y69296378D01*
X32376230Y69329997D01*
X32364969Y69361506D01*
X32362343Y69401485D01*
X32362343Y69466917D01*
X32406965Y69443842D01*
X32442327Y69415724D01*
X32466549Y69377848D01*
X32470709Y69367551D01*
X32502406Y69327637D01*
X32546446Y69307624D01*
X32594469Y69309572D01*
X32638114Y69335543D01*
X32656580Y69356635D01*
X32667337Y69383619D01*
X32655822Y69407634D01*
X32620019Y69431791D01*
X32557910Y69459199D01*
X32548485Y69462985D01*
X32491942Y69487759D01*
X32443420Y69512189D01*
X32412549Y69531486D01*
X32381629Y69565953D01*
X32361073Y69620957D01*
X32363256Y69679983D01*
X32387576Y69735845D01*
X32433432Y69781355D01*
X32470562Y69800727D01*
X32542289Y69814292D01*
X32582148Y69812462D01*
X32619047Y69802568D01*
X32633203Y69781806D01*
X32627909Y69747613D01*
X32626369Y69743092D01*
X32614158Y69719116D01*
X32593826Y69710042D01*
X32555092Y69710649D01*
X32527743Y69711474D01*
X32495743Y69704392D01*
X32473818Y69683219D01*
X32461330Y69657152D01*
X32459938Y69629845D01*
X32460002Y69629685D01*
X32476193Y69614930D01*
X32510845Y69593457D01*
X32555679Y69569458D01*
X32602418Y69547125D01*
X32642783Y69530652D01*
X32668496Y69524229D01*
X32672321Y69530518D01*
X32677136Y69560115D01*
X32680434Y69608447D01*
X32681657Y69669372D01*
X32681942Y69711542D01*
X32683282Y69764653D01*
X32685472Y69801025D01*
X32688231Y69814514D01*
X32702656Y69809981D01*
G37*
X31885675Y68623343D02*
X31908046Y68607584D01*
X31946267Y68575033D01*
X31996979Y68528733D01*
X32056819Y68471726D01*
X32122429Y68407058D01*
X32339352Y68189772D01*
X32170399Y67941253D01*
X32001447Y67692733D01*
X32052817Y67581595D01*
X32052969Y67581266D01*
X32083817Y67510418D01*
X32115339Y67431523D01*
X32140734Y67361600D01*
X32144577Y67350322D01*
X32163953Y67297967D01*
X32181426Y67257283D01*
X32193612Y67236287D01*
X32198574Y67233322D01*
X32228366Y67223375D01*
X32278953Y67210505D01*
X32344806Y67196053D01*
X32420400Y67181355D01*
X32443043Y67177210D01*
X32524962Y67162116D01*
X32601400Y67147899D01*
X32664663Y67135995D01*
X32707057Y67127839D01*
X32783257Y67112799D01*
X32783257Y66795492D01*
X32783240Y66756476D01*
X32782918Y66661292D01*
X32781967Y66590255D01*
X32780104Y66539734D01*
X32777045Y66506098D01*
X32772506Y66485718D01*
X32766205Y66474962D01*
X32757857Y66470199D01*
X32749776Y66468270D01*
X32716828Y66461445D01*
X32664264Y66451022D01*
X32597431Y66438018D01*
X32521672Y66423449D01*
X32442335Y66408333D01*
X32364763Y66393685D01*
X32294302Y66380523D01*
X32236298Y66369863D01*
X32196096Y66362721D01*
X32179041Y66360114D01*
X32177888Y66358541D01*
X32168615Y66338119D01*
X32152568Y66299045D01*
X32132365Y66247629D01*
X32104328Y66178353D01*
X32069814Y66098290D01*
X32037462Y66027728D01*
X32030048Y66011889D01*
X32009245Y65962293D01*
X31996781Y65924038D01*
X31995137Y65904356D01*
X31995985Y65902962D01*
X32009452Y65882420D01*
X32036150Y65842516D01*
X32073461Y65787140D01*
X32118766Y65720177D01*
X32169448Y65645517D01*
X32226555Y65560692D01*
X32269393Y65494800D01*
X32298540Y65446478D01*
X32315683Y65412733D01*
X32322505Y65390572D01*
X32320694Y65377002D01*
X32320085Y65375984D01*
X32303703Y65356210D01*
X32270305Y65320175D01*
X32223329Y65271451D01*
X32166214Y65213612D01*
X32102397Y65150227D01*
X32036198Y65085905D01*
X31971352Y65025447D01*
X31923701Y64984655D01*
X31892010Y64962484D01*
X31875042Y64957889D01*
X31872825Y64958921D01*
X31849476Y64972837D01*
X31807088Y65000030D01*
X31749631Y65037889D01*
X31681077Y65083803D01*
X31605399Y65135160D01*
X31358702Y65303626D01*
X31247294Y65253062D01*
X31244057Y65251597D01*
X31175657Y65221965D01*
X31103093Y65192493D01*
X31041543Y65169358D01*
X31041271Y65169262D01*
X30992405Y65151367D01*
X30954788Y65136253D01*
X30936543Y65127184D01*
X30936248Y65126855D01*
X30930054Y65108282D01*
X30919861Y65066045D01*
X30906652Y65004696D01*
X30891410Y64928789D01*
X30875119Y64842875D01*
X30874551Y64839796D01*
X30858287Y64752128D01*
X30843392Y64672741D01*
X30830829Y64606701D01*
X30821562Y64559079D01*
X30816556Y64534943D01*
X30816236Y64533605D01*
X30812940Y64523273D01*
X30806262Y64515506D01*
X30792538Y64509940D01*
X30768105Y64506207D01*
X30729298Y64503942D01*
X30672454Y64502778D01*
X30593910Y64502348D01*
X30490000Y64502286D01*
X30476944Y64502286D01*
X30376067Y64502371D01*
X30300144Y64502865D01*
X30245509Y64504135D01*
X30208500Y64506547D01*
X30185453Y64510467D01*
X30172704Y64516262D01*
X30166589Y64524299D01*
X30163444Y64534943D01*
X30163354Y64535325D01*
X30158186Y64560347D01*
X30148791Y64608681D01*
X30136133Y64675260D01*
X30121175Y64755014D01*
X30104881Y64842875D01*
X30103552Y64850064D01*
X30087309Y64935340D01*
X30072195Y65010242D01*
X30059192Y65070219D01*
X30049285Y65110717D01*
X30043456Y65127184D01*
X30043425Y65127210D01*
X30025057Y65136320D01*
X29987360Y65151457D01*
X29938457Y65169358D01*
X29935703Y65170330D01*
X29873183Y65193959D01*
X29800457Y65223595D01*
X29732706Y65253062D01*
X29621297Y65303626D01*
X29374601Y65135160D01*
X29357225Y65123311D01*
X29282798Y65072947D01*
X29216386Y65028612D01*
X29161961Y64992916D01*
X29123494Y64968471D01*
X29104958Y64957889D01*
X29092257Y64960315D01*
X29063421Y64979110D01*
X29018857Y65016330D01*
X28957330Y65073020D01*
X28877602Y65150227D01*
X28870468Y65157255D01*
X28807204Y65220222D01*
X28751010Y65277268D01*
X28705323Y65324817D01*
X28673586Y65359297D01*
X28659236Y65377131D01*
X28659190Y65377217D01*
X28657367Y65390795D01*
X28664090Y65412820D01*
X28681054Y65446304D01*
X28709956Y65494261D01*
X28752492Y65559704D01*
X28810356Y65645645D01*
X28820217Y65660151D01*
X28870087Y65733635D01*
X28914095Y65798687D01*
X28949620Y65851417D01*
X28974041Y65887936D01*
X28984736Y65904356D01*
X28985542Y65907834D01*
X28980482Y65933785D01*
X28965323Y65976159D01*
X28942537Y66027728D01*
X28911571Y66095170D01*
X28876996Y66175195D01*
X28847634Y66247629D01*
X28840355Y66266377D01*
X28821290Y66314246D01*
X28807285Y66347596D01*
X28800959Y66360114D01*
X28793975Y66361050D01*
X28762587Y66366461D01*
X28711213Y66375806D01*
X28645198Y66388069D01*
X28569887Y66402232D01*
X28490625Y66417280D01*
X28412757Y66432195D01*
X28341630Y66445961D01*
X28282588Y66457562D01*
X28240978Y66465980D01*
X28222143Y66470199D01*
X28219020Y66471389D01*
X28211409Y66477805D01*
X28205746Y66491465D01*
X28201749Y66515999D01*
X28199134Y66555038D01*
X28197616Y66612213D01*
X28196914Y66691154D01*
X28196743Y66795492D01*
X28196743Y67112799D01*
X28272943Y67127839D01*
X28282160Y67129642D01*
X28331109Y67138980D01*
X28398795Y67151669D01*
X28477522Y67166273D01*
X28559600Y67181355D01*
X28591922Y67187422D01*
X28664145Y67202181D01*
X28724334Y67216137D01*
X28766960Y67227952D01*
X28786490Y67236287D01*
X28795340Y67249905D01*
X28811452Y67285938D01*
X28827935Y67332572D01*
X28833737Y67350034D01*
X28855094Y67407358D01*
X28882641Y67475201D01*
X28911893Y67542355D01*
X28927537Y67577430D01*
X28949826Y67629822D01*
X28965143Y67669058D01*
X28970838Y67688563D01*
X28970522Y67690036D01*
X28959719Y67710729D01*
X28935362Y67750665D01*
X28899919Y67805972D01*
X28855864Y67872781D01*
X28805668Y67947220D01*
X28640499Y68189623D01*
X28857497Y68406983D01*
X28878484Y68427899D01*
X28942658Y68490505D01*
X29000010Y68544495D01*
X29047180Y68586826D01*
X29080808Y68614457D01*
X29097533Y68624343D01*
X29115697Y68616821D01*
X29153735Y68595227D01*
X29207274Y68562151D01*
X29272116Y68520191D01*
X29344060Y68471943D01*
X29414725Y68424291D01*
X29478474Y68382328D01*
X29530487Y68349165D01*
X29566721Y68327378D01*
X29583133Y68319543D01*
X29584095Y68319614D01*
X29605897Y68327338D01*
X29644560Y68345323D01*
X29692388Y68370013D01*
X29692890Y68370284D01*
X29756413Y68402099D01*
X29799940Y68417642D01*
X29826948Y68417685D01*
X29840910Y68403000D01*
X29846820Y68388544D01*
X29862771Y68349831D01*
X29887340Y68290316D01*
X29919221Y68213165D01*
X29957107Y68121541D01*
X29999690Y68018607D01*
X30045663Y67907526D01*
X30087333Y67806472D01*
X30129732Y67702780D01*
X30167244Y67610119D01*
X30198612Y67531642D01*
X30222575Y67470500D01*
X30237877Y67429843D01*
X30243257Y67412825D01*
X30232982Y67397219D01*
X30204437Y67371162D01*
X30164029Y67340887D01*
X30067021Y67261684D01*
X29980207Y67160475D01*
X29916678Y67049116D01*
X29876823Y66930893D01*
X29861035Y66809095D01*
X29869704Y66687010D01*
X29903222Y66567925D01*
X29961979Y66455129D01*
X30046368Y66351911D01*
X30090369Y66311713D01*
X30195789Y66240638D01*
X30308590Y66194301D01*
X30425475Y66171599D01*
X30543147Y66171428D01*
X30658310Y66192687D01*
X30767665Y66234270D01*
X30867917Y66295076D01*
X30955767Y66374001D01*
X31027920Y66469941D01*
X31081078Y66581795D01*
X31111943Y66708457D01*
X31117608Y66769507D01*
X31109815Y66901776D01*
X31074716Y67027266D01*
X31013351Y67143759D01*
X30926757Y67249039D01*
X30815971Y67340887D01*
X30777069Y67369930D01*
X30747896Y67396272D01*
X30736743Y67412800D01*
X30741190Y67427209D01*
X30755622Y67465815D01*
X30778827Y67525201D01*
X30809548Y67602215D01*
X30846526Y67693703D01*
X30888504Y67796516D01*
X30934222Y67907502D01*
X30975822Y68008072D01*
X31018778Y68111947D01*
X31057171Y68204819D01*
X31089695Y68283525D01*
X31115042Y68344899D01*
X31131905Y68385779D01*
X31138975Y68403000D01*
X31139057Y68403204D01*
X31153202Y68417745D01*
X31180341Y68417579D01*
X31223977Y68401927D01*
X31287612Y68370013D01*
X31292621Y68367326D01*
X31339875Y68343150D01*
X31377189Y68326037D01*
X31396867Y68319543D01*
X31412995Y68327218D01*
X31449041Y68348871D01*
X31500908Y68381928D01*
X31564555Y68423810D01*
X31635940Y68471943D01*
X31706276Y68519131D01*
X31771330Y68561267D01*
X31825180Y68594578D01*
X31863626Y68616469D01*
X31882466Y68624343D01*
X31885675Y68623343D01*
G36*
X31885675Y68623343D02*
G01*
X31908046Y68607584D01*
X31946267Y68575033D01*
X31996979Y68528733D01*
X32056819Y68471726D01*
X32122429Y68407058D01*
X32339352Y68189772D01*
X32170399Y67941253D01*
X32001447Y67692733D01*
X32052817Y67581595D01*
X32052969Y67581266D01*
X32083817Y67510418D01*
X32115339Y67431523D01*
X32140734Y67361600D01*
X32144577Y67350322D01*
X32163953Y67297967D01*
X32181426Y67257283D01*
X32193612Y67236287D01*
X32198574Y67233322D01*
X32228366Y67223375D01*
X32278953Y67210505D01*
X32344806Y67196053D01*
X32420400Y67181355D01*
X32443043Y67177210D01*
X32524962Y67162116D01*
X32601400Y67147899D01*
X32664663Y67135995D01*
X32707057Y67127839D01*
X32783257Y67112799D01*
X32783257Y66795492D01*
X32783240Y66756476D01*
X32782918Y66661292D01*
X32781967Y66590255D01*
X32780104Y66539734D01*
X32777045Y66506098D01*
X32772506Y66485718D01*
X32766205Y66474962D01*
X32757857Y66470199D01*
X32749776Y66468270D01*
X32716828Y66461445D01*
X32664264Y66451022D01*
X32597431Y66438018D01*
X32521672Y66423449D01*
X32442335Y66408333D01*
X32364763Y66393685D01*
X32294302Y66380523D01*
X32236298Y66369863D01*
X32196096Y66362721D01*
X32179041Y66360114D01*
X32177888Y66358541D01*
X32168615Y66338119D01*
X32152568Y66299045D01*
X32132365Y66247629D01*
X32104328Y66178353D01*
X32069814Y66098290D01*
X32037462Y66027728D01*
X32030048Y66011889D01*
X32009245Y65962293D01*
X31996781Y65924038D01*
X31995137Y65904356D01*
X31995985Y65902962D01*
X32009452Y65882420D01*
X32036150Y65842516D01*
X32073461Y65787140D01*
X32118766Y65720177D01*
X32169448Y65645517D01*
X32226555Y65560692D01*
X32269393Y65494800D01*
X32298540Y65446478D01*
X32315683Y65412733D01*
X32322505Y65390572D01*
X32320694Y65377002D01*
X32320085Y65375984D01*
X32303703Y65356210D01*
X32270305Y65320175D01*
X32223329Y65271451D01*
X32166214Y65213612D01*
X32102397Y65150227D01*
X32036198Y65085905D01*
X31971352Y65025447D01*
X31923701Y64984655D01*
X31892010Y64962484D01*
X31875042Y64957889D01*
X31872825Y64958921D01*
X31849476Y64972837D01*
X31807088Y65000030D01*
X31749631Y65037889D01*
X31681077Y65083803D01*
X31605399Y65135160D01*
X31358702Y65303626D01*
X31247294Y65253062D01*
X31244057Y65251597D01*
X31175657Y65221965D01*
X31103093Y65192493D01*
X31041543Y65169358D01*
X31041271Y65169262D01*
X30992405Y65151367D01*
X30954788Y65136253D01*
X30936543Y65127184D01*
X30936248Y65126855D01*
X30930054Y65108282D01*
X30919861Y65066045D01*
X30906652Y65004696D01*
X30891410Y64928789D01*
X30875119Y64842875D01*
X30874551Y64839796D01*
X30858287Y64752128D01*
X30843392Y64672741D01*
X30830829Y64606701D01*
X30821562Y64559079D01*
X30816556Y64534943D01*
X30816236Y64533605D01*
X30812940Y64523273D01*
X30806262Y64515506D01*
X30792538Y64509940D01*
X30768105Y64506207D01*
X30729298Y64503942D01*
X30672454Y64502778D01*
X30593910Y64502348D01*
X30490000Y64502286D01*
X30476944Y64502286D01*
X30376067Y64502371D01*
X30300144Y64502865D01*
X30245509Y64504135D01*
X30208500Y64506547D01*
X30185453Y64510467D01*
X30172704Y64516262D01*
X30166589Y64524299D01*
X30163444Y64534943D01*
X30163354Y64535325D01*
X30158186Y64560347D01*
X30148791Y64608681D01*
X30136133Y64675260D01*
X30121175Y64755014D01*
X30104881Y64842875D01*
X30103552Y64850064D01*
X30087309Y64935340D01*
X30072195Y65010242D01*
X30059192Y65070219D01*
X30049285Y65110717D01*
X30043456Y65127184D01*
X30043425Y65127210D01*
X30025057Y65136320D01*
X29987360Y65151457D01*
X29938457Y65169358D01*
X29935703Y65170330D01*
X29873183Y65193959D01*
X29800457Y65223595D01*
X29732706Y65253062D01*
X29621297Y65303626D01*
X29374601Y65135160D01*
X29357225Y65123311D01*
X29282798Y65072947D01*
X29216386Y65028612D01*
X29161961Y64992916D01*
X29123494Y64968471D01*
X29104958Y64957889D01*
X29092257Y64960315D01*
X29063421Y64979110D01*
X29018857Y65016330D01*
X28957330Y65073020D01*
X28877602Y65150227D01*
X28870468Y65157255D01*
X28807204Y65220222D01*
X28751010Y65277268D01*
X28705323Y65324817D01*
X28673586Y65359297D01*
X28659236Y65377131D01*
X28659190Y65377217D01*
X28657367Y65390795D01*
X28664090Y65412820D01*
X28681054Y65446304D01*
X28709956Y65494261D01*
X28752492Y65559704D01*
X28810356Y65645645D01*
X28820217Y65660151D01*
X28870087Y65733635D01*
X28914095Y65798687D01*
X28949620Y65851417D01*
X28974041Y65887936D01*
X28984736Y65904356D01*
X28985542Y65907834D01*
X28980482Y65933785D01*
X28965323Y65976159D01*
X28942537Y66027728D01*
X28911571Y66095170D01*
X28876996Y66175195D01*
X28847634Y66247629D01*
X28840355Y66266377D01*
X28821290Y66314246D01*
X28807285Y66347596D01*
X28800959Y66360114D01*
X28793975Y66361050D01*
X28762587Y66366461D01*
X28711213Y66375806D01*
X28645198Y66388069D01*
X28569887Y66402232D01*
X28490625Y66417280D01*
X28412757Y66432195D01*
X28341630Y66445961D01*
X28282588Y66457562D01*
X28240978Y66465980D01*
X28222143Y66470199D01*
X28219020Y66471389D01*
X28211409Y66477805D01*
X28205746Y66491465D01*
X28201749Y66515999D01*
X28199134Y66555038D01*
X28197616Y66612213D01*
X28196914Y66691154D01*
X28196743Y66795492D01*
X28196743Y67112799D01*
X28272943Y67127839D01*
X28282160Y67129642D01*
X28331109Y67138980D01*
X28398795Y67151669D01*
X28477522Y67166273D01*
X28559600Y67181355D01*
X28591922Y67187422D01*
X28664145Y67202181D01*
X28724334Y67216137D01*
X28766960Y67227952D01*
X28786490Y67236287D01*
X28795340Y67249905D01*
X28811452Y67285938D01*
X28827935Y67332572D01*
X28833737Y67350034D01*
X28855094Y67407358D01*
X28882641Y67475201D01*
X28911893Y67542355D01*
X28927537Y67577430D01*
X28949826Y67629822D01*
X28965143Y67669058D01*
X28970838Y67688563D01*
X28970522Y67690036D01*
X28959719Y67710729D01*
X28935362Y67750665D01*
X28899919Y67805972D01*
X28855864Y67872781D01*
X28805668Y67947220D01*
X28640499Y68189623D01*
X28857497Y68406983D01*
X28878484Y68427899D01*
X28942658Y68490505D01*
X29000010Y68544495D01*
X29047180Y68586826D01*
X29080808Y68614457D01*
X29097533Y68624343D01*
X29115697Y68616821D01*
X29153735Y68595227D01*
X29207274Y68562151D01*
X29272116Y68520191D01*
X29344060Y68471943D01*
X29414725Y68424291D01*
X29478474Y68382328D01*
X29530487Y68349165D01*
X29566721Y68327378D01*
X29583133Y68319543D01*
X29584095Y68319614D01*
X29605897Y68327338D01*
X29644560Y68345323D01*
X29692388Y68370013D01*
X29692890Y68370284D01*
X29756413Y68402099D01*
X29799940Y68417642D01*
X29826948Y68417685D01*
X29840910Y68403000D01*
X29846820Y68388544D01*
X29862771Y68349831D01*
X29887340Y68290316D01*
X29919221Y68213165D01*
X29957107Y68121541D01*
X29999690Y68018607D01*
X30045663Y67907526D01*
X30087333Y67806472D01*
X30129732Y67702780D01*
X30167244Y67610119D01*
X30198612Y67531642D01*
X30222575Y67470500D01*
X30237877Y67429843D01*
X30243257Y67412825D01*
X30232982Y67397219D01*
X30204437Y67371162D01*
X30164029Y67340887D01*
X30067021Y67261684D01*
X29980207Y67160475D01*
X29916678Y67049116D01*
X29876823Y66930893D01*
X29861035Y66809095D01*
X29869704Y66687010D01*
X29903222Y66567925D01*
X29961979Y66455129D01*
X30046368Y66351911D01*
X30090369Y66311713D01*
X30195789Y66240638D01*
X30308590Y66194301D01*
X30425475Y66171599D01*
X30543147Y66171428D01*
X30658310Y66192687D01*
X30767665Y66234270D01*
X30867917Y66295076D01*
X30955767Y66374001D01*
X31027920Y66469941D01*
X31081078Y66581795D01*
X31111943Y66708457D01*
X31117608Y66769507D01*
X31109815Y66901776D01*
X31074716Y67027266D01*
X31013351Y67143759D01*
X30926757Y67249039D01*
X30815971Y67340887D01*
X30777069Y67369930D01*
X30747896Y67396272D01*
X30736743Y67412800D01*
X30741190Y67427209D01*
X30755622Y67465815D01*
X30778827Y67525201D01*
X30809548Y67602215D01*
X30846526Y67693703D01*
X30888504Y67796516D01*
X30934222Y67907502D01*
X30975822Y68008072D01*
X31018778Y68111947D01*
X31057171Y68204819D01*
X31089695Y68283525D01*
X31115042Y68344899D01*
X31131905Y68385779D01*
X31138975Y68403000D01*
X31139057Y68403204D01*
X31153202Y68417745D01*
X31180341Y68417579D01*
X31223977Y68401927D01*
X31287612Y68370013D01*
X31292621Y68367326D01*
X31339875Y68343150D01*
X31377189Y68326037D01*
X31396867Y68319543D01*
X31412995Y68327218D01*
X31449041Y68348871D01*
X31500908Y68381928D01*
X31564555Y68423810D01*
X31635940Y68471943D01*
X31706276Y68519131D01*
X31771330Y68561267D01*
X31825180Y68594578D01*
X31863626Y68616469D01*
X31882466Y68624343D01*
X31885675Y68623343D01*
G37*
%TD*%
%LPC*%
G36*
X4117730Y5645911D02*
G01*
X4129536Y5645911D01*
X4187663Y5636705D01*
X4322042Y5619014D01*
X4354837Y5610227D01*
X4385418Y5605383D01*
X4444229Y5586274D01*
X4530611Y5563128D01*
X4585724Y5540300D01*
X4631810Y5525325D01*
X4674987Y5503326D01*
X4730099Y5480497D01*
X4807539Y5435787D01*
X4862645Y5407709D01*
X4887697Y5389508D01*
X4917096Y5372534D01*
X5024651Y5290005D01*
X5072239Y5255430D01*
X5080579Y5247090D01*
X5088401Y5241088D01*
X5241087Y5088402D01*
X5247088Y5080581D01*
X5255430Y5072239D01*
X5290008Y5024646D01*
X5372533Y4917097D01*
X5389505Y4887701D01*
X5407709Y4862645D01*
X5435789Y4807534D01*
X5480496Y4730100D01*
X5503321Y4674994D01*
X5525325Y4631810D01*
X5540301Y4585718D01*
X5563127Y4530612D01*
X5586269Y4444243D01*
X5605383Y4385418D01*
X5610227Y4354831D01*
X5619013Y4322043D01*
X5636703Y4187673D01*
X5645911Y4129536D01*
X5645911Y4117731D01*
X5647197Y4107962D01*
X5647197Y3892039D01*
X5645911Y3882271D01*
X5645911Y3870464D01*
X5636702Y3812323D01*
X5619013Y3677958D01*
X5610228Y3645173D01*
X5605383Y3614582D01*
X5586268Y3555754D01*
X5563127Y3469389D01*
X5540302Y3414287D01*
X5525325Y3368190D01*
X5503319Y3325003D01*
X5480496Y3269901D01*
X5435793Y3192475D01*
X5407709Y3137355D01*
X5389502Y3112296D01*
X5372533Y3082904D01*
X5290022Y2975373D01*
X5255430Y2927761D01*
X5247085Y2919417D01*
X5241087Y2911599D01*
X5088401Y2758913D01*
X5080583Y2752915D01*
X5072239Y2744570D01*
X5024627Y2709978D01*
X4917096Y2627467D01*
X4887704Y2610498D01*
X4862645Y2592291D01*
X4807525Y2564207D01*
X4730099Y2519504D01*
X4674997Y2496681D01*
X4631810Y2474675D01*
X4585713Y2459698D01*
X4530611Y2436873D01*
X4444246Y2413732D01*
X4385418Y2394617D01*
X4354827Y2389772D01*
X4322042Y2380987D01*
X4187677Y2363298D01*
X4129536Y2354089D01*
X4117729Y2354089D01*
X4107961Y2352803D01*
X3892039Y2352803D01*
X3882271Y2354089D01*
X3870464Y2354089D01*
X3812324Y2363298D01*
X3677957Y2380987D01*
X3645169Y2389773D01*
X3614582Y2394617D01*
X3555757Y2413731D01*
X3469388Y2436873D01*
X3414282Y2459699D01*
X3368190Y2474675D01*
X3325006Y2496679D01*
X3269900Y2519504D01*
X3192466Y2564211D01*
X3137355Y2592291D01*
X3112299Y2610495D01*
X3082903Y2627467D01*
X2975354Y2709992D01*
X2927761Y2744570D01*
X2919419Y2752912D01*
X2911598Y2758913D01*
X2758912Y2911599D01*
X2752910Y2919421D01*
X2744570Y2927761D01*
X2709995Y2975349D01*
X2627466Y3082904D01*
X2610492Y3112303D01*
X2592291Y3137355D01*
X2564213Y3192461D01*
X2519503Y3269901D01*
X2496674Y3325013D01*
X2474675Y3368190D01*
X2459700Y3414276D01*
X2436872Y3469389D01*
X2413726Y3555771D01*
X2394617Y3614582D01*
X2389773Y3645163D01*
X2380986Y3677958D01*
X2363295Y3812337D01*
X2354089Y3870464D01*
X2354089Y3882271D01*
X2352803Y3892039D01*
X2352803Y4107962D01*
X2354089Y4117731D01*
X2354089Y4129536D01*
X2363294Y4187659D01*
X2380986Y4322043D01*
X2389773Y4354840D01*
X2394617Y4385418D01*
X2413724Y4444225D01*
X2436872Y4530612D01*
X2459702Y4585729D01*
X2474675Y4631810D01*
X2496672Y4674984D01*
X2519503Y4730100D01*
X2564217Y4807549D01*
X2592291Y4862645D01*
X2610489Y4887694D01*
X2627466Y4917097D01*
X2710009Y5024671D01*
X2744570Y5072239D01*
X2752906Y5080576D01*
X2758912Y5088402D01*
X2911598Y5241088D01*
X2919424Y5247094D01*
X2927761Y5255430D01*
X2975329Y5289991D01*
X3082903Y5372534D01*
X3112306Y5389511D01*
X3137355Y5407709D01*
X3192451Y5435783D01*
X3269900Y5480497D01*
X3325016Y5503328D01*
X3368190Y5525325D01*
X3414271Y5540298D01*
X3469388Y5563128D01*
X3555775Y5586276D01*
X3614582Y5605383D01*
X3645160Y5610227D01*
X3677957Y5619014D01*
X3812338Y5636705D01*
X3870464Y5645911D01*
X3882270Y5645911D01*
X3892039Y5647197D01*
X4107961Y5647197D01*
X4117730Y5645911D01*
G37*
G36*
X69117730Y5645911D02*
G01*
X69129536Y5645911D01*
X69187663Y5636705D01*
X69322042Y5619014D01*
X69354837Y5610227D01*
X69385418Y5605383D01*
X69444229Y5586274D01*
X69530611Y5563128D01*
X69585724Y5540300D01*
X69631810Y5525325D01*
X69674987Y5503326D01*
X69730099Y5480497D01*
X69807539Y5435787D01*
X69862645Y5407709D01*
X69887697Y5389508D01*
X69917096Y5372534D01*
X70024651Y5290005D01*
X70072239Y5255430D01*
X70080579Y5247090D01*
X70088401Y5241088D01*
X70241087Y5088402D01*
X70247088Y5080581D01*
X70255430Y5072239D01*
X70290008Y5024646D01*
X70372533Y4917097D01*
X70389505Y4887701D01*
X70407709Y4862645D01*
X70435789Y4807534D01*
X70480496Y4730100D01*
X70503321Y4674994D01*
X70525325Y4631810D01*
X70540301Y4585718D01*
X70563127Y4530612D01*
X70586269Y4444243D01*
X70605383Y4385418D01*
X70610227Y4354831D01*
X70619013Y4322043D01*
X70636703Y4187673D01*
X70645911Y4129536D01*
X70645911Y4117731D01*
X70647197Y4107962D01*
X70647197Y3892039D01*
X70645911Y3882271D01*
X70645911Y3870464D01*
X70636702Y3812323D01*
X70619013Y3677958D01*
X70610228Y3645173D01*
X70605383Y3614582D01*
X70586268Y3555754D01*
X70563127Y3469389D01*
X70540302Y3414287D01*
X70525325Y3368190D01*
X70503319Y3325003D01*
X70480496Y3269901D01*
X70435793Y3192475D01*
X70407709Y3137355D01*
X70389502Y3112296D01*
X70372533Y3082904D01*
X70290022Y2975373D01*
X70255430Y2927761D01*
X70247085Y2919417D01*
X70241087Y2911599D01*
X70088401Y2758913D01*
X70080583Y2752915D01*
X70072239Y2744570D01*
X70024627Y2709978D01*
X69917096Y2627467D01*
X69887704Y2610498D01*
X69862645Y2592291D01*
X69807525Y2564207D01*
X69730099Y2519504D01*
X69674997Y2496681D01*
X69631810Y2474675D01*
X69585713Y2459698D01*
X69530611Y2436873D01*
X69444246Y2413732D01*
X69385418Y2394617D01*
X69354827Y2389772D01*
X69322042Y2380987D01*
X69187677Y2363298D01*
X69129536Y2354089D01*
X69117729Y2354089D01*
X69107961Y2352803D01*
X68892039Y2352803D01*
X68882271Y2354089D01*
X68870464Y2354089D01*
X68812324Y2363298D01*
X68677957Y2380987D01*
X68645169Y2389773D01*
X68614582Y2394617D01*
X68555757Y2413731D01*
X68469388Y2436873D01*
X68414282Y2459699D01*
X68368190Y2474675D01*
X68325006Y2496679D01*
X68269900Y2519504D01*
X68192466Y2564211D01*
X68137355Y2592291D01*
X68112299Y2610495D01*
X68082903Y2627467D01*
X67975354Y2709992D01*
X67927761Y2744570D01*
X67919419Y2752912D01*
X67911598Y2758913D01*
X67758912Y2911599D01*
X67752910Y2919421D01*
X67744570Y2927761D01*
X67709995Y2975349D01*
X67627466Y3082904D01*
X67610492Y3112303D01*
X67592291Y3137355D01*
X67564213Y3192461D01*
X67519503Y3269901D01*
X67496674Y3325013D01*
X67474675Y3368190D01*
X67459700Y3414276D01*
X67436872Y3469389D01*
X67413726Y3555771D01*
X67394617Y3614582D01*
X67389773Y3645163D01*
X67380986Y3677958D01*
X67363295Y3812337D01*
X67354089Y3870464D01*
X67354089Y3882271D01*
X67352803Y3892039D01*
X67352803Y4107962D01*
X67354089Y4117731D01*
X67354089Y4129536D01*
X67363294Y4187659D01*
X67380986Y4322043D01*
X67389773Y4354840D01*
X67394617Y4385418D01*
X67413724Y4444225D01*
X67436872Y4530612D01*
X67459702Y4585729D01*
X67474675Y4631810D01*
X67496672Y4674984D01*
X67519503Y4730100D01*
X67564217Y4807549D01*
X67592291Y4862645D01*
X67610489Y4887694D01*
X67627466Y4917097D01*
X67710009Y5024671D01*
X67744570Y5072239D01*
X67752906Y5080576D01*
X67758912Y5088402D01*
X67911598Y5241088D01*
X67919424Y5247094D01*
X67927761Y5255430D01*
X67975329Y5289991D01*
X68082903Y5372534D01*
X68112306Y5389511D01*
X68137355Y5407709D01*
X68192451Y5435783D01*
X68269900Y5480497D01*
X68325016Y5503328D01*
X68368190Y5525325D01*
X68414271Y5540298D01*
X68469388Y5563128D01*
X68555775Y5586276D01*
X68614582Y5605383D01*
X68645160Y5610227D01*
X68677957Y5619014D01*
X68812338Y5636705D01*
X68870464Y5645911D01*
X68882270Y5645911D01*
X68892039Y5647197D01*
X69107961Y5647197D01*
X69117730Y5645911D01*
G37*
G36*
X13249517Y21127118D02*
G01*
X13266062Y21116062D01*
X13277118Y21099517D01*
X13281000Y21080000D01*
X13281000Y19380000D01*
X13277118Y19360483D01*
X13266062Y19343938D01*
X13249517Y19332882D01*
X13230000Y19329000D01*
X11530000Y19329000D01*
X11510483Y19332882D01*
X11493938Y19343938D01*
X11482882Y19360483D01*
X11479000Y19380000D01*
X11479000Y21080000D01*
X11482882Y21099517D01*
X11493938Y21116062D01*
X11510483Y21127118D01*
X11530000Y21131000D01*
X13230000Y21131000D01*
X13249517Y21127118D01*
G37*
G36*
X10101546Y21092203D02*
G01*
X10264728Y21024611D01*
X10411588Y20926482D01*
X10536482Y20801588D01*
X10634611Y20654728D01*
X10702203Y20491546D01*
X10736661Y20318313D01*
X10736661Y20141687D01*
X10702203Y19968454D01*
X10634611Y19805272D01*
X10536482Y19658412D01*
X10411588Y19533518D01*
X10264728Y19435389D01*
X10101546Y19367797D01*
X9928313Y19333339D01*
X9751687Y19333339D01*
X9578454Y19367797D01*
X9415272Y19435389D01*
X9268412Y19533518D01*
X9143518Y19658412D01*
X9045389Y19805272D01*
X8977797Y19968454D01*
X8943339Y20141687D01*
X8943339Y20318313D01*
X8977797Y20491546D01*
X9045389Y20654728D01*
X9143518Y20801588D01*
X9268412Y20926482D01*
X9415272Y21024611D01*
X9578454Y21092203D01*
X9751687Y21126661D01*
X9928313Y21126661D01*
X10101546Y21092203D01*
G37*
G36*
X64636016Y22448217D02*
G01*
X64799043Y22395246D01*
X64951777Y22317424D01*
X65090457Y22216667D01*
X65211667Y22095457D01*
X65312424Y21956777D01*
X65390246Y21804043D01*
X65443217Y21641016D01*
X65470032Y21471709D01*
X65470032Y21300291D01*
X65443217Y21130984D01*
X65390246Y20967957D01*
X65312424Y20815223D01*
X65211667Y20676543D01*
X65090457Y20555333D01*
X64951777Y20454576D01*
X64799043Y20376754D01*
X64636016Y20323783D01*
X64466709Y20296968D01*
X64295291Y20296968D01*
X64125984Y20323783D01*
X63962957Y20376754D01*
X63810223Y20454576D01*
X63671543Y20555333D01*
X63550333Y20676543D01*
X63449576Y20815223D01*
X63371754Y20967957D01*
X63318783Y21130984D01*
X63291968Y21300291D01*
X63291968Y21471709D01*
X63318783Y21641016D01*
X63371754Y21804043D01*
X63449576Y21956777D01*
X63550333Y22095457D01*
X63671543Y22216667D01*
X63810223Y22317424D01*
X63962957Y22395246D01*
X64125984Y22448217D01*
X64295291Y22475032D01*
X64466709Y22475032D01*
X64636016Y22448217D01*
G37*
G36*
X68137088Y24808385D02*
G01*
X68348925Y24751623D01*
X68551541Y24667697D01*
X68741469Y24558042D01*
X68915459Y24424535D01*
X69070535Y24269459D01*
X69204042Y24095469D01*
X69313697Y23905541D01*
X69397623Y23702925D01*
X69454385Y23491088D01*
X69483010Y23273655D01*
X69483010Y23054345D01*
X69454385Y22836912D01*
X69397623Y22625075D01*
X69313697Y22422459D01*
X69204042Y22232531D01*
X69070535Y22058541D01*
X68915459Y21903465D01*
X68741469Y21769958D01*
X68551541Y21660303D01*
X68348925Y21576377D01*
X68137088Y21519615D01*
X67919655Y21490990D01*
X67700345Y21490990D01*
X67482912Y21519615D01*
X67271075Y21576377D01*
X67068459Y21660303D01*
X66878531Y21769958D01*
X66704541Y21903465D01*
X66549465Y22058541D01*
X66415958Y22232531D01*
X66306303Y22422459D01*
X66222377Y22625075D01*
X66165615Y22836912D01*
X66136990Y23054345D01*
X66136990Y23273655D01*
X66165615Y23491088D01*
X66222377Y23702925D01*
X66306303Y23905541D01*
X66415958Y24095469D01*
X66549465Y24269459D01*
X66704541Y24424535D01*
X66878531Y24558042D01*
X67068459Y24667697D01*
X67271075Y24751623D01*
X67482912Y24808385D01*
X67700345Y24837010D01*
X67919655Y24837010D01*
X68137088Y24808385D01*
G37*
G36*
X10101546Y23632203D02*
G01*
X10264728Y23564611D01*
X10411588Y23466482D01*
X10536482Y23341588D01*
X10634611Y23194728D01*
X10702203Y23031546D01*
X10736661Y22858313D01*
X10736661Y22681687D01*
X10702203Y22508454D01*
X10634611Y22345272D01*
X10536482Y22198412D01*
X10411588Y22073518D01*
X10264728Y21975389D01*
X10101546Y21907797D01*
X9928313Y21873339D01*
X9751687Y21873339D01*
X9578454Y21907797D01*
X9415272Y21975389D01*
X9268412Y22073518D01*
X9143518Y22198412D01*
X9045389Y22345272D01*
X8977797Y22508454D01*
X8943339Y22681687D01*
X8943339Y22858313D01*
X8977797Y23031546D01*
X9045389Y23194728D01*
X9143518Y23341588D01*
X9268412Y23466482D01*
X9415272Y23564611D01*
X9578454Y23632203D01*
X9751687Y23666661D01*
X9928313Y23666661D01*
X10101546Y23632203D01*
G37*
G36*
X12641546Y23632203D02*
G01*
X12804728Y23564611D01*
X12951588Y23466482D01*
X13076482Y23341588D01*
X13174611Y23194728D01*
X13242203Y23031546D01*
X13276661Y22858313D01*
X13276661Y22681687D01*
X13242203Y22508454D01*
X13174611Y22345272D01*
X13076482Y22198412D01*
X12951588Y22073518D01*
X12804728Y21975389D01*
X12641546Y21907797D01*
X12468313Y21873339D01*
X12291687Y21873339D01*
X12118454Y21907797D01*
X11955272Y21975389D01*
X11808412Y22073518D01*
X11683518Y22198412D01*
X11585389Y22345272D01*
X11517797Y22508454D01*
X11483339Y22681687D01*
X11483339Y22858313D01*
X11517797Y23031546D01*
X11585389Y23194728D01*
X11683518Y23341588D01*
X11808412Y23466482D01*
X11955272Y23564611D01*
X12118454Y23632203D01*
X12291687Y23666661D01*
X12468313Y23666661D01*
X12641546Y23632203D01*
G37*
G36*
X10101546Y26172203D02*
G01*
X10264728Y26104611D01*
X10411588Y26006482D01*
X10536482Y25881588D01*
X10634611Y25734728D01*
X10702203Y25571546D01*
X10736661Y25398313D01*
X10736661Y25221687D01*
X10702203Y25048454D01*
X10634611Y24885272D01*
X10536482Y24738412D01*
X10411588Y24613518D01*
X10264728Y24515389D01*
X10101546Y24447797D01*
X9928313Y24413339D01*
X9751687Y24413339D01*
X9578454Y24447797D01*
X9415272Y24515389D01*
X9268412Y24613518D01*
X9143518Y24738412D01*
X9045389Y24885272D01*
X8977797Y25048454D01*
X8943339Y25221687D01*
X8943339Y25398313D01*
X8977797Y25571546D01*
X9045389Y25734728D01*
X9143518Y25881588D01*
X9268412Y26006482D01*
X9415272Y26104611D01*
X9578454Y26172203D01*
X9751687Y26206661D01*
X9928313Y26206661D01*
X10101546Y26172203D01*
G37*
G36*
X12641546Y26172203D02*
G01*
X12804728Y26104611D01*
X12951588Y26006482D01*
X13076482Y25881588D01*
X13174611Y25734728D01*
X13242203Y25571546D01*
X13276661Y25398313D01*
X13276661Y25221687D01*
X13242203Y25048454D01*
X13174611Y24885272D01*
X13076482Y24738412D01*
X12951588Y24613518D01*
X12804728Y24515389D01*
X12641546Y24447797D01*
X12468313Y24413339D01*
X12291687Y24413339D01*
X12118454Y24447797D01*
X11955272Y24515389D01*
X11808412Y24613518D01*
X11683518Y24738412D01*
X11585389Y24885272D01*
X11517797Y25048454D01*
X11483339Y25221687D01*
X11483339Y25398313D01*
X11517797Y25571546D01*
X11585389Y25734728D01*
X11683518Y25881588D01*
X11808412Y26006482D01*
X11955272Y26104611D01*
X12118454Y26172203D01*
X12291687Y26206661D01*
X12468313Y26206661D01*
X12641546Y26172203D01*
G37*
G36*
X63695054Y26627380D02*
G01*
X63821742Y26574904D01*
X63935758Y26498721D01*
X64032721Y26401758D01*
X64108904Y26287742D01*
X64161380Y26161054D01*
X64188132Y26026563D01*
X64188132Y25889437D01*
X64161380Y25754946D01*
X64108904Y25628258D01*
X64032721Y25514242D01*
X63935758Y25417279D01*
X63821742Y25341096D01*
X63695054Y25288620D01*
X63560563Y25261868D01*
X63423437Y25261868D01*
X63288946Y25288620D01*
X63162258Y25341096D01*
X63048242Y25417279D01*
X62951279Y25514242D01*
X62875096Y25628258D01*
X62822620Y25754946D01*
X62795868Y25889437D01*
X62795868Y26026563D01*
X62822620Y26161054D01*
X62875096Y26287742D01*
X62951279Y26401758D01*
X63048242Y26498721D01*
X63162258Y26574904D01*
X63288946Y26627380D01*
X63423437Y26654132D01*
X63560563Y26654132D01*
X63695054Y26627380D01*
G37*
G36*
X65473054Y27643380D02*
G01*
X65599742Y27590904D01*
X65713758Y27514721D01*
X65810721Y27417758D01*
X65886904Y27303742D01*
X65939380Y27177054D01*
X65966132Y27042563D01*
X65966132Y26905437D01*
X65939380Y26770946D01*
X65886904Y26644258D01*
X65810721Y26530242D01*
X65713758Y26433279D01*
X65599742Y26357096D01*
X65473054Y26304620D01*
X65338563Y26277868D01*
X65201437Y26277868D01*
X65066946Y26304620D01*
X64940258Y26357096D01*
X64826242Y26433279D01*
X64729279Y26530242D01*
X64653096Y26644258D01*
X64600620Y26770946D01*
X64573868Y26905437D01*
X64573868Y27042563D01*
X64600620Y27177054D01*
X64653096Y27303742D01*
X64729279Y27417758D01*
X64826242Y27514721D01*
X64940258Y27590904D01*
X65066946Y27643380D01*
X65201437Y27670132D01*
X65338563Y27670132D01*
X65473054Y27643380D01*
G37*
G36*
X10101546Y28712203D02*
G01*
X10264728Y28644611D01*
X10411588Y28546482D01*
X10536482Y28421588D01*
X10634611Y28274728D01*
X10702203Y28111546D01*
X10736661Y27938313D01*
X10736661Y27761687D01*
X10702203Y27588454D01*
X10634611Y27425272D01*
X10536482Y27278412D01*
X10411588Y27153518D01*
X10264728Y27055389D01*
X10101546Y26987797D01*
X9928313Y26953339D01*
X9751687Y26953339D01*
X9578454Y26987797D01*
X9415272Y27055389D01*
X9268412Y27153518D01*
X9143518Y27278412D01*
X9045389Y27425272D01*
X8977797Y27588454D01*
X8943339Y27761687D01*
X8943339Y27938313D01*
X8977797Y28111546D01*
X9045389Y28274728D01*
X9143518Y28421588D01*
X9268412Y28546482D01*
X9415272Y28644611D01*
X9578454Y28712203D01*
X9751687Y28746661D01*
X9928313Y28746661D01*
X10101546Y28712203D01*
G37*
G36*
X12641546Y28712203D02*
G01*
X12804728Y28644611D01*
X12951588Y28546482D01*
X13076482Y28421588D01*
X13174611Y28274728D01*
X13242203Y28111546D01*
X13276661Y27938313D01*
X13276661Y27761687D01*
X13242203Y27588454D01*
X13174611Y27425272D01*
X13076482Y27278412D01*
X12951588Y27153518D01*
X12804728Y27055389D01*
X12641546Y26987797D01*
X12468313Y26953339D01*
X12291687Y26953339D01*
X12118454Y26987797D01*
X11955272Y27055389D01*
X11808412Y27153518D01*
X11683518Y27278412D01*
X11585389Y27425272D01*
X11517797Y27588454D01*
X11483339Y27761687D01*
X11483339Y27938313D01*
X11517797Y28111546D01*
X11585389Y28274728D01*
X11683518Y28421588D01*
X11808412Y28546482D01*
X11955272Y28644611D01*
X12118454Y28712203D01*
X12291687Y28746661D01*
X12468313Y28746661D01*
X12641546Y28712203D01*
G37*
G36*
X63695054Y28659380D02*
G01*
X63821742Y28606904D01*
X63935758Y28530721D01*
X64032721Y28433758D01*
X64108904Y28319742D01*
X64161380Y28193054D01*
X64188132Y28058563D01*
X64188132Y27921437D01*
X64161380Y27786946D01*
X64108904Y27660258D01*
X64032721Y27546242D01*
X63935758Y27449279D01*
X63821742Y27373096D01*
X63695054Y27320620D01*
X63560563Y27293868D01*
X63423437Y27293868D01*
X63288946Y27320620D01*
X63162258Y27373096D01*
X63048242Y27449279D01*
X62951279Y27546242D01*
X62875096Y27660258D01*
X62822620Y27786946D01*
X62795868Y27921437D01*
X62795868Y28058563D01*
X62822620Y28193054D01*
X62875096Y28319742D01*
X62951279Y28433758D01*
X63048242Y28530721D01*
X63162258Y28606904D01*
X63288946Y28659380D01*
X63423437Y28686132D01*
X63560563Y28686132D01*
X63695054Y28659380D01*
G37*
G36*
X65473054Y29675380D02*
G01*
X65599742Y29622904D01*
X65713758Y29546721D01*
X65810721Y29449758D01*
X65886904Y29335742D01*
X65939380Y29209054D01*
X65966132Y29074563D01*
X65966132Y28937437D01*
X65939380Y28802946D01*
X65886904Y28676258D01*
X65810721Y28562242D01*
X65713758Y28465279D01*
X65599742Y28389096D01*
X65473054Y28336620D01*
X65338563Y28309868D01*
X65201437Y28309868D01*
X65066946Y28336620D01*
X64940258Y28389096D01*
X64826242Y28465279D01*
X64729279Y28562242D01*
X64653096Y28676258D01*
X64600620Y28802946D01*
X64573868Y28937437D01*
X64573868Y29074563D01*
X64600620Y29209054D01*
X64653096Y29335742D01*
X64729279Y29449758D01*
X64826242Y29546721D01*
X64940258Y29622904D01*
X65066946Y29675380D01*
X65201437Y29702132D01*
X65338563Y29702132D01*
X65473054Y29675380D01*
G37*
G36*
X63695054Y30691380D02*
G01*
X63821742Y30638904D01*
X63935758Y30562721D01*
X64032721Y30465758D01*
X64108904Y30351742D01*
X64161380Y30225054D01*
X64188132Y30090563D01*
X64188132Y29953437D01*
X64161380Y29818946D01*
X64108904Y29692258D01*
X64032721Y29578242D01*
X63935758Y29481279D01*
X63821742Y29405096D01*
X63695054Y29352620D01*
X63560563Y29325868D01*
X63423437Y29325868D01*
X63288946Y29352620D01*
X63162258Y29405096D01*
X63048242Y29481279D01*
X62951279Y29578242D01*
X62875096Y29692258D01*
X62822620Y29818946D01*
X62795868Y29953437D01*
X62795868Y30090563D01*
X62822620Y30225054D01*
X62875096Y30351742D01*
X62951279Y30465758D01*
X63048242Y30562721D01*
X63162258Y30638904D01*
X63288946Y30691380D01*
X63423437Y30718132D01*
X63560563Y30718132D01*
X63695054Y30691380D01*
G37*
G36*
X10101546Y31252203D02*
G01*
X10264728Y31184611D01*
X10411588Y31086482D01*
X10536482Y30961588D01*
X10634611Y30814728D01*
X10702203Y30651546D01*
X10736661Y30478313D01*
X10736661Y30301687D01*
X10702203Y30128454D01*
X10634611Y29965272D01*
X10536482Y29818412D01*
X10411588Y29693518D01*
X10264728Y29595389D01*
X10101546Y29527797D01*
X9928313Y29493339D01*
X9751687Y29493339D01*
X9578454Y29527797D01*
X9415272Y29595389D01*
X9268412Y29693518D01*
X9143518Y29818412D01*
X9045389Y29965272D01*
X8977797Y30128454D01*
X8943339Y30301687D01*
X8943339Y30478313D01*
X8977797Y30651546D01*
X9045389Y30814728D01*
X9143518Y30961588D01*
X9268412Y31086482D01*
X9415272Y31184611D01*
X9578454Y31252203D01*
X9751687Y31286661D01*
X9928313Y31286661D01*
X10101546Y31252203D01*
G37*
G36*
X12641546Y31252203D02*
G01*
X12804728Y31184611D01*
X12951588Y31086482D01*
X13076482Y30961588D01*
X13174611Y30814728D01*
X13242203Y30651546D01*
X13276661Y30478313D01*
X13276661Y30301687D01*
X13242203Y30128454D01*
X13174611Y29965272D01*
X13076482Y29818412D01*
X12951588Y29693518D01*
X12804728Y29595389D01*
X12641546Y29527797D01*
X12468313Y29493339D01*
X12291687Y29493339D01*
X12118454Y29527797D01*
X11955272Y29595389D01*
X11808412Y29693518D01*
X11683518Y29818412D01*
X11585389Y29965272D01*
X11517797Y30128454D01*
X11483339Y30301687D01*
X11483339Y30478313D01*
X11517797Y30651546D01*
X11585389Y30814728D01*
X11683518Y30961588D01*
X11808412Y31086482D01*
X11955272Y31184611D01*
X12118454Y31252203D01*
X12291687Y31286661D01*
X12468313Y31286661D01*
X12641546Y31252203D01*
G37*
G36*
X65473054Y31707380D02*
G01*
X65599742Y31654904D01*
X65713758Y31578721D01*
X65810721Y31481758D01*
X65886904Y31367742D01*
X65939380Y31241054D01*
X65966132Y31106563D01*
X65966132Y30969437D01*
X65939380Y30834946D01*
X65886904Y30708258D01*
X65810721Y30594242D01*
X65713758Y30497279D01*
X65599742Y30421096D01*
X65473054Y30368620D01*
X65338563Y30341868D01*
X65201437Y30341868D01*
X65066946Y30368620D01*
X64940258Y30421096D01*
X64826242Y30497279D01*
X64729279Y30594242D01*
X64653096Y30708258D01*
X64600620Y30834946D01*
X64573868Y30969437D01*
X64573868Y31106563D01*
X64600620Y31241054D01*
X64653096Y31367742D01*
X64729279Y31481758D01*
X64826242Y31578721D01*
X64940258Y31654904D01*
X65066946Y31707380D01*
X65201437Y31734132D01*
X65338563Y31734132D01*
X65473054Y31707380D01*
G37*
G36*
X63695054Y32723380D02*
G01*
X63821742Y32670904D01*
X63935758Y32594721D01*
X64032721Y32497758D01*
X64108904Y32383742D01*
X64161380Y32257054D01*
X64188132Y32122563D01*
X64188132Y31985437D01*
X64161380Y31850946D01*
X64108904Y31724258D01*
X64032721Y31610242D01*
X63935758Y31513279D01*
X63821742Y31437096D01*
X63695054Y31384620D01*
X63560563Y31357868D01*
X63423437Y31357868D01*
X63288946Y31384620D01*
X63162258Y31437096D01*
X63048242Y31513279D01*
X62951279Y31610242D01*
X62875096Y31724258D01*
X62822620Y31850946D01*
X62795868Y31985437D01*
X62795868Y32122563D01*
X62822620Y32257054D01*
X62875096Y32383742D01*
X62951279Y32497758D01*
X63048242Y32594721D01*
X63162258Y32670904D01*
X63288946Y32723380D01*
X63423437Y32750132D01*
X63560563Y32750132D01*
X63695054Y32723380D01*
G37*
G36*
X10101546Y33792203D02*
G01*
X10264728Y33724611D01*
X10411588Y33626482D01*
X10536482Y33501588D01*
X10634611Y33354728D01*
X10702203Y33191546D01*
X10736661Y33018313D01*
X10736661Y32841687D01*
X10702203Y32668454D01*
X10634611Y32505272D01*
X10536482Y32358412D01*
X10411588Y32233518D01*
X10264728Y32135389D01*
X10101546Y32067797D01*
X9928313Y32033339D01*
X9751687Y32033339D01*
X9578454Y32067797D01*
X9415272Y32135389D01*
X9268412Y32233518D01*
X9143518Y32358412D01*
X9045389Y32505272D01*
X8977797Y32668454D01*
X8943339Y32841687D01*
X8943339Y33018313D01*
X8977797Y33191546D01*
X9045389Y33354728D01*
X9143518Y33501588D01*
X9268412Y33626482D01*
X9415272Y33724611D01*
X9578454Y33792203D01*
X9751687Y33826661D01*
X9928313Y33826661D01*
X10101546Y33792203D01*
G37*
G36*
X12641546Y33792203D02*
G01*
X12804728Y33724611D01*
X12951588Y33626482D01*
X13076482Y33501588D01*
X13174611Y33354728D01*
X13242203Y33191546D01*
X13276661Y33018313D01*
X13276661Y32841687D01*
X13242203Y32668454D01*
X13174611Y32505272D01*
X13076482Y32358412D01*
X12951588Y32233518D01*
X12804728Y32135389D01*
X12641546Y32067797D01*
X12468313Y32033339D01*
X12291687Y32033339D01*
X12118454Y32067797D01*
X11955272Y32135389D01*
X11808412Y32233518D01*
X11683518Y32358412D01*
X11585389Y32505272D01*
X11517797Y32668454D01*
X11483339Y32841687D01*
X11483339Y33018313D01*
X11517797Y33191546D01*
X11585389Y33354728D01*
X11683518Y33501588D01*
X11808412Y33626482D01*
X11955272Y33724611D01*
X12118454Y33792203D01*
X12291687Y33826661D01*
X12468313Y33826661D01*
X12641546Y33792203D01*
G37*
G36*
X65473054Y33739380D02*
G01*
X65599742Y33686904D01*
X65713758Y33610721D01*
X65810721Y33513758D01*
X65886904Y33399742D01*
X65939380Y33273054D01*
X65966132Y33138563D01*
X65966132Y33001437D01*
X65939380Y32866946D01*
X65886904Y32740258D01*
X65810721Y32626242D01*
X65713758Y32529279D01*
X65599742Y32453096D01*
X65473054Y32400620D01*
X65338563Y32373868D01*
X65201437Y32373868D01*
X65066946Y32400620D01*
X64940258Y32453096D01*
X64826242Y32529279D01*
X64729279Y32626242D01*
X64653096Y32740258D01*
X64600620Y32866946D01*
X64573868Y33001437D01*
X64573868Y33138563D01*
X64600620Y33273054D01*
X64653096Y33399742D01*
X64729279Y33513758D01*
X64826242Y33610721D01*
X64940258Y33686904D01*
X65066946Y33739380D01*
X65201437Y33766132D01*
X65338563Y33766132D01*
X65473054Y33739380D01*
G37*
G36*
X68137088Y37508385D02*
G01*
X68348925Y37451623D01*
X68551541Y37367697D01*
X68741469Y37258042D01*
X68915459Y37124535D01*
X69070535Y36969459D01*
X69204042Y36795469D01*
X69313697Y36605541D01*
X69397623Y36402925D01*
X69454385Y36191088D01*
X69483010Y35973655D01*
X69483010Y35754345D01*
X69454385Y35536912D01*
X69397623Y35325075D01*
X69313697Y35122459D01*
X69204042Y34932531D01*
X69070535Y34758541D01*
X68915459Y34603465D01*
X68741469Y34469958D01*
X68551541Y34360303D01*
X68348925Y34276377D01*
X68137088Y34219615D01*
X67919655Y34190990D01*
X67700345Y34190990D01*
X67482912Y34219615D01*
X67271075Y34276377D01*
X67068459Y34360303D01*
X66878531Y34469958D01*
X66704541Y34603465D01*
X66549465Y34758541D01*
X66415958Y34932531D01*
X66306303Y35122459D01*
X66222377Y35325075D01*
X66165615Y35536912D01*
X66136990Y35754345D01*
X66136990Y35973655D01*
X66165615Y36191088D01*
X66222377Y36402925D01*
X66306303Y36605541D01*
X66415958Y36795469D01*
X66549465Y36969459D01*
X66704541Y37124535D01*
X66878531Y37258042D01*
X67068459Y37367697D01*
X67271075Y37451623D01*
X67482912Y37508385D01*
X67700345Y37537010D01*
X67919655Y37537010D01*
X68137088Y37508385D01*
G37*
G36*
X10101546Y36332203D02*
G01*
X10264728Y36264611D01*
X10411588Y36166482D01*
X10536482Y36041588D01*
X10634611Y35894728D01*
X10702203Y35731546D01*
X10736661Y35558313D01*
X10736661Y35381687D01*
X10702203Y35208454D01*
X10634611Y35045272D01*
X10536482Y34898412D01*
X10411588Y34773518D01*
X10264728Y34675389D01*
X10101546Y34607797D01*
X9928313Y34573339D01*
X9751687Y34573339D01*
X9578454Y34607797D01*
X9415272Y34675389D01*
X9268412Y34773518D01*
X9143518Y34898412D01*
X9045389Y35045272D01*
X8977797Y35208454D01*
X8943339Y35381687D01*
X8943339Y35558313D01*
X8977797Y35731546D01*
X9045389Y35894728D01*
X9143518Y36041588D01*
X9268412Y36166482D01*
X9415272Y36264611D01*
X9578454Y36332203D01*
X9751687Y36366661D01*
X9928313Y36366661D01*
X10101546Y36332203D01*
G37*
G36*
X12641546Y36332203D02*
G01*
X12804728Y36264611D01*
X12951588Y36166482D01*
X13076482Y36041588D01*
X13174611Y35894728D01*
X13242203Y35731546D01*
X13276661Y35558313D01*
X13276661Y35381687D01*
X13242203Y35208454D01*
X13174611Y35045272D01*
X13076482Y34898412D01*
X12951588Y34773518D01*
X12804728Y34675389D01*
X12641546Y34607797D01*
X12468313Y34573339D01*
X12291687Y34573339D01*
X12118454Y34607797D01*
X11955272Y34675389D01*
X11808412Y34773518D01*
X11683518Y34898412D01*
X11585389Y35045272D01*
X11517797Y35208454D01*
X11483339Y35381687D01*
X11483339Y35558313D01*
X11517797Y35731546D01*
X11585389Y35894728D01*
X11683518Y36041588D01*
X11808412Y36166482D01*
X11955272Y36264611D01*
X12118454Y36332203D01*
X12291687Y36366661D01*
X12468313Y36366661D01*
X12641546Y36332203D01*
G37*
G36*
X64636016Y38704217D02*
G01*
X64799043Y38651246D01*
X64951777Y38573424D01*
X65090457Y38472667D01*
X65211667Y38351457D01*
X65312424Y38212777D01*
X65390246Y38060043D01*
X65443217Y37897016D01*
X65470032Y37727709D01*
X65470032Y37556291D01*
X65443217Y37386984D01*
X65390246Y37223957D01*
X65312424Y37071223D01*
X65211667Y36932543D01*
X65090457Y36811333D01*
X64951777Y36710576D01*
X64799043Y36632754D01*
X64636016Y36579783D01*
X64466709Y36552968D01*
X64295291Y36552968D01*
X64125984Y36579783D01*
X63962957Y36632754D01*
X63810223Y36710576D01*
X63671543Y36811333D01*
X63550333Y36932543D01*
X63449576Y37071223D01*
X63371754Y37223957D01*
X63318783Y37386984D01*
X63291968Y37556291D01*
X63291968Y37727709D01*
X63318783Y37897016D01*
X63371754Y38060043D01*
X63449576Y38212777D01*
X63550333Y38351457D01*
X63671543Y38472667D01*
X63810223Y38573424D01*
X63962957Y38651246D01*
X64125984Y38704217D01*
X64295291Y38731032D01*
X64466709Y38731032D01*
X64636016Y38704217D01*
G37*
G36*
X10101546Y38872203D02*
G01*
X10264728Y38804611D01*
X10411588Y38706482D01*
X10536482Y38581588D01*
X10634611Y38434728D01*
X10702203Y38271546D01*
X10736661Y38098313D01*
X10736661Y37921687D01*
X10702203Y37748454D01*
X10634611Y37585272D01*
X10536482Y37438412D01*
X10411588Y37313518D01*
X10264728Y37215389D01*
X10101546Y37147797D01*
X9928313Y37113339D01*
X9751687Y37113339D01*
X9578454Y37147797D01*
X9415272Y37215389D01*
X9268412Y37313518D01*
X9143518Y37438412D01*
X9045389Y37585272D01*
X8977797Y37748454D01*
X8943339Y37921687D01*
X8943339Y38098313D01*
X8977797Y38271546D01*
X9045389Y38434728D01*
X9143518Y38581588D01*
X9268412Y38706482D01*
X9415272Y38804611D01*
X9578454Y38872203D01*
X9751687Y38906661D01*
X9928313Y38906661D01*
X10101546Y38872203D01*
G37*
G36*
X12641546Y38872203D02*
G01*
X12804728Y38804611D01*
X12951588Y38706482D01*
X13076482Y38581588D01*
X13174611Y38434728D01*
X13242203Y38271546D01*
X13276661Y38098313D01*
X13276661Y37921687D01*
X13242203Y37748454D01*
X13174611Y37585272D01*
X13076482Y37438412D01*
X12951588Y37313518D01*
X12804728Y37215389D01*
X12641546Y37147797D01*
X12468313Y37113339D01*
X12291687Y37113339D01*
X12118454Y37147797D01*
X11955272Y37215389D01*
X11808412Y37313518D01*
X11683518Y37438412D01*
X11585389Y37585272D01*
X11517797Y37748454D01*
X11483339Y37921687D01*
X11483339Y38098313D01*
X11517797Y38271546D01*
X11585389Y38434728D01*
X11683518Y38581588D01*
X11808412Y38706482D01*
X11955272Y38804611D01*
X12118454Y38872203D01*
X12291687Y38906661D01*
X12468313Y38906661D01*
X12641546Y38872203D01*
G37*
G36*
X10101546Y41412203D02*
G01*
X10264728Y41344611D01*
X10411588Y41246482D01*
X10536482Y41121588D01*
X10634611Y40974728D01*
X10702203Y40811546D01*
X10736661Y40638313D01*
X10736661Y40461687D01*
X10702203Y40288454D01*
X10634611Y40125272D01*
X10536482Y39978412D01*
X10411588Y39853518D01*
X10264728Y39755389D01*
X10101546Y39687797D01*
X9928313Y39653339D01*
X9751687Y39653339D01*
X9578454Y39687797D01*
X9415272Y39755389D01*
X9268412Y39853518D01*
X9143518Y39978412D01*
X9045389Y40125272D01*
X8977797Y40288454D01*
X8943339Y40461687D01*
X8943339Y40638313D01*
X8977797Y40811546D01*
X9045389Y40974728D01*
X9143518Y41121588D01*
X9268412Y41246482D01*
X9415272Y41344611D01*
X9578454Y41412203D01*
X9751687Y41446661D01*
X9928313Y41446661D01*
X10101546Y41412203D01*
G37*
G36*
X12641546Y41412203D02*
G01*
X12804728Y41344611D01*
X12951588Y41246482D01*
X13076482Y41121588D01*
X13174611Y40974728D01*
X13242203Y40811546D01*
X13276661Y40638313D01*
X13276661Y40461687D01*
X13242203Y40288454D01*
X13174611Y40125272D01*
X13076482Y39978412D01*
X12951588Y39853518D01*
X12804728Y39755389D01*
X12641546Y39687797D01*
X12468313Y39653339D01*
X12291687Y39653339D01*
X12118454Y39687797D01*
X11955272Y39755389D01*
X11808412Y39853518D01*
X11683518Y39978412D01*
X11585389Y40125272D01*
X11517797Y40288454D01*
X11483339Y40461687D01*
X11483339Y40638313D01*
X11517797Y40811546D01*
X11585389Y40974728D01*
X11683518Y41121588D01*
X11808412Y41246482D01*
X11955272Y41344611D01*
X12118454Y41412203D01*
X12291687Y41446661D01*
X12468313Y41446661D01*
X12641546Y41412203D01*
G37*
G36*
X10101546Y43952203D02*
G01*
X10264728Y43884611D01*
X10411588Y43786482D01*
X10536482Y43661588D01*
X10634611Y43514728D01*
X10702203Y43351546D01*
X10736661Y43178313D01*
X10736661Y43001687D01*
X10702203Y42828454D01*
X10634611Y42665272D01*
X10536482Y42518412D01*
X10411588Y42393518D01*
X10264728Y42295389D01*
X10101546Y42227797D01*
X9928313Y42193339D01*
X9751687Y42193339D01*
X9578454Y42227797D01*
X9415272Y42295389D01*
X9268412Y42393518D01*
X9143518Y42518412D01*
X9045389Y42665272D01*
X8977797Y42828454D01*
X8943339Y43001687D01*
X8943339Y43178313D01*
X8977797Y43351546D01*
X9045389Y43514728D01*
X9143518Y43661588D01*
X9268412Y43786482D01*
X9415272Y43884611D01*
X9578454Y43952203D01*
X9751687Y43986661D01*
X9928313Y43986661D01*
X10101546Y43952203D01*
G37*
G36*
X12641546Y43952203D02*
G01*
X12804728Y43884611D01*
X12951588Y43786482D01*
X13076482Y43661588D01*
X13174611Y43514728D01*
X13242203Y43351546D01*
X13276661Y43178313D01*
X13276661Y43001687D01*
X13242203Y42828454D01*
X13174611Y42665272D01*
X13076482Y42518412D01*
X12951588Y42393518D01*
X12804728Y42295389D01*
X12641546Y42227797D01*
X12468313Y42193339D01*
X12291687Y42193339D01*
X12118454Y42227797D01*
X11955272Y42295389D01*
X11808412Y42393518D01*
X11683518Y42518412D01*
X11585389Y42665272D01*
X11517797Y42828454D01*
X11483339Y43001687D01*
X11483339Y43178313D01*
X11517797Y43351546D01*
X11585389Y43514728D01*
X11683518Y43661588D01*
X11808412Y43786482D01*
X11955272Y43884611D01*
X12118454Y43952203D01*
X12291687Y43986661D01*
X12468313Y43986661D01*
X12641546Y43952203D01*
G37*
G36*
X64726016Y45378217D02*
G01*
X64889043Y45325246D01*
X65041777Y45247424D01*
X65180457Y45146667D01*
X65301667Y45025457D01*
X65402424Y44886777D01*
X65480246Y44734043D01*
X65533217Y44571016D01*
X65560032Y44401709D01*
X65560032Y44230291D01*
X65533217Y44060984D01*
X65480246Y43897957D01*
X65402424Y43745223D01*
X65301667Y43606543D01*
X65180457Y43485333D01*
X65041777Y43384576D01*
X64889043Y43306754D01*
X64726016Y43253783D01*
X64556709Y43226968D01*
X64385291Y43226968D01*
X64215984Y43253783D01*
X64052957Y43306754D01*
X63900223Y43384576D01*
X63761543Y43485333D01*
X63640333Y43606543D01*
X63539576Y43745223D01*
X63461754Y43897957D01*
X63408783Y44060984D01*
X63381968Y44230291D01*
X63381968Y44401709D01*
X63408783Y44571016D01*
X63461754Y44734043D01*
X63539576Y44886777D01*
X63640333Y45025457D01*
X63761543Y45146667D01*
X63900223Y45247424D01*
X64052957Y45325246D01*
X64215984Y45378217D01*
X64385291Y45405032D01*
X64556709Y45405032D01*
X64726016Y45378217D01*
G37*
G36*
X68227088Y47738385D02*
G01*
X68438925Y47681623D01*
X68641541Y47597697D01*
X68831469Y47488042D01*
X69005459Y47354535D01*
X69160535Y47199459D01*
X69294042Y47025469D01*
X69403697Y46835541D01*
X69487623Y46632925D01*
X69544385Y46421088D01*
X69573010Y46203655D01*
X69573010Y45984345D01*
X69544385Y45766912D01*
X69487623Y45555075D01*
X69403697Y45352459D01*
X69294042Y45162531D01*
X69160535Y44988541D01*
X69005459Y44833465D01*
X68831469Y44699958D01*
X68641541Y44590303D01*
X68438925Y44506377D01*
X68227088Y44449615D01*
X68009655Y44420990D01*
X67790345Y44420990D01*
X67572912Y44449615D01*
X67361075Y44506377D01*
X67158459Y44590303D01*
X66968531Y44699958D01*
X66794541Y44833465D01*
X66639465Y44988541D01*
X66505958Y45162531D01*
X66396303Y45352459D01*
X66312377Y45555075D01*
X66255615Y45766912D01*
X66226990Y45984345D01*
X66226990Y46203655D01*
X66255615Y46421088D01*
X66312377Y46632925D01*
X66396303Y46835541D01*
X66505958Y47025469D01*
X66639465Y47199459D01*
X66794541Y47354535D01*
X66968531Y47488042D01*
X67158459Y47597697D01*
X67361075Y47681623D01*
X67572912Y47738385D01*
X67790345Y47767010D01*
X68009655Y47767010D01*
X68227088Y47738385D01*
G37*
G36*
X10101546Y46492203D02*
G01*
X10264728Y46424611D01*
X10411588Y46326482D01*
X10536482Y46201588D01*
X10634611Y46054728D01*
X10702203Y45891546D01*
X10736661Y45718313D01*
X10736661Y45541687D01*
X10702203Y45368454D01*
X10634611Y45205272D01*
X10536482Y45058412D01*
X10411588Y44933518D01*
X10264728Y44835389D01*
X10101546Y44767797D01*
X9928313Y44733339D01*
X9751687Y44733339D01*
X9578454Y44767797D01*
X9415272Y44835389D01*
X9268412Y44933518D01*
X9143518Y45058412D01*
X9045389Y45205272D01*
X8977797Y45368454D01*
X8943339Y45541687D01*
X8943339Y45718313D01*
X8977797Y45891546D01*
X9045389Y46054728D01*
X9143518Y46201588D01*
X9268412Y46326482D01*
X9415272Y46424611D01*
X9578454Y46492203D01*
X9751687Y46526661D01*
X9928313Y46526661D01*
X10101546Y46492203D01*
G37*
G36*
X12641546Y46492203D02*
G01*
X12804728Y46424611D01*
X12951588Y46326482D01*
X13076482Y46201588D01*
X13174611Y46054728D01*
X13242203Y45891546D01*
X13276661Y45718313D01*
X13276661Y45541687D01*
X13242203Y45368454D01*
X13174611Y45205272D01*
X13076482Y45058412D01*
X12951588Y44933518D01*
X12804728Y44835389D01*
X12641546Y44767797D01*
X12468313Y44733339D01*
X12291687Y44733339D01*
X12118454Y44767797D01*
X11955272Y44835389D01*
X11808412Y44933518D01*
X11683518Y45058412D01*
X11585389Y45205272D01*
X11517797Y45368454D01*
X11483339Y45541687D01*
X11483339Y45718313D01*
X11517797Y45891546D01*
X11585389Y46054728D01*
X11683518Y46201588D01*
X11808412Y46326482D01*
X11955272Y46424611D01*
X12118454Y46492203D01*
X12291687Y46526661D01*
X12468313Y46526661D01*
X12641546Y46492203D01*
G37*
G36*
X10101546Y49032203D02*
G01*
X10264728Y48964611D01*
X10411588Y48866482D01*
X10536482Y48741588D01*
X10634611Y48594728D01*
X10702203Y48431546D01*
X10736661Y48258313D01*
X10736661Y48081687D01*
X10702203Y47908454D01*
X10634611Y47745272D01*
X10536482Y47598412D01*
X10411588Y47473518D01*
X10264728Y47375389D01*
X10101546Y47307797D01*
X9928313Y47273339D01*
X9751687Y47273339D01*
X9578454Y47307797D01*
X9415272Y47375389D01*
X9268412Y47473518D01*
X9143518Y47598412D01*
X9045389Y47745272D01*
X8977797Y47908454D01*
X8943339Y48081687D01*
X8943339Y48258313D01*
X8977797Y48431546D01*
X9045389Y48594728D01*
X9143518Y48741588D01*
X9268412Y48866482D01*
X9415272Y48964611D01*
X9578454Y49032203D01*
X9751687Y49066661D01*
X9928313Y49066661D01*
X10101546Y49032203D01*
G37*
G36*
X12641546Y49032203D02*
G01*
X12804728Y48964611D01*
X12951588Y48866482D01*
X13076482Y48741588D01*
X13174611Y48594728D01*
X13242203Y48431546D01*
X13276661Y48258313D01*
X13276661Y48081687D01*
X13242203Y47908454D01*
X13174611Y47745272D01*
X13076482Y47598412D01*
X12951588Y47473518D01*
X12804728Y47375389D01*
X12641546Y47307797D01*
X12468313Y47273339D01*
X12291687Y47273339D01*
X12118454Y47307797D01*
X11955272Y47375389D01*
X11808412Y47473518D01*
X11683518Y47598412D01*
X11585389Y47745272D01*
X11517797Y47908454D01*
X11483339Y48081687D01*
X11483339Y48258313D01*
X11517797Y48431546D01*
X11585389Y48594728D01*
X11683518Y48741588D01*
X11808412Y48866482D01*
X11955272Y48964611D01*
X12118454Y49032203D01*
X12291687Y49066661D01*
X12468313Y49066661D01*
X12641546Y49032203D01*
G37*
G36*
X63785054Y49557380D02*
G01*
X63911742Y49504904D01*
X64025758Y49428721D01*
X64122721Y49331758D01*
X64198904Y49217742D01*
X64251380Y49091054D01*
X64278132Y48956563D01*
X64278132Y48819437D01*
X64251380Y48684946D01*
X64198904Y48558258D01*
X64122721Y48444242D01*
X64025758Y48347279D01*
X63911742Y48271096D01*
X63785054Y48218620D01*
X63650563Y48191868D01*
X63513437Y48191868D01*
X63378946Y48218620D01*
X63252258Y48271096D01*
X63138242Y48347279D01*
X63041279Y48444242D01*
X62965096Y48558258D01*
X62912620Y48684946D01*
X62885868Y48819437D01*
X62885868Y48956563D01*
X62912620Y49091054D01*
X62965096Y49217742D01*
X63041279Y49331758D01*
X63138242Y49428721D01*
X63252258Y49504904D01*
X63378946Y49557380D01*
X63513437Y49584132D01*
X63650563Y49584132D01*
X63785054Y49557380D01*
G37*
G36*
X65563054Y50573380D02*
G01*
X65689742Y50520904D01*
X65803758Y50444721D01*
X65900721Y50347758D01*
X65976904Y50233742D01*
X66029380Y50107054D01*
X66056132Y49972563D01*
X66056132Y49835437D01*
X66029380Y49700946D01*
X65976904Y49574258D01*
X65900721Y49460242D01*
X65803758Y49363279D01*
X65689742Y49287096D01*
X65563054Y49234620D01*
X65428563Y49207868D01*
X65291437Y49207868D01*
X65156946Y49234620D01*
X65030258Y49287096D01*
X64916242Y49363279D01*
X64819279Y49460242D01*
X64743096Y49574258D01*
X64690620Y49700946D01*
X64663868Y49835437D01*
X64663868Y49972563D01*
X64690620Y50107054D01*
X64743096Y50233742D01*
X64819279Y50347758D01*
X64916242Y50444721D01*
X65030258Y50520904D01*
X65156946Y50573380D01*
X65291437Y50600132D01*
X65428563Y50600132D01*
X65563054Y50573380D01*
G37*
G36*
X10101546Y51572203D02*
G01*
X10264728Y51504611D01*
X10411588Y51406482D01*
X10536482Y51281588D01*
X10634611Y51134728D01*
X10702203Y50971546D01*
X10736661Y50798313D01*
X10736661Y50621687D01*
X10702203Y50448454D01*
X10634611Y50285272D01*
X10536482Y50138412D01*
X10411588Y50013518D01*
X10264728Y49915389D01*
X10101546Y49847797D01*
X9928313Y49813339D01*
X9751687Y49813339D01*
X9578454Y49847797D01*
X9415272Y49915389D01*
X9268412Y50013518D01*
X9143518Y50138412D01*
X9045389Y50285272D01*
X8977797Y50448454D01*
X8943339Y50621687D01*
X8943339Y50798313D01*
X8977797Y50971546D01*
X9045389Y51134728D01*
X9143518Y51281588D01*
X9268412Y51406482D01*
X9415272Y51504611D01*
X9578454Y51572203D01*
X9751687Y51606661D01*
X9928313Y51606661D01*
X10101546Y51572203D01*
G37*
G36*
X12641546Y51572203D02*
G01*
X12804728Y51504611D01*
X12951588Y51406482D01*
X13076482Y51281588D01*
X13174611Y51134728D01*
X13242203Y50971546D01*
X13276661Y50798313D01*
X13276661Y50621687D01*
X13242203Y50448454D01*
X13174611Y50285272D01*
X13076482Y50138412D01*
X12951588Y50013518D01*
X12804728Y49915389D01*
X12641546Y49847797D01*
X12468313Y49813339D01*
X12291687Y49813339D01*
X12118454Y49847797D01*
X11955272Y49915389D01*
X11808412Y50013518D01*
X11683518Y50138412D01*
X11585389Y50285272D01*
X11517797Y50448454D01*
X11483339Y50621687D01*
X11483339Y50798313D01*
X11517797Y50971546D01*
X11585389Y51134728D01*
X11683518Y51281588D01*
X11808412Y51406482D01*
X11955272Y51504611D01*
X12118454Y51572203D01*
X12291687Y51606661D01*
X12468313Y51606661D01*
X12641546Y51572203D01*
G37*
G36*
X63785054Y51589380D02*
G01*
X63911742Y51536904D01*
X64025758Y51460721D01*
X64122721Y51363758D01*
X64198904Y51249742D01*
X64251380Y51123054D01*
X64278132Y50988563D01*
X64278132Y50851437D01*
X64251380Y50716946D01*
X64198904Y50590258D01*
X64122721Y50476242D01*
X64025758Y50379279D01*
X63911742Y50303096D01*
X63785054Y50250620D01*
X63650563Y50223868D01*
X63513437Y50223868D01*
X63378946Y50250620D01*
X63252258Y50303096D01*
X63138242Y50379279D01*
X63041279Y50476242D01*
X62965096Y50590258D01*
X62912620Y50716946D01*
X62885868Y50851437D01*
X62885868Y50988563D01*
X62912620Y51123054D01*
X62965096Y51249742D01*
X63041279Y51363758D01*
X63138242Y51460721D01*
X63252258Y51536904D01*
X63378946Y51589380D01*
X63513437Y51616132D01*
X63650563Y51616132D01*
X63785054Y51589380D01*
G37*
G36*
X65563054Y52605380D02*
G01*
X65689742Y52552904D01*
X65803758Y52476721D01*
X65900721Y52379758D01*
X65976904Y52265742D01*
X66029380Y52139054D01*
X66056132Y52004563D01*
X66056132Y51867437D01*
X66029380Y51732946D01*
X65976904Y51606258D01*
X65900721Y51492242D01*
X65803758Y51395279D01*
X65689742Y51319096D01*
X65563054Y51266620D01*
X65428563Y51239868D01*
X65291437Y51239868D01*
X65156946Y51266620D01*
X65030258Y51319096D01*
X64916242Y51395279D01*
X64819279Y51492242D01*
X64743096Y51606258D01*
X64690620Y51732946D01*
X64663868Y51867437D01*
X64663868Y52004563D01*
X64690620Y52139054D01*
X64743096Y52265742D01*
X64819279Y52379758D01*
X64916242Y52476721D01*
X65030258Y52552904D01*
X65156946Y52605380D01*
X65291437Y52632132D01*
X65428563Y52632132D01*
X65563054Y52605380D01*
G37*
G36*
X63785054Y53621380D02*
G01*
X63911742Y53568904D01*
X64025758Y53492721D01*
X64122721Y53395758D01*
X64198904Y53281742D01*
X64251380Y53155054D01*
X64278132Y53020563D01*
X64278132Y52883437D01*
X64251380Y52748946D01*
X64198904Y52622258D01*
X64122721Y52508242D01*
X64025758Y52411279D01*
X63911742Y52335096D01*
X63785054Y52282620D01*
X63650563Y52255868D01*
X63513437Y52255868D01*
X63378946Y52282620D01*
X63252258Y52335096D01*
X63138242Y52411279D01*
X63041279Y52508242D01*
X62965096Y52622258D01*
X62912620Y52748946D01*
X62885868Y52883437D01*
X62885868Y53020563D01*
X62912620Y53155054D01*
X62965096Y53281742D01*
X63041279Y53395758D01*
X63138242Y53492721D01*
X63252258Y53568904D01*
X63378946Y53621380D01*
X63513437Y53648132D01*
X63650563Y53648132D01*
X63785054Y53621380D01*
G37*
G36*
X10101546Y54112203D02*
G01*
X10264728Y54044611D01*
X10411588Y53946482D01*
X10536482Y53821588D01*
X10634611Y53674728D01*
X10702203Y53511546D01*
X10736661Y53338313D01*
X10736661Y53161687D01*
X10702203Y52988454D01*
X10634611Y52825272D01*
X10536482Y52678412D01*
X10411588Y52553518D01*
X10264728Y52455389D01*
X10101546Y52387797D01*
X9928313Y52353339D01*
X9751687Y52353339D01*
X9578454Y52387797D01*
X9415272Y52455389D01*
X9268412Y52553518D01*
X9143518Y52678412D01*
X9045389Y52825272D01*
X8977797Y52988454D01*
X8943339Y53161687D01*
X8943339Y53338313D01*
X8977797Y53511546D01*
X9045389Y53674728D01*
X9143518Y53821588D01*
X9268412Y53946482D01*
X9415272Y54044611D01*
X9578454Y54112203D01*
X9751687Y54146661D01*
X9928313Y54146661D01*
X10101546Y54112203D01*
G37*
G36*
X12641546Y54112203D02*
G01*
X12804728Y54044611D01*
X12951588Y53946482D01*
X13076482Y53821588D01*
X13174611Y53674728D01*
X13242203Y53511546D01*
X13276661Y53338313D01*
X13276661Y53161687D01*
X13242203Y52988454D01*
X13174611Y52825272D01*
X13076482Y52678412D01*
X12951588Y52553518D01*
X12804728Y52455389D01*
X12641546Y52387797D01*
X12468313Y52353339D01*
X12291687Y52353339D01*
X12118454Y52387797D01*
X11955272Y52455389D01*
X11808412Y52553518D01*
X11683518Y52678412D01*
X11585389Y52825272D01*
X11517797Y52988454D01*
X11483339Y53161687D01*
X11483339Y53338313D01*
X11517797Y53511546D01*
X11585389Y53674728D01*
X11683518Y53821588D01*
X11808412Y53946482D01*
X11955272Y54044611D01*
X12118454Y54112203D01*
X12291687Y54146661D01*
X12468313Y54146661D01*
X12641546Y54112203D01*
G37*
G36*
X65563054Y54637380D02*
G01*
X65689742Y54584904D01*
X65803758Y54508721D01*
X65900721Y54411758D01*
X65976904Y54297742D01*
X66029380Y54171054D01*
X66056132Y54036563D01*
X66056132Y53899437D01*
X66029380Y53764946D01*
X65976904Y53638258D01*
X65900721Y53524242D01*
X65803758Y53427279D01*
X65689742Y53351096D01*
X65563054Y53298620D01*
X65428563Y53271868D01*
X65291437Y53271868D01*
X65156946Y53298620D01*
X65030258Y53351096D01*
X64916242Y53427279D01*
X64819279Y53524242D01*
X64743096Y53638258D01*
X64690620Y53764946D01*
X64663868Y53899437D01*
X64663868Y54036563D01*
X64690620Y54171054D01*
X64743096Y54297742D01*
X64819279Y54411758D01*
X64916242Y54508721D01*
X65030258Y54584904D01*
X65156946Y54637380D01*
X65291437Y54664132D01*
X65428563Y54664132D01*
X65563054Y54637380D01*
G37*
G36*
X63785054Y55653380D02*
G01*
X63911742Y55600904D01*
X64025758Y55524721D01*
X64122721Y55427758D01*
X64198904Y55313742D01*
X64251380Y55187054D01*
X64278132Y55052563D01*
X64278132Y54915437D01*
X64251380Y54780946D01*
X64198904Y54654258D01*
X64122721Y54540242D01*
X64025758Y54443279D01*
X63911742Y54367096D01*
X63785054Y54314620D01*
X63650563Y54287868D01*
X63513437Y54287868D01*
X63378946Y54314620D01*
X63252258Y54367096D01*
X63138242Y54443279D01*
X63041279Y54540242D01*
X62965096Y54654258D01*
X62912620Y54780946D01*
X62885868Y54915437D01*
X62885868Y55052563D01*
X62912620Y55187054D01*
X62965096Y55313742D01*
X63041279Y55427758D01*
X63138242Y55524721D01*
X63252258Y55600904D01*
X63378946Y55653380D01*
X63513437Y55680132D01*
X63650563Y55680132D01*
X63785054Y55653380D01*
G37*
G36*
X10101546Y56652203D02*
G01*
X10264728Y56584611D01*
X10411588Y56486482D01*
X10536482Y56361588D01*
X10634611Y56214728D01*
X10702203Y56051546D01*
X10736661Y55878313D01*
X10736661Y55701687D01*
X10702203Y55528454D01*
X10634611Y55365272D01*
X10536482Y55218412D01*
X10411588Y55093518D01*
X10264728Y54995389D01*
X10101546Y54927797D01*
X9928313Y54893339D01*
X9751687Y54893339D01*
X9578454Y54927797D01*
X9415272Y54995389D01*
X9268412Y55093518D01*
X9143518Y55218412D01*
X9045389Y55365272D01*
X8977797Y55528454D01*
X8943339Y55701687D01*
X8943339Y55878313D01*
X8977797Y56051546D01*
X9045389Y56214728D01*
X9143518Y56361588D01*
X9268412Y56486482D01*
X9415272Y56584611D01*
X9578454Y56652203D01*
X9751687Y56686661D01*
X9928313Y56686661D01*
X10101546Y56652203D01*
G37*
G36*
X12641546Y56652203D02*
G01*
X12804728Y56584611D01*
X12951588Y56486482D01*
X13076482Y56361588D01*
X13174611Y56214728D01*
X13242203Y56051546D01*
X13276661Y55878313D01*
X13276661Y55701687D01*
X13242203Y55528454D01*
X13174611Y55365272D01*
X13076482Y55218412D01*
X12951588Y55093518D01*
X12804728Y54995389D01*
X12641546Y54927797D01*
X12468313Y54893339D01*
X12291687Y54893339D01*
X12118454Y54927797D01*
X11955272Y54995389D01*
X11808412Y55093518D01*
X11683518Y55218412D01*
X11585389Y55365272D01*
X11517797Y55528454D01*
X11483339Y55701687D01*
X11483339Y55878313D01*
X11517797Y56051546D01*
X11585389Y56214728D01*
X11683518Y56361588D01*
X11808412Y56486482D01*
X11955272Y56584611D01*
X12118454Y56652203D01*
X12291687Y56686661D01*
X12468313Y56686661D01*
X12641546Y56652203D01*
G37*
G36*
X65563054Y56669380D02*
G01*
X65689742Y56616904D01*
X65803758Y56540721D01*
X65900721Y56443758D01*
X65976904Y56329742D01*
X66029380Y56203054D01*
X66056132Y56068563D01*
X66056132Y55931437D01*
X66029380Y55796946D01*
X65976904Y55670258D01*
X65900721Y55556242D01*
X65803758Y55459279D01*
X65689742Y55383096D01*
X65563054Y55330620D01*
X65428563Y55303868D01*
X65291437Y55303868D01*
X65156946Y55330620D01*
X65030258Y55383096D01*
X64916242Y55459279D01*
X64819279Y55556242D01*
X64743096Y55670258D01*
X64690620Y55796946D01*
X64663868Y55931437D01*
X64663868Y56068563D01*
X64690620Y56203054D01*
X64743096Y56329742D01*
X64819279Y56443758D01*
X64916242Y56540721D01*
X65030258Y56616904D01*
X65156946Y56669380D01*
X65291437Y56696132D01*
X65428563Y56696132D01*
X65563054Y56669380D01*
G37*
G36*
X68227088Y60438385D02*
G01*
X68438925Y60381623D01*
X68641541Y60297697D01*
X68831469Y60188042D01*
X69005459Y60054535D01*
X69160535Y59899459D01*
X69294042Y59725469D01*
X69403697Y59535541D01*
X69487623Y59332925D01*
X69544385Y59121088D01*
X69573010Y58903655D01*
X69573010Y58684345D01*
X69544385Y58466912D01*
X69487623Y58255075D01*
X69403697Y58052459D01*
X69294042Y57862531D01*
X69160535Y57688541D01*
X69005459Y57533465D01*
X68831469Y57399958D01*
X68641541Y57290303D01*
X68438925Y57206377D01*
X68227088Y57149615D01*
X68009655Y57120990D01*
X67790345Y57120990D01*
X67572912Y57149615D01*
X67361075Y57206377D01*
X67158459Y57290303D01*
X66968531Y57399958D01*
X66794541Y57533465D01*
X66639465Y57688541D01*
X66505958Y57862531D01*
X66396303Y58052459D01*
X66312377Y58255075D01*
X66255615Y58466912D01*
X66226990Y58684345D01*
X66226990Y58903655D01*
X66255615Y59121088D01*
X66312377Y59332925D01*
X66396303Y59535541D01*
X66505958Y59725469D01*
X66639465Y59899459D01*
X66794541Y60054535D01*
X66968531Y60188042D01*
X67158459Y60297697D01*
X67361075Y60381623D01*
X67572912Y60438385D01*
X67790345Y60467010D01*
X68009655Y60467010D01*
X68227088Y60438385D01*
G37*
G36*
X64726016Y61634217D02*
G01*
X64889043Y61581246D01*
X65041777Y61503424D01*
X65180457Y61402667D01*
X65301667Y61281457D01*
X65402424Y61142777D01*
X65480246Y60990043D01*
X65533217Y60827016D01*
X65560032Y60657709D01*
X65560032Y60486291D01*
X65533217Y60316984D01*
X65480246Y60153957D01*
X65402424Y60001223D01*
X65301667Y59862543D01*
X65180457Y59741333D01*
X65041777Y59640576D01*
X64889043Y59562754D01*
X64726016Y59509783D01*
X64556709Y59482968D01*
X64385291Y59482968D01*
X64215984Y59509783D01*
X64052957Y59562754D01*
X63900223Y59640576D01*
X63761543Y59741333D01*
X63640333Y59862543D01*
X63539576Y60001223D01*
X63461754Y60153957D01*
X63408783Y60316984D01*
X63381968Y60486291D01*
X63381968Y60657709D01*
X63408783Y60827016D01*
X63461754Y60990043D01*
X63539576Y61142777D01*
X63640333Y61281457D01*
X63761543Y61402667D01*
X63900223Y61503424D01*
X64052957Y61581246D01*
X64215984Y61634217D01*
X64385291Y61661032D01*
X64556709Y61661032D01*
X64726016Y61634217D01*
G37*
G36*
X4117730Y71645911D02*
G01*
X4129536Y71645911D01*
X4187663Y71636705D01*
X4322042Y71619014D01*
X4354837Y71610227D01*
X4385418Y71605383D01*
X4444229Y71586274D01*
X4530611Y71563128D01*
X4585724Y71540300D01*
X4631810Y71525325D01*
X4674987Y71503326D01*
X4730099Y71480497D01*
X4807539Y71435787D01*
X4862645Y71407709D01*
X4887697Y71389508D01*
X4917096Y71372534D01*
X5024651Y71290005D01*
X5072239Y71255430D01*
X5080579Y71247090D01*
X5088401Y71241088D01*
X5241087Y71088402D01*
X5247088Y71080581D01*
X5255430Y71072239D01*
X5290008Y71024646D01*
X5372533Y70917097D01*
X5389505Y70887701D01*
X5407709Y70862645D01*
X5435789Y70807534D01*
X5480496Y70730100D01*
X5503321Y70674994D01*
X5525325Y70631810D01*
X5540301Y70585718D01*
X5563127Y70530612D01*
X5586269Y70444243D01*
X5605383Y70385418D01*
X5610227Y70354831D01*
X5619013Y70322043D01*
X5636703Y70187673D01*
X5645911Y70129536D01*
X5645911Y70117731D01*
X5647197Y70107962D01*
X5647197Y69892039D01*
X5645911Y69882271D01*
X5645911Y69870464D01*
X5636702Y69812323D01*
X5619013Y69677958D01*
X5610228Y69645173D01*
X5605383Y69614582D01*
X5586268Y69555754D01*
X5563127Y69469389D01*
X5540302Y69414287D01*
X5525325Y69368190D01*
X5503319Y69325003D01*
X5480496Y69269901D01*
X5435793Y69192475D01*
X5407709Y69137355D01*
X5389502Y69112296D01*
X5372533Y69082904D01*
X5290022Y68975373D01*
X5255430Y68927761D01*
X5247085Y68919417D01*
X5241087Y68911599D01*
X5088401Y68758913D01*
X5080583Y68752915D01*
X5072239Y68744570D01*
X5024627Y68709978D01*
X4917096Y68627467D01*
X4887704Y68610498D01*
X4862645Y68592291D01*
X4807525Y68564207D01*
X4730099Y68519504D01*
X4674997Y68496681D01*
X4631810Y68474675D01*
X4585713Y68459698D01*
X4530611Y68436873D01*
X4444246Y68413732D01*
X4385418Y68394617D01*
X4354827Y68389772D01*
X4322042Y68380987D01*
X4187677Y68363298D01*
X4129536Y68354089D01*
X4117729Y68354089D01*
X4107961Y68352803D01*
X3892039Y68352803D01*
X3882271Y68354089D01*
X3870464Y68354089D01*
X3812324Y68363298D01*
X3677957Y68380987D01*
X3645169Y68389773D01*
X3614582Y68394617D01*
X3555757Y68413731D01*
X3469388Y68436873D01*
X3414282Y68459699D01*
X3368190Y68474675D01*
X3325006Y68496679D01*
X3269900Y68519504D01*
X3192466Y68564211D01*
X3137355Y68592291D01*
X3112299Y68610495D01*
X3082903Y68627467D01*
X2975354Y68709992D01*
X2927761Y68744570D01*
X2919419Y68752912D01*
X2911598Y68758913D01*
X2758912Y68911599D01*
X2752910Y68919421D01*
X2744570Y68927761D01*
X2709995Y68975349D01*
X2627466Y69082904D01*
X2610492Y69112303D01*
X2592291Y69137355D01*
X2564213Y69192461D01*
X2519503Y69269901D01*
X2496674Y69325013D01*
X2474675Y69368190D01*
X2459700Y69414276D01*
X2436872Y69469389D01*
X2413726Y69555771D01*
X2394617Y69614582D01*
X2389773Y69645163D01*
X2380986Y69677958D01*
X2363295Y69812337D01*
X2354089Y69870464D01*
X2354089Y69882271D01*
X2352803Y69892039D01*
X2352803Y70107962D01*
X2354089Y70117731D01*
X2354089Y70129536D01*
X2363294Y70187659D01*
X2380986Y70322043D01*
X2389773Y70354840D01*
X2394617Y70385418D01*
X2413724Y70444225D01*
X2436872Y70530612D01*
X2459702Y70585729D01*
X2474675Y70631810D01*
X2496672Y70674984D01*
X2519503Y70730100D01*
X2564217Y70807549D01*
X2592291Y70862645D01*
X2610489Y70887694D01*
X2627466Y70917097D01*
X2710009Y71024671D01*
X2744570Y71072239D01*
X2752906Y71080576D01*
X2758912Y71088402D01*
X2911598Y71241088D01*
X2919424Y71247094D01*
X2927761Y71255430D01*
X2975329Y71289991D01*
X3082903Y71372534D01*
X3112306Y71389511D01*
X3137355Y71407709D01*
X3192451Y71435783D01*
X3269900Y71480497D01*
X3325016Y71503328D01*
X3368190Y71525325D01*
X3414271Y71540298D01*
X3469388Y71563128D01*
X3555775Y71586276D01*
X3614582Y71605383D01*
X3645160Y71610227D01*
X3677957Y71619014D01*
X3812338Y71636705D01*
X3870464Y71645911D01*
X3882270Y71645911D01*
X3892039Y71647197D01*
X4107961Y71647197D01*
X4117730Y71645911D01*
G37*
G36*
X69117730Y71645911D02*
G01*
X69129536Y71645911D01*
X69187663Y71636705D01*
X69322042Y71619014D01*
X69354837Y71610227D01*
X69385418Y71605383D01*
X69444229Y71586274D01*
X69530611Y71563128D01*
X69585724Y71540300D01*
X69631810Y71525325D01*
X69674987Y71503326D01*
X69730099Y71480497D01*
X69807539Y71435787D01*
X69862645Y71407709D01*
X69887697Y71389508D01*
X69917096Y71372534D01*
X70024651Y71290005D01*
X70072239Y71255430D01*
X70080579Y71247090D01*
X70088401Y71241088D01*
X70241087Y71088402D01*
X70247088Y71080581D01*
X70255430Y71072239D01*
X70290008Y71024646D01*
X70372533Y70917097D01*
X70389505Y70887701D01*
X70407709Y70862645D01*
X70435789Y70807534D01*
X70480496Y70730100D01*
X70503321Y70674994D01*
X70525325Y70631810D01*
X70540301Y70585718D01*
X70563127Y70530612D01*
X70586269Y70444243D01*
X70605383Y70385418D01*
X70610227Y70354831D01*
X70619013Y70322043D01*
X70636703Y70187673D01*
X70645911Y70129536D01*
X70645911Y70117731D01*
X70647197Y70107962D01*
X70647197Y69892039D01*
X70645911Y69882271D01*
X70645911Y69870464D01*
X70636702Y69812323D01*
X70619013Y69677958D01*
X70610228Y69645173D01*
X70605383Y69614582D01*
X70586268Y69555754D01*
X70563127Y69469389D01*
X70540302Y69414287D01*
X70525325Y69368190D01*
X70503319Y69325003D01*
X70480496Y69269901D01*
X70435793Y69192475D01*
X70407709Y69137355D01*
X70389502Y69112296D01*
X70372533Y69082904D01*
X70290022Y68975373D01*
X70255430Y68927761D01*
X70247085Y68919417D01*
X70241087Y68911599D01*
X70088401Y68758913D01*
X70080583Y68752915D01*
X70072239Y68744570D01*
X70024627Y68709978D01*
X69917096Y68627467D01*
X69887704Y68610498D01*
X69862645Y68592291D01*
X69807525Y68564207D01*
X69730099Y68519504D01*
X69674997Y68496681D01*
X69631810Y68474675D01*
X69585713Y68459698D01*
X69530611Y68436873D01*
X69444246Y68413732D01*
X69385418Y68394617D01*
X69354827Y68389772D01*
X69322042Y68380987D01*
X69187677Y68363298D01*
X69129536Y68354089D01*
X69117729Y68354089D01*
X69107961Y68352803D01*
X68892039Y68352803D01*
X68882271Y68354089D01*
X68870464Y68354089D01*
X68812324Y68363298D01*
X68677957Y68380987D01*
X68645169Y68389773D01*
X68614582Y68394617D01*
X68555757Y68413731D01*
X68469388Y68436873D01*
X68414282Y68459699D01*
X68368190Y68474675D01*
X68325006Y68496679D01*
X68269900Y68519504D01*
X68192466Y68564211D01*
X68137355Y68592291D01*
X68112299Y68610495D01*
X68082903Y68627467D01*
X67975354Y68709992D01*
X67927761Y68744570D01*
X67919419Y68752912D01*
X67911598Y68758913D01*
X67758912Y68911599D01*
X67752910Y68919421D01*
X67744570Y68927761D01*
X67709995Y68975349D01*
X67627466Y69082904D01*
X67610492Y69112303D01*
X67592291Y69137355D01*
X67564213Y69192461D01*
X67519503Y69269901D01*
X67496674Y69325013D01*
X67474675Y69368190D01*
X67459700Y69414276D01*
X67436872Y69469389D01*
X67413726Y69555771D01*
X67394617Y69614582D01*
X67389773Y69645163D01*
X67380986Y69677958D01*
X67363295Y69812337D01*
X67354089Y69870464D01*
X67354089Y69882271D01*
X67352803Y69892039D01*
X67352803Y70107962D01*
X67354089Y70117731D01*
X67354089Y70129536D01*
X67363294Y70187659D01*
X67380986Y70322043D01*
X67389773Y70354840D01*
X67394617Y70385418D01*
X67413724Y70444225D01*
X67436872Y70530612D01*
X67459702Y70585729D01*
X67474675Y70631810D01*
X67496672Y70674984D01*
X67519503Y70730100D01*
X67564217Y70807549D01*
X67592291Y70862645D01*
X67610489Y70887694D01*
X67627466Y70917097D01*
X67710009Y71024671D01*
X67744570Y71072239D01*
X67752906Y71080576D01*
X67758912Y71088402D01*
X67911598Y71241088D01*
X67919424Y71247094D01*
X67927761Y71255430D01*
X67975329Y71289991D01*
X68082903Y71372534D01*
X68112306Y71389511D01*
X68137355Y71407709D01*
X68192451Y71435783D01*
X68269900Y71480497D01*
X68325016Y71503328D01*
X68368190Y71525325D01*
X68414271Y71540298D01*
X68469388Y71563128D01*
X68555775Y71586276D01*
X68614582Y71605383D01*
X68645160Y71610227D01*
X68677957Y71619014D01*
X68812338Y71636705D01*
X68870464Y71645911D01*
X68882270Y71645911D01*
X68892039Y71647197D01*
X69107961Y71647197D01*
X69117730Y71645911D01*
G37*
%LPD*%
M02*
