%TF.GenerationSoftware,KiCad,Pcbnew,10.0.1*%
%TF.CreationDate,2026-05-03T12:30:56+03:00*%
%TF.ProjectId,i5ether,69356574-6865-4722-9e6b-696361645f70,rev?*%
%TF.SameCoordinates,Original*%
%TF.FileFunction,Soldermask,Top*%
%TF.FilePolarity,Negative*%
%FSLAX46Y46*%
G04 Gerber Fmt 4.6, Leading zero omitted, Abs format (unit mm)*
G04 Created by KiCad (PCBNEW 10.0.1) date 2026-05-03 12:30:56*
%MOMM*%
%LPD*%
G01*
G04 APERTURE LIST*
G04 APERTURE END LIST*
G36*
X4117730Y5645911D02*
G01*
X4129536Y5645911D01*
X4187663Y5636705D01*
X4322042Y5619014D01*
X4354837Y5610227D01*
X4385418Y5605383D01*
X4444229Y5586274D01*
X4530611Y5563128D01*
X4585724Y5540300D01*
X4631810Y5525325D01*
X4674987Y5503326D01*
X4730099Y5480497D01*
X4807539Y5435787D01*
X4862645Y5407709D01*
X4887697Y5389508D01*
X4917096Y5372534D01*
X5024651Y5290005D01*
X5072239Y5255430D01*
X5080579Y5247090D01*
X5088401Y5241088D01*
X5241087Y5088402D01*
X5247088Y5080581D01*
X5255430Y5072239D01*
X5290008Y5024646D01*
X5372533Y4917097D01*
X5389505Y4887701D01*
X5407709Y4862645D01*
X5435789Y4807534D01*
X5480496Y4730100D01*
X5503321Y4674994D01*
X5525325Y4631810D01*
X5540301Y4585718D01*
X5563127Y4530612D01*
X5586269Y4444243D01*
X5605383Y4385418D01*
X5610227Y4354831D01*
X5619013Y4322043D01*
X5636703Y4187673D01*
X5645911Y4129536D01*
X5645911Y4117731D01*
X5647197Y4107962D01*
X5647197Y3892039D01*
X5645911Y3882271D01*
X5645911Y3870464D01*
X5636702Y3812323D01*
X5619013Y3677958D01*
X5610228Y3645173D01*
X5605383Y3614582D01*
X5586268Y3555754D01*
X5563127Y3469389D01*
X5540302Y3414287D01*
X5525325Y3368190D01*
X5503319Y3325003D01*
X5480496Y3269901D01*
X5435793Y3192475D01*
X5407709Y3137355D01*
X5389502Y3112296D01*
X5372533Y3082904D01*
X5290022Y2975373D01*
X5255430Y2927761D01*
X5247085Y2919417D01*
X5241087Y2911599D01*
X5088401Y2758913D01*
X5080583Y2752915D01*
X5072239Y2744570D01*
X5024627Y2709978D01*
X4917096Y2627467D01*
X4887704Y2610498D01*
X4862645Y2592291D01*
X4807525Y2564207D01*
X4730099Y2519504D01*
X4674997Y2496681D01*
X4631810Y2474675D01*
X4585713Y2459698D01*
X4530611Y2436873D01*
X4444246Y2413732D01*
X4385418Y2394617D01*
X4354827Y2389772D01*
X4322042Y2380987D01*
X4187677Y2363298D01*
X4129536Y2354089D01*
X4117729Y2354089D01*
X4107961Y2352803D01*
X3892039Y2352803D01*
X3882271Y2354089D01*
X3870464Y2354089D01*
X3812324Y2363298D01*
X3677957Y2380987D01*
X3645169Y2389773D01*
X3614582Y2394617D01*
X3555757Y2413731D01*
X3469388Y2436873D01*
X3414282Y2459699D01*
X3368190Y2474675D01*
X3325006Y2496679D01*
X3269900Y2519504D01*
X3192466Y2564211D01*
X3137355Y2592291D01*
X3112299Y2610495D01*
X3082903Y2627467D01*
X2975354Y2709992D01*
X2927761Y2744570D01*
X2919419Y2752912D01*
X2911598Y2758913D01*
X2758912Y2911599D01*
X2752910Y2919421D01*
X2744570Y2927761D01*
X2709995Y2975349D01*
X2627466Y3082904D01*
X2610492Y3112303D01*
X2592291Y3137355D01*
X2564213Y3192461D01*
X2519503Y3269901D01*
X2496674Y3325013D01*
X2474675Y3368190D01*
X2459700Y3414276D01*
X2436872Y3469389D01*
X2413726Y3555771D01*
X2394617Y3614582D01*
X2389773Y3645163D01*
X2380986Y3677958D01*
X2363295Y3812337D01*
X2354089Y3870464D01*
X2354089Y3882271D01*
X2352803Y3892039D01*
X2352803Y4107962D01*
X2354089Y4117731D01*
X2354089Y4129536D01*
X2363294Y4187659D01*
X2380986Y4322043D01*
X2389773Y4354840D01*
X2394617Y4385418D01*
X2413724Y4444225D01*
X2436872Y4530612D01*
X2459702Y4585729D01*
X2474675Y4631810D01*
X2496672Y4674984D01*
X2519503Y4730100D01*
X2564217Y4807549D01*
X2592291Y4862645D01*
X2610489Y4887694D01*
X2627466Y4917097D01*
X2710009Y5024671D01*
X2744570Y5072239D01*
X2752906Y5080576D01*
X2758912Y5088402D01*
X2911598Y5241088D01*
X2919424Y5247094D01*
X2927761Y5255430D01*
X2975329Y5289991D01*
X3082903Y5372534D01*
X3112306Y5389511D01*
X3137355Y5407709D01*
X3192451Y5435783D01*
X3269900Y5480497D01*
X3325016Y5503328D01*
X3368190Y5525325D01*
X3414271Y5540298D01*
X3469388Y5563128D01*
X3555775Y5586276D01*
X3614582Y5605383D01*
X3645160Y5610227D01*
X3677957Y5619014D01*
X3812338Y5636705D01*
X3870464Y5645911D01*
X3882270Y5645911D01*
X3892039Y5647197D01*
X4107961Y5647197D01*
X4117730Y5645911D01*
G37*
G36*
X69117730Y5645911D02*
G01*
X69129536Y5645911D01*
X69187663Y5636705D01*
X69322042Y5619014D01*
X69354837Y5610227D01*
X69385418Y5605383D01*
X69444229Y5586274D01*
X69530611Y5563128D01*
X69585724Y5540300D01*
X69631810Y5525325D01*
X69674987Y5503326D01*
X69730099Y5480497D01*
X69807539Y5435787D01*
X69862645Y5407709D01*
X69887697Y5389508D01*
X69917096Y5372534D01*
X70024651Y5290005D01*
X70072239Y5255430D01*
X70080579Y5247090D01*
X70088401Y5241088D01*
X70241087Y5088402D01*
X70247088Y5080581D01*
X70255430Y5072239D01*
X70290008Y5024646D01*
X70372533Y4917097D01*
X70389505Y4887701D01*
X70407709Y4862645D01*
X70435789Y4807534D01*
X70480496Y4730100D01*
X70503321Y4674994D01*
X70525325Y4631810D01*
X70540301Y4585718D01*
X70563127Y4530612D01*
X70586269Y4444243D01*
X70605383Y4385418D01*
X70610227Y4354831D01*
X70619013Y4322043D01*
X70636703Y4187673D01*
X70645911Y4129536D01*
X70645911Y4117731D01*
X70647197Y4107962D01*
X70647197Y3892039D01*
X70645911Y3882271D01*
X70645911Y3870464D01*
X70636702Y3812323D01*
X70619013Y3677958D01*
X70610228Y3645173D01*
X70605383Y3614582D01*
X70586268Y3555754D01*
X70563127Y3469389D01*
X70540302Y3414287D01*
X70525325Y3368190D01*
X70503319Y3325003D01*
X70480496Y3269901D01*
X70435793Y3192475D01*
X70407709Y3137355D01*
X70389502Y3112296D01*
X70372533Y3082904D01*
X70290022Y2975373D01*
X70255430Y2927761D01*
X70247085Y2919417D01*
X70241087Y2911599D01*
X70088401Y2758913D01*
X70080583Y2752915D01*
X70072239Y2744570D01*
X70024627Y2709978D01*
X69917096Y2627467D01*
X69887704Y2610498D01*
X69862645Y2592291D01*
X69807525Y2564207D01*
X69730099Y2519504D01*
X69674997Y2496681D01*
X69631810Y2474675D01*
X69585713Y2459698D01*
X69530611Y2436873D01*
X69444246Y2413732D01*
X69385418Y2394617D01*
X69354827Y2389772D01*
X69322042Y2380987D01*
X69187677Y2363298D01*
X69129536Y2354089D01*
X69117729Y2354089D01*
X69107961Y2352803D01*
X68892039Y2352803D01*
X68882271Y2354089D01*
X68870464Y2354089D01*
X68812324Y2363298D01*
X68677957Y2380987D01*
X68645169Y2389773D01*
X68614582Y2394617D01*
X68555757Y2413731D01*
X68469388Y2436873D01*
X68414282Y2459699D01*
X68368190Y2474675D01*
X68325006Y2496679D01*
X68269900Y2519504D01*
X68192466Y2564211D01*
X68137355Y2592291D01*
X68112299Y2610495D01*
X68082903Y2627467D01*
X67975354Y2709992D01*
X67927761Y2744570D01*
X67919419Y2752912D01*
X67911598Y2758913D01*
X67758912Y2911599D01*
X67752910Y2919421D01*
X67744570Y2927761D01*
X67709995Y2975349D01*
X67627466Y3082904D01*
X67610492Y3112303D01*
X67592291Y3137355D01*
X67564213Y3192461D01*
X67519503Y3269901D01*
X67496674Y3325013D01*
X67474675Y3368190D01*
X67459700Y3414276D01*
X67436872Y3469389D01*
X67413726Y3555771D01*
X67394617Y3614582D01*
X67389773Y3645163D01*
X67380986Y3677958D01*
X67363295Y3812337D01*
X67354089Y3870464D01*
X67354089Y3882271D01*
X67352803Y3892039D01*
X67352803Y4107962D01*
X67354089Y4117731D01*
X67354089Y4129536D01*
X67363294Y4187659D01*
X67380986Y4322043D01*
X67389773Y4354840D01*
X67394617Y4385418D01*
X67413724Y4444225D01*
X67436872Y4530612D01*
X67459702Y4585729D01*
X67474675Y4631810D01*
X67496672Y4674984D01*
X67519503Y4730100D01*
X67564217Y4807549D01*
X67592291Y4862645D01*
X67610489Y4887694D01*
X67627466Y4917097D01*
X67710009Y5024671D01*
X67744570Y5072239D01*
X67752906Y5080576D01*
X67758912Y5088402D01*
X67911598Y5241088D01*
X67919424Y5247094D01*
X67927761Y5255430D01*
X67975329Y5289991D01*
X68082903Y5372534D01*
X68112306Y5389511D01*
X68137355Y5407709D01*
X68192451Y5435783D01*
X68269900Y5480497D01*
X68325016Y5503328D01*
X68368190Y5525325D01*
X68414271Y5540298D01*
X68469388Y5563128D01*
X68555775Y5586276D01*
X68614582Y5605383D01*
X68645160Y5610227D01*
X68677957Y5619014D01*
X68812338Y5636705D01*
X68870464Y5645911D01*
X68882270Y5645911D01*
X68892039Y5647197D01*
X69107961Y5647197D01*
X69117730Y5645911D01*
G37*
G36*
X49243914Y20383005D02*
G01*
X49259726Y20376024D01*
X49267531Y20374787D01*
X49300039Y20358224D01*
X49345106Y20338324D01*
X49423324Y20260106D01*
X49443226Y20215033D01*
X49459786Y20182532D01*
X49461021Y20174730D01*
X49468005Y20158914D01*
X49476000Y20090000D01*
X49476000Y17190000D01*
X49468005Y17121086D01*
X49461021Y17105271D01*
X49459786Y17097469D01*
X49443229Y17064976D01*
X49423324Y17019894D01*
X49345106Y16941676D01*
X49300024Y16921771D01*
X49267531Y16905214D01*
X49259729Y16903979D01*
X49243914Y16896995D01*
X49175000Y16889000D01*
X48550000Y16889000D01*
X48481086Y16896995D01*
X48465270Y16903979D01*
X48457468Y16905214D01*
X48424967Y16921774D01*
X48379894Y16941676D01*
X48301676Y17019894D01*
X48281776Y17064961D01*
X48265213Y17097469D01*
X48263976Y17105274D01*
X48256995Y17121086D01*
X48249000Y17190000D01*
X48249000Y20090000D01*
X48256995Y20158914D01*
X48263976Y20174726D01*
X48265213Y20182532D01*
X48281780Y20215047D01*
X48301676Y20260106D01*
X48379894Y20338324D01*
X48424953Y20358220D01*
X48457468Y20374787D01*
X48465274Y20376024D01*
X48481086Y20383005D01*
X48550000Y20391000D01*
X49175000Y20391000D01*
X49243914Y20383005D01*
G37*
G36*
X53518914Y20383005D02*
G01*
X53534726Y20376024D01*
X53542531Y20374787D01*
X53575039Y20358224D01*
X53620106Y20338324D01*
X53698324Y20260106D01*
X53718226Y20215033D01*
X53734786Y20182532D01*
X53736021Y20174730D01*
X53743005Y20158914D01*
X53751000Y20090000D01*
X53751000Y17190000D01*
X53743005Y17121086D01*
X53736021Y17105271D01*
X53734786Y17097469D01*
X53718229Y17064976D01*
X53698324Y17019894D01*
X53620106Y16941676D01*
X53575024Y16921771D01*
X53542531Y16905214D01*
X53534729Y16903979D01*
X53518914Y16896995D01*
X53450000Y16889000D01*
X52825000Y16889000D01*
X52756086Y16896995D01*
X52740270Y16903979D01*
X52732468Y16905214D01*
X52699967Y16921774D01*
X52654894Y16941676D01*
X52576676Y17019894D01*
X52556776Y17064961D01*
X52540213Y17097469D01*
X52538976Y17105274D01*
X52531995Y17121086D01*
X52524000Y17190000D01*
X52524000Y20090000D01*
X52531995Y20158914D01*
X52538976Y20174726D01*
X52540213Y20182532D01*
X52556780Y20215047D01*
X52576676Y20260106D01*
X52654894Y20338324D01*
X52699953Y20358220D01*
X52732468Y20374787D01*
X52740274Y20376024D01*
X52756086Y20383005D01*
X52825000Y20391000D01*
X53450000Y20391000D01*
X53518914Y20383005D01*
G37*
G36*
X13249517Y21127118D02*
G01*
X13266062Y21116062D01*
X13277118Y21099517D01*
X13281000Y21080000D01*
X13281000Y19380000D01*
X13277118Y19360483D01*
X13266062Y19343938D01*
X13249517Y19332882D01*
X13230000Y19329000D01*
X11530000Y19329000D01*
X11510483Y19332882D01*
X11493938Y19343938D01*
X11482882Y19360483D01*
X11479000Y19380000D01*
X11479000Y21080000D01*
X11482882Y21099517D01*
X11493938Y21116062D01*
X11510483Y21127118D01*
X11530000Y21131000D01*
X13230000Y21131000D01*
X13249517Y21127118D01*
G37*
G36*
X10101546Y21092203D02*
G01*
X10264728Y21024611D01*
X10411588Y20926482D01*
X10536482Y20801588D01*
X10634611Y20654728D01*
X10702203Y20491546D01*
X10736661Y20318313D01*
X10736661Y20141687D01*
X10702203Y19968454D01*
X10634611Y19805272D01*
X10536482Y19658412D01*
X10411588Y19533518D01*
X10264728Y19435389D01*
X10101546Y19367797D01*
X9928313Y19333339D01*
X9751687Y19333339D01*
X9578454Y19367797D01*
X9415272Y19435389D01*
X9268412Y19533518D01*
X9143518Y19658412D01*
X9045389Y19805272D01*
X8977797Y19968454D01*
X8943339Y20141687D01*
X8943339Y20318313D01*
X8977797Y20491546D01*
X9045389Y20654728D01*
X9143518Y20801588D01*
X9268412Y20926482D01*
X9415272Y21024611D01*
X9578454Y21092203D01*
X9751687Y21126661D01*
X9928313Y21126661D01*
X10101546Y21092203D01*
G37*
G36*
X64636016Y22448217D02*
G01*
X64799043Y22395246D01*
X64951777Y22317424D01*
X65090457Y22216667D01*
X65211667Y22095457D01*
X65312424Y21956777D01*
X65390246Y21804043D01*
X65443217Y21641016D01*
X65470032Y21471709D01*
X65470032Y21300291D01*
X65443217Y21130984D01*
X65390246Y20967957D01*
X65312424Y20815223D01*
X65211667Y20676543D01*
X65090457Y20555333D01*
X64951777Y20454576D01*
X64799043Y20376754D01*
X64636016Y20323783D01*
X64466709Y20296968D01*
X64295291Y20296968D01*
X64125984Y20323783D01*
X63962957Y20376754D01*
X63810223Y20454576D01*
X63671543Y20555333D01*
X63550333Y20676543D01*
X63449576Y20815223D01*
X63371754Y20967957D01*
X63318783Y21130984D01*
X63291968Y21300291D01*
X63291968Y21471709D01*
X63318783Y21641016D01*
X63371754Y21804043D01*
X63449576Y21956777D01*
X63550333Y22095457D01*
X63671543Y22216667D01*
X63810223Y22317424D01*
X63962957Y22395246D01*
X64125984Y22448217D01*
X64295291Y22475032D01*
X64466709Y22475032D01*
X64636016Y22448217D01*
G37*
G36*
X68137088Y24808385D02*
G01*
X68348925Y24751623D01*
X68551541Y24667697D01*
X68741469Y24558042D01*
X68915459Y24424535D01*
X69070535Y24269459D01*
X69204042Y24095469D01*
X69313697Y23905541D01*
X69397623Y23702925D01*
X69454385Y23491088D01*
X69483010Y23273655D01*
X69483010Y23054345D01*
X69454385Y22836912D01*
X69397623Y22625075D01*
X69313697Y22422459D01*
X69204042Y22232531D01*
X69070535Y22058541D01*
X68915459Y21903465D01*
X68741469Y21769958D01*
X68551541Y21660303D01*
X68348925Y21576377D01*
X68137088Y21519615D01*
X67919655Y21490990D01*
X67700345Y21490990D01*
X67482912Y21519615D01*
X67271075Y21576377D01*
X67068459Y21660303D01*
X66878531Y21769958D01*
X66704541Y21903465D01*
X66549465Y22058541D01*
X66415958Y22232531D01*
X66306303Y22422459D01*
X66222377Y22625075D01*
X66165615Y22836912D01*
X66136990Y23054345D01*
X66136990Y23273655D01*
X66165615Y23491088D01*
X66222377Y23702925D01*
X66306303Y23905541D01*
X66415958Y24095469D01*
X66549465Y24269459D01*
X66704541Y24424535D01*
X66878531Y24558042D01*
X67068459Y24667697D01*
X67271075Y24751623D01*
X67482912Y24808385D01*
X67700345Y24837010D01*
X67919655Y24837010D01*
X68137088Y24808385D01*
G37*
G36*
X10101546Y23632203D02*
G01*
X10264728Y23564611D01*
X10411588Y23466482D01*
X10536482Y23341588D01*
X10634611Y23194728D01*
X10702203Y23031546D01*
X10736661Y22858313D01*
X10736661Y22681687D01*
X10702203Y22508454D01*
X10634611Y22345272D01*
X10536482Y22198412D01*
X10411588Y22073518D01*
X10264728Y21975389D01*
X10101546Y21907797D01*
X9928313Y21873339D01*
X9751687Y21873339D01*
X9578454Y21907797D01*
X9415272Y21975389D01*
X9268412Y22073518D01*
X9143518Y22198412D01*
X9045389Y22345272D01*
X8977797Y22508454D01*
X8943339Y22681687D01*
X8943339Y22858313D01*
X8977797Y23031546D01*
X9045389Y23194728D01*
X9143518Y23341588D01*
X9268412Y23466482D01*
X9415272Y23564611D01*
X9578454Y23632203D01*
X9751687Y23666661D01*
X9928313Y23666661D01*
X10101546Y23632203D01*
G37*
G36*
X12641546Y23632203D02*
G01*
X12804728Y23564611D01*
X12951588Y23466482D01*
X13076482Y23341588D01*
X13174611Y23194728D01*
X13242203Y23031546D01*
X13276661Y22858313D01*
X13276661Y22681687D01*
X13242203Y22508454D01*
X13174611Y22345272D01*
X13076482Y22198412D01*
X12951588Y22073518D01*
X12804728Y21975389D01*
X12641546Y21907797D01*
X12468313Y21873339D01*
X12291687Y21873339D01*
X12118454Y21907797D01*
X11955272Y21975389D01*
X11808412Y22073518D01*
X11683518Y22198412D01*
X11585389Y22345272D01*
X11517797Y22508454D01*
X11483339Y22681687D01*
X11483339Y22858313D01*
X11517797Y23031546D01*
X11585389Y23194728D01*
X11683518Y23341588D01*
X11808412Y23466482D01*
X11955272Y23564611D01*
X12118454Y23632203D01*
X12291687Y23666661D01*
X12468313Y23666661D01*
X12641546Y23632203D01*
G37*
G36*
X30375567Y24304797D02*
G01*
X30383678Y24299378D01*
X30389097Y24291267D01*
X30391000Y24281700D01*
X30391000Y23641700D01*
X30389097Y23632133D01*
X30383678Y23624022D01*
X30375567Y23618603D01*
X30366000Y23616700D01*
X28336000Y23616700D01*
X28326433Y23618603D01*
X28318322Y23624022D01*
X28312903Y23632133D01*
X28311000Y23641700D01*
X28311000Y24281700D01*
X28312903Y24291267D01*
X28318322Y24299378D01*
X28326433Y24304797D01*
X28336000Y24306700D01*
X30366000Y24306700D01*
X30375567Y24304797D01*
G37*
G36*
X48173567Y24304797D02*
G01*
X48181678Y24299378D01*
X48187097Y24291267D01*
X48189000Y24281700D01*
X48189000Y23641700D01*
X48187097Y23632133D01*
X48181678Y23624022D01*
X48173567Y23618603D01*
X48164000Y23616700D01*
X46134000Y23616700D01*
X46124433Y23618603D01*
X46116322Y23624022D01*
X46110903Y23632133D01*
X46109000Y23641700D01*
X46109000Y24281700D01*
X46110903Y24291267D01*
X46116322Y24299378D01*
X46124433Y24304797D01*
X46134000Y24306700D01*
X48164000Y24306700D01*
X48173567Y24304797D01*
G37*
G36*
X10101546Y26172203D02*
G01*
X10264728Y26104611D01*
X10411588Y26006482D01*
X10536482Y25881588D01*
X10634611Y25734728D01*
X10702203Y25571546D01*
X10736661Y25398313D01*
X10736661Y25221687D01*
X10702203Y25048454D01*
X10634611Y24885272D01*
X10536482Y24738412D01*
X10411588Y24613518D01*
X10264728Y24515389D01*
X10101546Y24447797D01*
X9928313Y24413339D01*
X9751687Y24413339D01*
X9578454Y24447797D01*
X9415272Y24515389D01*
X9268412Y24613518D01*
X9143518Y24738412D01*
X9045389Y24885272D01*
X8977797Y25048454D01*
X8943339Y25221687D01*
X8943339Y25398313D01*
X8977797Y25571546D01*
X9045389Y25734728D01*
X9143518Y25881588D01*
X9268412Y26006482D01*
X9415272Y26104611D01*
X9578454Y26172203D01*
X9751687Y26206661D01*
X9928313Y26206661D01*
X10101546Y26172203D01*
G37*
G36*
X12641546Y26172203D02*
G01*
X12804728Y26104611D01*
X12951588Y26006482D01*
X13076482Y25881588D01*
X13174611Y25734728D01*
X13242203Y25571546D01*
X13276661Y25398313D01*
X13276661Y25221687D01*
X13242203Y25048454D01*
X13174611Y24885272D01*
X13076482Y24738412D01*
X12951588Y24613518D01*
X12804728Y24515389D01*
X12641546Y24447797D01*
X12468313Y24413339D01*
X12291687Y24413339D01*
X12118454Y24447797D01*
X11955272Y24515389D01*
X11808412Y24613518D01*
X11683518Y24738412D01*
X11585389Y24885272D01*
X11517797Y25048454D01*
X11483339Y25221687D01*
X11483339Y25398313D01*
X11517797Y25571546D01*
X11585389Y25734728D01*
X11683518Y25881588D01*
X11808412Y26006482D01*
X11955272Y26104611D01*
X12118454Y26172203D01*
X12291687Y26206661D01*
X12468313Y26206661D01*
X12641546Y26172203D01*
G37*
G36*
X30375567Y25295397D02*
G01*
X30383678Y25289978D01*
X30389097Y25281867D01*
X30391000Y25272300D01*
X30391000Y24632300D01*
X30389097Y24622733D01*
X30383678Y24614622D01*
X30375567Y24609203D01*
X30366000Y24607300D01*
X28336000Y24607300D01*
X28326433Y24609203D01*
X28318322Y24614622D01*
X28312903Y24622733D01*
X28311000Y24632300D01*
X28311000Y25272300D01*
X28312903Y25281867D01*
X28318322Y25289978D01*
X28326433Y25295397D01*
X28336000Y25297300D01*
X30366000Y25297300D01*
X30375567Y25295397D01*
G37*
G36*
X48173567Y25295397D02*
G01*
X48181678Y25289978D01*
X48187097Y25281867D01*
X48189000Y25272300D01*
X48189000Y24632300D01*
X48187097Y24622733D01*
X48181678Y24614622D01*
X48173567Y24609203D01*
X48164000Y24607300D01*
X46134000Y24607300D01*
X46124433Y24609203D01*
X46116322Y24614622D01*
X46110903Y24622733D01*
X46109000Y24632300D01*
X46109000Y25272300D01*
X46110903Y25281867D01*
X46116322Y25289978D01*
X46124433Y25295397D01*
X46134000Y25297300D01*
X48164000Y25297300D01*
X48173567Y25295397D01*
G37*
G36*
X63695054Y26627380D02*
G01*
X63821742Y26574904D01*
X63935758Y26498721D01*
X64032721Y26401758D01*
X64108904Y26287742D01*
X64161380Y26161054D01*
X64188132Y26026563D01*
X64188132Y25889437D01*
X64161380Y25754946D01*
X64108904Y25628258D01*
X64032721Y25514242D01*
X63935758Y25417279D01*
X63821742Y25341096D01*
X63695054Y25288620D01*
X63560563Y25261868D01*
X63423437Y25261868D01*
X63288946Y25288620D01*
X63162258Y25341096D01*
X63048242Y25417279D01*
X62951279Y25514242D01*
X62875096Y25628258D01*
X62822620Y25754946D01*
X62795868Y25889437D01*
X62795868Y26026563D01*
X62822620Y26161054D01*
X62875096Y26287742D01*
X62951279Y26401758D01*
X63048242Y26498721D01*
X63162258Y26574904D01*
X63288946Y26627380D01*
X63423437Y26654132D01*
X63560563Y26654132D01*
X63695054Y26627380D01*
G37*
G36*
X25838538Y26227810D02*
G01*
X25870837Y26223558D01*
X25878962Y26219769D01*
X25898463Y26215890D01*
X25924295Y26198630D01*
X25935248Y26193522D01*
X25941910Y26186860D01*
X25962861Y26172861D01*
X25976859Y26151911D01*
X25983521Y26145249D01*
X25988627Y26134299D01*
X26005890Y26108463D01*
X26009769Y26088961D01*
X26013557Y26080838D01*
X26017807Y26048550D01*
X26021000Y26032500D01*
X26021000Y25687500D01*
X26017806Y25671448D01*
X26013557Y25639163D01*
X26009769Y25631042D01*
X26005890Y25611537D01*
X25988625Y25585700D01*
X25983521Y25574752D01*
X25976861Y25568093D01*
X25962861Y25547139D01*
X25941907Y25533139D01*
X25935248Y25526479D01*
X25924300Y25521375D01*
X25898463Y25504110D01*
X25878958Y25500231D01*
X25870837Y25496443D01*
X25838551Y25492193D01*
X25822500Y25489000D01*
X25527500Y25489000D01*
X25511449Y25492193D01*
X25479162Y25496443D01*
X25471039Y25500231D01*
X25451537Y25504110D01*
X25425701Y25521373D01*
X25414751Y25526479D01*
X25408089Y25533141D01*
X25387139Y25547139D01*
X25373140Y25568090D01*
X25366478Y25574752D01*
X25361370Y25585705D01*
X25344110Y25611537D01*
X25340231Y25631038D01*
X25336442Y25639163D01*
X25332189Y25671464D01*
X25329000Y25687500D01*
X25329000Y26032500D01*
X25332189Y26048537D01*
X25336442Y26080838D01*
X25340231Y26088965D01*
X25344110Y26108463D01*
X25361369Y26134294D01*
X25366478Y26145249D01*
X25373142Y26151914D01*
X25387139Y26172861D01*
X25408086Y26186858D01*
X25414751Y26193522D01*
X25425706Y26198631D01*
X25451537Y26215890D01*
X25471035Y26219769D01*
X25479162Y26223558D01*
X25511465Y26227811D01*
X25527500Y26231000D01*
X25822500Y26231000D01*
X25838538Y26227810D01*
G37*
G36*
X26808538Y26227810D02*
G01*
X26840837Y26223558D01*
X26848962Y26219769D01*
X26868463Y26215890D01*
X26894295Y26198630D01*
X26905248Y26193522D01*
X26911910Y26186860D01*
X26932861Y26172861D01*
X26946859Y26151911D01*
X26953521Y26145249D01*
X26958627Y26134299D01*
X26975890Y26108463D01*
X26979769Y26088961D01*
X26983557Y26080838D01*
X26987807Y26048550D01*
X26991000Y26032500D01*
X26991000Y25687500D01*
X26987806Y25671448D01*
X26983557Y25639163D01*
X26979769Y25631042D01*
X26975890Y25611537D01*
X26958625Y25585700D01*
X26953521Y25574752D01*
X26946861Y25568093D01*
X26932861Y25547139D01*
X26911907Y25533139D01*
X26905248Y25526479D01*
X26894300Y25521375D01*
X26868463Y25504110D01*
X26848958Y25500231D01*
X26840837Y25496443D01*
X26808551Y25492193D01*
X26792500Y25489000D01*
X26497500Y25489000D01*
X26481449Y25492193D01*
X26449162Y25496443D01*
X26441039Y25500231D01*
X26421537Y25504110D01*
X26395701Y25521373D01*
X26384751Y25526479D01*
X26378089Y25533141D01*
X26357139Y25547139D01*
X26343140Y25568090D01*
X26336478Y25574752D01*
X26331370Y25585705D01*
X26314110Y25611537D01*
X26310231Y25631038D01*
X26306442Y25639163D01*
X26302189Y25671464D01*
X26299000Y25687500D01*
X26299000Y26032500D01*
X26302189Y26048537D01*
X26306442Y26080838D01*
X26310231Y26088965D01*
X26314110Y26108463D01*
X26331369Y26134294D01*
X26336478Y26145249D01*
X26343142Y26151914D01*
X26357139Y26172861D01*
X26378086Y26186858D01*
X26384751Y26193522D01*
X26395706Y26198631D01*
X26421537Y26215890D01*
X26441035Y26219769D01*
X26449162Y26223558D01*
X26481465Y26227811D01*
X26497500Y26231000D01*
X26792500Y26231000D01*
X26808538Y26227810D01*
G37*
G36*
X50818538Y26257810D02*
G01*
X50850837Y26253558D01*
X50858962Y26249769D01*
X50878463Y26245890D01*
X50904295Y26228630D01*
X50915248Y26223522D01*
X50921910Y26216860D01*
X50942861Y26202861D01*
X50956859Y26181911D01*
X50963521Y26175249D01*
X50968627Y26164299D01*
X50985890Y26138463D01*
X50989769Y26118961D01*
X50993557Y26110838D01*
X50997807Y26078550D01*
X51001000Y26062500D01*
X51001000Y25717500D01*
X50997806Y25701448D01*
X50993557Y25669163D01*
X50989769Y25661042D01*
X50985890Y25641537D01*
X50968625Y25615700D01*
X50963521Y25604752D01*
X50956861Y25598093D01*
X50942861Y25577139D01*
X50921907Y25563139D01*
X50915248Y25556479D01*
X50904300Y25551375D01*
X50878463Y25534110D01*
X50858958Y25530231D01*
X50850837Y25526443D01*
X50818551Y25522193D01*
X50802500Y25519000D01*
X50507500Y25519000D01*
X50491449Y25522193D01*
X50459162Y25526443D01*
X50451039Y25530231D01*
X50431537Y25534110D01*
X50405701Y25551373D01*
X50394751Y25556479D01*
X50388089Y25563141D01*
X50367139Y25577139D01*
X50353140Y25598090D01*
X50346478Y25604752D01*
X50341370Y25615705D01*
X50324110Y25641537D01*
X50320231Y25661038D01*
X50316442Y25669163D01*
X50312189Y25701464D01*
X50309000Y25717500D01*
X50309000Y26062500D01*
X50312189Y26078537D01*
X50316442Y26110838D01*
X50320231Y26118965D01*
X50324110Y26138463D01*
X50341369Y26164294D01*
X50346478Y26175249D01*
X50353142Y26181914D01*
X50367139Y26202861D01*
X50388086Y26216858D01*
X50394751Y26223522D01*
X50405706Y26228631D01*
X50431537Y26245890D01*
X50451035Y26249769D01*
X50459162Y26253558D01*
X50491465Y26257811D01*
X50507500Y26261000D01*
X50802500Y26261000D01*
X50818538Y26257810D01*
G37*
G36*
X51788538Y26257810D02*
G01*
X51820837Y26253558D01*
X51828962Y26249769D01*
X51848463Y26245890D01*
X51874295Y26228630D01*
X51885248Y26223522D01*
X51891910Y26216860D01*
X51912861Y26202861D01*
X51926859Y26181911D01*
X51933521Y26175249D01*
X51938627Y26164299D01*
X51955890Y26138463D01*
X51959769Y26118961D01*
X51963557Y26110838D01*
X51967807Y26078550D01*
X51971000Y26062500D01*
X51971000Y25717500D01*
X51967806Y25701448D01*
X51963557Y25669163D01*
X51959769Y25661042D01*
X51955890Y25641537D01*
X51938625Y25615700D01*
X51933521Y25604752D01*
X51926861Y25598093D01*
X51912861Y25577139D01*
X51891907Y25563139D01*
X51885248Y25556479D01*
X51874300Y25551375D01*
X51848463Y25534110D01*
X51828958Y25530231D01*
X51820837Y25526443D01*
X51788551Y25522193D01*
X51772500Y25519000D01*
X51477500Y25519000D01*
X51461449Y25522193D01*
X51429162Y25526443D01*
X51421039Y25530231D01*
X51401537Y25534110D01*
X51375701Y25551373D01*
X51364751Y25556479D01*
X51358089Y25563141D01*
X51337139Y25577139D01*
X51323140Y25598090D01*
X51316478Y25604752D01*
X51311370Y25615705D01*
X51294110Y25641537D01*
X51290231Y25661038D01*
X51286442Y25669163D01*
X51282189Y25701464D01*
X51279000Y25717500D01*
X51279000Y26062500D01*
X51282189Y26078537D01*
X51286442Y26110838D01*
X51290231Y26118965D01*
X51294110Y26138463D01*
X51311369Y26164294D01*
X51316478Y26175249D01*
X51323142Y26181914D01*
X51337139Y26202861D01*
X51358086Y26216858D01*
X51364751Y26223522D01*
X51375706Y26228631D01*
X51401537Y26245890D01*
X51421035Y26249769D01*
X51429162Y26253558D01*
X51461465Y26257811D01*
X51477500Y26261000D01*
X51772500Y26261000D01*
X51788538Y26257810D01*
G37*
G36*
X30375567Y26285997D02*
G01*
X30383678Y26280578D01*
X30389097Y26272467D01*
X30391000Y26262900D01*
X30391000Y25622900D01*
X30389097Y25613333D01*
X30383678Y25605222D01*
X30375567Y25599803D01*
X30366000Y25597900D01*
X28336000Y25597900D01*
X28326433Y25599803D01*
X28318322Y25605222D01*
X28312903Y25613333D01*
X28311000Y25622900D01*
X28311000Y26262900D01*
X28312903Y26272467D01*
X28318322Y26280578D01*
X28326433Y26285997D01*
X28336000Y26287900D01*
X30366000Y26287900D01*
X30375567Y26285997D01*
G37*
G36*
X48173567Y26285997D02*
G01*
X48181678Y26280578D01*
X48187097Y26272467D01*
X48189000Y26262900D01*
X48189000Y25622900D01*
X48187097Y25613333D01*
X48181678Y25605222D01*
X48173567Y25599803D01*
X48164000Y25597900D01*
X46134000Y25597900D01*
X46124433Y25599803D01*
X46116322Y25605222D01*
X46110903Y25613333D01*
X46109000Y25622900D01*
X46109000Y26262900D01*
X46110903Y26272467D01*
X46116322Y26280578D01*
X46124433Y26285997D01*
X46134000Y26287900D01*
X48164000Y26287900D01*
X48173567Y26285997D01*
G37*
G36*
X65473054Y27643380D02*
G01*
X65599742Y27590904D01*
X65713758Y27514721D01*
X65810721Y27417758D01*
X65886904Y27303742D01*
X65939380Y27177054D01*
X65966132Y27042563D01*
X65966132Y26905437D01*
X65939380Y26770946D01*
X65886904Y26644258D01*
X65810721Y26530242D01*
X65713758Y26433279D01*
X65599742Y26357096D01*
X65473054Y26304620D01*
X65338563Y26277868D01*
X65201437Y26277868D01*
X65066946Y26304620D01*
X64940258Y26357096D01*
X64826242Y26433279D01*
X64729279Y26530242D01*
X64653096Y26644258D01*
X64600620Y26770946D01*
X64573868Y26905437D01*
X64573868Y27042563D01*
X64600620Y27177054D01*
X64653096Y27303742D01*
X64729279Y27417758D01*
X64826242Y27514721D01*
X64940258Y27590904D01*
X65066946Y27643380D01*
X65201437Y27670132D01*
X65338563Y27670132D01*
X65473054Y27643380D01*
G37*
G36*
X30375567Y27276597D02*
G01*
X30383678Y27271178D01*
X30389097Y27263067D01*
X30391000Y27253500D01*
X30391000Y26613500D01*
X30389097Y26603933D01*
X30383678Y26595822D01*
X30375567Y26590403D01*
X30366000Y26588500D01*
X28336000Y26588500D01*
X28326433Y26590403D01*
X28318322Y26595822D01*
X28312903Y26603933D01*
X28311000Y26613500D01*
X28311000Y27253500D01*
X28312903Y27263067D01*
X28318322Y27271178D01*
X28326433Y27276597D01*
X28336000Y27278500D01*
X30366000Y27278500D01*
X30375567Y27276597D01*
G37*
G36*
X48173567Y27276597D02*
G01*
X48181678Y27271178D01*
X48187097Y27263067D01*
X48189000Y27253500D01*
X48189000Y26613500D01*
X48187097Y26603933D01*
X48181678Y26595822D01*
X48173567Y26590403D01*
X48164000Y26588500D01*
X46134000Y26588500D01*
X46124433Y26590403D01*
X46116322Y26595822D01*
X46110903Y26603933D01*
X46109000Y26613500D01*
X46109000Y27253500D01*
X46110903Y27263067D01*
X46116322Y27271178D01*
X46124433Y27276597D01*
X46134000Y27278500D01*
X48164000Y27278500D01*
X48173567Y27276597D01*
G37*
G36*
X10101546Y28712203D02*
G01*
X10264728Y28644611D01*
X10411588Y28546482D01*
X10536482Y28421588D01*
X10634611Y28274728D01*
X10702203Y28111546D01*
X10736661Y27938313D01*
X10736661Y27761687D01*
X10702203Y27588454D01*
X10634611Y27425272D01*
X10536482Y27278412D01*
X10411588Y27153518D01*
X10264728Y27055389D01*
X10101546Y26987797D01*
X9928313Y26953339D01*
X9751687Y26953339D01*
X9578454Y26987797D01*
X9415272Y27055389D01*
X9268412Y27153518D01*
X9143518Y27278412D01*
X9045389Y27425272D01*
X8977797Y27588454D01*
X8943339Y27761687D01*
X8943339Y27938313D01*
X8977797Y28111546D01*
X9045389Y28274728D01*
X9143518Y28421588D01*
X9268412Y28546482D01*
X9415272Y28644611D01*
X9578454Y28712203D01*
X9751687Y28746661D01*
X9928313Y28746661D01*
X10101546Y28712203D01*
G37*
G36*
X12641546Y28712203D02*
G01*
X12804728Y28644611D01*
X12951588Y28546482D01*
X13076482Y28421588D01*
X13174611Y28274728D01*
X13242203Y28111546D01*
X13276661Y27938313D01*
X13276661Y27761687D01*
X13242203Y27588454D01*
X13174611Y27425272D01*
X13076482Y27278412D01*
X12951588Y27153518D01*
X12804728Y27055389D01*
X12641546Y26987797D01*
X12468313Y26953339D01*
X12291687Y26953339D01*
X12118454Y26987797D01*
X11955272Y27055389D01*
X11808412Y27153518D01*
X11683518Y27278412D01*
X11585389Y27425272D01*
X11517797Y27588454D01*
X11483339Y27761687D01*
X11483339Y27938313D01*
X11517797Y28111546D01*
X11585389Y28274728D01*
X11683518Y28421588D01*
X11808412Y28546482D01*
X11955272Y28644611D01*
X12118454Y28712203D01*
X12291687Y28746661D01*
X12468313Y28746661D01*
X12641546Y28712203D01*
G37*
G36*
X63695054Y28659380D02*
G01*
X63821742Y28606904D01*
X63935758Y28530721D01*
X64032721Y28433758D01*
X64108904Y28319742D01*
X64161380Y28193054D01*
X64188132Y28058563D01*
X64188132Y27921437D01*
X64161380Y27786946D01*
X64108904Y27660258D01*
X64032721Y27546242D01*
X63935758Y27449279D01*
X63821742Y27373096D01*
X63695054Y27320620D01*
X63560563Y27293868D01*
X63423437Y27293868D01*
X63288946Y27320620D01*
X63162258Y27373096D01*
X63048242Y27449279D01*
X62951279Y27546242D01*
X62875096Y27660258D01*
X62822620Y27786946D01*
X62795868Y27921437D01*
X62795868Y28058563D01*
X62822620Y28193054D01*
X62875096Y28319742D01*
X62951279Y28433758D01*
X63048242Y28530721D01*
X63162258Y28606904D01*
X63288946Y28659380D01*
X63423437Y28686132D01*
X63560563Y28686132D01*
X63695054Y28659380D01*
G37*
G36*
X30375567Y28267197D02*
G01*
X30383678Y28261778D01*
X30389097Y28253667D01*
X30391000Y28244100D01*
X30391000Y27604100D01*
X30389097Y27594533D01*
X30383678Y27586422D01*
X30375567Y27581003D01*
X30366000Y27579100D01*
X28336000Y27579100D01*
X28326433Y27581003D01*
X28318322Y27586422D01*
X28312903Y27594533D01*
X28311000Y27604100D01*
X28311000Y28244100D01*
X28312903Y28253667D01*
X28318322Y28261778D01*
X28326433Y28267197D01*
X28336000Y28269100D01*
X30366000Y28269100D01*
X30375567Y28267197D01*
G37*
G36*
X48173567Y28267197D02*
G01*
X48181678Y28261778D01*
X48187097Y28253667D01*
X48189000Y28244100D01*
X48189000Y27604100D01*
X48187097Y27594533D01*
X48181678Y27586422D01*
X48173567Y27581003D01*
X48164000Y27579100D01*
X46134000Y27579100D01*
X46124433Y27581003D01*
X46116322Y27586422D01*
X46110903Y27594533D01*
X46109000Y27604100D01*
X46109000Y28244100D01*
X46110903Y28253667D01*
X46116322Y28261778D01*
X46124433Y28267197D01*
X46134000Y28269100D01*
X48164000Y28269100D01*
X48173567Y28267197D01*
G37*
G36*
X65473054Y29675380D02*
G01*
X65599742Y29622904D01*
X65713758Y29546721D01*
X65810721Y29449758D01*
X65886904Y29335742D01*
X65939380Y29209054D01*
X65966132Y29074563D01*
X65966132Y28937437D01*
X65939380Y28802946D01*
X65886904Y28676258D01*
X65810721Y28562242D01*
X65713758Y28465279D01*
X65599742Y28389096D01*
X65473054Y28336620D01*
X65338563Y28309868D01*
X65201437Y28309868D01*
X65066946Y28336620D01*
X64940258Y28389096D01*
X64826242Y28465279D01*
X64729279Y28562242D01*
X64653096Y28676258D01*
X64600620Y28802946D01*
X64573868Y28937437D01*
X64573868Y29074563D01*
X64600620Y29209054D01*
X64653096Y29335742D01*
X64729279Y29449758D01*
X64826242Y29546721D01*
X64940258Y29622904D01*
X65066946Y29675380D01*
X65201437Y29702132D01*
X65338563Y29702132D01*
X65473054Y29675380D01*
G37*
G36*
X25718538Y29247810D02*
G01*
X25750837Y29243558D01*
X25758962Y29239769D01*
X25778463Y29235890D01*
X25804295Y29218630D01*
X25815248Y29213522D01*
X25821910Y29206860D01*
X25842861Y29192861D01*
X25856859Y29171911D01*
X25863521Y29165249D01*
X25868627Y29154299D01*
X25885890Y29128463D01*
X25889769Y29108961D01*
X25893557Y29100838D01*
X25897807Y29068550D01*
X25901000Y29052500D01*
X25901000Y28707500D01*
X25897806Y28691448D01*
X25893557Y28659163D01*
X25889769Y28651042D01*
X25885890Y28631537D01*
X25868625Y28605700D01*
X25863521Y28594752D01*
X25856861Y28588093D01*
X25842861Y28567139D01*
X25821907Y28553139D01*
X25815248Y28546479D01*
X25804300Y28541375D01*
X25778463Y28524110D01*
X25758958Y28520231D01*
X25750837Y28516443D01*
X25718551Y28512193D01*
X25702500Y28509000D01*
X25407500Y28509000D01*
X25391449Y28512193D01*
X25359162Y28516443D01*
X25351039Y28520231D01*
X25331537Y28524110D01*
X25305701Y28541373D01*
X25294751Y28546479D01*
X25288089Y28553141D01*
X25267139Y28567139D01*
X25253140Y28588090D01*
X25246478Y28594752D01*
X25241370Y28605705D01*
X25224110Y28631537D01*
X25220231Y28651038D01*
X25216442Y28659163D01*
X25212189Y28691464D01*
X25209000Y28707500D01*
X25209000Y29052500D01*
X25212189Y29068537D01*
X25216442Y29100838D01*
X25220231Y29108965D01*
X25224110Y29128463D01*
X25241369Y29154294D01*
X25246478Y29165249D01*
X25253142Y29171914D01*
X25267139Y29192861D01*
X25288086Y29206858D01*
X25294751Y29213522D01*
X25305706Y29218631D01*
X25331537Y29235890D01*
X25351035Y29239769D01*
X25359162Y29243558D01*
X25391465Y29247811D01*
X25407500Y29251000D01*
X25702500Y29251000D01*
X25718538Y29247810D01*
G37*
G36*
X26688538Y29247810D02*
G01*
X26720837Y29243558D01*
X26728962Y29239769D01*
X26748463Y29235890D01*
X26774295Y29218630D01*
X26785248Y29213522D01*
X26791910Y29206860D01*
X26812861Y29192861D01*
X26826859Y29171911D01*
X26833521Y29165249D01*
X26838627Y29154299D01*
X26855890Y29128463D01*
X26859769Y29108961D01*
X26863557Y29100838D01*
X26867807Y29068550D01*
X26871000Y29052500D01*
X26871000Y28707500D01*
X26867806Y28691448D01*
X26863557Y28659163D01*
X26859769Y28651042D01*
X26855890Y28631537D01*
X26838625Y28605700D01*
X26833521Y28594752D01*
X26826861Y28588093D01*
X26812861Y28567139D01*
X26791907Y28553139D01*
X26785248Y28546479D01*
X26774300Y28541375D01*
X26748463Y28524110D01*
X26728958Y28520231D01*
X26720837Y28516443D01*
X26688551Y28512193D01*
X26672500Y28509000D01*
X26377500Y28509000D01*
X26361449Y28512193D01*
X26329162Y28516443D01*
X26321039Y28520231D01*
X26301537Y28524110D01*
X26275701Y28541373D01*
X26264751Y28546479D01*
X26258089Y28553141D01*
X26237139Y28567139D01*
X26223140Y28588090D01*
X26216478Y28594752D01*
X26211370Y28605705D01*
X26194110Y28631537D01*
X26190231Y28651038D01*
X26186442Y28659163D01*
X26182189Y28691464D01*
X26179000Y28707500D01*
X26179000Y29052500D01*
X26182189Y29068537D01*
X26186442Y29100838D01*
X26190231Y29108965D01*
X26194110Y29128463D01*
X26211369Y29154294D01*
X26216478Y29165249D01*
X26223142Y29171914D01*
X26237139Y29192861D01*
X26258086Y29206858D01*
X26264751Y29213522D01*
X26275706Y29218631D01*
X26301537Y29235890D01*
X26321035Y29239769D01*
X26329162Y29243558D01*
X26361465Y29247811D01*
X26377500Y29251000D01*
X26672500Y29251000D01*
X26688538Y29247810D01*
G37*
G36*
X50763538Y29257810D02*
G01*
X50795837Y29253558D01*
X50803962Y29249769D01*
X50823463Y29245890D01*
X50849295Y29228630D01*
X50860248Y29223522D01*
X50866910Y29216860D01*
X50887861Y29202861D01*
X50901859Y29181911D01*
X50908521Y29175249D01*
X50913627Y29164299D01*
X50930890Y29138463D01*
X50934769Y29118961D01*
X50938557Y29110838D01*
X50942807Y29078550D01*
X50946000Y29062500D01*
X50946000Y28717500D01*
X50942806Y28701448D01*
X50938557Y28669163D01*
X50934769Y28661042D01*
X50930890Y28641537D01*
X50913625Y28615700D01*
X50908521Y28604752D01*
X50901861Y28598093D01*
X50887861Y28577139D01*
X50866907Y28563139D01*
X50860248Y28556479D01*
X50849300Y28551375D01*
X50823463Y28534110D01*
X50803958Y28530231D01*
X50795837Y28526443D01*
X50763551Y28522193D01*
X50747500Y28519000D01*
X50452500Y28519000D01*
X50436449Y28522193D01*
X50404162Y28526443D01*
X50396039Y28530231D01*
X50376537Y28534110D01*
X50350701Y28551373D01*
X50339751Y28556479D01*
X50333089Y28563141D01*
X50312139Y28577139D01*
X50298140Y28598090D01*
X50291478Y28604752D01*
X50286370Y28615705D01*
X50269110Y28641537D01*
X50265231Y28661038D01*
X50261442Y28669163D01*
X50257189Y28701464D01*
X50254000Y28717500D01*
X50254000Y29062500D01*
X50257189Y29078537D01*
X50261442Y29110838D01*
X50265231Y29118965D01*
X50269110Y29138463D01*
X50286369Y29164294D01*
X50291478Y29175249D01*
X50298142Y29181914D01*
X50312139Y29202861D01*
X50333086Y29216858D01*
X50339751Y29223522D01*
X50350706Y29228631D01*
X50376537Y29245890D01*
X50396035Y29249769D01*
X50404162Y29253558D01*
X50436465Y29257811D01*
X50452500Y29261000D01*
X50747500Y29261000D01*
X50763538Y29257810D01*
G37*
G36*
X51733538Y29257810D02*
G01*
X51765837Y29253558D01*
X51773962Y29249769D01*
X51793463Y29245890D01*
X51819295Y29228630D01*
X51830248Y29223522D01*
X51836910Y29216860D01*
X51857861Y29202861D01*
X51871859Y29181911D01*
X51878521Y29175249D01*
X51883627Y29164299D01*
X51900890Y29138463D01*
X51904769Y29118961D01*
X51908557Y29110838D01*
X51912807Y29078550D01*
X51916000Y29062500D01*
X51916000Y28717500D01*
X51912806Y28701448D01*
X51908557Y28669163D01*
X51904769Y28661042D01*
X51900890Y28641537D01*
X51883625Y28615700D01*
X51878521Y28604752D01*
X51871861Y28598093D01*
X51857861Y28577139D01*
X51836907Y28563139D01*
X51830248Y28556479D01*
X51819300Y28551375D01*
X51793463Y28534110D01*
X51773958Y28530231D01*
X51765837Y28526443D01*
X51733551Y28522193D01*
X51717500Y28519000D01*
X51422500Y28519000D01*
X51406449Y28522193D01*
X51374162Y28526443D01*
X51366039Y28530231D01*
X51346537Y28534110D01*
X51320701Y28551373D01*
X51309751Y28556479D01*
X51303089Y28563141D01*
X51282139Y28577139D01*
X51268140Y28598090D01*
X51261478Y28604752D01*
X51256370Y28615705D01*
X51239110Y28641537D01*
X51235231Y28661038D01*
X51231442Y28669163D01*
X51227189Y28701464D01*
X51224000Y28717500D01*
X51224000Y29062500D01*
X51227189Y29078537D01*
X51231442Y29110838D01*
X51235231Y29118965D01*
X51239110Y29138463D01*
X51256369Y29164294D01*
X51261478Y29175249D01*
X51268142Y29181914D01*
X51282139Y29202861D01*
X51303086Y29216858D01*
X51309751Y29223522D01*
X51320706Y29228631D01*
X51346537Y29245890D01*
X51366035Y29249769D01*
X51374162Y29253558D01*
X51406465Y29257811D01*
X51422500Y29261000D01*
X51717500Y29261000D01*
X51733538Y29257810D01*
G37*
G36*
X30375567Y29257797D02*
G01*
X30383678Y29252378D01*
X30389097Y29244267D01*
X30391000Y29234700D01*
X30391000Y28594700D01*
X30389097Y28585133D01*
X30383678Y28577022D01*
X30375567Y28571603D01*
X30366000Y28569700D01*
X28336000Y28569700D01*
X28326433Y28571603D01*
X28318322Y28577022D01*
X28312903Y28585133D01*
X28311000Y28594700D01*
X28311000Y29234700D01*
X28312903Y29244267D01*
X28318322Y29252378D01*
X28326433Y29257797D01*
X28336000Y29259700D01*
X30366000Y29259700D01*
X30375567Y29257797D01*
G37*
G36*
X48173567Y29257797D02*
G01*
X48181678Y29252378D01*
X48187097Y29244267D01*
X48189000Y29234700D01*
X48189000Y28594700D01*
X48187097Y28585133D01*
X48181678Y28577022D01*
X48173567Y28571603D01*
X48164000Y28569700D01*
X46134000Y28569700D01*
X46124433Y28571603D01*
X46116322Y28577022D01*
X46110903Y28585133D01*
X46109000Y28594700D01*
X46109000Y29234700D01*
X46110903Y29244267D01*
X46116322Y29252378D01*
X46124433Y29257797D01*
X46134000Y29259700D01*
X48164000Y29259700D01*
X48173567Y29257797D01*
G37*
G36*
X63695054Y30691380D02*
G01*
X63821742Y30638904D01*
X63935758Y30562721D01*
X64032721Y30465758D01*
X64108904Y30351742D01*
X64161380Y30225054D01*
X64188132Y30090563D01*
X64188132Y29953437D01*
X64161380Y29818946D01*
X64108904Y29692258D01*
X64032721Y29578242D01*
X63935758Y29481279D01*
X63821742Y29405096D01*
X63695054Y29352620D01*
X63560563Y29325868D01*
X63423437Y29325868D01*
X63288946Y29352620D01*
X63162258Y29405096D01*
X63048242Y29481279D01*
X62951279Y29578242D01*
X62875096Y29692258D01*
X62822620Y29818946D01*
X62795868Y29953437D01*
X62795868Y30090563D01*
X62822620Y30225054D01*
X62875096Y30351742D01*
X62951279Y30465758D01*
X63048242Y30562721D01*
X63162258Y30638904D01*
X63288946Y30691380D01*
X63423437Y30718132D01*
X63560563Y30718132D01*
X63695054Y30691380D01*
G37*
G36*
X10101546Y31252203D02*
G01*
X10264728Y31184611D01*
X10411588Y31086482D01*
X10536482Y30961588D01*
X10634611Y30814728D01*
X10702203Y30651546D01*
X10736661Y30478313D01*
X10736661Y30301687D01*
X10702203Y30128454D01*
X10634611Y29965272D01*
X10536482Y29818412D01*
X10411588Y29693518D01*
X10264728Y29595389D01*
X10101546Y29527797D01*
X9928313Y29493339D01*
X9751687Y29493339D01*
X9578454Y29527797D01*
X9415272Y29595389D01*
X9268412Y29693518D01*
X9143518Y29818412D01*
X9045389Y29965272D01*
X8977797Y30128454D01*
X8943339Y30301687D01*
X8943339Y30478313D01*
X8977797Y30651546D01*
X9045389Y30814728D01*
X9143518Y30961588D01*
X9268412Y31086482D01*
X9415272Y31184611D01*
X9578454Y31252203D01*
X9751687Y31286661D01*
X9928313Y31286661D01*
X10101546Y31252203D01*
G37*
G36*
X12641546Y31252203D02*
G01*
X12804728Y31184611D01*
X12951588Y31086482D01*
X13076482Y30961588D01*
X13174611Y30814728D01*
X13242203Y30651546D01*
X13276661Y30478313D01*
X13276661Y30301687D01*
X13242203Y30128454D01*
X13174611Y29965272D01*
X13076482Y29818412D01*
X12951588Y29693518D01*
X12804728Y29595389D01*
X12641546Y29527797D01*
X12468313Y29493339D01*
X12291687Y29493339D01*
X12118454Y29527797D01*
X11955272Y29595389D01*
X11808412Y29693518D01*
X11683518Y29818412D01*
X11585389Y29965272D01*
X11517797Y30128454D01*
X11483339Y30301687D01*
X11483339Y30478313D01*
X11517797Y30651546D01*
X11585389Y30814728D01*
X11683518Y30961588D01*
X11808412Y31086482D01*
X11955272Y31184611D01*
X12118454Y31252203D01*
X12291687Y31286661D01*
X12468313Y31286661D01*
X12641546Y31252203D01*
G37*
G36*
X30375567Y30248397D02*
G01*
X30383678Y30242978D01*
X30389097Y30234867D01*
X30391000Y30225300D01*
X30391000Y29585300D01*
X30389097Y29575733D01*
X30383678Y29567622D01*
X30375567Y29562203D01*
X30366000Y29560300D01*
X28336000Y29560300D01*
X28326433Y29562203D01*
X28318322Y29567622D01*
X28312903Y29575733D01*
X28311000Y29585300D01*
X28311000Y30225300D01*
X28312903Y30234867D01*
X28318322Y30242978D01*
X28326433Y30248397D01*
X28336000Y30250300D01*
X30366000Y30250300D01*
X30375567Y30248397D01*
G37*
G36*
X48173567Y30248397D02*
G01*
X48181678Y30242978D01*
X48187097Y30234867D01*
X48189000Y30225300D01*
X48189000Y29585300D01*
X48187097Y29575733D01*
X48181678Y29567622D01*
X48173567Y29562203D01*
X48164000Y29560300D01*
X46134000Y29560300D01*
X46124433Y29562203D01*
X46116322Y29567622D01*
X46110903Y29575733D01*
X46109000Y29585300D01*
X46109000Y30225300D01*
X46110903Y30234867D01*
X46116322Y30242978D01*
X46124433Y30248397D01*
X46134000Y30250300D01*
X48164000Y30250300D01*
X48173567Y30248397D01*
G37*
G36*
X65473054Y31707380D02*
G01*
X65599742Y31654904D01*
X65713758Y31578721D01*
X65810721Y31481758D01*
X65886904Y31367742D01*
X65939380Y31241054D01*
X65966132Y31106563D01*
X65966132Y30969437D01*
X65939380Y30834946D01*
X65886904Y30708258D01*
X65810721Y30594242D01*
X65713758Y30497279D01*
X65599742Y30421096D01*
X65473054Y30368620D01*
X65338563Y30341868D01*
X65201437Y30341868D01*
X65066946Y30368620D01*
X64940258Y30421096D01*
X64826242Y30497279D01*
X64729279Y30594242D01*
X64653096Y30708258D01*
X64600620Y30834946D01*
X64573868Y30969437D01*
X64573868Y31106563D01*
X64600620Y31241054D01*
X64653096Y31367742D01*
X64729279Y31481758D01*
X64826242Y31578721D01*
X64940258Y31654904D01*
X65066946Y31707380D01*
X65201437Y31734132D01*
X65338563Y31734132D01*
X65473054Y31707380D01*
G37*
G36*
X30375567Y31238997D02*
G01*
X30383678Y31233578D01*
X30389097Y31225467D01*
X30391000Y31215900D01*
X30391000Y30575900D01*
X30389097Y30566333D01*
X30383678Y30558222D01*
X30375567Y30552803D01*
X30366000Y30550900D01*
X28336000Y30550900D01*
X28326433Y30552803D01*
X28318322Y30558222D01*
X28312903Y30566333D01*
X28311000Y30575900D01*
X28311000Y31215900D01*
X28312903Y31225467D01*
X28318322Y31233578D01*
X28326433Y31238997D01*
X28336000Y31240900D01*
X30366000Y31240900D01*
X30375567Y31238997D01*
G37*
G36*
X48173567Y31238997D02*
G01*
X48181678Y31233578D01*
X48187097Y31225467D01*
X48189000Y31215900D01*
X48189000Y30575900D01*
X48187097Y30566333D01*
X48181678Y30558222D01*
X48173567Y30552803D01*
X48164000Y30550900D01*
X46134000Y30550900D01*
X46124433Y30552803D01*
X46116322Y30558222D01*
X46110903Y30566333D01*
X46109000Y30575900D01*
X46109000Y31215900D01*
X46110903Y31225467D01*
X46116322Y31233578D01*
X46124433Y31238997D01*
X46134000Y31240900D01*
X48164000Y31240900D01*
X48173567Y31238997D01*
G37*
G36*
X63695054Y32723380D02*
G01*
X63821742Y32670904D01*
X63935758Y32594721D01*
X64032721Y32497758D01*
X64108904Y32383742D01*
X64161380Y32257054D01*
X64188132Y32122563D01*
X64188132Y31985437D01*
X64161380Y31850946D01*
X64108904Y31724258D01*
X64032721Y31610242D01*
X63935758Y31513279D01*
X63821742Y31437096D01*
X63695054Y31384620D01*
X63560563Y31357868D01*
X63423437Y31357868D01*
X63288946Y31384620D01*
X63162258Y31437096D01*
X63048242Y31513279D01*
X62951279Y31610242D01*
X62875096Y31724258D01*
X62822620Y31850946D01*
X62795868Y31985437D01*
X62795868Y32122563D01*
X62822620Y32257054D01*
X62875096Y32383742D01*
X62951279Y32497758D01*
X63048242Y32594721D01*
X63162258Y32670904D01*
X63288946Y32723380D01*
X63423437Y32750132D01*
X63560563Y32750132D01*
X63695054Y32723380D01*
G37*
G36*
X25703538Y32267810D02*
G01*
X25735837Y32263558D01*
X25743962Y32259769D01*
X25763463Y32255890D01*
X25789295Y32238630D01*
X25800248Y32233522D01*
X25806910Y32226860D01*
X25827861Y32212861D01*
X25841859Y32191911D01*
X25848521Y32185249D01*
X25853627Y32174299D01*
X25870890Y32148463D01*
X25874769Y32128961D01*
X25878557Y32120838D01*
X25882807Y32088550D01*
X25886000Y32072500D01*
X25886000Y31727500D01*
X25882806Y31711448D01*
X25878557Y31679163D01*
X25874769Y31671042D01*
X25870890Y31651537D01*
X25853625Y31625700D01*
X25848521Y31614752D01*
X25841861Y31608093D01*
X25827861Y31587139D01*
X25806907Y31573139D01*
X25800248Y31566479D01*
X25789300Y31561375D01*
X25763463Y31544110D01*
X25743958Y31540231D01*
X25735837Y31536443D01*
X25703551Y31532193D01*
X25687500Y31529000D01*
X25392500Y31529000D01*
X25376449Y31532193D01*
X25344162Y31536443D01*
X25336039Y31540231D01*
X25316537Y31544110D01*
X25290701Y31561373D01*
X25279751Y31566479D01*
X25273089Y31573141D01*
X25252139Y31587139D01*
X25238140Y31608090D01*
X25231478Y31614752D01*
X25226370Y31625705D01*
X25209110Y31651537D01*
X25205231Y31671038D01*
X25201442Y31679163D01*
X25197189Y31711464D01*
X25194000Y31727500D01*
X25194000Y32072500D01*
X25197189Y32088537D01*
X25201442Y32120838D01*
X25205231Y32128965D01*
X25209110Y32148463D01*
X25226369Y32174294D01*
X25231478Y32185249D01*
X25238142Y32191914D01*
X25252139Y32212861D01*
X25273086Y32226858D01*
X25279751Y32233522D01*
X25290706Y32238631D01*
X25316537Y32255890D01*
X25336035Y32259769D01*
X25344162Y32263558D01*
X25376465Y32267811D01*
X25392500Y32271000D01*
X25687500Y32271000D01*
X25703538Y32267810D01*
G37*
G36*
X26673538Y32267810D02*
G01*
X26705837Y32263558D01*
X26713962Y32259769D01*
X26733463Y32255890D01*
X26759295Y32238630D01*
X26770248Y32233522D01*
X26776910Y32226860D01*
X26797861Y32212861D01*
X26811859Y32191911D01*
X26818521Y32185249D01*
X26823627Y32174299D01*
X26840890Y32148463D01*
X26844769Y32128961D01*
X26848557Y32120838D01*
X26852807Y32088550D01*
X26856000Y32072500D01*
X26856000Y31727500D01*
X26852806Y31711448D01*
X26848557Y31679163D01*
X26844769Y31671042D01*
X26840890Y31651537D01*
X26823625Y31625700D01*
X26818521Y31614752D01*
X26811861Y31608093D01*
X26797861Y31587139D01*
X26776907Y31573139D01*
X26770248Y31566479D01*
X26759300Y31561375D01*
X26733463Y31544110D01*
X26713958Y31540231D01*
X26705837Y31536443D01*
X26673551Y31532193D01*
X26657500Y31529000D01*
X26362500Y31529000D01*
X26346449Y31532193D01*
X26314162Y31536443D01*
X26306039Y31540231D01*
X26286537Y31544110D01*
X26260701Y31561373D01*
X26249751Y31566479D01*
X26243089Y31573141D01*
X26222139Y31587139D01*
X26208140Y31608090D01*
X26201478Y31614752D01*
X26196370Y31625705D01*
X26179110Y31651537D01*
X26175231Y31671038D01*
X26171442Y31679163D01*
X26167189Y31711464D01*
X26164000Y31727500D01*
X26164000Y32072500D01*
X26167189Y32088537D01*
X26171442Y32120838D01*
X26175231Y32128965D01*
X26179110Y32148463D01*
X26196369Y32174294D01*
X26201478Y32185249D01*
X26208142Y32191914D01*
X26222139Y32212861D01*
X26243086Y32226858D01*
X26249751Y32233522D01*
X26260706Y32238631D01*
X26286537Y32255890D01*
X26306035Y32259769D01*
X26314162Y32263558D01*
X26346465Y32267811D01*
X26362500Y32271000D01*
X26657500Y32271000D01*
X26673538Y32267810D01*
G37*
G36*
X50738538Y32267810D02*
G01*
X50770837Y32263558D01*
X50778962Y32259769D01*
X50798463Y32255890D01*
X50824295Y32238630D01*
X50835248Y32233522D01*
X50841910Y32226860D01*
X50862861Y32212861D01*
X50876859Y32191911D01*
X50883521Y32185249D01*
X50888627Y32174299D01*
X50905890Y32148463D01*
X50909769Y32128961D01*
X50913557Y32120838D01*
X50917807Y32088550D01*
X50921000Y32072500D01*
X50921000Y31727500D01*
X50917806Y31711448D01*
X50913557Y31679163D01*
X50909769Y31671042D01*
X50905890Y31651537D01*
X50888625Y31625700D01*
X50883521Y31614752D01*
X50876861Y31608093D01*
X50862861Y31587139D01*
X50841907Y31573139D01*
X50835248Y31566479D01*
X50824300Y31561375D01*
X50798463Y31544110D01*
X50778958Y31540231D01*
X50770837Y31536443D01*
X50738551Y31532193D01*
X50722500Y31529000D01*
X50427500Y31529000D01*
X50411449Y31532193D01*
X50379162Y31536443D01*
X50371039Y31540231D01*
X50351537Y31544110D01*
X50325701Y31561373D01*
X50314751Y31566479D01*
X50308089Y31573141D01*
X50287139Y31587139D01*
X50273140Y31608090D01*
X50266478Y31614752D01*
X50261370Y31625705D01*
X50244110Y31651537D01*
X50240231Y31671038D01*
X50236442Y31679163D01*
X50232189Y31711464D01*
X50229000Y31727500D01*
X50229000Y32072500D01*
X50232189Y32088537D01*
X50236442Y32120838D01*
X50240231Y32128965D01*
X50244110Y32148463D01*
X50261369Y32174294D01*
X50266478Y32185249D01*
X50273142Y32191914D01*
X50287139Y32212861D01*
X50308086Y32226858D01*
X50314751Y32233522D01*
X50325706Y32238631D01*
X50351537Y32255890D01*
X50371035Y32259769D01*
X50379162Y32263558D01*
X50411465Y32267811D01*
X50427500Y32271000D01*
X50722500Y32271000D01*
X50738538Y32267810D01*
G37*
G36*
X51708538Y32267810D02*
G01*
X51740837Y32263558D01*
X51748962Y32259769D01*
X51768463Y32255890D01*
X51794295Y32238630D01*
X51805248Y32233522D01*
X51811910Y32226860D01*
X51832861Y32212861D01*
X51846859Y32191911D01*
X51853521Y32185249D01*
X51858627Y32174299D01*
X51875890Y32148463D01*
X51879769Y32128961D01*
X51883557Y32120838D01*
X51887807Y32088550D01*
X51891000Y32072500D01*
X51891000Y31727500D01*
X51887806Y31711448D01*
X51883557Y31679163D01*
X51879769Y31671042D01*
X51875890Y31651537D01*
X51858625Y31625700D01*
X51853521Y31614752D01*
X51846861Y31608093D01*
X51832861Y31587139D01*
X51811907Y31573139D01*
X51805248Y31566479D01*
X51794300Y31561375D01*
X51768463Y31544110D01*
X51748958Y31540231D01*
X51740837Y31536443D01*
X51708551Y31532193D01*
X51692500Y31529000D01*
X51397500Y31529000D01*
X51381449Y31532193D01*
X51349162Y31536443D01*
X51341039Y31540231D01*
X51321537Y31544110D01*
X51295701Y31561373D01*
X51284751Y31566479D01*
X51278089Y31573141D01*
X51257139Y31587139D01*
X51243140Y31608090D01*
X51236478Y31614752D01*
X51231370Y31625705D01*
X51214110Y31651537D01*
X51210231Y31671038D01*
X51206442Y31679163D01*
X51202189Y31711464D01*
X51199000Y31727500D01*
X51199000Y32072500D01*
X51202189Y32088537D01*
X51206442Y32120838D01*
X51210231Y32128965D01*
X51214110Y32148463D01*
X51231369Y32174294D01*
X51236478Y32185249D01*
X51243142Y32191914D01*
X51257139Y32212861D01*
X51278086Y32226858D01*
X51284751Y32233522D01*
X51295706Y32238631D01*
X51321537Y32255890D01*
X51341035Y32259769D01*
X51349162Y32263558D01*
X51381465Y32267811D01*
X51397500Y32271000D01*
X51692500Y32271000D01*
X51708538Y32267810D01*
G37*
G36*
X30375567Y32229597D02*
G01*
X30383678Y32224178D01*
X30389097Y32216067D01*
X30391000Y32206500D01*
X30391000Y31566500D01*
X30389097Y31556933D01*
X30383678Y31548822D01*
X30375567Y31543403D01*
X30366000Y31541500D01*
X28336000Y31541500D01*
X28326433Y31543403D01*
X28318322Y31548822D01*
X28312903Y31556933D01*
X28311000Y31566500D01*
X28311000Y32206500D01*
X28312903Y32216067D01*
X28318322Y32224178D01*
X28326433Y32229597D01*
X28336000Y32231500D01*
X30366000Y32231500D01*
X30375567Y32229597D01*
G37*
G36*
X48173567Y32229597D02*
G01*
X48181678Y32224178D01*
X48187097Y32216067D01*
X48189000Y32206500D01*
X48189000Y31566500D01*
X48187097Y31556933D01*
X48181678Y31548822D01*
X48173567Y31543403D01*
X48164000Y31541500D01*
X46134000Y31541500D01*
X46124433Y31543403D01*
X46116322Y31548822D01*
X46110903Y31556933D01*
X46109000Y31566500D01*
X46109000Y32206500D01*
X46110903Y32216067D01*
X46116322Y32224178D01*
X46124433Y32229597D01*
X46134000Y32231500D01*
X48164000Y32231500D01*
X48173567Y32229597D01*
G37*
G36*
X10101546Y33792203D02*
G01*
X10264728Y33724611D01*
X10411588Y33626482D01*
X10536482Y33501588D01*
X10634611Y33354728D01*
X10702203Y33191546D01*
X10736661Y33018313D01*
X10736661Y32841687D01*
X10702203Y32668454D01*
X10634611Y32505272D01*
X10536482Y32358412D01*
X10411588Y32233518D01*
X10264728Y32135389D01*
X10101546Y32067797D01*
X9928313Y32033339D01*
X9751687Y32033339D01*
X9578454Y32067797D01*
X9415272Y32135389D01*
X9268412Y32233518D01*
X9143518Y32358412D01*
X9045389Y32505272D01*
X8977797Y32668454D01*
X8943339Y32841687D01*
X8943339Y33018313D01*
X8977797Y33191546D01*
X9045389Y33354728D01*
X9143518Y33501588D01*
X9268412Y33626482D01*
X9415272Y33724611D01*
X9578454Y33792203D01*
X9751687Y33826661D01*
X9928313Y33826661D01*
X10101546Y33792203D01*
G37*
G36*
X12641546Y33792203D02*
G01*
X12804728Y33724611D01*
X12951588Y33626482D01*
X13076482Y33501588D01*
X13174611Y33354728D01*
X13242203Y33191546D01*
X13276661Y33018313D01*
X13276661Y32841687D01*
X13242203Y32668454D01*
X13174611Y32505272D01*
X13076482Y32358412D01*
X12951588Y32233518D01*
X12804728Y32135389D01*
X12641546Y32067797D01*
X12468313Y32033339D01*
X12291687Y32033339D01*
X12118454Y32067797D01*
X11955272Y32135389D01*
X11808412Y32233518D01*
X11683518Y32358412D01*
X11585389Y32505272D01*
X11517797Y32668454D01*
X11483339Y32841687D01*
X11483339Y33018313D01*
X11517797Y33191546D01*
X11585389Y33354728D01*
X11683518Y33501588D01*
X11808412Y33626482D01*
X11955272Y33724611D01*
X12118454Y33792203D01*
X12291687Y33826661D01*
X12468313Y33826661D01*
X12641546Y33792203D01*
G37*
G36*
X65473054Y33739380D02*
G01*
X65599742Y33686904D01*
X65713758Y33610721D01*
X65810721Y33513758D01*
X65886904Y33399742D01*
X65939380Y33273054D01*
X65966132Y33138563D01*
X65966132Y33001437D01*
X65939380Y32866946D01*
X65886904Y32740258D01*
X65810721Y32626242D01*
X65713758Y32529279D01*
X65599742Y32453096D01*
X65473054Y32400620D01*
X65338563Y32373868D01*
X65201437Y32373868D01*
X65066946Y32400620D01*
X64940258Y32453096D01*
X64826242Y32529279D01*
X64729279Y32626242D01*
X64653096Y32740258D01*
X64600620Y32866946D01*
X64573868Y33001437D01*
X64573868Y33138563D01*
X64600620Y33273054D01*
X64653096Y33399742D01*
X64729279Y33513758D01*
X64826242Y33610721D01*
X64940258Y33686904D01*
X65066946Y33739380D01*
X65201437Y33766132D01*
X65338563Y33766132D01*
X65473054Y33739380D01*
G37*
G36*
X30375567Y33220197D02*
G01*
X30383678Y33214778D01*
X30389097Y33206667D01*
X30391000Y33197100D01*
X30391000Y32557100D01*
X30389097Y32547533D01*
X30383678Y32539422D01*
X30375567Y32534003D01*
X30366000Y32532100D01*
X28336000Y32532100D01*
X28326433Y32534003D01*
X28318322Y32539422D01*
X28312903Y32547533D01*
X28311000Y32557100D01*
X28311000Y33197100D01*
X28312903Y33206667D01*
X28318322Y33214778D01*
X28326433Y33220197D01*
X28336000Y33222100D01*
X30366000Y33222100D01*
X30375567Y33220197D01*
G37*
G36*
X48173567Y33220197D02*
G01*
X48181678Y33214778D01*
X48187097Y33206667D01*
X48189000Y33197100D01*
X48189000Y32557100D01*
X48187097Y32547533D01*
X48181678Y32539422D01*
X48173567Y32534003D01*
X48164000Y32532100D01*
X46134000Y32532100D01*
X46124433Y32534003D01*
X46116322Y32539422D01*
X46110903Y32547533D01*
X46109000Y32557100D01*
X46109000Y33197100D01*
X46110903Y33206667D01*
X46116322Y33214778D01*
X46124433Y33220197D01*
X46134000Y33222100D01*
X48164000Y33222100D01*
X48173567Y33220197D01*
G37*
G36*
X30375567Y34210797D02*
G01*
X30383678Y34205378D01*
X30389097Y34197267D01*
X30391000Y34187700D01*
X30391000Y33547700D01*
X30389097Y33538133D01*
X30383678Y33530022D01*
X30375567Y33524603D01*
X30366000Y33522700D01*
X28336000Y33522700D01*
X28326433Y33524603D01*
X28318322Y33530022D01*
X28312903Y33538133D01*
X28311000Y33547700D01*
X28311000Y34187700D01*
X28312903Y34197267D01*
X28318322Y34205378D01*
X28326433Y34210797D01*
X28336000Y34212700D01*
X30366000Y34212700D01*
X30375567Y34210797D01*
G37*
G36*
X48173567Y34210797D02*
G01*
X48181678Y34205378D01*
X48187097Y34197267D01*
X48189000Y34187700D01*
X48189000Y33547700D01*
X48187097Y33538133D01*
X48181678Y33530022D01*
X48173567Y33524603D01*
X48164000Y33522700D01*
X46134000Y33522700D01*
X46124433Y33524603D01*
X46116322Y33530022D01*
X46110903Y33538133D01*
X46109000Y33547700D01*
X46109000Y34187700D01*
X46110903Y34197267D01*
X46116322Y34205378D01*
X46124433Y34210797D01*
X46134000Y34212700D01*
X48164000Y34212700D01*
X48173567Y34210797D01*
G37*
G36*
X68137088Y37508385D02*
G01*
X68348925Y37451623D01*
X68551541Y37367697D01*
X68741469Y37258042D01*
X68915459Y37124535D01*
X69070535Y36969459D01*
X69204042Y36795469D01*
X69313697Y36605541D01*
X69397623Y36402925D01*
X69454385Y36191088D01*
X69483010Y35973655D01*
X69483010Y35754345D01*
X69454385Y35536912D01*
X69397623Y35325075D01*
X69313697Y35122459D01*
X69204042Y34932531D01*
X69070535Y34758541D01*
X68915459Y34603465D01*
X68741469Y34469958D01*
X68551541Y34360303D01*
X68348925Y34276377D01*
X68137088Y34219615D01*
X67919655Y34190990D01*
X67700345Y34190990D01*
X67482912Y34219615D01*
X67271075Y34276377D01*
X67068459Y34360303D01*
X66878531Y34469958D01*
X66704541Y34603465D01*
X66549465Y34758541D01*
X66415958Y34932531D01*
X66306303Y35122459D01*
X66222377Y35325075D01*
X66165615Y35536912D01*
X66136990Y35754345D01*
X66136990Y35973655D01*
X66165615Y36191088D01*
X66222377Y36402925D01*
X66306303Y36605541D01*
X66415958Y36795469D01*
X66549465Y36969459D01*
X66704541Y37124535D01*
X66878531Y37258042D01*
X67068459Y37367697D01*
X67271075Y37451623D01*
X67482912Y37508385D01*
X67700345Y37537010D01*
X67919655Y37537010D01*
X68137088Y37508385D01*
G37*
G36*
X50698538Y35247810D02*
G01*
X50730837Y35243558D01*
X50738962Y35239769D01*
X50758463Y35235890D01*
X50784295Y35218630D01*
X50795248Y35213522D01*
X50801910Y35206860D01*
X50822861Y35192861D01*
X50836859Y35171911D01*
X50843521Y35165249D01*
X50848627Y35154299D01*
X50865890Y35128463D01*
X50869769Y35108961D01*
X50873557Y35100838D01*
X50877807Y35068550D01*
X50881000Y35052500D01*
X50881000Y34707500D01*
X50877806Y34691448D01*
X50873557Y34659163D01*
X50869769Y34651042D01*
X50865890Y34631537D01*
X50848625Y34605700D01*
X50843521Y34594752D01*
X50836861Y34588093D01*
X50822861Y34567139D01*
X50801907Y34553139D01*
X50795248Y34546479D01*
X50784300Y34541375D01*
X50758463Y34524110D01*
X50738958Y34520231D01*
X50730837Y34516443D01*
X50698551Y34512193D01*
X50682500Y34509000D01*
X50387500Y34509000D01*
X50371449Y34512193D01*
X50339162Y34516443D01*
X50331039Y34520231D01*
X50311537Y34524110D01*
X50285701Y34541373D01*
X50274751Y34546479D01*
X50268089Y34553141D01*
X50247139Y34567139D01*
X50233140Y34588090D01*
X50226478Y34594752D01*
X50221370Y34605705D01*
X50204110Y34631537D01*
X50200231Y34651038D01*
X50196442Y34659163D01*
X50192189Y34691464D01*
X50189000Y34707500D01*
X50189000Y35052500D01*
X50192189Y35068537D01*
X50196442Y35100838D01*
X50200231Y35108965D01*
X50204110Y35128463D01*
X50221369Y35154294D01*
X50226478Y35165249D01*
X50233142Y35171914D01*
X50247139Y35192861D01*
X50268086Y35206858D01*
X50274751Y35213522D01*
X50285706Y35218631D01*
X50311537Y35235890D01*
X50331035Y35239769D01*
X50339162Y35243558D01*
X50371465Y35247811D01*
X50387500Y35251000D01*
X50682500Y35251000D01*
X50698538Y35247810D01*
G37*
G36*
X51668538Y35247810D02*
G01*
X51700837Y35243558D01*
X51708962Y35239769D01*
X51728463Y35235890D01*
X51754295Y35218630D01*
X51765248Y35213522D01*
X51771910Y35206860D01*
X51792861Y35192861D01*
X51806859Y35171911D01*
X51813521Y35165249D01*
X51818627Y35154299D01*
X51835890Y35128463D01*
X51839769Y35108961D01*
X51843557Y35100838D01*
X51847807Y35068550D01*
X51851000Y35052500D01*
X51851000Y34707500D01*
X51847806Y34691448D01*
X51843557Y34659163D01*
X51839769Y34651042D01*
X51835890Y34631537D01*
X51818625Y34605700D01*
X51813521Y34594752D01*
X51806861Y34588093D01*
X51792861Y34567139D01*
X51771907Y34553139D01*
X51765248Y34546479D01*
X51754300Y34541375D01*
X51728463Y34524110D01*
X51708958Y34520231D01*
X51700837Y34516443D01*
X51668551Y34512193D01*
X51652500Y34509000D01*
X51357500Y34509000D01*
X51341449Y34512193D01*
X51309162Y34516443D01*
X51301039Y34520231D01*
X51281537Y34524110D01*
X51255701Y34541373D01*
X51244751Y34546479D01*
X51238089Y34553141D01*
X51217139Y34567139D01*
X51203140Y34588090D01*
X51196478Y34594752D01*
X51191370Y34605705D01*
X51174110Y34631537D01*
X51170231Y34651038D01*
X51166442Y34659163D01*
X51162189Y34691464D01*
X51159000Y34707500D01*
X51159000Y35052500D01*
X51162189Y35068537D01*
X51166442Y35100838D01*
X51170231Y35108965D01*
X51174110Y35128463D01*
X51191369Y35154294D01*
X51196478Y35165249D01*
X51203142Y35171914D01*
X51217139Y35192861D01*
X51238086Y35206858D01*
X51244751Y35213522D01*
X51255706Y35218631D01*
X51281537Y35235890D01*
X51301035Y35239769D01*
X51309162Y35243558D01*
X51341465Y35247811D01*
X51357500Y35251000D01*
X51652500Y35251000D01*
X51668538Y35247810D01*
G37*
G36*
X30375567Y35201397D02*
G01*
X30383678Y35195978D01*
X30389097Y35187867D01*
X30391000Y35178300D01*
X30391000Y34538300D01*
X30389097Y34528733D01*
X30383678Y34520622D01*
X30375567Y34515203D01*
X30366000Y34513300D01*
X28336000Y34513300D01*
X28326433Y34515203D01*
X28318322Y34520622D01*
X28312903Y34528733D01*
X28311000Y34538300D01*
X28311000Y35178300D01*
X28312903Y35187867D01*
X28318322Y35195978D01*
X28326433Y35201397D01*
X28336000Y35203300D01*
X30366000Y35203300D01*
X30375567Y35201397D01*
G37*
G36*
X48173567Y35201397D02*
G01*
X48181678Y35195978D01*
X48187097Y35187867D01*
X48189000Y35178300D01*
X48189000Y34538300D01*
X48187097Y34528733D01*
X48181678Y34520622D01*
X48173567Y34515203D01*
X48164000Y34513300D01*
X46134000Y34513300D01*
X46124433Y34515203D01*
X46116322Y34520622D01*
X46110903Y34528733D01*
X46109000Y34538300D01*
X46109000Y35178300D01*
X46110903Y35187867D01*
X46116322Y35195978D01*
X46124433Y35201397D01*
X46134000Y35203300D01*
X48164000Y35203300D01*
X48173567Y35201397D01*
G37*
G36*
X25688538Y35257810D02*
G01*
X25720837Y35253558D01*
X25728962Y35249769D01*
X25748463Y35245890D01*
X25774295Y35228630D01*
X25785248Y35223522D01*
X25791910Y35216860D01*
X25812861Y35202861D01*
X25826859Y35181911D01*
X25833521Y35175249D01*
X25838627Y35164299D01*
X25855890Y35138463D01*
X25859769Y35118961D01*
X25863557Y35110838D01*
X25867807Y35078550D01*
X25871000Y35062500D01*
X25871000Y34717500D01*
X25867806Y34701448D01*
X25863557Y34669163D01*
X25859769Y34661042D01*
X25855890Y34641537D01*
X25838625Y34615700D01*
X25833521Y34604752D01*
X25826861Y34598093D01*
X25812861Y34577139D01*
X25791907Y34563139D01*
X25785248Y34556479D01*
X25774300Y34551375D01*
X25748463Y34534110D01*
X25728958Y34530231D01*
X25720837Y34526443D01*
X25688551Y34522193D01*
X25672500Y34519000D01*
X25377500Y34519000D01*
X25361449Y34522193D01*
X25329162Y34526443D01*
X25321039Y34530231D01*
X25301537Y34534110D01*
X25275701Y34551373D01*
X25264751Y34556479D01*
X25258089Y34563141D01*
X25237139Y34577139D01*
X25223140Y34598090D01*
X25216478Y34604752D01*
X25211370Y34615705D01*
X25194110Y34641537D01*
X25190231Y34661038D01*
X25186442Y34669163D01*
X25182189Y34701464D01*
X25179000Y34717500D01*
X25179000Y35062500D01*
X25182189Y35078537D01*
X25186442Y35110838D01*
X25190231Y35118965D01*
X25194110Y35138463D01*
X25211369Y35164294D01*
X25216478Y35175249D01*
X25223142Y35181914D01*
X25237139Y35202861D01*
X25258086Y35216858D01*
X25264751Y35223522D01*
X25275706Y35228631D01*
X25301537Y35245890D01*
X25321035Y35249769D01*
X25329162Y35253558D01*
X25361465Y35257811D01*
X25377500Y35261000D01*
X25672500Y35261000D01*
X25688538Y35257810D01*
G37*
G36*
X26658538Y35257810D02*
G01*
X26690837Y35253558D01*
X26698962Y35249769D01*
X26718463Y35245890D01*
X26744295Y35228630D01*
X26755248Y35223522D01*
X26761910Y35216860D01*
X26782861Y35202861D01*
X26796859Y35181911D01*
X26803521Y35175249D01*
X26808627Y35164299D01*
X26825890Y35138463D01*
X26829769Y35118961D01*
X26833557Y35110838D01*
X26837807Y35078550D01*
X26841000Y35062500D01*
X26841000Y34717500D01*
X26837806Y34701448D01*
X26833557Y34669163D01*
X26829769Y34661042D01*
X26825890Y34641537D01*
X26808625Y34615700D01*
X26803521Y34604752D01*
X26796861Y34598093D01*
X26782861Y34577139D01*
X26761907Y34563139D01*
X26755248Y34556479D01*
X26744300Y34551375D01*
X26718463Y34534110D01*
X26698958Y34530231D01*
X26690837Y34526443D01*
X26658551Y34522193D01*
X26642500Y34519000D01*
X26347500Y34519000D01*
X26331449Y34522193D01*
X26299162Y34526443D01*
X26291039Y34530231D01*
X26271537Y34534110D01*
X26245701Y34551373D01*
X26234751Y34556479D01*
X26228089Y34563141D01*
X26207139Y34577139D01*
X26193140Y34598090D01*
X26186478Y34604752D01*
X26181370Y34615705D01*
X26164110Y34641537D01*
X26160231Y34661038D01*
X26156442Y34669163D01*
X26152189Y34701464D01*
X26149000Y34717500D01*
X26149000Y35062500D01*
X26152189Y35078537D01*
X26156442Y35110838D01*
X26160231Y35118965D01*
X26164110Y35138463D01*
X26181369Y35164294D01*
X26186478Y35175249D01*
X26193142Y35181914D01*
X26207139Y35202861D01*
X26228086Y35216858D01*
X26234751Y35223522D01*
X26245706Y35228631D01*
X26271537Y35245890D01*
X26291035Y35249769D01*
X26299162Y35253558D01*
X26331465Y35257811D01*
X26347500Y35261000D01*
X26642500Y35261000D01*
X26658538Y35257810D01*
G37*
G36*
X10101546Y36332203D02*
G01*
X10264728Y36264611D01*
X10411588Y36166482D01*
X10536482Y36041588D01*
X10634611Y35894728D01*
X10702203Y35731546D01*
X10736661Y35558313D01*
X10736661Y35381687D01*
X10702203Y35208454D01*
X10634611Y35045272D01*
X10536482Y34898412D01*
X10411588Y34773518D01*
X10264728Y34675389D01*
X10101546Y34607797D01*
X9928313Y34573339D01*
X9751687Y34573339D01*
X9578454Y34607797D01*
X9415272Y34675389D01*
X9268412Y34773518D01*
X9143518Y34898412D01*
X9045389Y35045272D01*
X8977797Y35208454D01*
X8943339Y35381687D01*
X8943339Y35558313D01*
X8977797Y35731546D01*
X9045389Y35894728D01*
X9143518Y36041588D01*
X9268412Y36166482D01*
X9415272Y36264611D01*
X9578454Y36332203D01*
X9751687Y36366661D01*
X9928313Y36366661D01*
X10101546Y36332203D01*
G37*
G36*
X12641546Y36332203D02*
G01*
X12804728Y36264611D01*
X12951588Y36166482D01*
X13076482Y36041588D01*
X13174611Y35894728D01*
X13242203Y35731546D01*
X13276661Y35558313D01*
X13276661Y35381687D01*
X13242203Y35208454D01*
X13174611Y35045272D01*
X13076482Y34898412D01*
X12951588Y34773518D01*
X12804728Y34675389D01*
X12641546Y34607797D01*
X12468313Y34573339D01*
X12291687Y34573339D01*
X12118454Y34607797D01*
X11955272Y34675389D01*
X11808412Y34773518D01*
X11683518Y34898412D01*
X11585389Y35045272D01*
X11517797Y35208454D01*
X11483339Y35381687D01*
X11483339Y35558313D01*
X11517797Y35731546D01*
X11585389Y35894728D01*
X11683518Y36041588D01*
X11808412Y36166482D01*
X11955272Y36264611D01*
X12118454Y36332203D01*
X12291687Y36366661D01*
X12468313Y36366661D01*
X12641546Y36332203D01*
G37*
G36*
X53318538Y36367810D02*
G01*
X53350837Y36363558D01*
X53358962Y36359769D01*
X53378463Y36355890D01*
X53404295Y36338630D01*
X53415248Y36333522D01*
X53421910Y36326860D01*
X53442861Y36312861D01*
X53456859Y36291911D01*
X53463521Y36285249D01*
X53468627Y36274299D01*
X53485890Y36248463D01*
X53489769Y36228961D01*
X53493557Y36220838D01*
X53497807Y36188550D01*
X53501000Y36172500D01*
X53501000Y35827500D01*
X53497806Y35811448D01*
X53493557Y35779163D01*
X53489769Y35771042D01*
X53485890Y35751537D01*
X53468625Y35725700D01*
X53463521Y35714752D01*
X53456861Y35708093D01*
X53442861Y35687139D01*
X53421907Y35673139D01*
X53415248Y35666479D01*
X53404300Y35661375D01*
X53378463Y35644110D01*
X53358958Y35640231D01*
X53350837Y35636443D01*
X53318551Y35632193D01*
X53302500Y35629000D01*
X53007500Y35629000D01*
X52991449Y35632193D01*
X52959162Y35636443D01*
X52951039Y35640231D01*
X52931537Y35644110D01*
X52905701Y35661373D01*
X52894751Y35666479D01*
X52888089Y35673141D01*
X52867139Y35687139D01*
X52853140Y35708090D01*
X52846478Y35714752D01*
X52841370Y35725705D01*
X52824110Y35751537D01*
X52820231Y35771038D01*
X52816442Y35779163D01*
X52812189Y35811464D01*
X52809000Y35827500D01*
X52809000Y36172500D01*
X52812189Y36188537D01*
X52816442Y36220838D01*
X52820231Y36228965D01*
X52824110Y36248463D01*
X52841369Y36274294D01*
X52846478Y36285249D01*
X52853142Y36291914D01*
X52867139Y36312861D01*
X52888086Y36326858D01*
X52894751Y36333522D01*
X52905706Y36338631D01*
X52931537Y36355890D01*
X52951035Y36359769D01*
X52959162Y36363558D01*
X52991465Y36367811D01*
X53007500Y36371000D01*
X53302500Y36371000D01*
X53318538Y36367810D01*
G37*
G36*
X54288538Y36367810D02*
G01*
X54320837Y36363558D01*
X54328962Y36359769D01*
X54348463Y36355890D01*
X54374295Y36338630D01*
X54385248Y36333522D01*
X54391910Y36326860D01*
X54412861Y36312861D01*
X54426859Y36291911D01*
X54433521Y36285249D01*
X54438627Y36274299D01*
X54455890Y36248463D01*
X54459769Y36228961D01*
X54463557Y36220838D01*
X54467807Y36188550D01*
X54471000Y36172500D01*
X54471000Y35827500D01*
X54467806Y35811448D01*
X54463557Y35779163D01*
X54459769Y35771042D01*
X54455890Y35751537D01*
X54438625Y35725700D01*
X54433521Y35714752D01*
X54426861Y35708093D01*
X54412861Y35687139D01*
X54391907Y35673139D01*
X54385248Y35666479D01*
X54374300Y35661375D01*
X54348463Y35644110D01*
X54328958Y35640231D01*
X54320837Y35636443D01*
X54288551Y35632193D01*
X54272500Y35629000D01*
X53977500Y35629000D01*
X53961449Y35632193D01*
X53929162Y35636443D01*
X53921039Y35640231D01*
X53901537Y35644110D01*
X53875701Y35661373D01*
X53864751Y35666479D01*
X53858089Y35673141D01*
X53837139Y35687139D01*
X53823140Y35708090D01*
X53816478Y35714752D01*
X53811370Y35725705D01*
X53794110Y35751537D01*
X53790231Y35771038D01*
X53786442Y35779163D01*
X53782189Y35811464D01*
X53779000Y35827500D01*
X53779000Y36172500D01*
X53782189Y36188537D01*
X53786442Y36220838D01*
X53790231Y36228965D01*
X53794110Y36248463D01*
X53811369Y36274294D01*
X53816478Y36285249D01*
X53823142Y36291914D01*
X53837139Y36312861D01*
X53858086Y36326858D01*
X53864751Y36333522D01*
X53875706Y36338631D01*
X53901537Y36355890D01*
X53921035Y36359769D01*
X53929162Y36363558D01*
X53961465Y36367811D01*
X53977500Y36371000D01*
X54272500Y36371000D01*
X54288538Y36367810D01*
G37*
G36*
X64636016Y38704217D02*
G01*
X64799043Y38651246D01*
X64951777Y38573424D01*
X65090457Y38472667D01*
X65211667Y38351457D01*
X65312424Y38212777D01*
X65390246Y38060043D01*
X65443217Y37897016D01*
X65470032Y37727709D01*
X65470032Y37556291D01*
X65443217Y37386984D01*
X65390246Y37223957D01*
X65312424Y37071223D01*
X65211667Y36932543D01*
X65090457Y36811333D01*
X64951777Y36710576D01*
X64799043Y36632754D01*
X64636016Y36579783D01*
X64466709Y36552968D01*
X64295291Y36552968D01*
X64125984Y36579783D01*
X63962957Y36632754D01*
X63810223Y36710576D01*
X63671543Y36811333D01*
X63550333Y36932543D01*
X63449576Y37071223D01*
X63371754Y37223957D01*
X63318783Y37386984D01*
X63291968Y37556291D01*
X63291968Y37727709D01*
X63318783Y37897016D01*
X63371754Y38060043D01*
X63449576Y38212777D01*
X63550333Y38351457D01*
X63671543Y38472667D01*
X63810223Y38573424D01*
X63962957Y38651246D01*
X64125984Y38704217D01*
X64295291Y38731032D01*
X64466709Y38731032D01*
X64636016Y38704217D01*
G37*
G36*
X10101546Y38872203D02*
G01*
X10264728Y38804611D01*
X10411588Y38706482D01*
X10536482Y38581588D01*
X10634611Y38434728D01*
X10702203Y38271546D01*
X10736661Y38098313D01*
X10736661Y37921687D01*
X10702203Y37748454D01*
X10634611Y37585272D01*
X10536482Y37438412D01*
X10411588Y37313518D01*
X10264728Y37215389D01*
X10101546Y37147797D01*
X9928313Y37113339D01*
X9751687Y37113339D01*
X9578454Y37147797D01*
X9415272Y37215389D01*
X9268412Y37313518D01*
X9143518Y37438412D01*
X9045389Y37585272D01*
X8977797Y37748454D01*
X8943339Y37921687D01*
X8943339Y38098313D01*
X8977797Y38271546D01*
X9045389Y38434728D01*
X9143518Y38581588D01*
X9268412Y38706482D01*
X9415272Y38804611D01*
X9578454Y38872203D01*
X9751687Y38906661D01*
X9928313Y38906661D01*
X10101546Y38872203D01*
G37*
G36*
X12641546Y38872203D02*
G01*
X12804728Y38804611D01*
X12951588Y38706482D01*
X13076482Y38581588D01*
X13174611Y38434728D01*
X13242203Y38271546D01*
X13276661Y38098313D01*
X13276661Y37921687D01*
X13242203Y37748454D01*
X13174611Y37585272D01*
X13076482Y37438412D01*
X12951588Y37313518D01*
X12804728Y37215389D01*
X12641546Y37147797D01*
X12468313Y37113339D01*
X12291687Y37113339D01*
X12118454Y37147797D01*
X11955272Y37215389D01*
X11808412Y37313518D01*
X11683518Y37438412D01*
X11585389Y37585272D01*
X11517797Y37748454D01*
X11483339Y37921687D01*
X11483339Y38098313D01*
X11517797Y38271546D01*
X11585389Y38434728D01*
X11683518Y38581588D01*
X11808412Y38706482D01*
X11955272Y38804611D01*
X12118454Y38872203D01*
X12291687Y38906661D01*
X12468313Y38906661D01*
X12641546Y38872203D01*
G37*
G36*
X10101546Y41412203D02*
G01*
X10264728Y41344611D01*
X10411588Y41246482D01*
X10536482Y41121588D01*
X10634611Y40974728D01*
X10702203Y40811546D01*
X10736661Y40638313D01*
X10736661Y40461687D01*
X10702203Y40288454D01*
X10634611Y40125272D01*
X10536482Y39978412D01*
X10411588Y39853518D01*
X10264728Y39755389D01*
X10101546Y39687797D01*
X9928313Y39653339D01*
X9751687Y39653339D01*
X9578454Y39687797D01*
X9415272Y39755389D01*
X9268412Y39853518D01*
X9143518Y39978412D01*
X9045389Y40125272D01*
X8977797Y40288454D01*
X8943339Y40461687D01*
X8943339Y40638313D01*
X8977797Y40811546D01*
X9045389Y40974728D01*
X9143518Y41121588D01*
X9268412Y41246482D01*
X9415272Y41344611D01*
X9578454Y41412203D01*
X9751687Y41446661D01*
X9928313Y41446661D01*
X10101546Y41412203D01*
G37*
G36*
X12641546Y41412203D02*
G01*
X12804728Y41344611D01*
X12951588Y41246482D01*
X13076482Y41121588D01*
X13174611Y40974728D01*
X13242203Y40811546D01*
X13276661Y40638313D01*
X13276661Y40461687D01*
X13242203Y40288454D01*
X13174611Y40125272D01*
X13076482Y39978412D01*
X12951588Y39853518D01*
X12804728Y39755389D01*
X12641546Y39687797D01*
X12468313Y39653339D01*
X12291687Y39653339D01*
X12118454Y39687797D01*
X11955272Y39755389D01*
X11808412Y39853518D01*
X11683518Y39978412D01*
X11585389Y40125272D01*
X11517797Y40288454D01*
X11483339Y40461687D01*
X11483339Y40638313D01*
X11517797Y40811546D01*
X11585389Y40974728D01*
X11683518Y41121588D01*
X11808412Y41246482D01*
X11955272Y41344611D01*
X12118454Y41412203D01*
X12291687Y41446661D01*
X12468313Y41446661D01*
X12641546Y41412203D01*
G37*
G36*
X10101546Y43952203D02*
G01*
X10264728Y43884611D01*
X10411588Y43786482D01*
X10536482Y43661588D01*
X10634611Y43514728D01*
X10702203Y43351546D01*
X10736661Y43178313D01*
X10736661Y43001687D01*
X10702203Y42828454D01*
X10634611Y42665272D01*
X10536482Y42518412D01*
X10411588Y42393518D01*
X10264728Y42295389D01*
X10101546Y42227797D01*
X9928313Y42193339D01*
X9751687Y42193339D01*
X9578454Y42227797D01*
X9415272Y42295389D01*
X9268412Y42393518D01*
X9143518Y42518412D01*
X9045389Y42665272D01*
X8977797Y42828454D01*
X8943339Y43001687D01*
X8943339Y43178313D01*
X8977797Y43351546D01*
X9045389Y43514728D01*
X9143518Y43661588D01*
X9268412Y43786482D01*
X9415272Y43884611D01*
X9578454Y43952203D01*
X9751687Y43986661D01*
X9928313Y43986661D01*
X10101546Y43952203D01*
G37*
G36*
X12641546Y43952203D02*
G01*
X12804728Y43884611D01*
X12951588Y43786482D01*
X13076482Y43661588D01*
X13174611Y43514728D01*
X13242203Y43351546D01*
X13276661Y43178313D01*
X13276661Y43001687D01*
X13242203Y42828454D01*
X13174611Y42665272D01*
X13076482Y42518412D01*
X12951588Y42393518D01*
X12804728Y42295389D01*
X12641546Y42227797D01*
X12468313Y42193339D01*
X12291687Y42193339D01*
X12118454Y42227797D01*
X11955272Y42295389D01*
X11808412Y42393518D01*
X11683518Y42518412D01*
X11585389Y42665272D01*
X11517797Y42828454D01*
X11483339Y43001687D01*
X11483339Y43178313D01*
X11517797Y43351546D01*
X11585389Y43514728D01*
X11683518Y43661588D01*
X11808412Y43786482D01*
X11955272Y43884611D01*
X12118454Y43952203D01*
X12291687Y43986661D01*
X12468313Y43986661D01*
X12641546Y43952203D01*
G37*
G36*
X64726016Y45378217D02*
G01*
X64889043Y45325246D01*
X65041777Y45247424D01*
X65180457Y45146667D01*
X65301667Y45025457D01*
X65402424Y44886777D01*
X65480246Y44734043D01*
X65533217Y44571016D01*
X65560032Y44401709D01*
X65560032Y44230291D01*
X65533217Y44060984D01*
X65480246Y43897957D01*
X65402424Y43745223D01*
X65301667Y43606543D01*
X65180457Y43485333D01*
X65041777Y43384576D01*
X64889043Y43306754D01*
X64726016Y43253783D01*
X64556709Y43226968D01*
X64385291Y43226968D01*
X64215984Y43253783D01*
X64052957Y43306754D01*
X63900223Y43384576D01*
X63761543Y43485333D01*
X63640333Y43606543D01*
X63539576Y43745223D01*
X63461754Y43897957D01*
X63408783Y44060984D01*
X63381968Y44230291D01*
X63381968Y44401709D01*
X63408783Y44571016D01*
X63461754Y44734043D01*
X63539576Y44886777D01*
X63640333Y45025457D01*
X63761543Y45146667D01*
X63900223Y45247424D01*
X64052957Y45325246D01*
X64215984Y45378217D01*
X64385291Y45405032D01*
X64556709Y45405032D01*
X64726016Y45378217D01*
G37*
G36*
X68227088Y47738385D02*
G01*
X68438925Y47681623D01*
X68641541Y47597697D01*
X68831469Y47488042D01*
X69005459Y47354535D01*
X69160535Y47199459D01*
X69294042Y47025469D01*
X69403697Y46835541D01*
X69487623Y46632925D01*
X69544385Y46421088D01*
X69573010Y46203655D01*
X69573010Y45984345D01*
X69544385Y45766912D01*
X69487623Y45555075D01*
X69403697Y45352459D01*
X69294042Y45162531D01*
X69160535Y44988541D01*
X69005459Y44833465D01*
X68831469Y44699958D01*
X68641541Y44590303D01*
X68438925Y44506377D01*
X68227088Y44449615D01*
X68009655Y44420990D01*
X67790345Y44420990D01*
X67572912Y44449615D01*
X67361075Y44506377D01*
X67158459Y44590303D01*
X66968531Y44699958D01*
X66794541Y44833465D01*
X66639465Y44988541D01*
X66505958Y45162531D01*
X66396303Y45352459D01*
X66312377Y45555075D01*
X66255615Y45766912D01*
X66226990Y45984345D01*
X66226990Y46203655D01*
X66255615Y46421088D01*
X66312377Y46632925D01*
X66396303Y46835541D01*
X66505958Y47025469D01*
X66639465Y47199459D01*
X66794541Y47354535D01*
X66968531Y47488042D01*
X67158459Y47597697D01*
X67361075Y47681623D01*
X67572912Y47738385D01*
X67790345Y47767010D01*
X68009655Y47767010D01*
X68227088Y47738385D01*
G37*
G36*
X10101546Y46492203D02*
G01*
X10264728Y46424611D01*
X10411588Y46326482D01*
X10536482Y46201588D01*
X10634611Y46054728D01*
X10702203Y45891546D01*
X10736661Y45718313D01*
X10736661Y45541687D01*
X10702203Y45368454D01*
X10634611Y45205272D01*
X10536482Y45058412D01*
X10411588Y44933518D01*
X10264728Y44835389D01*
X10101546Y44767797D01*
X9928313Y44733339D01*
X9751687Y44733339D01*
X9578454Y44767797D01*
X9415272Y44835389D01*
X9268412Y44933518D01*
X9143518Y45058412D01*
X9045389Y45205272D01*
X8977797Y45368454D01*
X8943339Y45541687D01*
X8943339Y45718313D01*
X8977797Y45891546D01*
X9045389Y46054728D01*
X9143518Y46201588D01*
X9268412Y46326482D01*
X9415272Y46424611D01*
X9578454Y46492203D01*
X9751687Y46526661D01*
X9928313Y46526661D01*
X10101546Y46492203D01*
G37*
G36*
X12641546Y46492203D02*
G01*
X12804728Y46424611D01*
X12951588Y46326482D01*
X13076482Y46201588D01*
X13174611Y46054728D01*
X13242203Y45891546D01*
X13276661Y45718313D01*
X13276661Y45541687D01*
X13242203Y45368454D01*
X13174611Y45205272D01*
X13076482Y45058412D01*
X12951588Y44933518D01*
X12804728Y44835389D01*
X12641546Y44767797D01*
X12468313Y44733339D01*
X12291687Y44733339D01*
X12118454Y44767797D01*
X11955272Y44835389D01*
X11808412Y44933518D01*
X11683518Y45058412D01*
X11585389Y45205272D01*
X11517797Y45368454D01*
X11483339Y45541687D01*
X11483339Y45718313D01*
X11517797Y45891546D01*
X11585389Y46054728D01*
X11683518Y46201588D01*
X11808412Y46326482D01*
X11955272Y46424611D01*
X12118454Y46492203D01*
X12291687Y46526661D01*
X12468313Y46526661D01*
X12641546Y46492203D01*
G37*
G36*
X30355567Y47264797D02*
G01*
X30363678Y47259378D01*
X30369097Y47251267D01*
X30371000Y47241700D01*
X30371000Y46601700D01*
X30369097Y46592133D01*
X30363678Y46584022D01*
X30355567Y46578603D01*
X30346000Y46576700D01*
X28316000Y46576700D01*
X28306433Y46578603D01*
X28298322Y46584022D01*
X28292903Y46592133D01*
X28291000Y46601700D01*
X28291000Y47241700D01*
X28292903Y47251267D01*
X28298322Y47259378D01*
X28306433Y47264797D01*
X28316000Y47266700D01*
X30346000Y47266700D01*
X30355567Y47264797D01*
G37*
G36*
X48153567Y47264797D02*
G01*
X48161678Y47259378D01*
X48167097Y47251267D01*
X48169000Y47241700D01*
X48169000Y46601700D01*
X48167097Y46592133D01*
X48161678Y46584022D01*
X48153567Y46578603D01*
X48144000Y46576700D01*
X46114000Y46576700D01*
X46104433Y46578603D01*
X46096322Y46584022D01*
X46090903Y46592133D01*
X46089000Y46601700D01*
X46089000Y47241700D01*
X46090903Y47251267D01*
X46096322Y47259378D01*
X46104433Y47264797D01*
X46114000Y47266700D01*
X48144000Y47266700D01*
X48153567Y47264797D01*
G37*
G36*
X10101546Y49032203D02*
G01*
X10264728Y48964611D01*
X10411588Y48866482D01*
X10536482Y48741588D01*
X10634611Y48594728D01*
X10702203Y48431546D01*
X10736661Y48258313D01*
X10736661Y48081687D01*
X10702203Y47908454D01*
X10634611Y47745272D01*
X10536482Y47598412D01*
X10411588Y47473518D01*
X10264728Y47375389D01*
X10101546Y47307797D01*
X9928313Y47273339D01*
X9751687Y47273339D01*
X9578454Y47307797D01*
X9415272Y47375389D01*
X9268412Y47473518D01*
X9143518Y47598412D01*
X9045389Y47745272D01*
X8977797Y47908454D01*
X8943339Y48081687D01*
X8943339Y48258313D01*
X8977797Y48431546D01*
X9045389Y48594728D01*
X9143518Y48741588D01*
X9268412Y48866482D01*
X9415272Y48964611D01*
X9578454Y49032203D01*
X9751687Y49066661D01*
X9928313Y49066661D01*
X10101546Y49032203D01*
G37*
G36*
X12641546Y49032203D02*
G01*
X12804728Y48964611D01*
X12951588Y48866482D01*
X13076482Y48741588D01*
X13174611Y48594728D01*
X13242203Y48431546D01*
X13276661Y48258313D01*
X13276661Y48081687D01*
X13242203Y47908454D01*
X13174611Y47745272D01*
X13076482Y47598412D01*
X12951588Y47473518D01*
X12804728Y47375389D01*
X12641546Y47307797D01*
X12468313Y47273339D01*
X12291687Y47273339D01*
X12118454Y47307797D01*
X11955272Y47375389D01*
X11808412Y47473518D01*
X11683518Y47598412D01*
X11585389Y47745272D01*
X11517797Y47908454D01*
X11483339Y48081687D01*
X11483339Y48258313D01*
X11517797Y48431546D01*
X11585389Y48594728D01*
X11683518Y48741588D01*
X11808412Y48866482D01*
X11955272Y48964611D01*
X12118454Y49032203D01*
X12291687Y49066661D01*
X12468313Y49066661D01*
X12641546Y49032203D01*
G37*
G36*
X30355567Y48255397D02*
G01*
X30363678Y48249978D01*
X30369097Y48241867D01*
X30371000Y48232300D01*
X30371000Y47592300D01*
X30369097Y47582733D01*
X30363678Y47574622D01*
X30355567Y47569203D01*
X30346000Y47567300D01*
X28316000Y47567300D01*
X28306433Y47569203D01*
X28298322Y47574622D01*
X28292903Y47582733D01*
X28291000Y47592300D01*
X28291000Y48232300D01*
X28292903Y48241867D01*
X28298322Y48249978D01*
X28306433Y48255397D01*
X28316000Y48257300D01*
X30346000Y48257300D01*
X30355567Y48255397D01*
G37*
G36*
X48153567Y48255397D02*
G01*
X48161678Y48249978D01*
X48167097Y48241867D01*
X48169000Y48232300D01*
X48169000Y47592300D01*
X48167097Y47582733D01*
X48161678Y47574622D01*
X48153567Y47569203D01*
X48144000Y47567300D01*
X46114000Y47567300D01*
X46104433Y47569203D01*
X46096322Y47574622D01*
X46090903Y47582733D01*
X46089000Y47592300D01*
X46089000Y48232300D01*
X46090903Y48241867D01*
X46096322Y48249978D01*
X46104433Y48255397D01*
X46114000Y48257300D01*
X48144000Y48257300D01*
X48153567Y48255397D01*
G37*
G36*
X63785054Y49557380D02*
G01*
X63911742Y49504904D01*
X64025758Y49428721D01*
X64122721Y49331758D01*
X64198904Y49217742D01*
X64251380Y49091054D01*
X64278132Y48956563D01*
X64278132Y48819437D01*
X64251380Y48684946D01*
X64198904Y48558258D01*
X64122721Y48444242D01*
X64025758Y48347279D01*
X63911742Y48271096D01*
X63785054Y48218620D01*
X63650563Y48191868D01*
X63513437Y48191868D01*
X63378946Y48218620D01*
X63252258Y48271096D01*
X63138242Y48347279D01*
X63041279Y48444242D01*
X62965096Y48558258D01*
X62912620Y48684946D01*
X62885868Y48819437D01*
X62885868Y48956563D01*
X62912620Y49091054D01*
X62965096Y49217742D01*
X63041279Y49331758D01*
X63138242Y49428721D01*
X63252258Y49504904D01*
X63378946Y49557380D01*
X63513437Y49584132D01*
X63650563Y49584132D01*
X63785054Y49557380D01*
G37*
G36*
X30355567Y49245997D02*
G01*
X30363678Y49240578D01*
X30369097Y49232467D01*
X30371000Y49222900D01*
X30371000Y48582900D01*
X30369097Y48573333D01*
X30363678Y48565222D01*
X30355567Y48559803D01*
X30346000Y48557900D01*
X28316000Y48557900D01*
X28306433Y48559803D01*
X28298322Y48565222D01*
X28292903Y48573333D01*
X28291000Y48582900D01*
X28291000Y49222900D01*
X28292903Y49232467D01*
X28298322Y49240578D01*
X28306433Y49245997D01*
X28316000Y49247900D01*
X30346000Y49247900D01*
X30355567Y49245997D01*
G37*
G36*
X48153567Y49245997D02*
G01*
X48161678Y49240578D01*
X48167097Y49232467D01*
X48169000Y49222900D01*
X48169000Y48582900D01*
X48167097Y48573333D01*
X48161678Y48565222D01*
X48153567Y48559803D01*
X48144000Y48557900D01*
X46114000Y48557900D01*
X46104433Y48559803D01*
X46096322Y48565222D01*
X46090903Y48573333D01*
X46089000Y48582900D01*
X46089000Y49222900D01*
X46090903Y49232467D01*
X46096322Y49240578D01*
X46104433Y49245997D01*
X46114000Y49247900D01*
X48144000Y49247900D01*
X48153567Y49245997D01*
G37*
G36*
X25688538Y49297810D02*
G01*
X25720837Y49293558D01*
X25728962Y49289769D01*
X25748463Y49285890D01*
X25774295Y49268630D01*
X25785248Y49263522D01*
X25791910Y49256860D01*
X25812861Y49242861D01*
X25826859Y49221911D01*
X25833521Y49215249D01*
X25838627Y49204299D01*
X25855890Y49178463D01*
X25859769Y49158961D01*
X25863557Y49150838D01*
X25867807Y49118550D01*
X25871000Y49102500D01*
X25871000Y48757500D01*
X25867806Y48741448D01*
X25863557Y48709163D01*
X25859769Y48701042D01*
X25855890Y48681537D01*
X25838625Y48655700D01*
X25833521Y48644752D01*
X25826861Y48638093D01*
X25812861Y48617139D01*
X25791907Y48603139D01*
X25785248Y48596479D01*
X25774300Y48591375D01*
X25748463Y48574110D01*
X25728958Y48570231D01*
X25720837Y48566443D01*
X25688551Y48562193D01*
X25672500Y48559000D01*
X25377500Y48559000D01*
X25361449Y48562193D01*
X25329162Y48566443D01*
X25321039Y48570231D01*
X25301537Y48574110D01*
X25275701Y48591373D01*
X25264751Y48596479D01*
X25258089Y48603141D01*
X25237139Y48617139D01*
X25223140Y48638090D01*
X25216478Y48644752D01*
X25211370Y48655705D01*
X25194110Y48681537D01*
X25190231Y48701038D01*
X25186442Y48709163D01*
X25182189Y48741464D01*
X25179000Y48757500D01*
X25179000Y49102500D01*
X25182189Y49118537D01*
X25186442Y49150838D01*
X25190231Y49158965D01*
X25194110Y49178463D01*
X25211369Y49204294D01*
X25216478Y49215249D01*
X25223142Y49221914D01*
X25237139Y49242861D01*
X25258086Y49256858D01*
X25264751Y49263522D01*
X25275706Y49268631D01*
X25301537Y49285890D01*
X25321035Y49289769D01*
X25329162Y49293558D01*
X25361465Y49297811D01*
X25377500Y49301000D01*
X25672500Y49301000D01*
X25688538Y49297810D01*
G37*
G36*
X26658538Y49297810D02*
G01*
X26690837Y49293558D01*
X26698962Y49289769D01*
X26718463Y49285890D01*
X26744295Y49268630D01*
X26755248Y49263522D01*
X26761910Y49256860D01*
X26782861Y49242861D01*
X26796859Y49221911D01*
X26803521Y49215249D01*
X26808627Y49204299D01*
X26825890Y49178463D01*
X26829769Y49158961D01*
X26833557Y49150838D01*
X26837807Y49118550D01*
X26841000Y49102500D01*
X26841000Y48757500D01*
X26837806Y48741448D01*
X26833557Y48709163D01*
X26829769Y48701042D01*
X26825890Y48681537D01*
X26808625Y48655700D01*
X26803521Y48644752D01*
X26796861Y48638093D01*
X26782861Y48617139D01*
X26761907Y48603139D01*
X26755248Y48596479D01*
X26744300Y48591375D01*
X26718463Y48574110D01*
X26698958Y48570231D01*
X26690837Y48566443D01*
X26658551Y48562193D01*
X26642500Y48559000D01*
X26347500Y48559000D01*
X26331449Y48562193D01*
X26299162Y48566443D01*
X26291039Y48570231D01*
X26271537Y48574110D01*
X26245701Y48591373D01*
X26234751Y48596479D01*
X26228089Y48603141D01*
X26207139Y48617139D01*
X26193140Y48638090D01*
X26186478Y48644752D01*
X26181370Y48655705D01*
X26164110Y48681537D01*
X26160231Y48701038D01*
X26156442Y48709163D01*
X26152189Y48741464D01*
X26149000Y48757500D01*
X26149000Y49102500D01*
X26152189Y49118537D01*
X26156442Y49150838D01*
X26160231Y49158965D01*
X26164110Y49178463D01*
X26181369Y49204294D01*
X26186478Y49215249D01*
X26193142Y49221914D01*
X26207139Y49242861D01*
X26228086Y49256858D01*
X26234751Y49263522D01*
X26245706Y49268631D01*
X26271537Y49285890D01*
X26291035Y49289769D01*
X26299162Y49293558D01*
X26331465Y49297811D01*
X26347500Y49301000D01*
X26642500Y49301000D01*
X26658538Y49297810D01*
G37*
G36*
X50738538Y49307810D02*
G01*
X50770837Y49303558D01*
X50778962Y49299769D01*
X50798463Y49295890D01*
X50824295Y49278630D01*
X50835248Y49273522D01*
X50841910Y49266860D01*
X50862861Y49252861D01*
X50876859Y49231911D01*
X50883521Y49225249D01*
X50888627Y49214299D01*
X50905890Y49188463D01*
X50909769Y49168961D01*
X50913557Y49160838D01*
X50917807Y49128550D01*
X50921000Y49112500D01*
X50921000Y48767500D01*
X50917806Y48751448D01*
X50913557Y48719163D01*
X50909769Y48711042D01*
X50905890Y48691537D01*
X50888625Y48665700D01*
X50883521Y48654752D01*
X50876861Y48648093D01*
X50862861Y48627139D01*
X50841907Y48613139D01*
X50835248Y48606479D01*
X50824300Y48601375D01*
X50798463Y48584110D01*
X50778958Y48580231D01*
X50770837Y48576443D01*
X50738551Y48572193D01*
X50722500Y48569000D01*
X50427500Y48569000D01*
X50411449Y48572193D01*
X50379162Y48576443D01*
X50371039Y48580231D01*
X50351537Y48584110D01*
X50325701Y48601373D01*
X50314751Y48606479D01*
X50308089Y48613141D01*
X50287139Y48627139D01*
X50273140Y48648090D01*
X50266478Y48654752D01*
X50261370Y48665705D01*
X50244110Y48691537D01*
X50240231Y48711038D01*
X50236442Y48719163D01*
X50232189Y48751464D01*
X50229000Y48767500D01*
X50229000Y49112500D01*
X50232189Y49128537D01*
X50236442Y49160838D01*
X50240231Y49168965D01*
X50244110Y49188463D01*
X50261369Y49214294D01*
X50266478Y49225249D01*
X50273142Y49231914D01*
X50287139Y49252861D01*
X50308086Y49266858D01*
X50314751Y49273522D01*
X50325706Y49278631D01*
X50351537Y49295890D01*
X50371035Y49299769D01*
X50379162Y49303558D01*
X50411465Y49307811D01*
X50427500Y49311000D01*
X50722500Y49311000D01*
X50738538Y49307810D01*
G37*
G36*
X51708538Y49307810D02*
G01*
X51740837Y49303558D01*
X51748962Y49299769D01*
X51768463Y49295890D01*
X51794295Y49278630D01*
X51805248Y49273522D01*
X51811910Y49266860D01*
X51832861Y49252861D01*
X51846859Y49231911D01*
X51853521Y49225249D01*
X51858627Y49214299D01*
X51875890Y49188463D01*
X51879769Y49168961D01*
X51883557Y49160838D01*
X51887807Y49128550D01*
X51891000Y49112500D01*
X51891000Y48767500D01*
X51887806Y48751448D01*
X51883557Y48719163D01*
X51879769Y48711042D01*
X51875890Y48691537D01*
X51858625Y48665700D01*
X51853521Y48654752D01*
X51846861Y48648093D01*
X51832861Y48627139D01*
X51811907Y48613139D01*
X51805248Y48606479D01*
X51794300Y48601375D01*
X51768463Y48584110D01*
X51748958Y48580231D01*
X51740837Y48576443D01*
X51708551Y48572193D01*
X51692500Y48569000D01*
X51397500Y48569000D01*
X51381449Y48572193D01*
X51349162Y48576443D01*
X51341039Y48580231D01*
X51321537Y48584110D01*
X51295701Y48601373D01*
X51284751Y48606479D01*
X51278089Y48613141D01*
X51257139Y48627139D01*
X51243140Y48648090D01*
X51236478Y48654752D01*
X51231370Y48665705D01*
X51214110Y48691537D01*
X51210231Y48711038D01*
X51206442Y48719163D01*
X51202189Y48751464D01*
X51199000Y48767500D01*
X51199000Y49112500D01*
X51202189Y49128537D01*
X51206442Y49160838D01*
X51210231Y49168965D01*
X51214110Y49188463D01*
X51231369Y49214294D01*
X51236478Y49225249D01*
X51243142Y49231914D01*
X51257139Y49252861D01*
X51278086Y49266858D01*
X51284751Y49273522D01*
X51295706Y49278631D01*
X51321537Y49295890D01*
X51341035Y49299769D01*
X51349162Y49303558D01*
X51381465Y49307811D01*
X51397500Y49311000D01*
X51692500Y49311000D01*
X51708538Y49307810D01*
G37*
G36*
X65563054Y50573380D02*
G01*
X65689742Y50520904D01*
X65803758Y50444721D01*
X65900721Y50347758D01*
X65976904Y50233742D01*
X66029380Y50107054D01*
X66056132Y49972563D01*
X66056132Y49835437D01*
X66029380Y49700946D01*
X65976904Y49574258D01*
X65900721Y49460242D01*
X65803758Y49363279D01*
X65689742Y49287096D01*
X65563054Y49234620D01*
X65428563Y49207868D01*
X65291437Y49207868D01*
X65156946Y49234620D01*
X65030258Y49287096D01*
X64916242Y49363279D01*
X64819279Y49460242D01*
X64743096Y49574258D01*
X64690620Y49700946D01*
X64663868Y49835437D01*
X64663868Y49972563D01*
X64690620Y50107054D01*
X64743096Y50233742D01*
X64819279Y50347758D01*
X64916242Y50444721D01*
X65030258Y50520904D01*
X65156946Y50573380D01*
X65291437Y50600132D01*
X65428563Y50600132D01*
X65563054Y50573380D01*
G37*
G36*
X30355567Y50236597D02*
G01*
X30363678Y50231178D01*
X30369097Y50223067D01*
X30371000Y50213500D01*
X30371000Y49573500D01*
X30369097Y49563933D01*
X30363678Y49555822D01*
X30355567Y49550403D01*
X30346000Y49548500D01*
X28316000Y49548500D01*
X28306433Y49550403D01*
X28298322Y49555822D01*
X28292903Y49563933D01*
X28291000Y49573500D01*
X28291000Y50213500D01*
X28292903Y50223067D01*
X28298322Y50231178D01*
X28306433Y50236597D01*
X28316000Y50238500D01*
X30346000Y50238500D01*
X30355567Y50236597D01*
G37*
G36*
X48153567Y50236597D02*
G01*
X48161678Y50231178D01*
X48167097Y50223067D01*
X48169000Y50213500D01*
X48169000Y49573500D01*
X48167097Y49563933D01*
X48161678Y49555822D01*
X48153567Y49550403D01*
X48144000Y49548500D01*
X46114000Y49548500D01*
X46104433Y49550403D01*
X46096322Y49555822D01*
X46090903Y49563933D01*
X46089000Y49573500D01*
X46089000Y50213500D01*
X46090903Y50223067D01*
X46096322Y50231178D01*
X46104433Y50236597D01*
X46114000Y50238500D01*
X48144000Y50238500D01*
X48153567Y50236597D01*
G37*
G36*
X10101546Y51572203D02*
G01*
X10264728Y51504611D01*
X10411588Y51406482D01*
X10536482Y51281588D01*
X10634611Y51134728D01*
X10702203Y50971546D01*
X10736661Y50798313D01*
X10736661Y50621687D01*
X10702203Y50448454D01*
X10634611Y50285272D01*
X10536482Y50138412D01*
X10411588Y50013518D01*
X10264728Y49915389D01*
X10101546Y49847797D01*
X9928313Y49813339D01*
X9751687Y49813339D01*
X9578454Y49847797D01*
X9415272Y49915389D01*
X9268412Y50013518D01*
X9143518Y50138412D01*
X9045389Y50285272D01*
X8977797Y50448454D01*
X8943339Y50621687D01*
X8943339Y50798313D01*
X8977797Y50971546D01*
X9045389Y51134728D01*
X9143518Y51281588D01*
X9268412Y51406482D01*
X9415272Y51504611D01*
X9578454Y51572203D01*
X9751687Y51606661D01*
X9928313Y51606661D01*
X10101546Y51572203D01*
G37*
G36*
X12641546Y51572203D02*
G01*
X12804728Y51504611D01*
X12951588Y51406482D01*
X13076482Y51281588D01*
X13174611Y51134728D01*
X13242203Y50971546D01*
X13276661Y50798313D01*
X13276661Y50621687D01*
X13242203Y50448454D01*
X13174611Y50285272D01*
X13076482Y50138412D01*
X12951588Y50013518D01*
X12804728Y49915389D01*
X12641546Y49847797D01*
X12468313Y49813339D01*
X12291687Y49813339D01*
X12118454Y49847797D01*
X11955272Y49915389D01*
X11808412Y50013518D01*
X11683518Y50138412D01*
X11585389Y50285272D01*
X11517797Y50448454D01*
X11483339Y50621687D01*
X11483339Y50798313D01*
X11517797Y50971546D01*
X11585389Y51134728D01*
X11683518Y51281588D01*
X11808412Y51406482D01*
X11955272Y51504611D01*
X12118454Y51572203D01*
X12291687Y51606661D01*
X12468313Y51606661D01*
X12641546Y51572203D01*
G37*
G36*
X63785054Y51589380D02*
G01*
X63911742Y51536904D01*
X64025758Y51460721D01*
X64122721Y51363758D01*
X64198904Y51249742D01*
X64251380Y51123054D01*
X64278132Y50988563D01*
X64278132Y50851437D01*
X64251380Y50716946D01*
X64198904Y50590258D01*
X64122721Y50476242D01*
X64025758Y50379279D01*
X63911742Y50303096D01*
X63785054Y50250620D01*
X63650563Y50223868D01*
X63513437Y50223868D01*
X63378946Y50250620D01*
X63252258Y50303096D01*
X63138242Y50379279D01*
X63041279Y50476242D01*
X62965096Y50590258D01*
X62912620Y50716946D01*
X62885868Y50851437D01*
X62885868Y50988563D01*
X62912620Y51123054D01*
X62965096Y51249742D01*
X63041279Y51363758D01*
X63138242Y51460721D01*
X63252258Y51536904D01*
X63378946Y51589380D01*
X63513437Y51616132D01*
X63650563Y51616132D01*
X63785054Y51589380D01*
G37*
G36*
X30355567Y51227197D02*
G01*
X30363678Y51221778D01*
X30369097Y51213667D01*
X30371000Y51204100D01*
X30371000Y50564100D01*
X30369097Y50554533D01*
X30363678Y50546422D01*
X30355567Y50541003D01*
X30346000Y50539100D01*
X28316000Y50539100D01*
X28306433Y50541003D01*
X28298322Y50546422D01*
X28292903Y50554533D01*
X28291000Y50564100D01*
X28291000Y51204100D01*
X28292903Y51213667D01*
X28298322Y51221778D01*
X28306433Y51227197D01*
X28316000Y51229100D01*
X30346000Y51229100D01*
X30355567Y51227197D01*
G37*
G36*
X48153567Y51227197D02*
G01*
X48161678Y51221778D01*
X48167097Y51213667D01*
X48169000Y51204100D01*
X48169000Y50564100D01*
X48167097Y50554533D01*
X48161678Y50546422D01*
X48153567Y50541003D01*
X48144000Y50539100D01*
X46114000Y50539100D01*
X46104433Y50541003D01*
X46096322Y50546422D01*
X46090903Y50554533D01*
X46089000Y50564100D01*
X46089000Y51204100D01*
X46090903Y51213667D01*
X46096322Y51221778D01*
X46104433Y51227197D01*
X46114000Y51229100D01*
X48144000Y51229100D01*
X48153567Y51227197D01*
G37*
G36*
X65563054Y52605380D02*
G01*
X65689742Y52552904D01*
X65803758Y52476721D01*
X65900721Y52379758D01*
X65976904Y52265742D01*
X66029380Y52139054D01*
X66056132Y52004563D01*
X66056132Y51867437D01*
X66029380Y51732946D01*
X65976904Y51606258D01*
X65900721Y51492242D01*
X65803758Y51395279D01*
X65689742Y51319096D01*
X65563054Y51266620D01*
X65428563Y51239868D01*
X65291437Y51239868D01*
X65156946Y51266620D01*
X65030258Y51319096D01*
X64916242Y51395279D01*
X64819279Y51492242D01*
X64743096Y51606258D01*
X64690620Y51732946D01*
X64663868Y51867437D01*
X64663868Y52004563D01*
X64690620Y52139054D01*
X64743096Y52265742D01*
X64819279Y52379758D01*
X64916242Y52476721D01*
X65030258Y52552904D01*
X65156946Y52605380D01*
X65291437Y52632132D01*
X65428563Y52632132D01*
X65563054Y52605380D01*
G37*
G36*
X25658538Y52227810D02*
G01*
X25690837Y52223558D01*
X25698962Y52219769D01*
X25718463Y52215890D01*
X25744295Y52198630D01*
X25755248Y52193522D01*
X25761910Y52186860D01*
X25782861Y52172861D01*
X25796859Y52151911D01*
X25803521Y52145249D01*
X25808627Y52134299D01*
X25825890Y52108463D01*
X25829769Y52088961D01*
X25833557Y52080838D01*
X25837807Y52048550D01*
X25841000Y52032500D01*
X25841000Y51687500D01*
X25837806Y51671448D01*
X25833557Y51639163D01*
X25829769Y51631042D01*
X25825890Y51611537D01*
X25808625Y51585700D01*
X25803521Y51574752D01*
X25796861Y51568093D01*
X25782861Y51547139D01*
X25761907Y51533139D01*
X25755248Y51526479D01*
X25744300Y51521375D01*
X25718463Y51504110D01*
X25698958Y51500231D01*
X25690837Y51496443D01*
X25658551Y51492193D01*
X25642500Y51489000D01*
X25347500Y51489000D01*
X25331449Y51492193D01*
X25299162Y51496443D01*
X25291039Y51500231D01*
X25271537Y51504110D01*
X25245701Y51521373D01*
X25234751Y51526479D01*
X25228089Y51533141D01*
X25207139Y51547139D01*
X25193140Y51568090D01*
X25186478Y51574752D01*
X25181370Y51585705D01*
X25164110Y51611537D01*
X25160231Y51631038D01*
X25156442Y51639163D01*
X25152189Y51671464D01*
X25149000Y51687500D01*
X25149000Y52032500D01*
X25152189Y52048537D01*
X25156442Y52080838D01*
X25160231Y52088965D01*
X25164110Y52108463D01*
X25181369Y52134294D01*
X25186478Y52145249D01*
X25193142Y52151914D01*
X25207139Y52172861D01*
X25228086Y52186858D01*
X25234751Y52193522D01*
X25245706Y52198631D01*
X25271537Y52215890D01*
X25291035Y52219769D01*
X25299162Y52223558D01*
X25331465Y52227811D01*
X25347500Y52231000D01*
X25642500Y52231000D01*
X25658538Y52227810D01*
G37*
G36*
X26628538Y52227810D02*
G01*
X26660837Y52223558D01*
X26668962Y52219769D01*
X26688463Y52215890D01*
X26714295Y52198630D01*
X26725248Y52193522D01*
X26731910Y52186860D01*
X26752861Y52172861D01*
X26766859Y52151911D01*
X26773521Y52145249D01*
X26778627Y52134299D01*
X26795890Y52108463D01*
X26799769Y52088961D01*
X26803557Y52080838D01*
X26807807Y52048550D01*
X26811000Y52032500D01*
X26811000Y51687500D01*
X26807806Y51671448D01*
X26803557Y51639163D01*
X26799769Y51631042D01*
X26795890Y51611537D01*
X26778625Y51585700D01*
X26773521Y51574752D01*
X26766861Y51568093D01*
X26752861Y51547139D01*
X26731907Y51533139D01*
X26725248Y51526479D01*
X26714300Y51521375D01*
X26688463Y51504110D01*
X26668958Y51500231D01*
X26660837Y51496443D01*
X26628551Y51492193D01*
X26612500Y51489000D01*
X26317500Y51489000D01*
X26301449Y51492193D01*
X26269162Y51496443D01*
X26261039Y51500231D01*
X26241537Y51504110D01*
X26215701Y51521373D01*
X26204751Y51526479D01*
X26198089Y51533141D01*
X26177139Y51547139D01*
X26163140Y51568090D01*
X26156478Y51574752D01*
X26151370Y51585705D01*
X26134110Y51611537D01*
X26130231Y51631038D01*
X26126442Y51639163D01*
X26122189Y51671464D01*
X26119000Y51687500D01*
X26119000Y52032500D01*
X26122189Y52048537D01*
X26126442Y52080838D01*
X26130231Y52088965D01*
X26134110Y52108463D01*
X26151369Y52134294D01*
X26156478Y52145249D01*
X26163142Y52151914D01*
X26177139Y52172861D01*
X26198086Y52186858D01*
X26204751Y52193522D01*
X26215706Y52198631D01*
X26241537Y52215890D01*
X26261035Y52219769D01*
X26269162Y52223558D01*
X26301465Y52227811D01*
X26317500Y52231000D01*
X26612500Y52231000D01*
X26628538Y52227810D01*
G37*
G36*
X50693538Y52227810D02*
G01*
X50725837Y52223558D01*
X50733962Y52219769D01*
X50753463Y52215890D01*
X50779295Y52198630D01*
X50790248Y52193522D01*
X50796910Y52186860D01*
X50817861Y52172861D01*
X50831859Y52151911D01*
X50838521Y52145249D01*
X50843627Y52134299D01*
X50860890Y52108463D01*
X50864769Y52088961D01*
X50868557Y52080838D01*
X50872807Y52048550D01*
X50876000Y52032500D01*
X50876000Y51687500D01*
X50872806Y51671448D01*
X50868557Y51639163D01*
X50864769Y51631042D01*
X50860890Y51611537D01*
X50843625Y51585700D01*
X50838521Y51574752D01*
X50831861Y51568093D01*
X50817861Y51547139D01*
X50796907Y51533139D01*
X50790248Y51526479D01*
X50779300Y51521375D01*
X50753463Y51504110D01*
X50733958Y51500231D01*
X50725837Y51496443D01*
X50693551Y51492193D01*
X50677500Y51489000D01*
X50382500Y51489000D01*
X50366449Y51492193D01*
X50334162Y51496443D01*
X50326039Y51500231D01*
X50306537Y51504110D01*
X50280701Y51521373D01*
X50269751Y51526479D01*
X50263089Y51533141D01*
X50242139Y51547139D01*
X50228140Y51568090D01*
X50221478Y51574752D01*
X50216370Y51585705D01*
X50199110Y51611537D01*
X50195231Y51631038D01*
X50191442Y51639163D01*
X50187189Y51671464D01*
X50184000Y51687500D01*
X50184000Y52032500D01*
X50187189Y52048537D01*
X50191442Y52080838D01*
X50195231Y52088965D01*
X50199110Y52108463D01*
X50216369Y52134294D01*
X50221478Y52145249D01*
X50228142Y52151914D01*
X50242139Y52172861D01*
X50263086Y52186858D01*
X50269751Y52193522D01*
X50280706Y52198631D01*
X50306537Y52215890D01*
X50326035Y52219769D01*
X50334162Y52223558D01*
X50366465Y52227811D01*
X50382500Y52231000D01*
X50677500Y52231000D01*
X50693538Y52227810D01*
G37*
G36*
X51663538Y52227810D02*
G01*
X51695837Y52223558D01*
X51703962Y52219769D01*
X51723463Y52215890D01*
X51749295Y52198630D01*
X51760248Y52193522D01*
X51766910Y52186860D01*
X51787861Y52172861D01*
X51801859Y52151911D01*
X51808521Y52145249D01*
X51813627Y52134299D01*
X51830890Y52108463D01*
X51834769Y52088961D01*
X51838557Y52080838D01*
X51842807Y52048550D01*
X51846000Y52032500D01*
X51846000Y51687500D01*
X51842806Y51671448D01*
X51838557Y51639163D01*
X51834769Y51631042D01*
X51830890Y51611537D01*
X51813625Y51585700D01*
X51808521Y51574752D01*
X51801861Y51568093D01*
X51787861Y51547139D01*
X51766907Y51533139D01*
X51760248Y51526479D01*
X51749300Y51521375D01*
X51723463Y51504110D01*
X51703958Y51500231D01*
X51695837Y51496443D01*
X51663551Y51492193D01*
X51647500Y51489000D01*
X51352500Y51489000D01*
X51336449Y51492193D01*
X51304162Y51496443D01*
X51296039Y51500231D01*
X51276537Y51504110D01*
X51250701Y51521373D01*
X51239751Y51526479D01*
X51233089Y51533141D01*
X51212139Y51547139D01*
X51198140Y51568090D01*
X51191478Y51574752D01*
X51186370Y51585705D01*
X51169110Y51611537D01*
X51165231Y51631038D01*
X51161442Y51639163D01*
X51157189Y51671464D01*
X51154000Y51687500D01*
X51154000Y52032500D01*
X51157189Y52048537D01*
X51161442Y52080838D01*
X51165231Y52088965D01*
X51169110Y52108463D01*
X51186369Y52134294D01*
X51191478Y52145249D01*
X51198142Y52151914D01*
X51212139Y52172861D01*
X51233086Y52186858D01*
X51239751Y52193522D01*
X51250706Y52198631D01*
X51276537Y52215890D01*
X51296035Y52219769D01*
X51304162Y52223558D01*
X51336465Y52227811D01*
X51352500Y52231000D01*
X51647500Y52231000D01*
X51663538Y52227810D01*
G37*
G36*
X30355567Y52217797D02*
G01*
X30363678Y52212378D01*
X30369097Y52204267D01*
X30371000Y52194700D01*
X30371000Y51554700D01*
X30369097Y51545133D01*
X30363678Y51537022D01*
X30355567Y51531603D01*
X30346000Y51529700D01*
X28316000Y51529700D01*
X28306433Y51531603D01*
X28298322Y51537022D01*
X28292903Y51545133D01*
X28291000Y51554700D01*
X28291000Y52194700D01*
X28292903Y52204267D01*
X28298322Y52212378D01*
X28306433Y52217797D01*
X28316000Y52219700D01*
X30346000Y52219700D01*
X30355567Y52217797D01*
G37*
G36*
X48153567Y52217797D02*
G01*
X48161678Y52212378D01*
X48167097Y52204267D01*
X48169000Y52194700D01*
X48169000Y51554700D01*
X48167097Y51545133D01*
X48161678Y51537022D01*
X48153567Y51531603D01*
X48144000Y51529700D01*
X46114000Y51529700D01*
X46104433Y51531603D01*
X46096322Y51537022D01*
X46090903Y51545133D01*
X46089000Y51554700D01*
X46089000Y52194700D01*
X46090903Y52204267D01*
X46096322Y52212378D01*
X46104433Y52217797D01*
X46114000Y52219700D01*
X48144000Y52219700D01*
X48153567Y52217797D01*
G37*
G36*
X63785054Y53621380D02*
G01*
X63911742Y53568904D01*
X64025758Y53492721D01*
X64122721Y53395758D01*
X64198904Y53281742D01*
X64251380Y53155054D01*
X64278132Y53020563D01*
X64278132Y52883437D01*
X64251380Y52748946D01*
X64198904Y52622258D01*
X64122721Y52508242D01*
X64025758Y52411279D01*
X63911742Y52335096D01*
X63785054Y52282620D01*
X63650563Y52255868D01*
X63513437Y52255868D01*
X63378946Y52282620D01*
X63252258Y52335096D01*
X63138242Y52411279D01*
X63041279Y52508242D01*
X62965096Y52622258D01*
X62912620Y52748946D01*
X62885868Y52883437D01*
X62885868Y53020563D01*
X62912620Y53155054D01*
X62965096Y53281742D01*
X63041279Y53395758D01*
X63138242Y53492721D01*
X63252258Y53568904D01*
X63378946Y53621380D01*
X63513437Y53648132D01*
X63650563Y53648132D01*
X63785054Y53621380D01*
G37*
G36*
X10101546Y54112203D02*
G01*
X10264728Y54044611D01*
X10411588Y53946482D01*
X10536482Y53821588D01*
X10634611Y53674728D01*
X10702203Y53511546D01*
X10736661Y53338313D01*
X10736661Y53161687D01*
X10702203Y52988454D01*
X10634611Y52825272D01*
X10536482Y52678412D01*
X10411588Y52553518D01*
X10264728Y52455389D01*
X10101546Y52387797D01*
X9928313Y52353339D01*
X9751687Y52353339D01*
X9578454Y52387797D01*
X9415272Y52455389D01*
X9268412Y52553518D01*
X9143518Y52678412D01*
X9045389Y52825272D01*
X8977797Y52988454D01*
X8943339Y53161687D01*
X8943339Y53338313D01*
X8977797Y53511546D01*
X9045389Y53674728D01*
X9143518Y53821588D01*
X9268412Y53946482D01*
X9415272Y54044611D01*
X9578454Y54112203D01*
X9751687Y54146661D01*
X9928313Y54146661D01*
X10101546Y54112203D01*
G37*
G36*
X12641546Y54112203D02*
G01*
X12804728Y54044611D01*
X12951588Y53946482D01*
X13076482Y53821588D01*
X13174611Y53674728D01*
X13242203Y53511546D01*
X13276661Y53338313D01*
X13276661Y53161687D01*
X13242203Y52988454D01*
X13174611Y52825272D01*
X13076482Y52678412D01*
X12951588Y52553518D01*
X12804728Y52455389D01*
X12641546Y52387797D01*
X12468313Y52353339D01*
X12291687Y52353339D01*
X12118454Y52387797D01*
X11955272Y52455389D01*
X11808412Y52553518D01*
X11683518Y52678412D01*
X11585389Y52825272D01*
X11517797Y52988454D01*
X11483339Y53161687D01*
X11483339Y53338313D01*
X11517797Y53511546D01*
X11585389Y53674728D01*
X11683518Y53821588D01*
X11808412Y53946482D01*
X11955272Y54044611D01*
X12118454Y54112203D01*
X12291687Y54146661D01*
X12468313Y54146661D01*
X12641546Y54112203D01*
G37*
G36*
X30355567Y53208397D02*
G01*
X30363678Y53202978D01*
X30369097Y53194867D01*
X30371000Y53185300D01*
X30371000Y52545300D01*
X30369097Y52535733D01*
X30363678Y52527622D01*
X30355567Y52522203D01*
X30346000Y52520300D01*
X28316000Y52520300D01*
X28306433Y52522203D01*
X28298322Y52527622D01*
X28292903Y52535733D01*
X28291000Y52545300D01*
X28291000Y53185300D01*
X28292903Y53194867D01*
X28298322Y53202978D01*
X28306433Y53208397D01*
X28316000Y53210300D01*
X30346000Y53210300D01*
X30355567Y53208397D01*
G37*
G36*
X48153567Y53208397D02*
G01*
X48161678Y53202978D01*
X48167097Y53194867D01*
X48169000Y53185300D01*
X48169000Y52545300D01*
X48167097Y52535733D01*
X48161678Y52527622D01*
X48153567Y52522203D01*
X48144000Y52520300D01*
X46114000Y52520300D01*
X46104433Y52522203D01*
X46096322Y52527622D01*
X46090903Y52535733D01*
X46089000Y52545300D01*
X46089000Y53185300D01*
X46090903Y53194867D01*
X46096322Y53202978D01*
X46104433Y53208397D01*
X46114000Y53210300D01*
X48144000Y53210300D01*
X48153567Y53208397D01*
G37*
G36*
X65563054Y54637380D02*
G01*
X65689742Y54584904D01*
X65803758Y54508721D01*
X65900721Y54411758D01*
X65976904Y54297742D01*
X66029380Y54171054D01*
X66056132Y54036563D01*
X66056132Y53899437D01*
X66029380Y53764946D01*
X65976904Y53638258D01*
X65900721Y53524242D01*
X65803758Y53427279D01*
X65689742Y53351096D01*
X65563054Y53298620D01*
X65428563Y53271868D01*
X65291437Y53271868D01*
X65156946Y53298620D01*
X65030258Y53351096D01*
X64916242Y53427279D01*
X64819279Y53524242D01*
X64743096Y53638258D01*
X64690620Y53764946D01*
X64663868Y53899437D01*
X64663868Y54036563D01*
X64690620Y54171054D01*
X64743096Y54297742D01*
X64819279Y54411758D01*
X64916242Y54508721D01*
X65030258Y54584904D01*
X65156946Y54637380D01*
X65291437Y54664132D01*
X65428563Y54664132D01*
X65563054Y54637380D01*
G37*
G36*
X30355567Y54198997D02*
G01*
X30363678Y54193578D01*
X30369097Y54185467D01*
X30371000Y54175900D01*
X30371000Y53535900D01*
X30369097Y53526333D01*
X30363678Y53518222D01*
X30355567Y53512803D01*
X30346000Y53510900D01*
X28316000Y53510900D01*
X28306433Y53512803D01*
X28298322Y53518222D01*
X28292903Y53526333D01*
X28291000Y53535900D01*
X28291000Y54175900D01*
X28292903Y54185467D01*
X28298322Y54193578D01*
X28306433Y54198997D01*
X28316000Y54200900D01*
X30346000Y54200900D01*
X30355567Y54198997D01*
G37*
G36*
X48153567Y54198997D02*
G01*
X48161678Y54193578D01*
X48167097Y54185467D01*
X48169000Y54175900D01*
X48169000Y53535900D01*
X48167097Y53526333D01*
X48161678Y53518222D01*
X48153567Y53512803D01*
X48144000Y53510900D01*
X46114000Y53510900D01*
X46104433Y53512803D01*
X46096322Y53518222D01*
X46090903Y53526333D01*
X46089000Y53535900D01*
X46089000Y54175900D01*
X46090903Y54185467D01*
X46096322Y54193578D01*
X46104433Y54198997D01*
X46114000Y54200900D01*
X48144000Y54200900D01*
X48153567Y54198997D01*
G37*
G36*
X63785054Y55653380D02*
G01*
X63911742Y55600904D01*
X64025758Y55524721D01*
X64122721Y55427758D01*
X64198904Y55313742D01*
X64251380Y55187054D01*
X64278132Y55052563D01*
X64278132Y54915437D01*
X64251380Y54780946D01*
X64198904Y54654258D01*
X64122721Y54540242D01*
X64025758Y54443279D01*
X63911742Y54367096D01*
X63785054Y54314620D01*
X63650563Y54287868D01*
X63513437Y54287868D01*
X63378946Y54314620D01*
X63252258Y54367096D01*
X63138242Y54443279D01*
X63041279Y54540242D01*
X62965096Y54654258D01*
X62912620Y54780946D01*
X62885868Y54915437D01*
X62885868Y55052563D01*
X62912620Y55187054D01*
X62965096Y55313742D01*
X63041279Y55427758D01*
X63138242Y55524721D01*
X63252258Y55600904D01*
X63378946Y55653380D01*
X63513437Y55680132D01*
X63650563Y55680132D01*
X63785054Y55653380D01*
G37*
G36*
X50718538Y55237810D02*
G01*
X50750837Y55233558D01*
X50758962Y55229769D01*
X50778463Y55225890D01*
X50804295Y55208630D01*
X50815248Y55203522D01*
X50821910Y55196860D01*
X50842861Y55182861D01*
X50856859Y55161911D01*
X50863521Y55155249D01*
X50868627Y55144299D01*
X50885890Y55118463D01*
X50889769Y55098961D01*
X50893557Y55090838D01*
X50897807Y55058550D01*
X50901000Y55042500D01*
X50901000Y54697500D01*
X50897806Y54681448D01*
X50893557Y54649163D01*
X50889769Y54641042D01*
X50885890Y54621537D01*
X50868625Y54595700D01*
X50863521Y54584752D01*
X50856861Y54578093D01*
X50842861Y54557139D01*
X50821907Y54543139D01*
X50815248Y54536479D01*
X50804300Y54531375D01*
X50778463Y54514110D01*
X50758958Y54510231D01*
X50750837Y54506443D01*
X50718551Y54502193D01*
X50702500Y54499000D01*
X50407500Y54499000D01*
X50391449Y54502193D01*
X50359162Y54506443D01*
X50351039Y54510231D01*
X50331537Y54514110D01*
X50305701Y54531373D01*
X50294751Y54536479D01*
X50288089Y54543141D01*
X50267139Y54557139D01*
X50253140Y54578090D01*
X50246478Y54584752D01*
X50241370Y54595705D01*
X50224110Y54621537D01*
X50220231Y54641038D01*
X50216442Y54649163D01*
X50212189Y54681464D01*
X50209000Y54697500D01*
X50209000Y55042500D01*
X50212189Y55058537D01*
X50216442Y55090838D01*
X50220231Y55098965D01*
X50224110Y55118463D01*
X50241369Y55144294D01*
X50246478Y55155249D01*
X50253142Y55161914D01*
X50267139Y55182861D01*
X50288086Y55196858D01*
X50294751Y55203522D01*
X50305706Y55208631D01*
X50331537Y55225890D01*
X50351035Y55229769D01*
X50359162Y55233558D01*
X50391465Y55237811D01*
X50407500Y55241000D01*
X50702500Y55241000D01*
X50718538Y55237810D01*
G37*
G36*
X51688538Y55237810D02*
G01*
X51720837Y55233558D01*
X51728962Y55229769D01*
X51748463Y55225890D01*
X51774295Y55208630D01*
X51785248Y55203522D01*
X51791910Y55196860D01*
X51812861Y55182861D01*
X51826859Y55161911D01*
X51833521Y55155249D01*
X51838627Y55144299D01*
X51855890Y55118463D01*
X51859769Y55098961D01*
X51863557Y55090838D01*
X51867807Y55058550D01*
X51871000Y55042500D01*
X51871000Y54697500D01*
X51867806Y54681448D01*
X51863557Y54649163D01*
X51859769Y54641042D01*
X51855890Y54621537D01*
X51838625Y54595700D01*
X51833521Y54584752D01*
X51826861Y54578093D01*
X51812861Y54557139D01*
X51791907Y54543139D01*
X51785248Y54536479D01*
X51774300Y54531375D01*
X51748463Y54514110D01*
X51728958Y54510231D01*
X51720837Y54506443D01*
X51688551Y54502193D01*
X51672500Y54499000D01*
X51377500Y54499000D01*
X51361449Y54502193D01*
X51329162Y54506443D01*
X51321039Y54510231D01*
X51301537Y54514110D01*
X51275701Y54531373D01*
X51264751Y54536479D01*
X51258089Y54543141D01*
X51237139Y54557139D01*
X51223140Y54578090D01*
X51216478Y54584752D01*
X51211370Y54595705D01*
X51194110Y54621537D01*
X51190231Y54641038D01*
X51186442Y54649163D01*
X51182189Y54681464D01*
X51179000Y54697500D01*
X51179000Y55042500D01*
X51182189Y55058537D01*
X51186442Y55090838D01*
X51190231Y55098965D01*
X51194110Y55118463D01*
X51211369Y55144294D01*
X51216478Y55155249D01*
X51223142Y55161914D01*
X51237139Y55182861D01*
X51258086Y55196858D01*
X51264751Y55203522D01*
X51275706Y55208631D01*
X51301537Y55225890D01*
X51321035Y55229769D01*
X51329162Y55233558D01*
X51361465Y55237811D01*
X51377500Y55241000D01*
X51672500Y55241000D01*
X51688538Y55237810D01*
G37*
G36*
X30355567Y55189597D02*
G01*
X30363678Y55184178D01*
X30369097Y55176067D01*
X30371000Y55166500D01*
X30371000Y54526500D01*
X30369097Y54516933D01*
X30363678Y54508822D01*
X30355567Y54503403D01*
X30346000Y54501500D01*
X28316000Y54501500D01*
X28306433Y54503403D01*
X28298322Y54508822D01*
X28292903Y54516933D01*
X28291000Y54526500D01*
X28291000Y55166500D01*
X28292903Y55176067D01*
X28298322Y55184178D01*
X28306433Y55189597D01*
X28316000Y55191500D01*
X30346000Y55191500D01*
X30355567Y55189597D01*
G37*
G36*
X48153567Y55189597D02*
G01*
X48161678Y55184178D01*
X48167097Y55176067D01*
X48169000Y55166500D01*
X48169000Y54526500D01*
X48167097Y54516933D01*
X48161678Y54508822D01*
X48153567Y54503403D01*
X48144000Y54501500D01*
X46114000Y54501500D01*
X46104433Y54503403D01*
X46096322Y54508822D01*
X46090903Y54516933D01*
X46089000Y54526500D01*
X46089000Y55166500D01*
X46090903Y55176067D01*
X46096322Y55184178D01*
X46104433Y55189597D01*
X46114000Y55191500D01*
X48144000Y55191500D01*
X48153567Y55189597D01*
G37*
G36*
X25658538Y55247810D02*
G01*
X25690837Y55243558D01*
X25698962Y55239769D01*
X25718463Y55235890D01*
X25744295Y55218630D01*
X25755248Y55213522D01*
X25761910Y55206860D01*
X25782861Y55192861D01*
X25796859Y55171911D01*
X25803521Y55165249D01*
X25808627Y55154299D01*
X25825890Y55128463D01*
X25829769Y55108961D01*
X25833557Y55100838D01*
X25837807Y55068550D01*
X25841000Y55052500D01*
X25841000Y54707500D01*
X25837806Y54691448D01*
X25833557Y54659163D01*
X25829769Y54651042D01*
X25825890Y54631537D01*
X25808625Y54605700D01*
X25803521Y54594752D01*
X25796861Y54588093D01*
X25782861Y54567139D01*
X25761907Y54553139D01*
X25755248Y54546479D01*
X25744300Y54541375D01*
X25718463Y54524110D01*
X25698958Y54520231D01*
X25690837Y54516443D01*
X25658551Y54512193D01*
X25642500Y54509000D01*
X25347500Y54509000D01*
X25331449Y54512193D01*
X25299162Y54516443D01*
X25291039Y54520231D01*
X25271537Y54524110D01*
X25245701Y54541373D01*
X25234751Y54546479D01*
X25228089Y54553141D01*
X25207139Y54567139D01*
X25193140Y54588090D01*
X25186478Y54594752D01*
X25181370Y54605705D01*
X25164110Y54631537D01*
X25160231Y54651038D01*
X25156442Y54659163D01*
X25152189Y54691464D01*
X25149000Y54707500D01*
X25149000Y55052500D01*
X25152189Y55068537D01*
X25156442Y55100838D01*
X25160231Y55108965D01*
X25164110Y55128463D01*
X25181369Y55154294D01*
X25186478Y55165249D01*
X25193142Y55171914D01*
X25207139Y55192861D01*
X25228086Y55206858D01*
X25234751Y55213522D01*
X25245706Y55218631D01*
X25271537Y55235890D01*
X25291035Y55239769D01*
X25299162Y55243558D01*
X25331465Y55247811D01*
X25347500Y55251000D01*
X25642500Y55251000D01*
X25658538Y55247810D01*
G37*
G36*
X26628538Y55247810D02*
G01*
X26660837Y55243558D01*
X26668962Y55239769D01*
X26688463Y55235890D01*
X26714295Y55218630D01*
X26725248Y55213522D01*
X26731910Y55206860D01*
X26752861Y55192861D01*
X26766859Y55171911D01*
X26773521Y55165249D01*
X26778627Y55154299D01*
X26795890Y55128463D01*
X26799769Y55108961D01*
X26803557Y55100838D01*
X26807807Y55068550D01*
X26811000Y55052500D01*
X26811000Y54707500D01*
X26807806Y54691448D01*
X26803557Y54659163D01*
X26799769Y54651042D01*
X26795890Y54631537D01*
X26778625Y54605700D01*
X26773521Y54594752D01*
X26766861Y54588093D01*
X26752861Y54567139D01*
X26731907Y54553139D01*
X26725248Y54546479D01*
X26714300Y54541375D01*
X26688463Y54524110D01*
X26668958Y54520231D01*
X26660837Y54516443D01*
X26628551Y54512193D01*
X26612500Y54509000D01*
X26317500Y54509000D01*
X26301449Y54512193D01*
X26269162Y54516443D01*
X26261039Y54520231D01*
X26241537Y54524110D01*
X26215701Y54541373D01*
X26204751Y54546479D01*
X26198089Y54553141D01*
X26177139Y54567139D01*
X26163140Y54588090D01*
X26156478Y54594752D01*
X26151370Y54605705D01*
X26134110Y54631537D01*
X26130231Y54651038D01*
X26126442Y54659163D01*
X26122189Y54691464D01*
X26119000Y54707500D01*
X26119000Y55052500D01*
X26122189Y55068537D01*
X26126442Y55100838D01*
X26130231Y55108965D01*
X26134110Y55128463D01*
X26151369Y55154294D01*
X26156478Y55165249D01*
X26163142Y55171914D01*
X26177139Y55192861D01*
X26198086Y55206858D01*
X26204751Y55213522D01*
X26215706Y55218631D01*
X26241537Y55235890D01*
X26261035Y55239769D01*
X26269162Y55243558D01*
X26301465Y55247811D01*
X26317500Y55251000D01*
X26612500Y55251000D01*
X26628538Y55247810D01*
G37*
G36*
X10101546Y56652203D02*
G01*
X10264728Y56584611D01*
X10411588Y56486482D01*
X10536482Y56361588D01*
X10634611Y56214728D01*
X10702203Y56051546D01*
X10736661Y55878313D01*
X10736661Y55701687D01*
X10702203Y55528454D01*
X10634611Y55365272D01*
X10536482Y55218412D01*
X10411588Y55093518D01*
X10264728Y54995389D01*
X10101546Y54927797D01*
X9928313Y54893339D01*
X9751687Y54893339D01*
X9578454Y54927797D01*
X9415272Y54995389D01*
X9268412Y55093518D01*
X9143518Y55218412D01*
X9045389Y55365272D01*
X8977797Y55528454D01*
X8943339Y55701687D01*
X8943339Y55878313D01*
X8977797Y56051546D01*
X9045389Y56214728D01*
X9143518Y56361588D01*
X9268412Y56486482D01*
X9415272Y56584611D01*
X9578454Y56652203D01*
X9751687Y56686661D01*
X9928313Y56686661D01*
X10101546Y56652203D01*
G37*
G36*
X12641546Y56652203D02*
G01*
X12804728Y56584611D01*
X12951588Y56486482D01*
X13076482Y56361588D01*
X13174611Y56214728D01*
X13242203Y56051546D01*
X13276661Y55878313D01*
X13276661Y55701687D01*
X13242203Y55528454D01*
X13174611Y55365272D01*
X13076482Y55218412D01*
X12951588Y55093518D01*
X12804728Y54995389D01*
X12641546Y54927797D01*
X12468313Y54893339D01*
X12291687Y54893339D01*
X12118454Y54927797D01*
X11955272Y54995389D01*
X11808412Y55093518D01*
X11683518Y55218412D01*
X11585389Y55365272D01*
X11517797Y55528454D01*
X11483339Y55701687D01*
X11483339Y55878313D01*
X11517797Y56051546D01*
X11585389Y56214728D01*
X11683518Y56361588D01*
X11808412Y56486482D01*
X11955272Y56584611D01*
X12118454Y56652203D01*
X12291687Y56686661D01*
X12468313Y56686661D01*
X12641546Y56652203D01*
G37*
G36*
X65563054Y56669380D02*
G01*
X65689742Y56616904D01*
X65803758Y56540721D01*
X65900721Y56443758D01*
X65976904Y56329742D01*
X66029380Y56203054D01*
X66056132Y56068563D01*
X66056132Y55931437D01*
X66029380Y55796946D01*
X65976904Y55670258D01*
X65900721Y55556242D01*
X65803758Y55459279D01*
X65689742Y55383096D01*
X65563054Y55330620D01*
X65428563Y55303868D01*
X65291437Y55303868D01*
X65156946Y55330620D01*
X65030258Y55383096D01*
X64916242Y55459279D01*
X64819279Y55556242D01*
X64743096Y55670258D01*
X64690620Y55796946D01*
X64663868Y55931437D01*
X64663868Y56068563D01*
X64690620Y56203054D01*
X64743096Y56329742D01*
X64819279Y56443758D01*
X64916242Y56540721D01*
X65030258Y56616904D01*
X65156946Y56669380D01*
X65291437Y56696132D01*
X65428563Y56696132D01*
X65563054Y56669380D01*
G37*
G36*
X30355567Y56180197D02*
G01*
X30363678Y56174778D01*
X30369097Y56166667D01*
X30371000Y56157100D01*
X30371000Y55517100D01*
X30369097Y55507533D01*
X30363678Y55499422D01*
X30355567Y55494003D01*
X30346000Y55492100D01*
X28316000Y55492100D01*
X28306433Y55494003D01*
X28298322Y55499422D01*
X28292903Y55507533D01*
X28291000Y55517100D01*
X28291000Y56157100D01*
X28292903Y56166667D01*
X28298322Y56174778D01*
X28306433Y56180197D01*
X28316000Y56182100D01*
X30346000Y56182100D01*
X30355567Y56180197D01*
G37*
G36*
X48153567Y56180197D02*
G01*
X48161678Y56174778D01*
X48167097Y56166667D01*
X48169000Y56157100D01*
X48169000Y55517100D01*
X48167097Y55507533D01*
X48161678Y55499422D01*
X48153567Y55494003D01*
X48144000Y55492100D01*
X46114000Y55492100D01*
X46104433Y55494003D01*
X46096322Y55499422D01*
X46090903Y55507533D01*
X46089000Y55517100D01*
X46089000Y56157100D01*
X46090903Y56166667D01*
X46096322Y56174778D01*
X46104433Y56180197D01*
X46114000Y56182100D01*
X48144000Y56182100D01*
X48153567Y56180197D01*
G37*
G36*
X30355567Y57170797D02*
G01*
X30363678Y57165378D01*
X30369097Y57157267D01*
X30371000Y57147700D01*
X30371000Y56507700D01*
X30369097Y56498133D01*
X30363678Y56490022D01*
X30355567Y56484603D01*
X30346000Y56482700D01*
X28316000Y56482700D01*
X28306433Y56484603D01*
X28298322Y56490022D01*
X28292903Y56498133D01*
X28291000Y56507700D01*
X28291000Y57147700D01*
X28292903Y57157267D01*
X28298322Y57165378D01*
X28306433Y57170797D01*
X28316000Y57172700D01*
X30346000Y57172700D01*
X30355567Y57170797D01*
G37*
G36*
X48153567Y57170797D02*
G01*
X48161678Y57165378D01*
X48167097Y57157267D01*
X48169000Y57147700D01*
X48169000Y56507700D01*
X48167097Y56498133D01*
X48161678Y56490022D01*
X48153567Y56484603D01*
X48144000Y56482700D01*
X46114000Y56482700D01*
X46104433Y56484603D01*
X46096322Y56490022D01*
X46090903Y56498133D01*
X46089000Y56507700D01*
X46089000Y57147700D01*
X46090903Y57157267D01*
X46096322Y57165378D01*
X46104433Y57170797D01*
X46114000Y57172700D01*
X48144000Y57172700D01*
X48153567Y57170797D01*
G37*
G36*
X68227088Y60438385D02*
G01*
X68438925Y60381623D01*
X68641541Y60297697D01*
X68831469Y60188042D01*
X69005459Y60054535D01*
X69160535Y59899459D01*
X69294042Y59725469D01*
X69403697Y59535541D01*
X69487623Y59332925D01*
X69544385Y59121088D01*
X69573010Y58903655D01*
X69573010Y58684345D01*
X69544385Y58466912D01*
X69487623Y58255075D01*
X69403697Y58052459D01*
X69294042Y57862531D01*
X69160535Y57688541D01*
X69005459Y57533465D01*
X68831469Y57399958D01*
X68641541Y57290303D01*
X68438925Y57206377D01*
X68227088Y57149615D01*
X68009655Y57120990D01*
X67790345Y57120990D01*
X67572912Y57149615D01*
X67361075Y57206377D01*
X67158459Y57290303D01*
X66968531Y57399958D01*
X66794541Y57533465D01*
X66639465Y57688541D01*
X66505958Y57862531D01*
X66396303Y58052459D01*
X66312377Y58255075D01*
X66255615Y58466912D01*
X66226990Y58684345D01*
X66226990Y58903655D01*
X66255615Y59121088D01*
X66312377Y59332925D01*
X66396303Y59535541D01*
X66505958Y59725469D01*
X66639465Y59899459D01*
X66794541Y60054535D01*
X66968531Y60188042D01*
X67158459Y60297697D01*
X67361075Y60381623D01*
X67572912Y60438385D01*
X67790345Y60467010D01*
X68009655Y60467010D01*
X68227088Y60438385D01*
G37*
G36*
X25638538Y58187810D02*
G01*
X25670837Y58183558D01*
X25678962Y58179769D01*
X25698463Y58175890D01*
X25724295Y58158630D01*
X25735248Y58153522D01*
X25741910Y58146860D01*
X25762861Y58132861D01*
X25776859Y58111911D01*
X25783521Y58105249D01*
X25788627Y58094299D01*
X25805890Y58068463D01*
X25809769Y58048961D01*
X25813557Y58040838D01*
X25817807Y58008550D01*
X25821000Y57992500D01*
X25821000Y57647500D01*
X25817806Y57631448D01*
X25813557Y57599163D01*
X25809769Y57591042D01*
X25805890Y57571537D01*
X25788625Y57545700D01*
X25783521Y57534752D01*
X25776861Y57528093D01*
X25762861Y57507139D01*
X25741907Y57493139D01*
X25735248Y57486479D01*
X25724300Y57481375D01*
X25698463Y57464110D01*
X25678958Y57460231D01*
X25670837Y57456443D01*
X25638551Y57452193D01*
X25622500Y57449000D01*
X25327500Y57449000D01*
X25311449Y57452193D01*
X25279162Y57456443D01*
X25271039Y57460231D01*
X25251537Y57464110D01*
X25225701Y57481373D01*
X25214751Y57486479D01*
X25208089Y57493141D01*
X25187139Y57507139D01*
X25173140Y57528090D01*
X25166478Y57534752D01*
X25161370Y57545705D01*
X25144110Y57571537D01*
X25140231Y57591038D01*
X25136442Y57599163D01*
X25132189Y57631464D01*
X25129000Y57647500D01*
X25129000Y57992500D01*
X25132189Y58008537D01*
X25136442Y58040838D01*
X25140231Y58048965D01*
X25144110Y58068463D01*
X25161369Y58094294D01*
X25166478Y58105249D01*
X25173142Y58111914D01*
X25187139Y58132861D01*
X25208086Y58146858D01*
X25214751Y58153522D01*
X25225706Y58158631D01*
X25251537Y58175890D01*
X25271035Y58179769D01*
X25279162Y58183558D01*
X25311465Y58187811D01*
X25327500Y58191000D01*
X25622500Y58191000D01*
X25638538Y58187810D01*
G37*
G36*
X26608538Y58187810D02*
G01*
X26640837Y58183558D01*
X26648962Y58179769D01*
X26668463Y58175890D01*
X26694295Y58158630D01*
X26705248Y58153522D01*
X26711910Y58146860D01*
X26732861Y58132861D01*
X26746859Y58111911D01*
X26753521Y58105249D01*
X26758627Y58094299D01*
X26775890Y58068463D01*
X26779769Y58048961D01*
X26783557Y58040838D01*
X26787807Y58008550D01*
X26791000Y57992500D01*
X26791000Y57647500D01*
X26787806Y57631448D01*
X26783557Y57599163D01*
X26779769Y57591042D01*
X26775890Y57571537D01*
X26758625Y57545700D01*
X26753521Y57534752D01*
X26746861Y57528093D01*
X26732861Y57507139D01*
X26711907Y57493139D01*
X26705248Y57486479D01*
X26694300Y57481375D01*
X26668463Y57464110D01*
X26648958Y57460231D01*
X26640837Y57456443D01*
X26608551Y57452193D01*
X26592500Y57449000D01*
X26297500Y57449000D01*
X26281449Y57452193D01*
X26249162Y57456443D01*
X26241039Y57460231D01*
X26221537Y57464110D01*
X26195701Y57481373D01*
X26184751Y57486479D01*
X26178089Y57493141D01*
X26157139Y57507139D01*
X26143140Y57528090D01*
X26136478Y57534752D01*
X26131370Y57545705D01*
X26114110Y57571537D01*
X26110231Y57591038D01*
X26106442Y57599163D01*
X26102189Y57631464D01*
X26099000Y57647500D01*
X26099000Y57992500D01*
X26102189Y58008537D01*
X26106442Y58040838D01*
X26110231Y58048965D01*
X26114110Y58068463D01*
X26131369Y58094294D01*
X26136478Y58105249D01*
X26143142Y58111914D01*
X26157139Y58132861D01*
X26178086Y58146858D01*
X26184751Y58153522D01*
X26195706Y58158631D01*
X26221537Y58175890D01*
X26241035Y58179769D01*
X26249162Y58183558D01*
X26281465Y58187811D01*
X26297500Y58191000D01*
X26592500Y58191000D01*
X26608538Y58187810D01*
G37*
G36*
X50758538Y58207810D02*
G01*
X50790837Y58203558D01*
X50798962Y58199769D01*
X50818463Y58195890D01*
X50844295Y58178630D01*
X50855248Y58173522D01*
X50861910Y58166860D01*
X50882861Y58152861D01*
X50896859Y58131911D01*
X50903521Y58125249D01*
X50908627Y58114299D01*
X50925890Y58088463D01*
X50929769Y58068961D01*
X50933557Y58060838D01*
X50937807Y58028550D01*
X50941000Y58012500D01*
X50941000Y57667500D01*
X50937806Y57651448D01*
X50933557Y57619163D01*
X50929769Y57611042D01*
X50925890Y57591537D01*
X50908625Y57565700D01*
X50903521Y57554752D01*
X50896861Y57548093D01*
X50882861Y57527139D01*
X50861907Y57513139D01*
X50855248Y57506479D01*
X50844300Y57501375D01*
X50818463Y57484110D01*
X50798958Y57480231D01*
X50790837Y57476443D01*
X50758551Y57472193D01*
X50742500Y57469000D01*
X50447500Y57469000D01*
X50431449Y57472193D01*
X50399162Y57476443D01*
X50391039Y57480231D01*
X50371537Y57484110D01*
X50345701Y57501373D01*
X50334751Y57506479D01*
X50328089Y57513141D01*
X50307139Y57527139D01*
X50293140Y57548090D01*
X50286478Y57554752D01*
X50281370Y57565705D01*
X50264110Y57591537D01*
X50260231Y57611038D01*
X50256442Y57619163D01*
X50252189Y57651464D01*
X50249000Y57667500D01*
X50249000Y58012500D01*
X50252189Y58028537D01*
X50256442Y58060838D01*
X50260231Y58068965D01*
X50264110Y58088463D01*
X50281369Y58114294D01*
X50286478Y58125249D01*
X50293142Y58131914D01*
X50307139Y58152861D01*
X50328086Y58166858D01*
X50334751Y58173522D01*
X50345706Y58178631D01*
X50371537Y58195890D01*
X50391035Y58199769D01*
X50399162Y58203558D01*
X50431465Y58207811D01*
X50447500Y58211000D01*
X50742500Y58211000D01*
X50758538Y58207810D01*
G37*
G36*
X51728538Y58207810D02*
G01*
X51760837Y58203558D01*
X51768962Y58199769D01*
X51788463Y58195890D01*
X51814295Y58178630D01*
X51825248Y58173522D01*
X51831910Y58166860D01*
X51852861Y58152861D01*
X51866859Y58131911D01*
X51873521Y58125249D01*
X51878627Y58114299D01*
X51895890Y58088463D01*
X51899769Y58068961D01*
X51903557Y58060838D01*
X51907807Y58028550D01*
X51911000Y58012500D01*
X51911000Y57667500D01*
X51907806Y57651448D01*
X51903557Y57619163D01*
X51899769Y57611042D01*
X51895890Y57591537D01*
X51878625Y57565700D01*
X51873521Y57554752D01*
X51866861Y57548093D01*
X51852861Y57527139D01*
X51831907Y57513139D01*
X51825248Y57506479D01*
X51814300Y57501375D01*
X51788463Y57484110D01*
X51768958Y57480231D01*
X51760837Y57476443D01*
X51728551Y57472193D01*
X51712500Y57469000D01*
X51417500Y57469000D01*
X51401449Y57472193D01*
X51369162Y57476443D01*
X51361039Y57480231D01*
X51341537Y57484110D01*
X51315701Y57501373D01*
X51304751Y57506479D01*
X51298089Y57513141D01*
X51277139Y57527139D01*
X51263140Y57548090D01*
X51256478Y57554752D01*
X51251370Y57565705D01*
X51234110Y57591537D01*
X51230231Y57611038D01*
X51226442Y57619163D01*
X51222189Y57651464D01*
X51219000Y57667500D01*
X51219000Y58012500D01*
X51222189Y58028537D01*
X51226442Y58060838D01*
X51230231Y58068965D01*
X51234110Y58088463D01*
X51251369Y58114294D01*
X51256478Y58125249D01*
X51263142Y58131914D01*
X51277139Y58152861D01*
X51298086Y58166858D01*
X51304751Y58173522D01*
X51315706Y58178631D01*
X51341537Y58195890D01*
X51361035Y58199769D01*
X51369162Y58203558D01*
X51401465Y58207811D01*
X51417500Y58211000D01*
X51712500Y58211000D01*
X51728538Y58207810D01*
G37*
G36*
X30355567Y58161397D02*
G01*
X30363678Y58155978D01*
X30369097Y58147867D01*
X30371000Y58138300D01*
X30371000Y57498300D01*
X30369097Y57488733D01*
X30363678Y57480622D01*
X30355567Y57475203D01*
X30346000Y57473300D01*
X28316000Y57473300D01*
X28306433Y57475203D01*
X28298322Y57480622D01*
X28292903Y57488733D01*
X28291000Y57498300D01*
X28291000Y58138300D01*
X28292903Y58147867D01*
X28298322Y58155978D01*
X28306433Y58161397D01*
X28316000Y58163300D01*
X30346000Y58163300D01*
X30355567Y58161397D01*
G37*
G36*
X48153567Y58161397D02*
G01*
X48161678Y58155978D01*
X48167097Y58147867D01*
X48169000Y58138300D01*
X48169000Y57498300D01*
X48167097Y57488733D01*
X48161678Y57480622D01*
X48153567Y57475203D01*
X48144000Y57473300D01*
X46114000Y57473300D01*
X46104433Y57475203D01*
X46096322Y57480622D01*
X46090903Y57488733D01*
X46089000Y57498300D01*
X46089000Y58138300D01*
X46090903Y58147867D01*
X46096322Y58155978D01*
X46104433Y58161397D01*
X46114000Y58163300D01*
X48144000Y58163300D01*
X48153567Y58161397D01*
G37*
G36*
X53718538Y59137810D02*
G01*
X53750837Y59133558D01*
X53758962Y59129769D01*
X53778463Y59125890D01*
X53804295Y59108630D01*
X53815248Y59103522D01*
X53821910Y59096860D01*
X53842861Y59082861D01*
X53856859Y59061911D01*
X53863521Y59055249D01*
X53868627Y59044299D01*
X53885890Y59018463D01*
X53889769Y58998961D01*
X53893557Y58990838D01*
X53897807Y58958550D01*
X53901000Y58942500D01*
X53901000Y58597500D01*
X53897806Y58581448D01*
X53893557Y58549163D01*
X53889769Y58541042D01*
X53885890Y58521537D01*
X53868625Y58495700D01*
X53863521Y58484752D01*
X53856861Y58478093D01*
X53842861Y58457139D01*
X53821907Y58443139D01*
X53815248Y58436479D01*
X53804300Y58431375D01*
X53778463Y58414110D01*
X53758958Y58410231D01*
X53750837Y58406443D01*
X53718551Y58402193D01*
X53702500Y58399000D01*
X53407500Y58399000D01*
X53391449Y58402193D01*
X53359162Y58406443D01*
X53351039Y58410231D01*
X53331537Y58414110D01*
X53305701Y58431373D01*
X53294751Y58436479D01*
X53288089Y58443141D01*
X53267139Y58457139D01*
X53253140Y58478090D01*
X53246478Y58484752D01*
X53241370Y58495705D01*
X53224110Y58521537D01*
X53220231Y58541038D01*
X53216442Y58549163D01*
X53212189Y58581464D01*
X53209000Y58597500D01*
X53209000Y58942500D01*
X53212189Y58958537D01*
X53216442Y58990838D01*
X53220231Y58998965D01*
X53224110Y59018463D01*
X53241369Y59044294D01*
X53246478Y59055249D01*
X53253142Y59061914D01*
X53267139Y59082861D01*
X53288086Y59096858D01*
X53294751Y59103522D01*
X53305706Y59108631D01*
X53331537Y59125890D01*
X53351035Y59129769D01*
X53359162Y59133558D01*
X53391465Y59137811D01*
X53407500Y59141000D01*
X53702500Y59141000D01*
X53718538Y59137810D01*
G37*
G36*
X54688538Y59137810D02*
G01*
X54720837Y59133558D01*
X54728962Y59129769D01*
X54748463Y59125890D01*
X54774295Y59108630D01*
X54785248Y59103522D01*
X54791910Y59096860D01*
X54812861Y59082861D01*
X54826859Y59061911D01*
X54833521Y59055249D01*
X54838627Y59044299D01*
X54855890Y59018463D01*
X54859769Y58998961D01*
X54863557Y58990838D01*
X54867807Y58958550D01*
X54871000Y58942500D01*
X54871000Y58597500D01*
X54867806Y58581448D01*
X54863557Y58549163D01*
X54859769Y58541042D01*
X54855890Y58521537D01*
X54838625Y58495700D01*
X54833521Y58484752D01*
X54826861Y58478093D01*
X54812861Y58457139D01*
X54791907Y58443139D01*
X54785248Y58436479D01*
X54774300Y58431375D01*
X54748463Y58414110D01*
X54728958Y58410231D01*
X54720837Y58406443D01*
X54688551Y58402193D01*
X54672500Y58399000D01*
X54377500Y58399000D01*
X54361449Y58402193D01*
X54329162Y58406443D01*
X54321039Y58410231D01*
X54301537Y58414110D01*
X54275701Y58431373D01*
X54264751Y58436479D01*
X54258089Y58443141D01*
X54237139Y58457139D01*
X54223140Y58478090D01*
X54216478Y58484752D01*
X54211370Y58495705D01*
X54194110Y58521537D01*
X54190231Y58541038D01*
X54186442Y58549163D01*
X54182189Y58581464D01*
X54179000Y58597500D01*
X54179000Y58942500D01*
X54182189Y58958537D01*
X54186442Y58990838D01*
X54190231Y58998965D01*
X54194110Y59018463D01*
X54211369Y59044294D01*
X54216478Y59055249D01*
X54223142Y59061914D01*
X54237139Y59082861D01*
X54258086Y59096858D01*
X54264751Y59103522D01*
X54275706Y59108631D01*
X54301537Y59125890D01*
X54321035Y59129769D01*
X54329162Y59133558D01*
X54361465Y59137811D01*
X54377500Y59141000D01*
X54672500Y59141000D01*
X54688538Y59137810D01*
G37*
G36*
X64726016Y61634217D02*
G01*
X64889043Y61581246D01*
X65041777Y61503424D01*
X65180457Y61402667D01*
X65301667Y61281457D01*
X65402424Y61142777D01*
X65480246Y60990043D01*
X65533217Y60827016D01*
X65560032Y60657709D01*
X65560032Y60486291D01*
X65533217Y60316984D01*
X65480246Y60153957D01*
X65402424Y60001223D01*
X65301667Y59862543D01*
X65180457Y59741333D01*
X65041777Y59640576D01*
X64889043Y59562754D01*
X64726016Y59509783D01*
X64556709Y59482968D01*
X64385291Y59482968D01*
X64215984Y59509783D01*
X64052957Y59562754D01*
X63900223Y59640576D01*
X63761543Y59741333D01*
X63640333Y59862543D01*
X63539576Y60001223D01*
X63461754Y60153957D01*
X63408783Y60316984D01*
X63381968Y60486291D01*
X63381968Y60657709D01*
X63408783Y60827016D01*
X63461754Y60990043D01*
X63539576Y61142777D01*
X63640333Y61281457D01*
X63761543Y61402667D01*
X63900223Y61503424D01*
X64052957Y61581246D01*
X64215984Y61634217D01*
X64385291Y61661032D01*
X64556709Y61661032D01*
X64726016Y61634217D01*
G37*
G36*
X49243914Y65223005D02*
G01*
X49259726Y65216024D01*
X49267531Y65214787D01*
X49300039Y65198224D01*
X49345106Y65178324D01*
X49423324Y65100106D01*
X49443226Y65055033D01*
X49459786Y65022532D01*
X49461021Y65014730D01*
X49468005Y64998914D01*
X49476000Y64930000D01*
X49476000Y62030000D01*
X49468005Y61961086D01*
X49461021Y61945271D01*
X49459786Y61937469D01*
X49443229Y61904976D01*
X49423324Y61859894D01*
X49345106Y61781676D01*
X49300024Y61761771D01*
X49267531Y61745214D01*
X49259729Y61743979D01*
X49243914Y61736995D01*
X49175000Y61729000D01*
X48550000Y61729000D01*
X48481086Y61736995D01*
X48465270Y61743979D01*
X48457468Y61745214D01*
X48424967Y61761774D01*
X48379894Y61781676D01*
X48301676Y61859894D01*
X48281776Y61904961D01*
X48265213Y61937469D01*
X48263976Y61945274D01*
X48256995Y61961086D01*
X48249000Y62030000D01*
X48249000Y64930000D01*
X48256995Y64998914D01*
X48263976Y65014726D01*
X48265213Y65022532D01*
X48281780Y65055047D01*
X48301676Y65100106D01*
X48379894Y65178324D01*
X48424953Y65198220D01*
X48457468Y65214787D01*
X48465274Y65216024D01*
X48481086Y65223005D01*
X48550000Y65231000D01*
X49175000Y65231000D01*
X49243914Y65223005D01*
G37*
G36*
X53518914Y65223005D02*
G01*
X53534726Y65216024D01*
X53542531Y65214787D01*
X53575039Y65198224D01*
X53620106Y65178324D01*
X53698324Y65100106D01*
X53718226Y65055033D01*
X53734786Y65022532D01*
X53736021Y65014730D01*
X53743005Y64998914D01*
X53751000Y64930000D01*
X53751000Y62030000D01*
X53743005Y61961086D01*
X53736021Y61945271D01*
X53734786Y61937469D01*
X53718229Y61904976D01*
X53698324Y61859894D01*
X53620106Y61781676D01*
X53575024Y61761771D01*
X53542531Y61745214D01*
X53534729Y61743979D01*
X53518914Y61736995D01*
X53450000Y61729000D01*
X52825000Y61729000D01*
X52756086Y61736995D01*
X52740270Y61743979D01*
X52732468Y61745214D01*
X52699967Y61761774D01*
X52654894Y61781676D01*
X52576676Y61859894D01*
X52556776Y61904961D01*
X52540213Y61937469D01*
X52538976Y61945274D01*
X52531995Y61961086D01*
X52524000Y62030000D01*
X52524000Y64930000D01*
X52531995Y64998914D01*
X52538976Y65014726D01*
X52540213Y65022532D01*
X52556780Y65055047D01*
X52576676Y65100106D01*
X52654894Y65178324D01*
X52699953Y65198220D01*
X52732468Y65214787D01*
X52740274Y65216024D01*
X52756086Y65223005D01*
X52825000Y65231000D01*
X53450000Y65231000D01*
X53518914Y65223005D01*
G37*
G36*
X4117730Y71645911D02*
G01*
X4129536Y71645911D01*
X4187663Y71636705D01*
X4322042Y71619014D01*
X4354837Y71610227D01*
X4385418Y71605383D01*
X4444229Y71586274D01*
X4530611Y71563128D01*
X4585724Y71540300D01*
X4631810Y71525325D01*
X4674987Y71503326D01*
X4730099Y71480497D01*
X4807539Y71435787D01*
X4862645Y71407709D01*
X4887697Y71389508D01*
X4917096Y71372534D01*
X5024651Y71290005D01*
X5072239Y71255430D01*
X5080579Y71247090D01*
X5088401Y71241088D01*
X5241087Y71088402D01*
X5247088Y71080581D01*
X5255430Y71072239D01*
X5290008Y71024646D01*
X5372533Y70917097D01*
X5389505Y70887701D01*
X5407709Y70862645D01*
X5435789Y70807534D01*
X5480496Y70730100D01*
X5503321Y70674994D01*
X5525325Y70631810D01*
X5540301Y70585718D01*
X5563127Y70530612D01*
X5586269Y70444243D01*
X5605383Y70385418D01*
X5610227Y70354831D01*
X5619013Y70322043D01*
X5636703Y70187673D01*
X5645911Y70129536D01*
X5645911Y70117731D01*
X5647197Y70107962D01*
X5647197Y69892039D01*
X5645911Y69882271D01*
X5645911Y69870464D01*
X5636702Y69812323D01*
X5619013Y69677958D01*
X5610228Y69645173D01*
X5605383Y69614582D01*
X5586268Y69555754D01*
X5563127Y69469389D01*
X5540302Y69414287D01*
X5525325Y69368190D01*
X5503319Y69325003D01*
X5480496Y69269901D01*
X5435793Y69192475D01*
X5407709Y69137355D01*
X5389502Y69112296D01*
X5372533Y69082904D01*
X5290022Y68975373D01*
X5255430Y68927761D01*
X5247085Y68919417D01*
X5241087Y68911599D01*
X5088401Y68758913D01*
X5080583Y68752915D01*
X5072239Y68744570D01*
X5024627Y68709978D01*
X4917096Y68627467D01*
X4887704Y68610498D01*
X4862645Y68592291D01*
X4807525Y68564207D01*
X4730099Y68519504D01*
X4674997Y68496681D01*
X4631810Y68474675D01*
X4585713Y68459698D01*
X4530611Y68436873D01*
X4444246Y68413732D01*
X4385418Y68394617D01*
X4354827Y68389772D01*
X4322042Y68380987D01*
X4187677Y68363298D01*
X4129536Y68354089D01*
X4117729Y68354089D01*
X4107961Y68352803D01*
X3892039Y68352803D01*
X3882271Y68354089D01*
X3870464Y68354089D01*
X3812324Y68363298D01*
X3677957Y68380987D01*
X3645169Y68389773D01*
X3614582Y68394617D01*
X3555757Y68413731D01*
X3469388Y68436873D01*
X3414282Y68459699D01*
X3368190Y68474675D01*
X3325006Y68496679D01*
X3269900Y68519504D01*
X3192466Y68564211D01*
X3137355Y68592291D01*
X3112299Y68610495D01*
X3082903Y68627467D01*
X2975354Y68709992D01*
X2927761Y68744570D01*
X2919419Y68752912D01*
X2911598Y68758913D01*
X2758912Y68911599D01*
X2752910Y68919421D01*
X2744570Y68927761D01*
X2709995Y68975349D01*
X2627466Y69082904D01*
X2610492Y69112303D01*
X2592291Y69137355D01*
X2564213Y69192461D01*
X2519503Y69269901D01*
X2496674Y69325013D01*
X2474675Y69368190D01*
X2459700Y69414276D01*
X2436872Y69469389D01*
X2413726Y69555771D01*
X2394617Y69614582D01*
X2389773Y69645163D01*
X2380986Y69677958D01*
X2363295Y69812337D01*
X2354089Y69870464D01*
X2354089Y69882271D01*
X2352803Y69892039D01*
X2352803Y70107962D01*
X2354089Y70117731D01*
X2354089Y70129536D01*
X2363294Y70187659D01*
X2380986Y70322043D01*
X2389773Y70354840D01*
X2394617Y70385418D01*
X2413724Y70444225D01*
X2436872Y70530612D01*
X2459702Y70585729D01*
X2474675Y70631810D01*
X2496672Y70674984D01*
X2519503Y70730100D01*
X2564217Y70807549D01*
X2592291Y70862645D01*
X2610489Y70887694D01*
X2627466Y70917097D01*
X2710009Y71024671D01*
X2744570Y71072239D01*
X2752906Y71080576D01*
X2758912Y71088402D01*
X2911598Y71241088D01*
X2919424Y71247094D01*
X2927761Y71255430D01*
X2975329Y71289991D01*
X3082903Y71372534D01*
X3112306Y71389511D01*
X3137355Y71407709D01*
X3192451Y71435783D01*
X3269900Y71480497D01*
X3325016Y71503328D01*
X3368190Y71525325D01*
X3414271Y71540298D01*
X3469388Y71563128D01*
X3555775Y71586276D01*
X3614582Y71605383D01*
X3645160Y71610227D01*
X3677957Y71619014D01*
X3812338Y71636705D01*
X3870464Y71645911D01*
X3882270Y71645911D01*
X3892039Y71647197D01*
X4107961Y71647197D01*
X4117730Y71645911D01*
G37*
G36*
X69117730Y71645911D02*
G01*
X69129536Y71645911D01*
X69187663Y71636705D01*
X69322042Y71619014D01*
X69354837Y71610227D01*
X69385418Y71605383D01*
X69444229Y71586274D01*
X69530611Y71563128D01*
X69585724Y71540300D01*
X69631810Y71525325D01*
X69674987Y71503326D01*
X69730099Y71480497D01*
X69807539Y71435787D01*
X69862645Y71407709D01*
X69887697Y71389508D01*
X69917096Y71372534D01*
X70024651Y71290005D01*
X70072239Y71255430D01*
X70080579Y71247090D01*
X70088401Y71241088D01*
X70241087Y71088402D01*
X70247088Y71080581D01*
X70255430Y71072239D01*
X70290008Y71024646D01*
X70372533Y70917097D01*
X70389505Y70887701D01*
X70407709Y70862645D01*
X70435789Y70807534D01*
X70480496Y70730100D01*
X70503321Y70674994D01*
X70525325Y70631810D01*
X70540301Y70585718D01*
X70563127Y70530612D01*
X70586269Y70444243D01*
X70605383Y70385418D01*
X70610227Y70354831D01*
X70619013Y70322043D01*
X70636703Y70187673D01*
X70645911Y70129536D01*
X70645911Y70117731D01*
X70647197Y70107962D01*
X70647197Y69892039D01*
X70645911Y69882271D01*
X70645911Y69870464D01*
X70636702Y69812323D01*
X70619013Y69677958D01*
X70610228Y69645173D01*
X70605383Y69614582D01*
X70586268Y69555754D01*
X70563127Y69469389D01*
X70540302Y69414287D01*
X70525325Y69368190D01*
X70503319Y69325003D01*
X70480496Y69269901D01*
X70435793Y69192475D01*
X70407709Y69137355D01*
X70389502Y69112296D01*
X70372533Y69082904D01*
X70290022Y68975373D01*
X70255430Y68927761D01*
X70247085Y68919417D01*
X70241087Y68911599D01*
X70088401Y68758913D01*
X70080583Y68752915D01*
X70072239Y68744570D01*
X70024627Y68709978D01*
X69917096Y68627467D01*
X69887704Y68610498D01*
X69862645Y68592291D01*
X69807525Y68564207D01*
X69730099Y68519504D01*
X69674997Y68496681D01*
X69631810Y68474675D01*
X69585713Y68459698D01*
X69530611Y68436873D01*
X69444246Y68413732D01*
X69385418Y68394617D01*
X69354827Y68389772D01*
X69322042Y68380987D01*
X69187677Y68363298D01*
X69129536Y68354089D01*
X69117729Y68354089D01*
X69107961Y68352803D01*
X68892039Y68352803D01*
X68882271Y68354089D01*
X68870464Y68354089D01*
X68812324Y68363298D01*
X68677957Y68380987D01*
X68645169Y68389773D01*
X68614582Y68394617D01*
X68555757Y68413731D01*
X68469388Y68436873D01*
X68414282Y68459699D01*
X68368190Y68474675D01*
X68325006Y68496679D01*
X68269900Y68519504D01*
X68192466Y68564211D01*
X68137355Y68592291D01*
X68112299Y68610495D01*
X68082903Y68627467D01*
X67975354Y68709992D01*
X67927761Y68744570D01*
X67919419Y68752912D01*
X67911598Y68758913D01*
X67758912Y68911599D01*
X67752910Y68919421D01*
X67744570Y68927761D01*
X67709995Y68975349D01*
X67627466Y69082904D01*
X67610492Y69112303D01*
X67592291Y69137355D01*
X67564213Y69192461D01*
X67519503Y69269901D01*
X67496674Y69325013D01*
X67474675Y69368190D01*
X67459700Y69414276D01*
X67436872Y69469389D01*
X67413726Y69555771D01*
X67394617Y69614582D01*
X67389773Y69645163D01*
X67380986Y69677958D01*
X67363295Y69812337D01*
X67354089Y69870464D01*
X67354089Y69882271D01*
X67352803Y69892039D01*
X67352803Y70107962D01*
X67354089Y70117731D01*
X67354089Y70129536D01*
X67363294Y70187659D01*
X67380986Y70322043D01*
X67389773Y70354840D01*
X67394617Y70385418D01*
X67413724Y70444225D01*
X67436872Y70530612D01*
X67459702Y70585729D01*
X67474675Y70631810D01*
X67496672Y70674984D01*
X67519503Y70730100D01*
X67564217Y70807549D01*
X67592291Y70862645D01*
X67610489Y70887694D01*
X67627466Y70917097D01*
X67710009Y71024671D01*
X67744570Y71072239D01*
X67752906Y71080576D01*
X67758912Y71088402D01*
X67911598Y71241088D01*
X67919424Y71247094D01*
X67927761Y71255430D01*
X67975329Y71289991D01*
X68082903Y71372534D01*
X68112306Y71389511D01*
X68137355Y71407709D01*
X68192451Y71435783D01*
X68269900Y71480497D01*
X68325016Y71503328D01*
X68368190Y71525325D01*
X68414271Y71540298D01*
X68469388Y71563128D01*
X68555775Y71586276D01*
X68614582Y71605383D01*
X68645160Y71610227D01*
X68677957Y71619014D01*
X68812338Y71636705D01*
X68870464Y71645911D01*
X68882270Y71645911D01*
X68892039Y71647197D01*
X69107961Y71647197D01*
X69117730Y71645911D01*
G37*
M02*
