%TF.GenerationSoftware,KiCad,Pcbnew,10.0.1*%
%TF.CreationDate,2026-05-03T12:30:56+03:00*%
%TF.ProjectId,i5ether,69356574-6865-4722-9e6b-696361645f70,rev?*%
%TF.SameCoordinates,Original*%
%TF.FileFunction,Copper,L2,Bot*%
%TF.FilePolarity,Positive*%
%FSLAX46Y46*%
G04 Gerber Fmt 4.6, Leading zero omitted, Abs format (unit mm)*
G04 Created by KiCad (PCBNEW 10.0.1) date 2026-05-03 12:30:56*
%MOMM*%
%LPD*%
G01*
G04 APERTURE LIST*
%TA.AperFunction,ComponentPad*%
%ADD10R,1.700000X1.700000*%
%TD*%
%TA.AperFunction,ComponentPad*%
%ADD11O,1.700000X1.700000*%
%TD*%
%TA.AperFunction,ComponentPad*%
%ADD12C,1.297000*%
%TD*%
%TA.AperFunction,ComponentPad*%
%ADD13C,2.082800*%
%TD*%
%TA.AperFunction,ViaPad*%
%ADD14C,0.800000*%
%TD*%
%TA.AperFunction,Conductor*%
%ADD15C,0.250000*%
%TD*%
%ADD16C,0.000000*%
G04 APERTURE END LIST*
D10*
%TO.P,J1,1*%
%TO.N,Net-(J1-Pad1)*%
X12380000Y20230000D03*
D11*
%TO.P,J1,2*%
%TO.N,Net-(J1-Pad2)*%
X9840000Y20230000D03*
%TO.P,J1,3*%
%TO.N,GND*%
X12380000Y22770000D03*
%TO.P,J1,4*%
X9840000Y22770000D03*
%TO.P,J1,5*%
%TO.N,Net-(J1-Pad5)*%
X12380000Y25310000D03*
%TO.P,J1,6*%
%TO.N,Net-(J1-Pad6)*%
X9840000Y25310000D03*
%TO.P,J1,7*%
%TO.N,Net-(J1-Pad7)*%
X12380000Y27850000D03*
%TO.P,J1,8*%
%TO.N,Net-(J1-Pad8)*%
X9840000Y27850000D03*
%TO.P,J1,9*%
%TO.N,Net-(J1-Pad9)*%
X12380000Y30390000D03*
%TO.P,J1,10*%
%TO.N,Net-(J1-Pad10)*%
X9840000Y30390000D03*
%TO.P,J1,11*%
%TO.N,Net-(J1-Pad11)*%
X12380000Y32930000D03*
%TO.P,J1,12*%
%TO.N,Net-(J1-Pad12)*%
X9840000Y32930000D03*
%TO.P,J1,13*%
%TO.N,Net-(J1-Pad13)*%
X12380000Y35470000D03*
%TO.P,J1,14*%
%TO.N,Net-(J1-Pad14)*%
X9840000Y35470000D03*
%TO.P,J1,15*%
%TO.N,Net-(J1-Pad15)*%
X12380000Y38010000D03*
%TO.P,J1,16*%
%TO.N,GND*%
X9840000Y38010000D03*
%TO.P,J1,17*%
%TO.N,Net-(J1-Pad17)*%
X12380000Y40550000D03*
%TO.P,J1,18*%
%TO.N,Net-(J1-Pad18)*%
X9840000Y40550000D03*
%TO.P,J1,19*%
%TO.N,Net-(J1-Pad19)*%
X12380000Y43090000D03*
%TO.P,J1,20*%
%TO.N,Net-(J1-Pad20)*%
X9840000Y43090000D03*
%TO.P,J1,21*%
%TO.N,GND*%
X12380000Y45630000D03*
%TO.P,J1,22*%
X9840000Y45630000D03*
%TO.P,J1,23*%
%TO.N,Net-(J1-Pad23)*%
X12380000Y48170000D03*
%TO.P,J1,24*%
%TO.N,Net-(J1-Pad24)*%
X9840000Y48170000D03*
%TO.P,J1,25*%
%TO.N,Net-(J1-Pad25)*%
X12380000Y50710000D03*
%TO.P,J1,26*%
%TO.N,Net-(J1-Pad26)*%
X9840000Y50710000D03*
%TO.P,J1,27*%
%TO.N,Net-(J1-Pad27)*%
X12380000Y53250000D03*
%TO.P,J1,28*%
%TO.N,Net-(J1-Pad28)*%
X9840000Y53250000D03*
%TO.P,J1,29*%
%TO.N,Net-(J1-Pad29)*%
X12380000Y55790000D03*
%TO.P,J1,30*%
%TO.N,Net-(J1-Pad30)*%
X9840000Y55790000D03*
%TD*%
D12*
%TO.P,J2,1*%
%TO.N,Net-(J2-Pad1)*%
X65360000Y56000000D03*
%TO.P,J2,2*%
%TO.N,Net-(J2-Pad2)*%
X63582000Y54984000D03*
%TO.P,J2,3*%
%TO.N,Net-(J2-Pad3)*%
X65360000Y53968000D03*
%TO.P,J2,4*%
%TO.N,Net-(J2-Pad4)*%
X63582000Y52952000D03*
%TO.P,J2,5*%
%TO.N,Net-(J2-Pad5)*%
X65360000Y51936000D03*
%TO.P,J2,6*%
%TO.N,Net-(J2-Pad6)*%
X63582000Y50920000D03*
%TO.P,J2,7*%
%TO.N,Net-(J2-Pad7)*%
X65360000Y49904000D03*
%TO.P,J2,8*%
%TO.N,Net-(J2-Pad8)*%
X63582000Y48888000D03*
D13*
%TO.P,J2,9*%
%TO.N,Earth*%
X64471000Y60572000D03*
%TO.P,J2,10*%
X64471000Y44316000D03*
%TD*%
D12*
%TO.P,J3,1*%
%TO.N,Net-(J3-Pad1)*%
X65270000Y33070000D03*
%TO.P,J3,2*%
%TO.N,Net-(J3-Pad2)*%
X63492000Y32054000D03*
%TO.P,J3,3*%
%TO.N,Net-(J3-Pad3)*%
X65270000Y31038000D03*
%TO.P,J3,4*%
%TO.N,Net-(J3-Pad4)*%
X63492000Y30022000D03*
%TO.P,J3,5*%
%TO.N,Net-(J3-Pad5)*%
X65270000Y29006000D03*
%TO.P,J3,6*%
%TO.N,Net-(J3-Pad6)*%
X63492000Y27990000D03*
%TO.P,J3,7*%
%TO.N,Net-(J3-Pad7)*%
X65270000Y26974000D03*
%TO.P,J3,8*%
%TO.N,Net-(J3-Pad8)*%
X63492000Y25958000D03*
D13*
%TO.P,J3,9*%
%TO.N,Earth*%
X64381000Y37642000D03*
%TO.P,J3,10*%
X64381000Y21386000D03*
%TD*%
D14*
%TO.N,GND*%
X25400000Y38100000D03*
X21880000Y57890000D03*
X10930000Y57920000D03*
X23890000Y31850000D03*
X4740000Y43340000D03*
X27940000Y43180000D03*
X10160000Y5080000D03*
X19940000Y31900000D03*
X43180000Y43180000D03*
X33020000Y30480000D03*
X15240000Y10160000D03*
X19990000Y25840000D03*
X20610000Y52384990D03*
X33020000Y40640000D03*
X33188000Y61120000D03*
X17050000Y54650000D03*
X45720000Y15240000D03*
X30480000Y5080000D03*
X20320000Y66040000D03*
X30480000Y43180000D03*
X5080000Y60960000D03*
X43180000Y45720000D03*
X24190000Y25840000D03*
X30648000Y61120000D03*
X19840000Y34760000D03*
X16200000Y57920000D03*
X17930000Y29000000D03*
X43180000Y50800000D03*
X45634000Y20480000D03*
X5080000Y10160000D03*
X40554000Y20480000D03*
X40554000Y61120000D03*
X33020000Y27940000D03*
X16010000Y38960000D03*
X27940000Y38100000D03*
X20320000Y10160000D03*
X23990000Y29000000D03*
X15154000Y17940000D03*
X33020000Y43180000D03*
X4740000Y28100000D03*
X48260000Y44450000D03*
X4740000Y30640000D03*
X7280000Y17940000D03*
X45720000Y5080000D03*
X14980000Y22890000D03*
X40640000Y66040000D03*
X35560000Y15240000D03*
X16480000Y22890000D03*
X25400000Y20320000D03*
X25400000Y60960000D03*
X43180000Y27940000D03*
X22860000Y38100000D03*
X21740000Y34810000D03*
X45380000Y61120000D03*
X48260000Y15240000D03*
X33020000Y25400000D03*
X45720000Y10160000D03*
X10160000Y10160000D03*
X17770000Y45750000D03*
X15240000Y5080000D03*
X20030000Y45790000D03*
X42840000Y61120000D03*
X20320000Y20320000D03*
X4740000Y58326000D03*
X40640000Y15240000D03*
X20610000Y54650000D03*
X43180000Y58420000D03*
X23910000Y45750000D03*
X45380000Y63406000D03*
X17880000Y34860000D03*
X45720000Y66040000D03*
X15480000Y55730000D03*
X35560000Y66040000D03*
X43180000Y33020000D03*
X35560000Y10160000D03*
X4740000Y48420000D03*
X4740000Y50960000D03*
X25400000Y15240000D03*
X4740000Y53500000D03*
X43180000Y53340000D03*
X43180000Y30480000D03*
X10160000Y15240000D03*
X30480000Y10160000D03*
X33020000Y45720000D03*
X37760000Y61120000D03*
X14520000Y57950000D03*
X24080000Y48960000D03*
X30480000Y15240000D03*
X21950000Y45750000D03*
X45720000Y36830000D03*
X9050000Y57920000D03*
X5080000Y66040000D03*
X18840000Y22890000D03*
X25400000Y5080000D03*
X25400000Y66040000D03*
X12810000Y57980000D03*
X15960000Y42920000D03*
X25830000Y45750000D03*
X4740000Y38260000D03*
X20320000Y5080000D03*
X27600000Y20480000D03*
X4740000Y20480000D03*
X10160000Y66040000D03*
X27854000Y61120000D03*
X23800000Y54730000D03*
X21790000Y31900000D03*
X20060000Y57890000D03*
X4740000Y40800000D03*
X4740000Y45880000D03*
X48260000Y21590000D03*
X17990000Y31900000D03*
X35474000Y61120000D03*
X21940000Y29000000D03*
X20890000Y22890000D03*
X45720000Y44450000D03*
X43180000Y35560000D03*
X46870000Y18770000D03*
X9820000Y17940000D03*
X4740000Y35720000D03*
X15920000Y40960000D03*
X18260000Y47100000D03*
X43180000Y25400000D03*
X48260000Y59690000D03*
X20320000Y60960000D03*
X4740000Y25560000D03*
X33020000Y22860000D03*
X30480000Y38100000D03*
X30140000Y20480000D03*
X33020000Y33020000D03*
X43094000Y20480000D03*
X4740000Y55786000D03*
X15980000Y34860000D03*
X30480000Y66040000D03*
X33020000Y55880000D03*
X33020000Y35560000D03*
X43180000Y48260000D03*
X33020000Y48260000D03*
X33020000Y50800000D03*
X24650000Y22890000D03*
X35220000Y20480000D03*
X23740000Y34860000D03*
X43180000Y22860000D03*
X40640000Y10160000D03*
X23770000Y57890000D03*
X15154000Y20480000D03*
X43180000Y40640000D03*
X17940000Y57920000D03*
X4740000Y17940000D03*
X20610000Y56340000D03*
X24090000Y51800000D03*
X12360000Y17940000D03*
X4740000Y33180000D03*
X33020000Y53340000D03*
X4740000Y22766000D03*
X15240000Y66040000D03*
X43180000Y55880000D03*
X25400000Y10160000D03*
X48260000Y36830000D03*
X40640000Y5080000D03*
X15960000Y37040000D03*
X22860000Y43180000D03*
X15240000Y60960000D03*
X20320000Y15240000D03*
X17990000Y25840000D03*
X37760000Y20480000D03*
X22840000Y22890000D03*
X35560000Y5080000D03*
X5080000Y15240000D03*
X19790000Y29000000D03*
X18890000Y54650000D03*
X20320000Y38100000D03*
X20320000Y43180000D03*
X33020000Y38100000D03*
X15920000Y45640000D03*
X15240000Y15240000D03*
X15890000Y47020000D03*
X32680000Y20480000D03*
X22090000Y25890000D03*
X25400000Y43180000D03*
X43180000Y38100000D03*
X10160000Y60960000D03*
X33020000Y58420000D03*
%TO.N,Earth*%
X53340000Y10160000D03*
X63500000Y10160000D03*
X60960000Y35052000D03*
X58166000Y45720000D03*
X58420000Y10160000D03*
X67910000Y18680000D03*
X58420000Y71120000D03*
X61468000Y57912000D03*
X60960000Y45720000D03*
X60452000Y28956000D03*
X55880000Y28956000D03*
X55880000Y22860000D03*
X70780000Y40800000D03*
X60706000Y25908000D03*
X68580000Y66040000D03*
X60558000Y18640000D03*
X63500000Y15240000D03*
X58420000Y28956000D03*
X60440000Y63480000D03*
X60960000Y22860000D03*
X53086000Y40640000D03*
X55880000Y57912000D03*
X58420000Y66040000D03*
X60960000Y32004000D03*
X55880000Y20320000D03*
X53086000Y45720000D03*
X58420000Y32004000D03*
X68580000Y15240000D03*
X58420000Y25908000D03*
X58079994Y40800000D03*
X53340000Y22860000D03*
X55626000Y52070000D03*
X55626000Y49022000D03*
X53340000Y71120000D03*
X55880000Y35052000D03*
X58674000Y57912000D03*
X70830000Y18680000D03*
X55880000Y32004000D03*
X63500000Y57912000D03*
X61214000Y54864000D03*
X63500000Y66040000D03*
X60960000Y49022000D03*
X58674000Y49022000D03*
X55880000Y25908000D03*
X63500000Y5080000D03*
X68240000Y40800000D03*
X58420000Y5080000D03*
X53340000Y5080000D03*
X58420000Y22860000D03*
X58420000Y35052000D03*
X56630000Y63480000D03*
X55880000Y54864000D03*
X53340000Y66040000D03*
X63500000Y71120000D03*
X58420000Y15240000D03*
X68580000Y10160000D03*
X55626000Y45720000D03*
X55539998Y40800000D03*
X65700000Y40800000D03*
X58674000Y52070000D03*
X56748000Y18640000D03*
X58674000Y54864000D03*
X53086000Y42926000D03*
X53340000Y15240000D03*
X60620000Y40800000D03*
X63500000Y35052000D03*
X63159998Y40800000D03*
%TO.N,Net-(C11-Pad2)*%
X52530000Y48920000D03*
X52530000Y54900000D03*
X52490000Y58760000D03*
X52530000Y57860000D03*
X52530000Y51880000D03*
%TO.N,Net-(C12-Pad2)*%
X52770000Y25900000D03*
X52770000Y31970000D03*
X52030000Y35970000D03*
X52730000Y34860000D03*
X52770000Y28910000D03*
%TO.N,Net-(J1-Pad5)*%
X16843745Y31150011D03*
X16670002Y29424990D03*
%TO.N,Net-(J1-Pad6)*%
X15880000Y24140000D03*
%TO.N,Net-(J1-Pad8)*%
X17390000Y24130000D03*
%TO.N,Net-(J1-Pad12)*%
X17537868Y28069891D03*
%TO.N,Net-(J1-Pad23)*%
X21960000Y56580000D03*
X21430000Y50190000D03*
%TO.N,Net-(J1-Pad24)*%
X22760000Y50300000D03*
X22800000Y48637310D03*
%TO.N,Net-(J1-Pad25)*%
X22190000Y52330000D03*
X22880000Y55850000D03*
%TO.N,Net-(J1-Pad26)*%
X16940000Y48775010D03*
X14800000Y49420000D03*
%TO.N,Net-(J1-Pad30)*%
X14800000Y54090000D03*
X21040000Y47240000D03*
%TO.N,Net-(J2-Pad6)*%
X61450000Y53000000D03*
%TO.N,Net-(J3-Pad6)*%
X61750000Y29910000D03*
%TO.N,Net-(J1-Pad10)*%
X16730000Y27310000D03*
%TO.N,Net-(J1-Pad28)*%
X19740000Y47200000D03*
X18590000Y51914990D03*
%TD*%
%TO.N,GND*%
D15*
X30140000Y20480000D02*
X27600000Y20480000D01*
X4740000Y60620000D02*
X5080000Y60960000D01*
X45720000Y66040000D02*
X45720000Y63746000D01*
X15240000Y5080000D02*
X20320000Y5080000D01*
X9840000Y38010000D02*
X11189999Y39359999D01*
X33188000Y61120000D02*
X30648000Y61120000D01*
X19890000Y34810000D02*
X19840000Y34760000D01*
X40554000Y20480000D02*
X37760000Y20480000D01*
X4740000Y17940000D02*
X7280000Y17940000D01*
X35560000Y15240000D02*
X40640000Y15240000D01*
X5080000Y15240000D02*
X7620000Y15240000D01*
X11189999Y39359999D02*
X15610001Y39359999D01*
X14520000Y57950000D02*
X12840000Y57950000D01*
X15240000Y66040000D02*
X20320000Y66040000D01*
X15480000Y57200000D02*
X16200000Y57920000D01*
X21910000Y45790000D02*
X21950000Y45750000D01*
X15154000Y20480000D02*
X15154000Y22716000D01*
X17990000Y26405685D02*
X18790000Y27205685D01*
X15960000Y37040000D02*
X15960000Y38910000D01*
X23940000Y29615685D02*
X23940000Y31800000D01*
X45720000Y5080000D02*
X45720000Y10160000D01*
X17770000Y46610000D02*
X18260000Y47100000D01*
X22840000Y22890000D02*
X24650000Y22890000D01*
X15920000Y40960000D02*
X15920000Y42880000D01*
X45720000Y63746000D02*
X45380000Y63406000D01*
X25400000Y15240000D02*
X30480000Y15240000D01*
X45720000Y15240000D02*
X48260000Y15240000D01*
X4740000Y48420000D02*
X4740000Y45880000D01*
X15920000Y42880000D02*
X15960000Y42920000D01*
X35560000Y5080000D02*
X40640000Y5080000D01*
X20610000Y54650000D02*
X20610000Y52384990D01*
X10930000Y57920000D02*
X9050000Y57920000D01*
X17770000Y45750000D02*
X17770000Y46610000D01*
X23940000Y31800000D02*
X23890000Y31850000D01*
X21740000Y34810000D02*
X19890000Y34810000D01*
X15960000Y38910000D02*
X16010000Y38960000D01*
X24080000Y51790000D02*
X24090000Y51800000D01*
X17940000Y57920000D02*
X16200000Y57920000D01*
X20040000Y25890000D02*
X19990000Y25840000D01*
X23990000Y29000000D02*
X23990000Y29565685D01*
X5080000Y15240000D02*
X10160000Y15240000D01*
X24080000Y48960000D02*
X24080000Y51790000D01*
X9820000Y17940000D02*
X12360000Y17940000D01*
X24090000Y54440000D02*
X23800000Y54730000D01*
X25400000Y10160000D02*
X20320000Y10160000D01*
X25400000Y5080000D02*
X30480000Y5080000D01*
X45634000Y20480000D02*
X43094000Y20480000D01*
X35560000Y66040000D02*
X40640000Y66040000D01*
X23800000Y57860000D02*
X23770000Y57890000D01*
X17770000Y45750000D02*
X16030000Y45750000D01*
X4740000Y53500000D02*
X4740000Y50960000D01*
X21880000Y57890000D02*
X20060000Y57890000D01*
X46870000Y18770000D02*
X46870000Y19244000D01*
X24650000Y22890000D02*
X24650000Y25380000D01*
X19940000Y31900000D02*
X17990000Y31900000D01*
X15240000Y10160000D02*
X10160000Y10160000D01*
X20030000Y45790000D02*
X21910000Y45790000D01*
X24650000Y25380000D02*
X24190000Y25840000D01*
X23910000Y45750000D02*
X25830000Y45750000D01*
X12840000Y57950000D02*
X12810000Y57980000D01*
X5080000Y10160000D02*
X10160000Y5080000D01*
X4740000Y58326000D02*
X4740000Y55786000D01*
X20320000Y15240000D02*
X20320000Y20320000D01*
X15154000Y22716000D02*
X14980000Y22890000D01*
X4740000Y33180000D02*
X4740000Y30640000D01*
X35220000Y20480000D02*
X32680000Y20480000D01*
X24090000Y51800000D02*
X24090000Y54440000D01*
X18890000Y54650000D02*
X17050000Y54650000D01*
X25400000Y20320000D02*
X25400000Y15240000D01*
X18840000Y22890000D02*
X20890000Y22890000D01*
X40554000Y61120000D02*
X37760000Y61120000D01*
X18790000Y28140000D02*
X17930000Y29000000D01*
X15890000Y45670000D02*
X15920000Y45640000D01*
X27000000Y61120000D02*
X23770000Y57890000D01*
X18790000Y27205685D02*
X18790000Y28140000D01*
X5080000Y66040000D02*
X10160000Y66040000D01*
X23890000Y34710000D02*
X23740000Y34860000D01*
X15480000Y55730000D02*
X15480000Y57200000D01*
X45720000Y10160000D02*
X40640000Y10160000D01*
X15610001Y39359999D02*
X16010000Y38960000D01*
X22090000Y25890000D02*
X20040000Y25890000D01*
X21790000Y31900000D02*
X19940000Y31900000D01*
X35560000Y10160000D02*
X30480000Y10160000D01*
X45380000Y61120000D02*
X42840000Y61120000D01*
X25400000Y66040000D02*
X30480000Y66040000D01*
X25830000Y45750000D02*
X25830000Y47210000D01*
X15890000Y47020000D02*
X15890000Y45670000D01*
X25830000Y47210000D02*
X24080000Y48960000D01*
X14980000Y22890000D02*
X16480000Y22890000D01*
X20610000Y54650000D02*
X20610000Y56340000D01*
X23890000Y31850000D02*
X23890000Y34710000D01*
X20320000Y60960000D02*
X25400000Y60960000D01*
X16030000Y45750000D02*
X15920000Y45640000D01*
X4740000Y43340000D02*
X4740000Y40800000D01*
X15240000Y15240000D02*
X20320000Y15240000D01*
X23990000Y29565685D02*
X23940000Y29615685D01*
X23800000Y54730000D02*
X23800000Y57860000D01*
X4740000Y22766000D02*
X4740000Y20480000D01*
X4740000Y38260000D02*
X4740000Y35720000D01*
X27854000Y61120000D02*
X27000000Y61120000D01*
X21940000Y29000000D02*
X23990000Y29000000D01*
X10160000Y60960000D02*
X15240000Y60960000D01*
X46870000Y19244000D02*
X45634000Y20480000D01*
X4740000Y58326000D02*
X4740000Y60620000D01*
X17880000Y34860000D02*
X15980000Y34860000D01*
X4740000Y28100000D02*
X4740000Y25560000D01*
X17990000Y25840000D02*
X17990000Y26405685D01*
%TO.N,Earth*%
X68240000Y40800000D02*
X70780000Y40800000D01*
X55626000Y52070000D02*
X58674000Y52070000D01*
X53086000Y40640000D02*
X55379998Y40640000D01*
X60620000Y45380000D02*
X60960000Y45720000D01*
X53348000Y15240000D02*
X53340000Y15240000D01*
X70830000Y18680000D02*
X67910000Y18680000D01*
X61456000Y57900000D02*
X61468000Y57912000D01*
X55880000Y35052000D02*
X55880000Y32004000D01*
X53340000Y66040000D02*
X58420000Y66040000D01*
X60440000Y63480000D02*
X60440000Y57900000D01*
X55880000Y35052000D02*
X58420000Y35052000D01*
X56748000Y18640000D02*
X53348000Y15240000D01*
X58420000Y5080000D02*
X63500000Y5080000D01*
X58420000Y32004000D02*
X60960000Y32004000D01*
X55880000Y32004000D02*
X55880000Y28956000D01*
X63500000Y10160000D02*
X58420000Y10160000D01*
X55626000Y52070000D02*
X55626000Y49022000D01*
X60706000Y23114000D02*
X60960000Y22860000D01*
X55880000Y54864000D02*
X55480001Y54464001D01*
X58686000Y57900000D02*
X58674000Y57912000D01*
X60440000Y57900000D02*
X60440000Y55638000D01*
X58166000Y45720000D02*
X55626000Y45720000D01*
X65700000Y40800000D02*
X68240000Y40800000D01*
X55480001Y54464001D02*
X55480001Y52215999D01*
X58420000Y28956000D02*
X60452000Y28956000D01*
X60960000Y35052000D02*
X63500000Y35052000D01*
X68580000Y15240000D02*
X68580000Y10160000D01*
X60440000Y55638000D02*
X61214000Y54864000D01*
X53340000Y22860000D02*
X55880000Y20320000D01*
X55379998Y40640000D02*
X55539998Y40800000D01*
X60620000Y40800000D02*
X60620000Y45380000D01*
X63159998Y40800000D02*
X60620000Y40800000D01*
X53340000Y71120000D02*
X53340000Y66040000D01*
X53086000Y45720000D02*
X53086000Y42926000D01*
X58420000Y15240000D02*
X63500000Y15240000D01*
X55480001Y52215999D02*
X55626000Y52070000D01*
X55880000Y28956000D02*
X55880000Y25908000D01*
X58674000Y49022000D02*
X60960000Y49022000D01*
X58420000Y25908000D02*
X60706000Y25908000D01*
X60440000Y57900000D02*
X61456000Y57900000D01*
X55539998Y40800000D02*
X58079994Y40800000D01*
X60440000Y57900000D02*
X58686000Y57900000D01*
X63500000Y66040000D02*
X68580000Y66040000D01*
X63500000Y59601000D02*
X64471000Y60572000D01*
X58420000Y22860000D02*
X55880000Y22860000D01*
D16*
X55626000Y52070000D02*
X55625999Y52070000D01*
X55625999Y52070000D01*
X55625999Y52070000D01*
X55625999Y52070000D01*
X55625999Y52070000D01*
X55625999Y52070000D01*
X55625999Y52070000D01*
X55625999Y52070001D01*
X55625999Y52070001D01*
X55625999Y52070001D01*
X55625999Y52070001D01*
X55625999Y52070001D01*
X55626000Y52070001D01*
X55626000Y52070001D01*
X55626000Y52070001D01*
X55626000Y52070001D01*
X55626000Y52070001D01*
X55626000Y52070001D01*
X55626000Y52070001D01*
X55626000Y52070001D01*
X55626000Y52070001D01*
X55626000Y52070001D01*
X55626000Y52070001D01*
X55626000Y52070001D01*
X55626001Y52070001D01*
X55626001Y52070001D01*
X55626001Y52070001D01*
X55626001Y52070001D01*
X55626001Y52070001D01*
X55626001Y52070001D01*
X55626001Y52070000D01*
X55626001Y52070000D01*
X55626001Y52070000D01*
X55626001Y52070000D01*
X55626001Y52070000D01*
X55626001Y52070000D01*
X55626001Y52070000D01*
X55626000Y52070000D01*
X55626000Y52070000D02*
X55626001Y52070000D01*
X55626001Y52070000D01*
X55626001Y52070000D01*
X55626001Y52070000D01*
X55626001Y52070000D01*
X55626001Y52070000D01*
X55626001Y52069999D01*
X55626001Y52069999D01*
X55626001Y52069999D01*
X55626001Y52069999D01*
X55626001Y52069999D01*
X55626001Y52069999D01*
X55626001Y52069999D01*
X55626000Y52069999D01*
X55626000Y52069999D01*
X55626000Y52069999D01*
X55626000Y52069999D01*
X55626000Y52069999D01*
X55626000Y52069999D01*
X55626000Y52069999D01*
X55626000Y52069999D01*
X55626000Y52069999D01*
X55626000Y52069999D01*
X55626000Y52069999D01*
X55626000Y52069999D01*
X55625999Y52069999D01*
X55625999Y52069999D01*
X55625999Y52069999D01*
X55625999Y52069999D01*
X55625999Y52069999D01*
X55625999Y52069999D01*
X55625999Y52070000D01*
X55625999Y52070000D01*
X55625999Y52070000D01*
X55625999Y52070000D01*
X55625999Y52070000D01*
X55625999Y52070000D01*
X55626000Y52070000D01*
D15*
X63500000Y71120000D02*
X58420000Y71120000D01*
X63500000Y57912000D02*
X63500000Y59601000D01*
X53340000Y10160000D02*
X53340000Y5080000D01*
X58674000Y54864000D02*
X55880000Y54864000D01*
X60706000Y25908000D02*
X60706000Y23114000D01*
%TO.N,Net-(C11-Pad2)*%
X52530000Y54900000D02*
X52530000Y51880000D01*
X52490000Y57900000D02*
X52530000Y57860000D01*
X52530000Y51880000D02*
X52530000Y48920000D01*
X52530000Y57860000D02*
X52530000Y54900000D01*
X52490000Y58760000D02*
X52490000Y57900000D01*
%TO.N,Net-(C12-Pad2)*%
X52730000Y34860000D02*
X52730000Y32010000D01*
X52030000Y35560000D02*
X52730000Y34860000D01*
X52030000Y35970000D02*
X52030000Y35560000D01*
X52770000Y28910000D02*
X52770000Y25900000D01*
X52730000Y32010000D02*
X52770000Y31970000D01*
X52770000Y31970000D02*
X52770000Y28910000D01*
%TO.N,Net-(J1-Pad5)*%
X16843745Y31150011D02*
X16843745Y29598733D01*
X16843745Y29598733D02*
X16670002Y29424990D01*
%TO.N,Net-(J1-Pad6)*%
X9840000Y25310000D02*
X11015001Y24134999D01*
X15874999Y24134999D02*
X15880000Y24140000D01*
X11015001Y24134999D02*
X15874999Y24134999D01*
%TO.N,Net-(J1-Pad8)*%
X9840000Y27850000D02*
X11015001Y26674999D01*
X14845001Y26674999D02*
X17390000Y24130000D01*
X11015001Y26674999D02*
X14845001Y26674999D01*
%TO.N,Net-(J1-Pad12)*%
X9840000Y32930000D02*
X11204999Y31565001D01*
X16787105Y28069891D02*
X16972183Y28069891D01*
X16972183Y28069891D02*
X17537868Y28069891D01*
X13291995Y31565001D02*
X16787105Y28069891D01*
X11204999Y31565001D02*
X13291995Y31565001D01*
%TO.N,Net-(J1-Pad23)*%
X21430000Y56050000D02*
X21430000Y50755685D01*
X21960000Y56580000D02*
X21430000Y56050000D01*
X21430000Y50755685D02*
X21430000Y50190000D01*
%TO.N,Net-(J1-Pad24)*%
X22760000Y50300000D02*
X22760000Y48677310D01*
X22760000Y48677310D02*
X22800000Y48637310D01*
%TO.N,Net-(J1-Pad25)*%
X22090000Y55620000D02*
X22320000Y55850000D01*
X22190000Y52330000D02*
X22090000Y52430000D01*
X22320000Y55850000D02*
X22880000Y55850000D01*
X22090000Y52430000D02*
X22090000Y55620000D01*
%TO.N,Net-(J1-Pad26)*%
X16295010Y49420000D02*
X16940000Y48775010D01*
X14800000Y49420000D02*
X16295010Y49420000D01*
%TO.N,Net-(J1-Pad30)*%
X20244998Y48035002D02*
X20244998Y51676988D01*
X20244998Y51676988D02*
X19141986Y52780000D01*
X19141986Y52780000D02*
X16110000Y52780000D01*
X16110000Y52780000D02*
X14800000Y54090000D01*
X21040000Y47240000D02*
X20244998Y48035002D01*
%TO.N,Net-(J2-Pad6)*%
X61502000Y53000000D02*
X61450000Y53000000D01*
X63582000Y50920000D02*
X61502000Y53000000D01*
%TO.N,Net-(J3-Pad6)*%
X61750000Y29910000D02*
X63492000Y28168000D01*
X63492000Y28168000D02*
X63492000Y27990000D01*
%TO.N,Net-(J1-Pad10)*%
X16330001Y27709999D02*
X16730000Y27310000D01*
X14825001Y29214999D02*
X16330001Y27709999D01*
X9840000Y30390000D02*
X11015001Y29214999D01*
X11015001Y29214999D02*
X14825001Y29214999D01*
%TO.N,Net-(J1-Pad28)*%
X19085010Y51914990D02*
X18590000Y51914990D01*
X19680000Y47260000D02*
X19680000Y51320000D01*
X19740000Y47200000D02*
X19680000Y47260000D01*
X19680000Y51320000D02*
X19085010Y51914990D01*
%TD*%
%TA.AperFunction,Conductor*%
%TO.N,GND*%
G36*
X11914075Y22962993D02*
G01*
X11880000Y22835826D01*
X11880000Y22704174D01*
X11914075Y22577007D01*
X11949297Y22516000D01*
X10270703Y22516000D01*
X10305925Y22577007D01*
X10340000Y22704174D01*
X10340000Y22835826D01*
X10305925Y22962993D01*
X10270703Y23024000D01*
X11949297Y23024000D01*
X11914075Y22962993D01*
G37*
%TD.AperFunction*%
%TA.AperFunction,Conductor*%
G36*
X11190445Y39870234D02*
G01*
X11215021Y39841870D01*
X11215196Y39841996D01*
X11216668Y39839970D01*
X11217439Y39839080D01*
X11218105Y39837993D01*
X11218106Y39837991D01*
X11343794Y39664996D01*
X11343796Y39664994D01*
X11343798Y39664991D01*
X11494990Y39513799D01*
X11494993Y39513797D01*
X11494996Y39513794D01*
X11667991Y39388106D01*
X11667996Y39388104D01*
X11669088Y39387434D01*
X11669418Y39387069D01*
X11671996Y39385196D01*
X11671602Y39384655D01*
X11716721Y39334787D01*
X11728328Y39264745D01*
X11700226Y39199547D01*
X11671870Y39174977D01*
X11671996Y39174804D01*
X11669982Y39173342D01*
X11669088Y39172566D01*
X11667987Y39171892D01*
X11494993Y39046204D01*
X11494990Y39046202D01*
X11343798Y38895010D01*
X11343796Y38895007D01*
X11218100Y38722002D01*
X11217131Y38720420D01*
X11216606Y38719946D01*
X11215196Y38718004D01*
X11214787Y38718301D01*
X11164479Y38672794D01*
X11094437Y38661193D01*
X11029242Y38689303D01*
X11004515Y38717844D01*
X11004376Y38717742D01*
X11003194Y38719369D01*
X11002266Y38720440D01*
X11001460Y38721756D01*
X10875822Y38894680D01*
X10724679Y39045823D01*
X10551749Y39171465D01*
X10550433Y39172271D01*
X10550037Y39172709D01*
X10547742Y39174376D01*
X10548092Y39174859D01*
X10502800Y39224916D01*
X10491190Y39294957D01*
X10519291Y39360156D01*
X10548076Y39385097D01*
X10548004Y39385196D01*
X10549158Y39386035D01*
X10550441Y39387146D01*
X10551992Y39388098D01*
X10552009Y39388106D01*
X10725004Y39513794D01*
X10876206Y39664996D01*
X11001894Y39837991D01*
X11001899Y39838003D01*
X11002561Y39839080D01*
X11002924Y39839409D01*
X11004804Y39841996D01*
X11005347Y39841602D01*
X11055204Y39886717D01*
X11125244Y39898330D01*
X11190445Y39870234D01*
G37*
%TD.AperFunction*%
%TA.AperFunction,Conductor*%
G36*
X11914075Y45822993D02*
G01*
X11880000Y45695826D01*
X11880000Y45564174D01*
X11914075Y45437007D01*
X11949297Y45376000D01*
X10270703Y45376000D01*
X10305925Y45437007D01*
X10340000Y45564174D01*
X10340000Y45695826D01*
X10305925Y45822993D01*
X10270703Y45884000D01*
X11949297Y45884000D01*
X11914075Y45822993D01*
G37*
%TD.AperFunction*%
%TA.AperFunction,Conductor*%
G36*
X49942121Y73954498D02*
G01*
X49988614Y73900842D01*
X50000000Y73848500D01*
X50000000Y151500D01*
X49979998Y83379D01*
X49926342Y36886D01*
X49874000Y25500D01*
X1813910Y25500D01*
X1745789Y45502D01*
X1699296Y99158D01*
X1688988Y135055D01*
X1663215Y330827D01*
X1663214Y330828D01*
X1663214Y330834D01*
X1605802Y545096D01*
X1520915Y750032D01*
X1520909Y750041D01*
X1520908Y750045D01*
X1410007Y942132D01*
X1410003Y942138D01*
X1274975Y1118109D01*
X1274956Y1118130D01*
X1118129Y1274957D01*
X1118108Y1274976D01*
X942137Y1410004D01*
X942131Y1410008D01*
X750044Y1520909D01*
X750036Y1520913D01*
X750032Y1520915D01*
X545096Y1605802D01*
X545093Y1605803D01*
X545091Y1605804D01*
X369106Y1652959D01*
X330834Y1663214D01*
X330832Y1663215D01*
X330826Y1663216D01*
X135054Y1688989D01*
X70127Y1717711D01*
X31035Y1776976D01*
X25500Y1813911D01*
X25500Y4121291D01*
X2149500Y4121291D01*
X2149500Y3878710D01*
X2181160Y3638218D01*
X2243944Y3403905D01*
X2243945Y3403903D01*
X2243946Y3403900D01*
X2336776Y3179788D01*
X2336777Y3179787D01*
X2336782Y3179776D01*
X2458061Y2969715D01*
X2458063Y2969712D01*
X2458064Y2969711D01*
X2605735Y2777262D01*
X2605739Y2777258D01*
X2605744Y2777252D01*
X2777251Y2605745D01*
X2777256Y2605741D01*
X2777262Y2605735D01*
X2969711Y2458064D01*
X2969714Y2458062D01*
X3179775Y2336783D01*
X3179779Y2336782D01*
X3179788Y2336776D01*
X3403900Y2243946D01*
X3638211Y2181162D01*
X3638215Y2181162D01*
X3638217Y2181161D01*
X3700202Y2173001D01*
X3878712Y2149500D01*
X3878719Y2149500D01*
X4121281Y2149500D01*
X4121288Y2149500D01*
X4338637Y2178115D01*
X4361782Y2181161D01*
X4361782Y2181162D01*
X4361789Y2181162D01*
X4596100Y2243946D01*
X4820212Y2336776D01*
X5030289Y2458064D01*
X5222738Y2605735D01*
X5394265Y2777262D01*
X5541936Y2969711D01*
X5663224Y3179788D01*
X5756054Y3403900D01*
X5818838Y3638211D01*
X5850500Y3878712D01*
X5850500Y4121288D01*
X5818838Y4361789D01*
X5756054Y4596100D01*
X5663224Y4820212D01*
X5663218Y4820221D01*
X5663217Y4820225D01*
X5541938Y5030286D01*
X5541936Y5030289D01*
X5394265Y5222738D01*
X5394259Y5222744D01*
X5394255Y5222749D01*
X5222748Y5394256D01*
X5222742Y5394261D01*
X5222738Y5394265D01*
X5030289Y5541936D01*
X5030288Y5541937D01*
X5030285Y5541939D01*
X4820224Y5663218D01*
X4820216Y5663222D01*
X4820212Y5663224D01*
X4596100Y5756054D01*
X4596097Y5756055D01*
X4596095Y5756056D01*
X4361782Y5818840D01*
X4121290Y5850500D01*
X4121288Y5850500D01*
X3878712Y5850500D01*
X3878709Y5850500D01*
X3638217Y5818840D01*
X3403904Y5756056D01*
X3403900Y5756054D01*
X3179786Y5663223D01*
X3179775Y5663218D01*
X2969714Y5541939D01*
X2777262Y5394265D01*
X2777251Y5394256D01*
X2605744Y5222749D01*
X2605735Y5222738D01*
X2458061Y5030286D01*
X2336782Y4820225D01*
X2336777Y4820214D01*
X2243946Y4596100D01*
X2243944Y4596096D01*
X2181160Y4361783D01*
X2149500Y4121291D01*
X25500Y4121291D01*
X25500Y55896916D01*
X8481500Y55896916D01*
X8481500Y55683084D01*
X8497036Y55584997D01*
X8514952Y55471879D01*
X8581026Y55268522D01*
X8581028Y55268517D01*
X8678106Y55077991D01*
X8803794Y54904996D01*
X8803796Y54904994D01*
X8803798Y54904991D01*
X8954990Y54753799D01*
X8954993Y54753797D01*
X8954996Y54753794D01*
X9127991Y54628106D01*
X9127996Y54628104D01*
X9129088Y54627434D01*
X9129418Y54627069D01*
X9131996Y54625196D01*
X9131602Y54624655D01*
X9176721Y54574787D01*
X9188328Y54504745D01*
X9160226Y54439547D01*
X9131870Y54414977D01*
X9131996Y54414804D01*
X9129982Y54413342D01*
X9129088Y54412566D01*
X9127987Y54411892D01*
X8954993Y54286204D01*
X8954990Y54286202D01*
X8803798Y54135010D01*
X8803796Y54135007D01*
X8678108Y53962013D01*
X8581029Y53771485D01*
X8581026Y53771479D01*
X8514952Y53568122D01*
X8514951Y53568117D01*
X8514951Y53568116D01*
X8481500Y53356916D01*
X8481500Y53143084D01*
X8498512Y53035678D01*
X8514952Y52931879D01*
X8581026Y52728522D01*
X8581028Y52728517D01*
X8678106Y52537991D01*
X8803794Y52364996D01*
X8803796Y52364994D01*
X8803798Y52364991D01*
X8954990Y52213799D01*
X8954993Y52213797D01*
X8954996Y52213794D01*
X9127991Y52088106D01*
X9127996Y52088104D01*
X9129088Y52087434D01*
X9129418Y52087069D01*
X9131996Y52085196D01*
X9131602Y52084655D01*
X9176721Y52034787D01*
X9188328Y51964745D01*
X9160226Y51899547D01*
X9131870Y51874977D01*
X9131996Y51874804D01*
X9129982Y51873342D01*
X9129088Y51872566D01*
X9127987Y51871892D01*
X8954993Y51746204D01*
X8954990Y51746202D01*
X8803798Y51595010D01*
X8803796Y51595007D01*
X8678108Y51422013D01*
X8581029Y51231485D01*
X8581026Y51231479D01*
X8514952Y51028122D01*
X8514951Y51028117D01*
X8514951Y51028116D01*
X8481500Y50816916D01*
X8481500Y50603084D01*
X8514951Y50391884D01*
X8514952Y50391879D01*
X8573879Y50210519D01*
X8581028Y50188517D01*
X8678106Y49997991D01*
X8803794Y49824996D01*
X8803796Y49824994D01*
X8803798Y49824991D01*
X8954990Y49673799D01*
X8954993Y49673797D01*
X8954996Y49673794D01*
X9127991Y49548106D01*
X9127996Y49548104D01*
X9129088Y49547434D01*
X9129418Y49547069D01*
X9131996Y49545196D01*
X9131602Y49544655D01*
X9176721Y49494787D01*
X9188328Y49424745D01*
X9160226Y49359547D01*
X9131870Y49334977D01*
X9131996Y49334804D01*
X9129982Y49333342D01*
X9129088Y49332566D01*
X9127987Y49331892D01*
X8954993Y49206204D01*
X8954990Y49206202D01*
X8803798Y49055010D01*
X8803796Y49055007D01*
X8678108Y48882013D01*
X8581029Y48691485D01*
X8581026Y48691479D01*
X8514952Y48488122D01*
X8514951Y48488117D01*
X8514951Y48488116D01*
X8481500Y48276916D01*
X8481500Y48063084D01*
X8514951Y47851884D01*
X8514952Y47851879D01*
X8581026Y47648522D01*
X8581028Y47648517D01*
X8678106Y47457991D01*
X8803794Y47284996D01*
X8803796Y47284994D01*
X8803798Y47284991D01*
X8954990Y47133799D01*
X8954993Y47133797D01*
X8954996Y47133794D01*
X9127991Y47008106D01*
X9128001Y47008101D01*
X9129567Y47007141D01*
X9130042Y47006616D01*
X9131996Y47005196D01*
X9131697Y47004786D01*
X9177200Y46954495D01*
X9188808Y46884454D01*
X9160707Y46819255D01*
X9132157Y46794515D01*
X9132258Y46794376D01*
X9130644Y46793204D01*
X9129574Y46792276D01*
X9128255Y46791468D01*
X8955320Y46665823D01*
X8804177Y46514680D01*
X8678536Y46341751D01*
X8581493Y46151293D01*
X8581490Y46151287D01*
X8515440Y45948005D01*
X8505302Y45884000D01*
X9409297Y45884000D01*
X9374075Y45822993D01*
X9340000Y45695826D01*
X9340000Y45564174D01*
X9374075Y45437007D01*
X9409297Y45376000D01*
X8505302Y45376000D01*
X8515440Y45311996D01*
X8581490Y45108714D01*
X8581493Y45108708D01*
X8678536Y44918250D01*
X8804177Y44745321D01*
X8955320Y44594178D01*
X9128244Y44468540D01*
X9129560Y44467734D01*
X9129955Y44467297D01*
X9132258Y44465624D01*
X9131906Y44465141D01*
X9177196Y44415090D01*
X9188809Y44345050D01*
X9160712Y44279850D01*
X9131925Y44254902D01*
X9131996Y44254804D01*
X9130862Y44253981D01*
X9129580Y44252869D01*
X9127998Y44251900D01*
X8954993Y44126204D01*
X8954990Y44126202D01*
X8803798Y43975010D01*
X8803796Y43975007D01*
X8678108Y43802013D01*
X8581029Y43611485D01*
X8581026Y43611479D01*
X8514952Y43408122D01*
X8514951Y43408117D01*
X8514951Y43408116D01*
X8481500Y43196916D01*
X8481500Y42983084D01*
X8514951Y42771884D01*
X8514952Y42771879D01*
X8581026Y42568522D01*
X8581028Y42568517D01*
X8678106Y42377991D01*
X8803794Y42204996D01*
X8803796Y42204994D01*
X8803798Y42204991D01*
X8954990Y42053799D01*
X8954993Y42053797D01*
X8954996Y42053794D01*
X9127991Y41928106D01*
X9127996Y41928104D01*
X9129088Y41927434D01*
X9129418Y41927069D01*
X9131996Y41925196D01*
X9131602Y41924655D01*
X9176721Y41874787D01*
X9188328Y41804745D01*
X9160226Y41739547D01*
X9131870Y41714977D01*
X9131996Y41714804D01*
X9129982Y41713342D01*
X9129088Y41712566D01*
X9127987Y41711892D01*
X8954993Y41586204D01*
X8954990Y41586202D01*
X8803798Y41435010D01*
X8803796Y41435007D01*
X8678108Y41262013D01*
X8581029Y41071485D01*
X8581026Y41071479D01*
X8514952Y40868122D01*
X8514951Y40868117D01*
X8514951Y40868116D01*
X8481500Y40656916D01*
X8481500Y40443084D01*
X8514951Y40231884D01*
X8514952Y40231879D01*
X8581026Y40028522D01*
X8581028Y40028517D01*
X8678106Y39837991D01*
X8803794Y39664996D01*
X8803796Y39664994D01*
X8803798Y39664991D01*
X8954990Y39513799D01*
X8954993Y39513797D01*
X8954996Y39513794D01*
X9127991Y39388106D01*
X9128001Y39388101D01*
X9129567Y39387141D01*
X9130042Y39386616D01*
X9131996Y39385196D01*
X9131697Y39384786D01*
X9177200Y39334495D01*
X9188808Y39264454D01*
X9160707Y39199255D01*
X9132157Y39174515D01*
X9132258Y39174376D01*
X9130644Y39173204D01*
X9129574Y39172276D01*
X9128255Y39171468D01*
X8955320Y39045823D01*
X8804177Y38894680D01*
X8678536Y38721751D01*
X8581493Y38531293D01*
X8581490Y38531287D01*
X8515440Y38328005D01*
X8505302Y38264000D01*
X9409297Y38264000D01*
X9374075Y38202993D01*
X9340000Y38075826D01*
X9340000Y37944174D01*
X9374075Y37817007D01*
X9409297Y37756000D01*
X8505302Y37756000D01*
X8515440Y37691996D01*
X8581490Y37488714D01*
X8581493Y37488708D01*
X8678536Y37298250D01*
X8804177Y37125321D01*
X8955320Y36974178D01*
X9128244Y36848540D01*
X9129560Y36847734D01*
X9129955Y36847297D01*
X9132258Y36845624D01*
X9131906Y36845141D01*
X9177196Y36795090D01*
X9188809Y36725050D01*
X9160712Y36659850D01*
X9131925Y36634902D01*
X9131996Y36634804D01*
X9130862Y36633981D01*
X9129580Y36632869D01*
X9127998Y36631900D01*
X8954993Y36506204D01*
X8954990Y36506202D01*
X8803798Y36355010D01*
X8803796Y36355007D01*
X8678108Y36182013D01*
X8581029Y35991485D01*
X8581026Y35991479D01*
X8514952Y35788122D01*
X8514951Y35788117D01*
X8514951Y35788116D01*
X8481500Y35576916D01*
X8481500Y35363084D01*
X8514951Y35151884D01*
X8514952Y35151879D01*
X8581026Y34948522D01*
X8581028Y34948517D01*
X8678106Y34757991D01*
X8803794Y34584996D01*
X8803796Y34584994D01*
X8803798Y34584991D01*
X8954990Y34433799D01*
X8954993Y34433797D01*
X8954996Y34433794D01*
X9127991Y34308106D01*
X9127996Y34308104D01*
X9129088Y34307434D01*
X9129418Y34307069D01*
X9131996Y34305196D01*
X9131602Y34304655D01*
X9176721Y34254787D01*
X9188328Y34184745D01*
X9160226Y34119547D01*
X9131870Y34094977D01*
X9131996Y34094804D01*
X9129982Y34093342D01*
X9129088Y34092566D01*
X9127987Y34091892D01*
X8954993Y33966204D01*
X8954990Y33966202D01*
X8803798Y33815010D01*
X8803796Y33815007D01*
X8678108Y33642013D01*
X8581029Y33451485D01*
X8581026Y33451479D01*
X8514952Y33248122D01*
X8514951Y33248117D01*
X8514951Y33248116D01*
X8481500Y33036916D01*
X8481500Y32823084D01*
X8514951Y32611884D01*
X8514952Y32611879D01*
X8581026Y32408522D01*
X8581028Y32408517D01*
X8678106Y32217991D01*
X8803794Y32044996D01*
X8803796Y32044994D01*
X8803798Y32044991D01*
X8954990Y31893799D01*
X8954993Y31893797D01*
X8954996Y31893794D01*
X9127991Y31768106D01*
X9127996Y31768104D01*
X9129088Y31767434D01*
X9129418Y31767069D01*
X9131996Y31765196D01*
X9131602Y31764655D01*
X9176721Y31714787D01*
X9188328Y31644745D01*
X9160226Y31579547D01*
X9131870Y31554977D01*
X9131996Y31554804D01*
X9129982Y31553342D01*
X9129088Y31552566D01*
X9127987Y31551892D01*
X8954993Y31426204D01*
X8954990Y31426202D01*
X8803798Y31275010D01*
X8803796Y31275007D01*
X8678108Y31102013D01*
X8581029Y30911485D01*
X8581026Y30911479D01*
X8514952Y30708122D01*
X8514951Y30708117D01*
X8514951Y30708116D01*
X8481500Y30496916D01*
X8481500Y30283084D01*
X8514951Y30071884D01*
X8514952Y30071879D01*
X8581026Y29868522D01*
X8581028Y29868517D01*
X8678106Y29677991D01*
X8803794Y29504996D01*
X8803796Y29504994D01*
X8803798Y29504991D01*
X8954990Y29353799D01*
X8954993Y29353797D01*
X8954996Y29353794D01*
X9127991Y29228106D01*
X9127996Y29228104D01*
X9129088Y29227434D01*
X9129418Y29227069D01*
X9131996Y29225196D01*
X9131602Y29224655D01*
X9176721Y29174787D01*
X9188328Y29104745D01*
X9160226Y29039547D01*
X9131870Y29014977D01*
X9131996Y29014804D01*
X9129982Y29013342D01*
X9129088Y29012566D01*
X9127987Y29011892D01*
X8954993Y28886204D01*
X8954990Y28886202D01*
X8803798Y28735010D01*
X8803796Y28735007D01*
X8678108Y28562013D01*
X8581029Y28371485D01*
X8581026Y28371479D01*
X8514952Y28168122D01*
X8514951Y28168117D01*
X8514951Y28168116D01*
X8481500Y27956916D01*
X8481500Y27743084D01*
X8497898Y27639554D01*
X8514952Y27531879D01*
X8581026Y27328522D01*
X8581028Y27328517D01*
X8678106Y27137991D01*
X8803794Y26964996D01*
X8803796Y26964994D01*
X8803798Y26964991D01*
X8954990Y26813799D01*
X8954993Y26813797D01*
X8954996Y26813794D01*
X9127991Y26688106D01*
X9127996Y26688104D01*
X9129088Y26687434D01*
X9129418Y26687069D01*
X9131996Y26685196D01*
X9131602Y26684655D01*
X9176721Y26634787D01*
X9188328Y26564745D01*
X9160226Y26499547D01*
X9131870Y26474977D01*
X9131996Y26474804D01*
X9129982Y26473342D01*
X9129088Y26472566D01*
X9127987Y26471892D01*
X8954993Y26346204D01*
X8954990Y26346202D01*
X8803798Y26195010D01*
X8803796Y26195007D01*
X8678108Y26022013D01*
X8581029Y25831485D01*
X8581026Y25831479D01*
X8514952Y25628122D01*
X8514951Y25628117D01*
X8514951Y25628116D01*
X8481500Y25416916D01*
X8481500Y25203084D01*
X8513098Y25003586D01*
X8514952Y24991879D01*
X8565705Y24835676D01*
X8581028Y24788517D01*
X8678106Y24597991D01*
X8803794Y24424996D01*
X8803796Y24424994D01*
X8803798Y24424991D01*
X8954990Y24273799D01*
X8954993Y24273797D01*
X8954996Y24273794D01*
X9127991Y24148106D01*
X9128001Y24148101D01*
X9129567Y24147141D01*
X9130042Y24146616D01*
X9131996Y24145196D01*
X9131697Y24144786D01*
X9177200Y24094495D01*
X9188808Y24024454D01*
X9160707Y23959255D01*
X9132157Y23934515D01*
X9132258Y23934376D01*
X9130644Y23933204D01*
X9129574Y23932276D01*
X9128255Y23931468D01*
X8955320Y23805823D01*
X8804177Y23654680D01*
X8678536Y23481751D01*
X8581493Y23291293D01*
X8581490Y23291287D01*
X8515440Y23088005D01*
X8505302Y23024000D01*
X9409297Y23024000D01*
X9374075Y22962993D01*
X9340000Y22835826D01*
X9340000Y22704174D01*
X9374075Y22577007D01*
X9409297Y22516000D01*
X8505302Y22516000D01*
X8515440Y22451996D01*
X8581490Y22248714D01*
X8581493Y22248708D01*
X8678536Y22058250D01*
X8804177Y21885321D01*
X8955320Y21734178D01*
X9128244Y21608540D01*
X9129560Y21607734D01*
X9129955Y21607297D01*
X9132258Y21605624D01*
X9131906Y21605141D01*
X9177196Y21555090D01*
X9188809Y21485050D01*
X9160712Y21419850D01*
X9131925Y21394902D01*
X9131996Y21394804D01*
X9130862Y21393981D01*
X9129580Y21392869D01*
X9127998Y21391900D01*
X8954993Y21266204D01*
X8954990Y21266202D01*
X8803798Y21115010D01*
X8803796Y21115007D01*
X8678108Y20942013D01*
X8581029Y20751485D01*
X8581026Y20751479D01*
X8514952Y20548122D01*
X8514951Y20548117D01*
X8514951Y20548116D01*
X8481500Y20336916D01*
X8481500Y20123084D01*
X8514951Y19911884D01*
X8514952Y19911879D01*
X8581026Y19708522D01*
X8581028Y19708517D01*
X8678106Y19517991D01*
X8803794Y19344996D01*
X8803796Y19344994D01*
X8803798Y19344991D01*
X8954990Y19193799D01*
X8954993Y19193797D01*
X8954996Y19193794D01*
X9127991Y19068106D01*
X9318517Y18971028D01*
X9521878Y18904953D01*
X9521879Y18904953D01*
X9521884Y18904951D01*
X9733084Y18871500D01*
X9733087Y18871500D01*
X9946913Y18871500D01*
X9946916Y18871500D01*
X10158116Y18904951D01*
X10361483Y18971028D01*
X10552009Y19068106D01*
X10725004Y19193794D01*
X10827982Y19296773D01*
X10890292Y19330796D01*
X10961108Y19325732D01*
X11017944Y19283185D01*
X11035131Y19251709D01*
X11079110Y19133797D01*
X11079112Y19133793D01*
X11166738Y19016739D01*
X11283792Y18929113D01*
X11283794Y18929112D01*
X11283796Y18929111D01*
X11342875Y18907076D01*
X11420795Y18878012D01*
X11420803Y18878010D01*
X11481350Y18871501D01*
X11481355Y18871501D01*
X11481362Y18871500D01*
X11481368Y18871500D01*
X13278632Y18871500D01*
X13278638Y18871500D01*
X13278645Y18871501D01*
X13278649Y18871501D01*
X13339196Y18878010D01*
X13339199Y18878011D01*
X13339201Y18878011D01*
X13476204Y18929111D01*
X13532199Y18971028D01*
X13593261Y19016739D01*
X13680887Y19133793D01*
X13680887Y19133794D01*
X13680889Y19133796D01*
X13731989Y19270799D01*
X13734782Y19296771D01*
X13738499Y19331351D01*
X13738500Y19331368D01*
X13738500Y21128633D01*
X13738499Y21128650D01*
X13731990Y21189197D01*
X13731988Y21189205D01*
X13680889Y21326203D01*
X13680887Y21326208D01*
X13593261Y21443262D01*
X13476207Y21530888D01*
X13476202Y21530890D01*
X13357775Y21575062D01*
X13300939Y21617609D01*
X13276129Y21684129D01*
X13291221Y21753503D01*
X13312713Y21782213D01*
X13415823Y21885323D01*
X13541463Y22058250D01*
X13638506Y22248708D01*
X13638509Y22248714D01*
X13704559Y22451996D01*
X13714698Y22516000D01*
X12810703Y22516000D01*
X12845925Y22577007D01*
X12880000Y22704174D01*
X12880000Y22835826D01*
X12845925Y22962993D01*
X12810703Y23024000D01*
X13714697Y23024000D01*
X13704559Y23088005D01*
X13638509Y23291287D01*
X13638504Y23291299D01*
X13624748Y23318297D01*
X13611644Y23388074D01*
X13638345Y23453858D01*
X13696372Y23494764D01*
X13737015Y23501499D01*
X15181498Y23501499D01*
X15249619Y23481497D01*
X15270593Y23464594D01*
X15300865Y23434322D01*
X15449664Y23334898D01*
X15615000Y23266413D01*
X15790521Y23231500D01*
X15790522Y23231500D01*
X15969478Y23231500D01*
X15969479Y23231500D01*
X16145000Y23266413D01*
X16310336Y23334898D01*
X16459135Y23434322D01*
X16540905Y23516092D01*
X16603217Y23550118D01*
X16674032Y23545053D01*
X16719095Y23516092D01*
X16810865Y23424322D01*
X16959664Y23324898D01*
X17125000Y23256413D01*
X17300521Y23221500D01*
X17300522Y23221500D01*
X17479478Y23221500D01*
X17479479Y23221500D01*
X17655000Y23256413D01*
X17820336Y23324898D01*
X17969135Y23424322D01*
X18095678Y23550865D01*
X18195102Y23699664D01*
X18263587Y23865000D01*
X18298500Y24040521D01*
X18298500Y24219479D01*
X18263587Y24395000D01*
X18195102Y24560336D01*
X18095678Y24709135D01*
X17969135Y24835678D01*
X17820336Y24935102D01*
X17703429Y24983527D01*
X17655003Y25003586D01*
X17655001Y25003587D01*
X17655000Y25003587D01*
X17566645Y25021162D01*
X17479481Y25038500D01*
X17479479Y25038500D01*
X17429594Y25038500D01*
X17361473Y25058502D01*
X17340499Y25075405D01*
X16032976Y26382928D01*
X15998950Y26445240D01*
X16004015Y26516055D01*
X16046562Y26572891D01*
X16113082Y26597702D01*
X16182456Y26582611D01*
X16192069Y26576791D01*
X16299664Y26504898D01*
X16465000Y26436413D01*
X16640521Y26401500D01*
X16640522Y26401500D01*
X16819478Y26401500D01*
X16819479Y26401500D01*
X16995000Y26436413D01*
X17160336Y26504898D01*
X17309135Y26604322D01*
X17435678Y26730865D01*
X17535102Y26879664D01*
X17603587Y27045000D01*
X17610288Y27078693D01*
X17643195Y27141601D01*
X17704889Y27176734D01*
X17709261Y27177685D01*
X17802868Y27196304D01*
X17968204Y27264789D01*
X18117003Y27364213D01*
X18243546Y27490756D01*
X18342970Y27639555D01*
X18411455Y27804891D01*
X18446368Y27980412D01*
X18446368Y28159370D01*
X18411455Y28334891D01*
X18342970Y28500227D01*
X18243546Y28649026D01*
X18117003Y28775569D01*
X17968204Y28874993D01*
X17802868Y28943478D01*
X17727198Y28958530D01*
X17631051Y28977655D01*
X17568141Y29010563D01*
X17533010Y29072258D01*
X17536810Y29143153D01*
X17539226Y29149455D01*
X17543586Y29159983D01*
X17543585Y29159983D01*
X17543589Y29159990D01*
X17578502Y29335511D01*
X17578502Y29514469D01*
X17543589Y29689990D01*
X17486836Y29827004D01*
X17477245Y29875222D01*
X17477245Y30446508D01*
X17497247Y30514629D01*
X17514150Y30535603D01*
X17549423Y30570876D01*
X17648847Y30719675D01*
X17717332Y30885011D01*
X17752245Y31060532D01*
X17752245Y31239490D01*
X17717332Y31415011D01*
X17648847Y31580347D01*
X17549423Y31729146D01*
X17422880Y31855689D01*
X17274081Y31955113D01*
X17157174Y32003538D01*
X17108748Y32023597D01*
X17108746Y32023598D01*
X17108745Y32023598D01*
X17020390Y32041173D01*
X16933226Y32058511D01*
X16933224Y32058511D01*
X16754266Y32058511D01*
X16754263Y32058511D01*
X16623516Y32032504D01*
X16578745Y32023598D01*
X16578744Y32023598D01*
X16578741Y32023597D01*
X16413407Y31955112D01*
X16264614Y31855692D01*
X16264607Y31855687D01*
X16138069Y31729149D01*
X16138064Y31729142D01*
X16038644Y31580349D01*
X15970159Y31415015D01*
X15935245Y31239493D01*
X15935245Y31239490D01*
X15935245Y31060532D01*
X15970158Y30885011D01*
X16038643Y30719675D01*
X16138067Y30570876D01*
X16138069Y30570874D01*
X16173340Y30535603D01*
X16188284Y30508235D01*
X16205141Y30482006D01*
X16206046Y30475708D01*
X16207366Y30473291D01*
X16210245Y30446508D01*
X16210245Y30277783D01*
X16190243Y30209662D01*
X16154248Y30173018D01*
X16090868Y30130669D01*
X15964324Y30004126D01*
X15963283Y30002567D01*
X15962526Y30001935D01*
X15960397Y29999340D01*
X15959904Y29999744D01*
X15908805Y29957040D01*
X15838362Y29948194D01*
X15774318Y29978836D01*
X15769424Y29983476D01*
X13695830Y32057070D01*
X13695828Y32057072D01*
X13612918Y32112471D01*
X13567391Y32166947D01*
X13558543Y32237390D01*
X13570651Y32274432D01*
X13638972Y32408517D01*
X13705049Y32611884D01*
X13738500Y32823084D01*
X13738500Y33036916D01*
X13705049Y33248116D01*
X13638972Y33451483D01*
X13541894Y33642009D01*
X13416206Y33815004D01*
X13416203Y33815007D01*
X13416201Y33815010D01*
X13265009Y33966202D01*
X13265006Y33966204D01*
X13265004Y33966206D01*
X13092009Y34091894D01*
X13092007Y34091895D01*
X13090920Y34092561D01*
X13090591Y34092925D01*
X13088004Y34094804D01*
X13088398Y34095348D01*
X13043283Y34145204D01*
X13031670Y34215244D01*
X13059766Y34280445D01*
X13088130Y34305022D01*
X13088004Y34305196D01*
X13090030Y34306669D01*
X13090920Y34307439D01*
X13091997Y34308101D01*
X13092009Y34308106D01*
X13265004Y34433794D01*
X13416206Y34584996D01*
X13541894Y34757991D01*
X13638972Y34948517D01*
X13705049Y35151884D01*
X13738500Y35363084D01*
X13738500Y35576916D01*
X13705049Y35788116D01*
X13638972Y35991483D01*
X13541894Y36182009D01*
X13416206Y36355004D01*
X13416203Y36355007D01*
X13416201Y36355010D01*
X13265009Y36506202D01*
X13265006Y36506204D01*
X13265004Y36506206D01*
X13092009Y36631894D01*
X13092007Y36631895D01*
X13090920Y36632561D01*
X13090591Y36632925D01*
X13088004Y36634804D01*
X13088398Y36635348D01*
X13043283Y36685204D01*
X13031670Y36755244D01*
X13059766Y36820445D01*
X13088130Y36845022D01*
X13088004Y36845196D01*
X13090030Y36846669D01*
X13090920Y36847439D01*
X13091997Y36848101D01*
X13092009Y36848106D01*
X13265004Y36973794D01*
X13416206Y37124996D01*
X13541894Y37297991D01*
X13638972Y37488517D01*
X13705049Y37691884D01*
X13738500Y37903084D01*
X13738500Y38116916D01*
X13705049Y38328116D01*
X13638972Y38531483D01*
X13541894Y38722009D01*
X13416206Y38895004D01*
X13416203Y38895007D01*
X13416201Y38895010D01*
X13265009Y39046202D01*
X13265006Y39046204D01*
X13265004Y39046206D01*
X13134781Y39140818D01*
X13092012Y39171892D01*
X13090920Y39172561D01*
X13090591Y39172925D01*
X13088004Y39174804D01*
X13088398Y39175348D01*
X13043283Y39225204D01*
X13031670Y39295244D01*
X13059766Y39360445D01*
X13088130Y39385022D01*
X13088004Y39385196D01*
X13090030Y39386669D01*
X13090920Y39387439D01*
X13091997Y39388101D01*
X13092009Y39388106D01*
X13265004Y39513794D01*
X13416206Y39664996D01*
X13541894Y39837991D01*
X13638972Y40028517D01*
X13705049Y40231884D01*
X13738500Y40443084D01*
X13738500Y40656916D01*
X13705049Y40868116D01*
X13638972Y41071483D01*
X13541894Y41262009D01*
X13416206Y41435004D01*
X13416203Y41435007D01*
X13416201Y41435010D01*
X13265009Y41586202D01*
X13265006Y41586204D01*
X13265004Y41586206D01*
X13092009Y41711894D01*
X13092007Y41711895D01*
X13090920Y41712561D01*
X13090591Y41712925D01*
X13088004Y41714804D01*
X13088398Y41715348D01*
X13043283Y41765204D01*
X13031670Y41835244D01*
X13059766Y41900445D01*
X13088130Y41925022D01*
X13088004Y41925196D01*
X13090030Y41926669D01*
X13090920Y41927439D01*
X13091997Y41928101D01*
X13092009Y41928106D01*
X13265004Y42053794D01*
X13416206Y42204996D01*
X13541894Y42377991D01*
X13638972Y42568517D01*
X13705049Y42771884D01*
X13738500Y42983084D01*
X13738500Y43196916D01*
X13705049Y43408116D01*
X13638972Y43611483D01*
X13541894Y43802009D01*
X13416206Y43975004D01*
X13416203Y43975007D01*
X13416201Y43975010D01*
X13265009Y44126202D01*
X13265006Y44126204D01*
X13265004Y44126206D01*
X13195806Y44176482D01*
X13092006Y44251897D01*
X13090427Y44252864D01*
X13089952Y44253389D01*
X13088004Y44254804D01*
X13088301Y44255214D01*
X13042797Y44305512D01*
X13031191Y44375554D01*
X13059296Y44440751D01*
X13087844Y44465484D01*
X13087742Y44465624D01*
X13089382Y44466816D01*
X13090448Y44467739D01*
X13091754Y44468540D01*
X13264679Y44594178D01*
X13415822Y44745321D01*
X13541463Y44918250D01*
X13638506Y45108708D01*
X13638509Y45108714D01*
X13704559Y45311996D01*
X13714698Y45376000D01*
X12810703Y45376000D01*
X12845925Y45437007D01*
X12880000Y45564174D01*
X12880000Y45695826D01*
X12845925Y45822993D01*
X12810703Y45884000D01*
X13714697Y45884000D01*
X13704559Y45948005D01*
X13638509Y46151287D01*
X13638506Y46151293D01*
X13541463Y46341751D01*
X13415822Y46514680D01*
X13264679Y46665823D01*
X13091749Y46791465D01*
X13090433Y46792271D01*
X13090037Y46792709D01*
X13087742Y46794376D01*
X13088092Y46794859D01*
X13042800Y46844916D01*
X13031190Y46914957D01*
X13059291Y46980156D01*
X13088076Y47005097D01*
X13088004Y47005196D01*
X13089158Y47006035D01*
X13090441Y47007146D01*
X13091992Y47008098D01*
X13092009Y47008106D01*
X13265004Y47133794D01*
X13416206Y47284996D01*
X13541894Y47457991D01*
X13638972Y47648517D01*
X13705049Y47851884D01*
X13738500Y48063084D01*
X13738500Y48276916D01*
X13705049Y48488116D01*
X13638972Y48691483D01*
X13541894Y48882009D01*
X13416206Y49055004D01*
X13416203Y49055007D01*
X13416201Y49055010D01*
X13265009Y49206202D01*
X13265006Y49206204D01*
X13265004Y49206206D01*
X13113313Y49316416D01*
X13092012Y49331892D01*
X13090920Y49332561D01*
X13090591Y49332925D01*
X13088004Y49334804D01*
X13088398Y49335348D01*
X13068395Y49357453D01*
X13045084Y49381622D01*
X13044678Y49383662D01*
X13043283Y49385204D01*
X13037790Y49418329D01*
X13031248Y49451258D01*
X13032009Y49453194D01*
X13031670Y49455244D01*
X13044953Y49486071D01*
X13054170Y49509482D01*
X13891500Y49509482D01*
X13891500Y49509479D01*
X13891500Y49330521D01*
X13926413Y49155000D01*
X13994898Y48989664D01*
X14094322Y48840865D01*
X14220865Y48714322D01*
X14369664Y48614898D01*
X14535000Y48546413D01*
X14710521Y48511500D01*
X14710522Y48511500D01*
X14889478Y48511500D01*
X14889479Y48511500D01*
X15065000Y48546413D01*
X15230336Y48614898D01*
X15379135Y48714322D01*
X15414408Y48749595D01*
X15476720Y48783621D01*
X15503503Y48786500D01*
X15908010Y48786500D01*
X15976131Y48766498D01*
X16022624Y48712842D01*
X16031589Y48685082D01*
X16066413Y48510010D01*
X16134898Y48344674D01*
X16234322Y48195875D01*
X16360865Y48069332D01*
X16509664Y47969908D01*
X16675000Y47901423D01*
X16850521Y47866510D01*
X16850522Y47866510D01*
X17029478Y47866510D01*
X17029479Y47866510D01*
X17205000Y47901423D01*
X17370336Y47969908D01*
X17519135Y48069332D01*
X17645678Y48195875D01*
X17745102Y48344674D01*
X17813587Y48510010D01*
X17848500Y48685531D01*
X17848500Y48864489D01*
X17813587Y49040010D01*
X17745102Y49205346D01*
X17645678Y49354145D01*
X17519135Y49480688D01*
X17370336Y49580112D01*
X17253429Y49628537D01*
X17205003Y49648596D01*
X17205001Y49648597D01*
X17205000Y49648597D01*
X17116645Y49666172D01*
X17029481Y49683510D01*
X17029479Y49683510D01*
X16979594Y49683510D01*
X16911473Y49703512D01*
X16890499Y49720415D01*
X16698845Y49912069D01*
X16698843Y49912071D01*
X16595085Y49981400D01*
X16479795Y50029155D01*
X16391505Y50046717D01*
X16357406Y50053500D01*
X16357404Y50053500D01*
X15503503Y50053500D01*
X15435382Y50073502D01*
X15414408Y50090405D01*
X15379137Y50125676D01*
X15379135Y50125678D01*
X15230336Y50225102D01*
X15113429Y50273527D01*
X15065003Y50293586D01*
X15065001Y50293587D01*
X15065000Y50293587D01*
X14976645Y50311162D01*
X14889481Y50328500D01*
X14889479Y50328500D01*
X14710521Y50328500D01*
X14710518Y50328500D01*
X14579771Y50302493D01*
X14535000Y50293587D01*
X14534999Y50293587D01*
X14534996Y50293586D01*
X14369662Y50225101D01*
X14220869Y50125681D01*
X14220862Y50125676D01*
X14094324Y49999138D01*
X14094319Y49999131D01*
X13994899Y49850338D01*
X13926414Y49685004D01*
X13891500Y49509482D01*
X13054170Y49509482D01*
X13057256Y49517319D01*
X13059148Y49519013D01*
X13059766Y49520445D01*
X13083070Y49542216D01*
X13089390Y49546773D01*
X13092009Y49548106D01*
X13265004Y49673794D01*
X13416206Y49824996D01*
X13541894Y49997991D01*
X13638972Y50188517D01*
X13705049Y50391884D01*
X13738500Y50603084D01*
X13738500Y50816916D01*
X13705049Y51028116D01*
X13638972Y51231483D01*
X13541894Y51422009D01*
X13416206Y51595004D01*
X13416203Y51595007D01*
X13416201Y51595010D01*
X13265009Y51746202D01*
X13265006Y51746204D01*
X13265004Y51746206D01*
X13092009Y51871894D01*
X13092007Y51871895D01*
X13090920Y51872561D01*
X13090591Y51872925D01*
X13088004Y51874804D01*
X13088398Y51875348D01*
X13043283Y51925204D01*
X13031670Y51995244D01*
X13059766Y52060445D01*
X13088130Y52085022D01*
X13088004Y52085196D01*
X13090030Y52086669D01*
X13090920Y52087439D01*
X13091997Y52088101D01*
X13092009Y52088106D01*
X13265004Y52213794D01*
X13416206Y52364996D01*
X13541894Y52537991D01*
X13638972Y52728517D01*
X13705049Y52931884D01*
X13738500Y53143084D01*
X13738500Y53356916D01*
X13705049Y53568116D01*
X13638972Y53771483D01*
X13541894Y53962009D01*
X13416206Y54135004D01*
X13416203Y54135007D01*
X13416201Y54135010D01*
X13371729Y54179482D01*
X13891500Y54179482D01*
X13891500Y54000519D01*
X13899444Y53960582D01*
X13926413Y53825000D01*
X13994898Y53659664D01*
X14094322Y53510865D01*
X14220865Y53384322D01*
X14369664Y53284898D01*
X14535000Y53216413D01*
X14710521Y53181500D01*
X14760405Y53181500D01*
X14828526Y53161498D01*
X14849500Y53144596D01*
X15706167Y52287928D01*
X15809925Y52218599D01*
X15925215Y52170845D01*
X16047606Y52146500D01*
X16172394Y52146500D01*
X17556469Y52146500D01*
X17624590Y52126498D01*
X17671083Y52072842D01*
X17681445Y52010659D01*
X17681500Y52010659D01*
X17681500Y52010332D01*
X17681863Y52008153D01*
X17681500Y52004471D01*
X17681500Y52004469D01*
X17681500Y51825511D01*
X17716413Y51649990D01*
X17784898Y51484654D01*
X17884322Y51335855D01*
X18010865Y51209312D01*
X18159664Y51109888D01*
X18325000Y51041403D01*
X18500521Y51006490D01*
X18500522Y51006490D01*
X18679478Y51006490D01*
X18679479Y51006490D01*
X18855000Y51041403D01*
X18872281Y51048562D01*
X18942867Y51056153D01*
X19006355Y51024376D01*
X19042585Y50963320D01*
X19046500Y50932154D01*
X19046500Y47835583D01*
X19026498Y47767462D01*
X19025265Y47765582D01*
X18934900Y47630341D01*
X18934899Y47630340D01*
X18866414Y47465004D01*
X18866413Y47465001D01*
X18866413Y47465000D01*
X18865019Y47457991D01*
X18831500Y47289482D01*
X18831500Y47289479D01*
X18831500Y47110521D01*
X18862535Y46954495D01*
X18866414Y46934997D01*
X18886473Y46886571D01*
X18934898Y46769664D01*
X19034322Y46620865D01*
X19160865Y46494322D01*
X19309664Y46394898D01*
X19475000Y46326413D01*
X19650521Y46291500D01*
X19650522Y46291500D01*
X19829478Y46291500D01*
X19829479Y46291500D01*
X20005000Y46326413D01*
X20170336Y46394898D01*
X20319135Y46494322D01*
X20326763Y46501951D01*
X20389070Y46535975D01*
X20459886Y46530913D01*
X20485859Y46517622D01*
X20609664Y46434898D01*
X20775000Y46366413D01*
X20950521Y46331500D01*
X20950522Y46331500D01*
X21129478Y46331500D01*
X21129479Y46331500D01*
X21305000Y46366413D01*
X21470336Y46434898D01*
X21619135Y46534322D01*
X21745678Y46660865D01*
X21845102Y46809664D01*
X21913587Y46975000D01*
X21948500Y47150521D01*
X21948500Y47329479D01*
X21913587Y47505000D01*
X21845102Y47670336D01*
X21745678Y47819135D01*
X21619135Y47945678D01*
X21470336Y48045102D01*
X21353429Y48093527D01*
X21305003Y48113586D01*
X21305001Y48113587D01*
X21305000Y48113587D01*
X21216645Y48131162D01*
X21129481Y48148500D01*
X21129479Y48148500D01*
X21079595Y48148500D01*
X21049674Y48157286D01*
X21019209Y48163913D01*
X21014114Y48167727D01*
X21011474Y48168502D01*
X20990499Y48185405D01*
X20915402Y48260503D01*
X20881377Y48322816D01*
X20878498Y48349598D01*
X20878498Y49246514D01*
X20898500Y49314635D01*
X20952156Y49361128D01*
X21022430Y49371232D01*
X21052717Y49362922D01*
X21164992Y49316416D01*
X21164993Y49316416D01*
X21165000Y49316413D01*
X21340521Y49281500D01*
X21340522Y49281500D01*
X21519478Y49281500D01*
X21519479Y49281500D01*
X21695000Y49316413D01*
X21860336Y49384898D01*
X21930499Y49431780D01*
X21940352Y49434865D01*
X21948158Y49441628D01*
X21973664Y49445296D01*
X21998251Y49452994D01*
X22008209Y49450263D01*
X22018432Y49451732D01*
X22041870Y49441028D01*
X22066718Y49434211D01*
X22073619Y49426528D01*
X22083012Y49422238D01*
X22096940Y49400566D01*
X22114161Y49381394D01*
X22116835Y49369609D01*
X22121396Y49362512D01*
X22126500Y49327014D01*
X22126500Y49300737D01*
X22106498Y49232616D01*
X22097897Y49220800D01*
X22094318Y49216440D01*
X21994899Y49067648D01*
X21994898Y49067646D01*
X21983452Y49040014D01*
X21926414Y48902314D01*
X21891500Y48726792D01*
X21891500Y48547829D01*
X21903377Y48488122D01*
X21926413Y48372310D01*
X21994898Y48206974D01*
X22094322Y48058175D01*
X22220865Y47931632D01*
X22369664Y47832208D01*
X22535000Y47763723D01*
X22710521Y47728810D01*
X22710522Y47728810D01*
X22889478Y47728810D01*
X22889479Y47728810D01*
X23065000Y47763723D01*
X23230336Y47832208D01*
X23379135Y47931632D01*
X23505678Y48058175D01*
X23605102Y48206974D01*
X23673587Y48372310D01*
X23708500Y48547831D01*
X23708500Y48726789D01*
X23673587Y48902310D01*
X23605102Y49067646D01*
X23505678Y49216445D01*
X23430405Y49291718D01*
X23415460Y49319087D01*
X23398604Y49345315D01*
X23397698Y49351614D01*
X23396379Y49354030D01*
X23393500Y49380813D01*
X23393500Y49596497D01*
X23413502Y49664618D01*
X23430405Y49685592D01*
X23465678Y49720865D01*
X23565102Y49869664D01*
X23633587Y50035000D01*
X23668500Y50210521D01*
X23668500Y50389479D01*
X23633587Y50565000D01*
X23565102Y50730336D01*
X23465678Y50879135D01*
X23339135Y51005678D01*
X23190336Y51105102D01*
X23073429Y51153527D01*
X23025003Y51173586D01*
X23025001Y51173587D01*
X23025000Y51173587D01*
X22936645Y51191162D01*
X22849481Y51208500D01*
X22849479Y51208500D01*
X22670521Y51208500D01*
X22670518Y51208500D01*
X22539771Y51182493D01*
X22495000Y51173587D01*
X22494999Y51173587D01*
X22494996Y51173586D01*
X22329663Y51105102D01*
X22259501Y51058221D01*
X22249646Y51055136D01*
X22241842Y51048373D01*
X22216336Y51044706D01*
X22191748Y51037007D01*
X22181790Y51039739D01*
X22171568Y51038269D01*
X22148127Y51048975D01*
X22123281Y51055791D01*
X22116380Y51063474D01*
X22106988Y51067763D01*
X22093059Y51089436D01*
X22075838Y51108608D01*
X22073163Y51120394D01*
X22068604Y51127489D01*
X22063500Y51162987D01*
X22063500Y51295500D01*
X22083502Y51363621D01*
X22137158Y51410114D01*
X22189500Y51421500D01*
X22279478Y51421500D01*
X22279479Y51421500D01*
X22455000Y51456413D01*
X22620336Y51524898D01*
X22769135Y51624322D01*
X22895678Y51750865D01*
X22995102Y51899664D01*
X23063587Y52065000D01*
X23098500Y52240521D01*
X23098500Y52419479D01*
X23063587Y52595000D01*
X22995102Y52760336D01*
X22895678Y52909135D01*
X22769135Y53035678D01*
X22769134Y53035679D01*
X22764758Y53040055D01*
X22765699Y53040997D01*
X22729594Y53094014D01*
X22723500Y53132724D01*
X22723500Y54815500D01*
X22743502Y54883621D01*
X22797158Y54930114D01*
X22849500Y54941500D01*
X22969478Y54941500D01*
X22969479Y54941500D01*
X23145000Y54976413D01*
X23310336Y55044898D01*
X23459135Y55144322D01*
X23585678Y55270865D01*
X23685102Y55419664D01*
X23753587Y55585000D01*
X23788500Y55760521D01*
X23788500Y55939479D01*
X23753587Y56115000D01*
X23685102Y56280336D01*
X23585678Y56429135D01*
X23459135Y56555678D01*
X23310336Y56655102D01*
X23193429Y56703527D01*
X23145003Y56723586D01*
X23145001Y56723587D01*
X23145000Y56723587D01*
X23056645Y56741162D01*
X22969481Y56758500D01*
X22969479Y56758500D01*
X22953275Y56758500D01*
X22885154Y56778502D01*
X22838661Y56832158D01*
X22835966Y56839286D01*
X22835956Y56839281D01*
X22830778Y56851780D01*
X22765102Y57010336D01*
X22665678Y57159135D01*
X22539135Y57285678D01*
X22390336Y57385102D01*
X22273429Y57433527D01*
X22225003Y57453586D01*
X22225001Y57453587D01*
X22225000Y57453587D01*
X22136645Y57471162D01*
X22049481Y57488500D01*
X22049479Y57488500D01*
X21870521Y57488500D01*
X21870518Y57488500D01*
X21739771Y57462493D01*
X21695000Y57453587D01*
X21694999Y57453587D01*
X21694996Y57453586D01*
X21529662Y57385101D01*
X21380869Y57285681D01*
X21380862Y57285676D01*
X21254324Y57159138D01*
X21254319Y57159131D01*
X21154899Y57010338D01*
X21086414Y56845004D01*
X21086413Y56845001D01*
X21086413Y56845000D01*
X21083859Y56832158D01*
X21051500Y56669482D01*
X21051500Y56619594D01*
X21031498Y56551473D01*
X21014595Y56530499D01*
X20937931Y56453836D01*
X20937926Y56453829D01*
X20868601Y56350077D01*
X20820846Y56234788D01*
X20796500Y56112397D01*
X20796500Y52325582D01*
X20776498Y52257461D01*
X20722842Y52210968D01*
X20652568Y52200864D01*
X20587988Y52230358D01*
X20581405Y52236486D01*
X20398409Y52419482D01*
X19545819Y53272071D01*
X19442061Y53341400D01*
X19326771Y53389155D01*
X19253072Y53403815D01*
X19204382Y53413500D01*
X19204380Y53413500D01*
X16424595Y53413500D01*
X16356474Y53433502D01*
X16335500Y53450405D01*
X15745405Y54040500D01*
X15711379Y54102812D01*
X15708500Y54129595D01*
X15708500Y54179478D01*
X15708499Y54179482D01*
X15673587Y54355000D01*
X15605102Y54520336D01*
X15505678Y54669135D01*
X15379135Y54795678D01*
X15230336Y54895102D01*
X15113429Y54943527D01*
X15065003Y54963586D01*
X15065001Y54963587D01*
X15065000Y54963587D01*
X14976645Y54981162D01*
X14889481Y54998500D01*
X14889479Y54998500D01*
X14710521Y54998500D01*
X14710518Y54998500D01*
X14599491Y54976415D01*
X14535000Y54963587D01*
X14534999Y54963587D01*
X14534996Y54963586D01*
X14369662Y54895101D01*
X14220869Y54795681D01*
X14220862Y54795676D01*
X14094324Y54669138D01*
X14094319Y54669131D01*
X13994899Y54520338D01*
X13926414Y54355004D01*
X13891500Y54179482D01*
X13371729Y54179482D01*
X13265009Y54286202D01*
X13265006Y54286204D01*
X13265004Y54286206D01*
X13092009Y54411894D01*
X13092007Y54411895D01*
X13090920Y54412561D01*
X13090591Y54412925D01*
X13088004Y54414804D01*
X13088398Y54415348D01*
X13043283Y54465204D01*
X13031670Y54535244D01*
X13059766Y54600445D01*
X13088130Y54625022D01*
X13088004Y54625196D01*
X13090030Y54626669D01*
X13090920Y54627439D01*
X13091997Y54628101D01*
X13092009Y54628106D01*
X13265004Y54753794D01*
X13416206Y54904996D01*
X13541894Y55077991D01*
X13638972Y55268517D01*
X13705049Y55471884D01*
X13738500Y55683084D01*
X13738500Y55896916D01*
X13705049Y56108116D01*
X13638972Y56311483D01*
X13541894Y56502009D01*
X13416206Y56675004D01*
X13416203Y56675007D01*
X13416201Y56675010D01*
X13265009Y56826202D01*
X13265006Y56826204D01*
X13265004Y56826206D01*
X13092009Y56951894D01*
X12901483Y57048972D01*
X12901480Y57048973D01*
X12901478Y57048974D01*
X12698120Y57115048D01*
X12698123Y57115048D01*
X12658801Y57121276D01*
X12486916Y57148500D01*
X12273084Y57148500D01*
X12061884Y57115049D01*
X12061878Y57115048D01*
X11858521Y57048974D01*
X11858515Y57048971D01*
X11667987Y56951892D01*
X11494993Y56826204D01*
X11494990Y56826202D01*
X11343798Y56675010D01*
X11343796Y56675007D01*
X11218108Y56502013D01*
X11217434Y56500912D01*
X11217068Y56500582D01*
X11215196Y56498004D01*
X11214654Y56498398D01*
X11164787Y56453279D01*
X11094745Y56441672D01*
X11029547Y56469774D01*
X11004976Y56498130D01*
X11004804Y56498004D01*
X11003341Y56500018D01*
X11002566Y56500912D01*
X11001896Y56502004D01*
X11001894Y56502009D01*
X10876206Y56675004D01*
X10876203Y56675007D01*
X10876201Y56675010D01*
X10725009Y56826202D01*
X10725006Y56826204D01*
X10725004Y56826206D01*
X10552009Y56951894D01*
X10361483Y57048972D01*
X10361480Y57048973D01*
X10361478Y57048974D01*
X10158120Y57115048D01*
X10158123Y57115048D01*
X10118801Y57121276D01*
X9946916Y57148500D01*
X9733084Y57148500D01*
X9521884Y57115049D01*
X9521878Y57115048D01*
X9318521Y57048974D01*
X9318515Y57048971D01*
X9127987Y56951892D01*
X8954993Y56826204D01*
X8954990Y56826202D01*
X8803798Y56675010D01*
X8803796Y56675007D01*
X8678108Y56502013D01*
X8581029Y56311485D01*
X8581026Y56311479D01*
X8514952Y56108122D01*
X8514951Y56108117D01*
X8514951Y56108116D01*
X8481500Y55896916D01*
X25500Y55896916D01*
X25500Y70121291D01*
X2149500Y70121291D01*
X2149500Y69878710D01*
X2181160Y69638218D01*
X2243944Y69403905D01*
X2243945Y69403903D01*
X2243946Y69403900D01*
X2336776Y69179788D01*
X2336777Y69179787D01*
X2336782Y69179776D01*
X2458061Y68969715D01*
X2458063Y68969712D01*
X2458064Y68969711D01*
X2605735Y68777262D01*
X2605739Y68777258D01*
X2605744Y68777252D01*
X2777251Y68605745D01*
X2777256Y68605741D01*
X2777262Y68605735D01*
X2969711Y68458064D01*
X2969714Y68458062D01*
X3179775Y68336783D01*
X3179779Y68336782D01*
X3179788Y68336776D01*
X3403900Y68243946D01*
X3638211Y68181162D01*
X3638215Y68181162D01*
X3638217Y68181161D01*
X3700202Y68173001D01*
X3878712Y68149500D01*
X3878719Y68149500D01*
X4121281Y68149500D01*
X4121288Y68149500D01*
X4338637Y68178115D01*
X4361782Y68181161D01*
X4361782Y68181162D01*
X4361789Y68181162D01*
X4596100Y68243946D01*
X4820212Y68336776D01*
X5030289Y68458064D01*
X5222738Y68605735D01*
X5394265Y68777262D01*
X5541936Y68969711D01*
X5663224Y69179788D01*
X5756054Y69403900D01*
X5818838Y69638211D01*
X5850500Y69878712D01*
X5850500Y70121288D01*
X5818838Y70361789D01*
X5756054Y70596100D01*
X5663224Y70820212D01*
X5663218Y70820221D01*
X5663217Y70820225D01*
X5541938Y71030286D01*
X5541936Y71030289D01*
X5394265Y71222738D01*
X5394259Y71222744D01*
X5394255Y71222749D01*
X5222748Y71394256D01*
X5222742Y71394261D01*
X5222738Y71394265D01*
X5030289Y71541936D01*
X5030288Y71541937D01*
X5030285Y71541939D01*
X4820224Y71663218D01*
X4820216Y71663222D01*
X4820212Y71663224D01*
X4596100Y71756054D01*
X4596097Y71756055D01*
X4596095Y71756056D01*
X4361782Y71818840D01*
X4121290Y71850500D01*
X4121288Y71850500D01*
X3878712Y71850500D01*
X3878709Y71850500D01*
X3638217Y71818840D01*
X3403904Y71756056D01*
X3403900Y71756054D01*
X3179786Y71663223D01*
X3179775Y71663218D01*
X2969714Y71541939D01*
X2777262Y71394265D01*
X2777251Y71394256D01*
X2605744Y71222749D01*
X2605735Y71222738D01*
X2458061Y71030286D01*
X2336782Y70820225D01*
X2336777Y70820214D01*
X2243946Y70596100D01*
X2243944Y70596096D01*
X2181160Y70361783D01*
X2149500Y70121291D01*
X25500Y70121291D01*
X25500Y73848500D01*
X45502Y73916621D01*
X99158Y73963114D01*
X151500Y73974500D01*
X49874000Y73974500D01*
X49942121Y73954498D01*
G37*
%TD.AperFunction*%
%TD*%
%TA.AperFunction,Conductor*%
%TO.N,Earth*%
G36*
X72916621Y73954498D02*
G01*
X72963114Y73900842D01*
X72974500Y73848500D01*
X72974500Y151500D01*
X72954498Y83379D01*
X72900842Y36886D01*
X72848500Y25500D01*
X51126000Y25500D01*
X51057879Y45502D01*
X51011386Y99158D01*
X51000000Y151500D01*
X51000000Y4121291D01*
X67149500Y4121291D01*
X67149500Y3878710D01*
X67181160Y3638218D01*
X67243944Y3403905D01*
X67243945Y3403903D01*
X67243946Y3403900D01*
X67336776Y3179788D01*
X67336777Y3179787D01*
X67336782Y3179776D01*
X67458061Y2969715D01*
X67458063Y2969712D01*
X67458064Y2969711D01*
X67605735Y2777262D01*
X67605739Y2777258D01*
X67605744Y2777252D01*
X67777251Y2605745D01*
X67777256Y2605741D01*
X67777262Y2605735D01*
X67969711Y2458064D01*
X67969714Y2458062D01*
X68179775Y2336783D01*
X68179779Y2336782D01*
X68179788Y2336776D01*
X68403900Y2243946D01*
X68638211Y2181162D01*
X68638215Y2181162D01*
X68638217Y2181161D01*
X68700202Y2173001D01*
X68878712Y2149500D01*
X68878719Y2149500D01*
X69121281Y2149500D01*
X69121288Y2149500D01*
X69338637Y2178115D01*
X69361782Y2181161D01*
X69361782Y2181162D01*
X69361789Y2181162D01*
X69596100Y2243946D01*
X69820212Y2336776D01*
X70030289Y2458064D01*
X70222738Y2605735D01*
X70394265Y2777262D01*
X70541936Y2969711D01*
X70663224Y3179788D01*
X70756054Y3403900D01*
X70818838Y3638211D01*
X70850500Y3878712D01*
X70850500Y4121288D01*
X70818838Y4361789D01*
X70756054Y4596100D01*
X70663224Y4820212D01*
X70663218Y4820221D01*
X70663217Y4820225D01*
X70541938Y5030286D01*
X70541936Y5030289D01*
X70394265Y5222738D01*
X70394259Y5222744D01*
X70394255Y5222749D01*
X70222748Y5394256D01*
X70222742Y5394261D01*
X70222738Y5394265D01*
X70030289Y5541936D01*
X70030288Y5541937D01*
X70030285Y5541939D01*
X69820224Y5663218D01*
X69820216Y5663222D01*
X69820212Y5663224D01*
X69596100Y5756054D01*
X69596097Y5756055D01*
X69596095Y5756056D01*
X69361782Y5818840D01*
X69121290Y5850500D01*
X69121288Y5850500D01*
X68878712Y5850500D01*
X68878709Y5850500D01*
X68638217Y5818840D01*
X68403904Y5756056D01*
X68403900Y5756054D01*
X68179786Y5663223D01*
X68179775Y5663218D01*
X67969714Y5541939D01*
X67777262Y5394265D01*
X67777251Y5394256D01*
X67605744Y5222749D01*
X67605735Y5222738D01*
X67458061Y5030286D01*
X67336782Y4820225D01*
X67336777Y4820214D01*
X67243946Y4596100D01*
X67243944Y4596096D01*
X67181160Y4361783D01*
X67149500Y4121291D01*
X51000000Y4121291D01*
X51000000Y21507937D01*
X62831600Y21507937D01*
X62831600Y21264064D01*
X62869752Y21023178D01*
X62945115Y20791236D01*
X63055834Y20573937D01*
X63120592Y20484805D01*
X63120594Y20484805D01*
X63673139Y21037351D01*
X63683215Y21013026D01*
X63769386Y20884062D01*
X63879062Y20774386D01*
X64008026Y20688215D01*
X64032348Y20678141D01*
X63479803Y20125596D01*
X63479803Y20125594D01*
X63568936Y20060835D01*
X63786235Y19950116D01*
X64018177Y19874753D01*
X64259063Y19836600D01*
X64502937Y19836600D01*
X64743822Y19874753D01*
X64975764Y19950116D01*
X65193064Y20060835D01*
X65282195Y20125594D01*
X65282195Y20125596D01*
X64729650Y20678141D01*
X64753974Y20688215D01*
X64882938Y20774386D01*
X64992614Y20884062D01*
X65078785Y21013026D01*
X65088859Y21037350D01*
X65641404Y20484805D01*
X65641406Y20484805D01*
X65706165Y20573936D01*
X65816884Y20791236D01*
X65892247Y21023178D01*
X65930400Y21264064D01*
X65930400Y21507937D01*
X65892247Y21748823D01*
X65816884Y21980765D01*
X65706165Y22198064D01*
X65641406Y22287197D01*
X65641404Y22287197D01*
X65088859Y21734652D01*
X65078785Y21758974D01*
X64992614Y21887938D01*
X64882938Y21997614D01*
X64753974Y22083785D01*
X64729650Y22093861D01*
X65282195Y22646406D01*
X65282195Y22646408D01*
X65193063Y22711166D01*
X64975764Y22821885D01*
X64743822Y22897248D01*
X64502937Y22935400D01*
X64259063Y22935400D01*
X64018177Y22897248D01*
X63786235Y22821885D01*
X63568942Y22711170D01*
X63479803Y22646407D01*
X63479803Y22646406D01*
X64032349Y22093860D01*
X64008026Y22083785D01*
X63879062Y21997614D01*
X63769386Y21887938D01*
X63683215Y21758974D01*
X63673140Y21734651D01*
X63120594Y22287197D01*
X63120593Y22287197D01*
X63055830Y22198058D01*
X62945115Y21980765D01*
X62869752Y21748823D01*
X62831600Y21507937D01*
X51000000Y21507937D01*
X51000000Y23286969D01*
X65933900Y23286969D01*
X65933900Y23041032D01*
X65965999Y22797214D01*
X65966000Y22797208D01*
X65966001Y22797206D01*
X66029653Y22559654D01*
X66123767Y22332442D01*
X66123768Y22332441D01*
X66123773Y22332431D01*
X66246730Y22119463D01*
X66246732Y22119460D01*
X66246733Y22119459D01*
X66340228Y21997614D01*
X66396447Y21924347D01*
X66396456Y21924337D01*
X66570336Y21750457D01*
X66570346Y21750448D01*
X66570347Y21750447D01*
X66765459Y21600733D01*
X66978442Y21477767D01*
X67205654Y21383653D01*
X67443206Y21320001D01*
X67443212Y21320001D01*
X67443213Y21320000D01*
X67471188Y21316317D01*
X67687034Y21287900D01*
X67687041Y21287900D01*
X67932959Y21287900D01*
X67932966Y21287900D01*
X68176794Y21320001D01*
X68414346Y21383653D01*
X68641558Y21477767D01*
X68854541Y21600733D01*
X69049653Y21750447D01*
X69223553Y21924347D01*
X69373267Y22119459D01*
X69496233Y22332442D01*
X69590347Y22559654D01*
X69653999Y22797206D01*
X69686100Y23041034D01*
X69686100Y23286966D01*
X69653999Y23530794D01*
X69590347Y23768346D01*
X69496233Y23995558D01*
X69373267Y24208541D01*
X69223553Y24403653D01*
X69223552Y24403654D01*
X69223543Y24403664D01*
X69049663Y24577544D01*
X69049653Y24577553D01*
X68854537Y24727270D01*
X68641569Y24850227D01*
X68641564Y24850230D01*
X68641558Y24850233D01*
X68414346Y24944347D01*
X68176794Y25007999D01*
X68176792Y25008000D01*
X68176786Y25008001D01*
X67932968Y25040100D01*
X67932966Y25040100D01*
X67687034Y25040100D01*
X67687031Y25040100D01*
X67443213Y25008001D01*
X67205654Y24944347D01*
X66978440Y24850232D01*
X66978430Y24850227D01*
X66765462Y24727270D01*
X66570346Y24577553D01*
X66570336Y24577544D01*
X66396456Y24403664D01*
X66396447Y24403654D01*
X66246730Y24208538D01*
X66123773Y23995570D01*
X66123768Y23995560D01*
X66029653Y23768346D01*
X65965999Y23530787D01*
X65933900Y23286969D01*
X51000000Y23286969D01*
X51000000Y35460882D01*
X51020002Y35529003D01*
X51073658Y35575496D01*
X51143932Y35585600D01*
X51208512Y35556106D01*
X51230765Y35530883D01*
X51324315Y35390874D01*
X51324320Y35390868D01*
X51324322Y35390865D01*
X51450865Y35264322D01*
X51456759Y35260384D01*
X51491518Y35225625D01*
X51537929Y35156167D01*
X51784596Y34909500D01*
X51818620Y34847189D01*
X51821500Y34820406D01*
X51821500Y34770521D01*
X51856413Y34595000D01*
X51924898Y34429664D01*
X52024322Y34280865D01*
X52024324Y34280863D01*
X52059595Y34245592D01*
X52093621Y34183280D01*
X52096500Y34156497D01*
X52096500Y32633427D01*
X52076498Y32565306D01*
X52067897Y32553490D01*
X52064318Y32549130D01*
X51964899Y32400338D01*
X51896414Y32235004D01*
X51861500Y32059482D01*
X51861500Y32059479D01*
X51861500Y31880521D01*
X51896413Y31705000D01*
X51964898Y31539664D01*
X52064322Y31390865D01*
X52064324Y31390863D01*
X52099595Y31355592D01*
X52133621Y31293280D01*
X52136500Y31266497D01*
X52136500Y29613503D01*
X52116498Y29545382D01*
X52099595Y29524408D01*
X52064324Y29489138D01*
X52064319Y29489131D01*
X51964899Y29340338D01*
X51896414Y29175004D01*
X51861500Y28999482D01*
X51861500Y28999479D01*
X51861500Y28820521D01*
X51896413Y28645000D01*
X51964898Y28479664D01*
X52064322Y28330865D01*
X52064324Y28330863D01*
X52099595Y28295592D01*
X52133621Y28233280D01*
X52136500Y28206497D01*
X52136500Y26603503D01*
X52116498Y26535382D01*
X52099595Y26514408D01*
X52064324Y26479138D01*
X52064319Y26479131D01*
X51964899Y26330338D01*
X51896414Y26165004D01*
X51861500Y25989482D01*
X51861500Y25989479D01*
X51861500Y25810521D01*
X51896413Y25635000D01*
X51964898Y25469664D01*
X52064322Y25320865D01*
X52190865Y25194322D01*
X52339664Y25094898D01*
X52505000Y25026413D01*
X52680521Y24991500D01*
X52680522Y24991500D01*
X52859478Y24991500D01*
X52859479Y24991500D01*
X53035000Y25026413D01*
X53200336Y25094898D01*
X53349135Y25194322D01*
X53475678Y25320865D01*
X53575102Y25469664D01*
X53643587Y25635000D01*
X53678500Y25810521D01*
X53678500Y25989479D01*
X53643587Y26165000D01*
X53575102Y26330336D01*
X53475678Y26479135D01*
X53440405Y26514408D01*
X53406379Y26576720D01*
X53403500Y26603503D01*
X53403500Y28206497D01*
X53423502Y28274618D01*
X53440405Y28295592D01*
X53475678Y28330865D01*
X53575102Y28479664D01*
X53643587Y28645000D01*
X53678500Y28820521D01*
X53678500Y28999479D01*
X53643587Y29175000D01*
X53575102Y29340336D01*
X53475678Y29489135D01*
X53440405Y29524408D01*
X53406379Y29586720D01*
X53403500Y29613503D01*
X53403500Y29999482D01*
X60841500Y29999482D01*
X60841500Y29999479D01*
X60841500Y29820521D01*
X60876413Y29645000D01*
X60944898Y29479664D01*
X61044322Y29330865D01*
X61170865Y29204322D01*
X61319664Y29104898D01*
X61485000Y29036413D01*
X61660521Y29001500D01*
X61710406Y29001500D01*
X61778527Y28981498D01*
X61799501Y28964595D01*
X62343144Y28420952D01*
X62377170Y28358640D01*
X62373883Y28292924D01*
X62363490Y28260937D01*
X62363489Y28260934D01*
X62363489Y28260932D01*
X62335000Y28081058D01*
X62335000Y27898942D01*
X62363489Y27719068D01*
X62363490Y27719063D01*
X62419764Y27545870D01*
X62419765Y27545867D01*
X62419766Y27545866D01*
X62502445Y27383600D01*
X62609490Y27236265D01*
X62609492Y27236263D01*
X62609494Y27236260D01*
X62738258Y27107496D01*
X62738261Y27107494D01*
X62738265Y27107490D01*
X62781696Y27075936D01*
X62825049Y27019713D01*
X62831124Y26948977D01*
X62797992Y26886185D01*
X62781699Y26872067D01*
X62745535Y26845793D01*
X62738258Y26840505D01*
X62609494Y26711741D01*
X62609492Y26711738D01*
X62502447Y26564404D01*
X62419764Y26402131D01*
X62363490Y26228938D01*
X62363489Y26228933D01*
X62363489Y26228932D01*
X62335000Y26049058D01*
X62335000Y25866942D01*
X62363489Y25687068D01*
X62363490Y25687063D01*
X62419764Y25513870D01*
X62419765Y25513867D01*
X62419766Y25513866D01*
X62502445Y25351600D01*
X62609490Y25204265D01*
X62609492Y25204263D01*
X62609494Y25204260D01*
X62738259Y25075495D01*
X62738262Y25075493D01*
X62738265Y25075490D01*
X62885600Y24968445D01*
X63047866Y24885766D01*
X63221068Y24829489D01*
X63400942Y24801000D01*
X63400945Y24801000D01*
X63583055Y24801000D01*
X63583058Y24801000D01*
X63762932Y24829489D01*
X63936134Y24885766D01*
X64098400Y24968445D01*
X64245735Y25075490D01*
X64374510Y25204265D01*
X64481555Y25351600D01*
X64564234Y25513866D01*
X64620511Y25687068D01*
X64640182Y25811268D01*
X64670593Y25875419D01*
X64730861Y25912946D01*
X64801851Y25911932D01*
X64821828Y25903824D01*
X64825866Y25901766D01*
X64999068Y25845489D01*
X65178942Y25817000D01*
X65178945Y25817000D01*
X65361055Y25817000D01*
X65361058Y25817000D01*
X65540932Y25845489D01*
X65714134Y25901766D01*
X65876400Y25984445D01*
X66023735Y26091490D01*
X66152510Y26220265D01*
X66259555Y26367600D01*
X66342234Y26529866D01*
X66398511Y26703068D01*
X66427000Y26882942D01*
X66427000Y27065058D01*
X66398511Y27244932D01*
X66342234Y27418134D01*
X66259555Y27580400D01*
X66152510Y27727735D01*
X66152507Y27727738D01*
X66152505Y27727741D01*
X66023740Y27856506D01*
X66023737Y27856508D01*
X66023735Y27856510D01*
X65980303Y27888065D01*
X65936950Y27944286D01*
X65930875Y28015022D01*
X65964006Y28077814D01*
X65980300Y28091934D01*
X66023735Y28123490D01*
X66152510Y28252265D01*
X66259555Y28399600D01*
X66342234Y28561866D01*
X66398511Y28735068D01*
X66427000Y28914942D01*
X66427000Y29097058D01*
X66398511Y29276932D01*
X66342234Y29450134D01*
X66259555Y29612400D01*
X66152510Y29759735D01*
X66152507Y29759738D01*
X66152505Y29759741D01*
X66023740Y29888506D01*
X66023737Y29888508D01*
X66023735Y29888510D01*
X65980303Y29920065D01*
X65936950Y29976286D01*
X65930875Y30047022D01*
X65964006Y30109814D01*
X65980300Y30123934D01*
X66023735Y30155490D01*
X66152510Y30284265D01*
X66259555Y30431600D01*
X66342234Y30593866D01*
X66398511Y30767068D01*
X66427000Y30946942D01*
X66427000Y31129058D01*
X66398511Y31308932D01*
X66342234Y31482134D01*
X66259555Y31644400D01*
X66152510Y31791735D01*
X66152507Y31791738D01*
X66152505Y31791741D01*
X66023740Y31920506D01*
X66023737Y31920508D01*
X66023735Y31920510D01*
X65980303Y31952065D01*
X65936950Y32008286D01*
X65930875Y32079022D01*
X65964006Y32141814D01*
X65980300Y32155934D01*
X66023735Y32187490D01*
X66152510Y32316265D01*
X66259555Y32463600D01*
X66342234Y32625866D01*
X66398511Y32799068D01*
X66427000Y32978942D01*
X66427000Y33161058D01*
X66398511Y33340932D01*
X66342234Y33514134D01*
X66259555Y33676400D01*
X66152510Y33823735D01*
X66152507Y33823738D01*
X66152505Y33823741D01*
X66023740Y33952506D01*
X66023737Y33952508D01*
X66023735Y33952510D01*
X65876400Y34059555D01*
X65714134Y34142234D01*
X65714133Y34142235D01*
X65714130Y34142236D01*
X65540937Y34198510D01*
X65540933Y34198511D01*
X65540932Y34198511D01*
X65361058Y34227000D01*
X65178942Y34227000D01*
X64999068Y34198511D01*
X64999062Y34198510D01*
X64825869Y34142236D01*
X64663596Y34059553D01*
X64516262Y33952508D01*
X64516259Y33952506D01*
X64387494Y33823741D01*
X64387492Y33823738D01*
X64280447Y33676404D01*
X64197764Y33514131D01*
X64141490Y33340938D01*
X64121818Y33216735D01*
X64091405Y33152582D01*
X64031137Y33115055D01*
X63960147Y33116069D01*
X63940165Y33124180D01*
X63936134Y33126234D01*
X63936131Y33126235D01*
X63762937Y33182510D01*
X63762933Y33182511D01*
X63762932Y33182511D01*
X63583058Y33211000D01*
X63400942Y33211000D01*
X63221068Y33182511D01*
X63221062Y33182510D01*
X63047869Y33126236D01*
X62885596Y33043553D01*
X62738262Y32936508D01*
X62738259Y32936506D01*
X62609494Y32807741D01*
X62609492Y32807738D01*
X62502447Y32660404D01*
X62419764Y32498131D01*
X62363490Y32324938D01*
X62363489Y32324933D01*
X62363489Y32324932D01*
X62335000Y32145058D01*
X62335000Y31962942D01*
X62363489Y31783068D01*
X62363490Y31783063D01*
X62419764Y31609870D01*
X62419765Y31609867D01*
X62419766Y31609866D01*
X62502445Y31447600D01*
X62609490Y31300265D01*
X62609492Y31300263D01*
X62609494Y31300260D01*
X62738258Y31171496D01*
X62738261Y31171494D01*
X62738265Y31171490D01*
X62781696Y31139936D01*
X62825049Y31083713D01*
X62831124Y31012977D01*
X62797992Y30950185D01*
X62781699Y30936067D01*
X62745535Y30909793D01*
X62738258Y30904505D01*
X62609491Y30775738D01*
X62510474Y30639452D01*
X62454251Y30596098D01*
X62383515Y30590023D01*
X62334878Y30613133D01*
X62334282Y30612239D01*
X62180337Y30715101D01*
X62180338Y30715101D01*
X62180336Y30715102D01*
X62054880Y30767068D01*
X62015003Y30783586D01*
X62015001Y30783587D01*
X62015000Y30783587D01*
X61926645Y30801162D01*
X61839481Y30818500D01*
X61839479Y30818500D01*
X61660521Y30818500D01*
X61660518Y30818500D01*
X61529771Y30792493D01*
X61485000Y30783587D01*
X61484999Y30783587D01*
X61484996Y30783586D01*
X61319662Y30715101D01*
X61170869Y30615681D01*
X61170862Y30615676D01*
X61044324Y30489138D01*
X61044319Y30489131D01*
X60944899Y30340338D01*
X60876414Y30175004D01*
X60841500Y29999482D01*
X53403500Y29999482D01*
X53403500Y31266497D01*
X53423502Y31334618D01*
X53440405Y31355592D01*
X53475678Y31390865D01*
X53575102Y31539664D01*
X53643587Y31705000D01*
X53678500Y31880521D01*
X53678500Y32059479D01*
X53643587Y32235000D01*
X53575102Y32400336D01*
X53475678Y32549135D01*
X53400405Y32624408D01*
X53366379Y32686720D01*
X53363500Y32713503D01*
X53363500Y34156497D01*
X53383502Y34224618D01*
X53400405Y34245592D01*
X53435678Y34280865D01*
X53535102Y34429664D01*
X53603587Y34595000D01*
X53638500Y34770521D01*
X53638500Y34949479D01*
X53603587Y35125000D01*
X53535102Y35290336D01*
X53435678Y35439135D01*
X53309135Y35565678D01*
X53160336Y35665102D01*
X53011329Y35726823D01*
X52956051Y35771371D01*
X52933630Y35838734D01*
X52935971Y35867810D01*
X52938500Y35880521D01*
X52938500Y35986969D01*
X65933900Y35986969D01*
X65933900Y35741032D01*
X65965999Y35497214D01*
X65966000Y35497208D01*
X65966001Y35497206D01*
X66029653Y35259654D01*
X66123767Y35032442D01*
X66123768Y35032441D01*
X66123773Y35032431D01*
X66246730Y34819463D01*
X66396447Y34624347D01*
X66396456Y34624337D01*
X66570336Y34450457D01*
X66570346Y34450448D01*
X66570347Y34450447D01*
X66597433Y34429663D01*
X66765462Y34300731D01*
X66860966Y34245592D01*
X66978442Y34177767D01*
X67205654Y34083653D01*
X67443206Y34020001D01*
X67443212Y34020001D01*
X67443213Y34020000D01*
X67471188Y34016317D01*
X67687034Y33987900D01*
X67687041Y33987900D01*
X67932959Y33987900D01*
X67932966Y33987900D01*
X68176794Y34020001D01*
X68414346Y34083653D01*
X68641558Y34177767D01*
X68854541Y34300733D01*
X69049653Y34450447D01*
X69223553Y34624347D01*
X69373267Y34819459D01*
X69496233Y35032442D01*
X69590347Y35259654D01*
X69653999Y35497206D01*
X69686100Y35741034D01*
X69686100Y35986966D01*
X69653999Y36230794D01*
X69590347Y36468346D01*
X69496233Y36695558D01*
X69373267Y36908541D01*
X69223553Y37103653D01*
X69223552Y37103654D01*
X69223543Y37103664D01*
X69049663Y37277544D01*
X69049653Y37277553D01*
X68854537Y37427270D01*
X68641569Y37550227D01*
X68641564Y37550230D01*
X68641558Y37550233D01*
X68414346Y37644347D01*
X68176794Y37707999D01*
X68176792Y37708000D01*
X68176786Y37708001D01*
X67932968Y37740100D01*
X67932966Y37740100D01*
X67687034Y37740100D01*
X67687031Y37740100D01*
X67443213Y37708001D01*
X67443206Y37707999D01*
X67205654Y37644347D01*
X67012761Y37564448D01*
X66978440Y37550232D01*
X66978430Y37550227D01*
X66765462Y37427270D01*
X66570346Y37277553D01*
X66570336Y37277544D01*
X66396456Y37103664D01*
X66396447Y37103654D01*
X66246730Y36908538D01*
X66123773Y36695570D01*
X66123768Y36695560D01*
X66123767Y36695558D01*
X66115532Y36675676D01*
X66029653Y36468346D01*
X65965999Y36230787D01*
X65933900Y35986969D01*
X52938500Y35986969D01*
X52938500Y36059479D01*
X52903587Y36235000D01*
X52835102Y36400336D01*
X52735678Y36549135D01*
X52609135Y36675678D01*
X52460336Y36775102D01*
X52327954Y36829937D01*
X52295003Y36843586D01*
X52295001Y36843587D01*
X52295000Y36843587D01*
X52206645Y36861162D01*
X52119481Y36878500D01*
X52119479Y36878500D01*
X51940521Y36878500D01*
X51940518Y36878500D01*
X51809771Y36852493D01*
X51765000Y36843587D01*
X51764999Y36843587D01*
X51764996Y36843586D01*
X51599662Y36775101D01*
X51450869Y36675681D01*
X51450862Y36675676D01*
X51324324Y36549138D01*
X51324319Y36549131D01*
X51230765Y36409117D01*
X51176288Y36363589D01*
X51105845Y36354741D01*
X51041801Y36385382D01*
X51004490Y36445784D01*
X51000000Y36479119D01*
X51000000Y37763937D01*
X62831600Y37763937D01*
X62831600Y37520064D01*
X62869752Y37279178D01*
X62945115Y37047236D01*
X63055834Y36829937D01*
X63120592Y36740805D01*
X63120594Y36740805D01*
X63673139Y37293351D01*
X63683215Y37269026D01*
X63769386Y37140062D01*
X63879062Y37030386D01*
X64008026Y36944215D01*
X64032348Y36934141D01*
X63479803Y36381596D01*
X63479803Y36381594D01*
X63568936Y36316835D01*
X63786235Y36206116D01*
X64018177Y36130753D01*
X64259063Y36092600D01*
X64502937Y36092600D01*
X64647776Y36115540D01*
X64743822Y36130753D01*
X64975764Y36206116D01*
X65193064Y36316835D01*
X65282195Y36381594D01*
X65282195Y36381596D01*
X64729650Y36934141D01*
X64753974Y36944215D01*
X64882938Y37030386D01*
X64992614Y37140062D01*
X65078785Y37269026D01*
X65088859Y37293350D01*
X65641404Y36740805D01*
X65641406Y36740805D01*
X65706165Y36829936D01*
X65816884Y37047236D01*
X65892247Y37279178D01*
X65930400Y37520064D01*
X65930400Y37763937D01*
X65892247Y38004823D01*
X65816884Y38236765D01*
X65706165Y38454064D01*
X65641406Y38543197D01*
X65641404Y38543197D01*
X65088859Y37990652D01*
X65078785Y38014974D01*
X64992614Y38143938D01*
X64882938Y38253614D01*
X64753974Y38339785D01*
X64729650Y38349861D01*
X65282195Y38902406D01*
X65282195Y38902408D01*
X65193063Y38967166D01*
X64975764Y39077885D01*
X64743822Y39153248D01*
X64502937Y39191400D01*
X64259063Y39191400D01*
X64018177Y39153248D01*
X63786235Y39077885D01*
X63568942Y38967170D01*
X63479803Y38902407D01*
X63479803Y38902406D01*
X64032349Y38349860D01*
X64008026Y38339785D01*
X63879062Y38253614D01*
X63769386Y38143938D01*
X63683215Y38014974D01*
X63673140Y37990651D01*
X63120594Y38543197D01*
X63120593Y38543197D01*
X63055830Y38454058D01*
X62945115Y38236765D01*
X62869752Y38004823D01*
X62831600Y37763937D01*
X51000000Y37763937D01*
X51000000Y44437937D01*
X62921600Y44437937D01*
X62921600Y44194064D01*
X62959752Y43953178D01*
X63035115Y43721236D01*
X63145834Y43503937D01*
X63210592Y43414805D01*
X63210594Y43414805D01*
X63763139Y43967351D01*
X63773215Y43943026D01*
X63859386Y43814062D01*
X63969062Y43704386D01*
X64098026Y43618215D01*
X64122348Y43608141D01*
X63569803Y43055596D01*
X63569803Y43055594D01*
X63658936Y42990835D01*
X63876235Y42880116D01*
X64108177Y42804753D01*
X64349063Y42766600D01*
X64592937Y42766600D01*
X64833822Y42804753D01*
X65065764Y42880116D01*
X65283064Y42990835D01*
X65372195Y43055594D01*
X65372195Y43055596D01*
X64819650Y43608141D01*
X64843974Y43618215D01*
X64972938Y43704386D01*
X65082614Y43814062D01*
X65168785Y43943026D01*
X65178859Y43967350D01*
X65731404Y43414805D01*
X65731406Y43414805D01*
X65796165Y43503936D01*
X65906884Y43721236D01*
X65982247Y43953178D01*
X66020400Y44194064D01*
X66020400Y44437937D01*
X65982247Y44678823D01*
X65906884Y44910765D01*
X65796165Y45128064D01*
X65731406Y45217197D01*
X65731404Y45217197D01*
X65178859Y44664652D01*
X65168785Y44688974D01*
X65082614Y44817938D01*
X64972938Y44927614D01*
X64843974Y45013785D01*
X64819650Y45023861D01*
X65372195Y45576406D01*
X65372195Y45576408D01*
X65283063Y45641166D01*
X65065764Y45751885D01*
X64833822Y45827248D01*
X64592937Y45865400D01*
X64349063Y45865400D01*
X64108177Y45827248D01*
X63876235Y45751885D01*
X63658942Y45641170D01*
X63569803Y45576407D01*
X63569803Y45576406D01*
X64122349Y45023860D01*
X64098026Y45013785D01*
X63969062Y44927614D01*
X63859386Y44817938D01*
X63773215Y44688974D01*
X63763140Y44664651D01*
X63210594Y45217197D01*
X63210593Y45217197D01*
X63145830Y45128058D01*
X63035115Y44910765D01*
X62959752Y44678823D01*
X62921600Y44437937D01*
X51000000Y44437937D01*
X51000000Y46216969D01*
X66023900Y46216969D01*
X66023900Y45971032D01*
X66055999Y45727214D01*
X66056000Y45727208D01*
X66056001Y45727206D01*
X66119653Y45489654D01*
X66213767Y45262442D01*
X66213768Y45262441D01*
X66213773Y45262431D01*
X66336730Y45049463D01*
X66336732Y45049460D01*
X66336733Y45049459D01*
X66430228Y44927614D01*
X66486447Y44854347D01*
X66486456Y44854337D01*
X66660336Y44680457D01*
X66660346Y44680448D01*
X66660347Y44680447D01*
X66855459Y44530733D01*
X67068442Y44407767D01*
X67295654Y44313653D01*
X67533206Y44250001D01*
X67533212Y44250001D01*
X67533213Y44250000D01*
X67561188Y44246317D01*
X67777034Y44217900D01*
X67777041Y44217900D01*
X68022959Y44217900D01*
X68022966Y44217900D01*
X68266794Y44250001D01*
X68504346Y44313653D01*
X68731558Y44407767D01*
X68944541Y44530733D01*
X69139653Y44680447D01*
X69313553Y44854347D01*
X69463267Y45049459D01*
X69586233Y45262442D01*
X69680347Y45489654D01*
X69743999Y45727206D01*
X69776100Y45971034D01*
X69776100Y46216966D01*
X69743999Y46460794D01*
X69680347Y46698346D01*
X69586233Y46925558D01*
X69463267Y47138541D01*
X69313553Y47333653D01*
X69313552Y47333654D01*
X69313543Y47333664D01*
X69139663Y47507544D01*
X69139653Y47507553D01*
X68944537Y47657270D01*
X68731569Y47780227D01*
X68731564Y47780230D01*
X68731558Y47780233D01*
X68504346Y47874347D01*
X68266794Y47937999D01*
X68266792Y47938000D01*
X68266786Y47938001D01*
X68022968Y47970100D01*
X68022966Y47970100D01*
X67777034Y47970100D01*
X67777031Y47970100D01*
X67533213Y47938001D01*
X67295654Y47874347D01*
X67068440Y47780232D01*
X67068430Y47780227D01*
X66855462Y47657270D01*
X66660346Y47507553D01*
X66660336Y47507544D01*
X66486456Y47333664D01*
X66486447Y47333654D01*
X66336730Y47138538D01*
X66213773Y46925570D01*
X66213768Y46925560D01*
X66119653Y46698346D01*
X66055999Y46460787D01*
X66023900Y46216969D01*
X51000000Y46216969D01*
X51000000Y58849482D01*
X51581500Y58849482D01*
X51581500Y58849479D01*
X51581500Y58670521D01*
X51616413Y58495000D01*
X51616413Y58494999D01*
X51616414Y58494997D01*
X51684898Y58329664D01*
X51687813Y58324212D01*
X51685568Y58323013D01*
X51703444Y58265875D01*
X51693873Y58215440D01*
X51656416Y58125011D01*
X51656413Y58125001D01*
X51621500Y57949482D01*
X51621500Y57770519D01*
X51625689Y57749459D01*
X51656413Y57595000D01*
X51724898Y57429664D01*
X51824322Y57280865D01*
X51824324Y57280863D01*
X51859595Y57245592D01*
X51893621Y57183280D01*
X51896500Y57156497D01*
X51896500Y55603503D01*
X51876498Y55535382D01*
X51859595Y55514408D01*
X51824324Y55479138D01*
X51824319Y55479131D01*
X51724899Y55330338D01*
X51656414Y55165004D01*
X51621500Y54989482D01*
X51621500Y54989479D01*
X51621500Y54810521D01*
X51656413Y54635000D01*
X51724898Y54469664D01*
X51824322Y54320865D01*
X51824324Y54320863D01*
X51859595Y54285592D01*
X51893621Y54223280D01*
X51896500Y54196497D01*
X51896500Y52583503D01*
X51876498Y52515382D01*
X51859595Y52494408D01*
X51824324Y52459138D01*
X51824319Y52459131D01*
X51724899Y52310338D01*
X51656414Y52145004D01*
X51621500Y51969482D01*
X51621500Y51969479D01*
X51621500Y51790521D01*
X51656413Y51615000D01*
X51724898Y51449664D01*
X51824322Y51300865D01*
X51824324Y51300863D01*
X51859595Y51265592D01*
X51893621Y51203280D01*
X51896500Y51176497D01*
X51896500Y49623503D01*
X51876498Y49555382D01*
X51859595Y49534408D01*
X51824324Y49499138D01*
X51824322Y49499135D01*
X51724898Y49350336D01*
X51717357Y49332131D01*
X51656414Y49185004D01*
X51621500Y49009482D01*
X51621500Y49009479D01*
X51621500Y48830521D01*
X51656413Y48655000D01*
X51724898Y48489664D01*
X51824322Y48340865D01*
X51950865Y48214322D01*
X52099664Y48114898D01*
X52265000Y48046413D01*
X52440521Y48011500D01*
X52440522Y48011500D01*
X52619478Y48011500D01*
X52619479Y48011500D01*
X52795000Y48046413D01*
X52960336Y48114898D01*
X53109135Y48214322D01*
X53235678Y48340865D01*
X53335102Y48489664D01*
X53403587Y48655000D01*
X53438500Y48830521D01*
X53438500Y49009479D01*
X53403587Y49185000D01*
X53335102Y49350336D01*
X53235678Y49499135D01*
X53200405Y49534408D01*
X53166379Y49596720D01*
X53163500Y49623503D01*
X53163500Y51176497D01*
X53183502Y51244618D01*
X53200405Y51265592D01*
X53235678Y51300865D01*
X53335102Y51449664D01*
X53403587Y51615000D01*
X53438500Y51790521D01*
X53438500Y51969479D01*
X53403587Y52145000D01*
X53335102Y52310336D01*
X53235678Y52459135D01*
X53200405Y52494408D01*
X53166379Y52556720D01*
X53163500Y52583503D01*
X53163500Y53089482D01*
X60541500Y53089482D01*
X60541500Y52910519D01*
X60558838Y52823355D01*
X60576413Y52735000D01*
X60644898Y52569664D01*
X60744322Y52420865D01*
X60870865Y52294322D01*
X61019664Y52194898D01*
X61185000Y52126413D01*
X61360521Y52091500D01*
X61462406Y52091500D01*
X61530527Y52071498D01*
X61551501Y52054595D01*
X62402851Y51203245D01*
X62436877Y51140933D01*
X62438205Y51094442D01*
X62431720Y51053490D01*
X62425000Y51011058D01*
X62425000Y50828942D01*
X62453489Y50649068D01*
X62453490Y50649063D01*
X62509764Y50475870D01*
X62509765Y50475867D01*
X62509766Y50475866D01*
X62592445Y50313600D01*
X62699490Y50166265D01*
X62699492Y50166263D01*
X62699494Y50166260D01*
X62828258Y50037496D01*
X62828261Y50037494D01*
X62828265Y50037490D01*
X62871696Y50005936D01*
X62915049Y49949713D01*
X62921124Y49878977D01*
X62887992Y49816185D01*
X62871699Y49802067D01*
X62835535Y49775793D01*
X62828258Y49770505D01*
X62699494Y49641741D01*
X62699492Y49641738D01*
X62592447Y49494404D01*
X62509764Y49332131D01*
X62453490Y49158938D01*
X62453489Y49158933D01*
X62453489Y49158932D01*
X62425000Y48979058D01*
X62425000Y48796942D01*
X62447482Y48654997D01*
X62453490Y48617063D01*
X62509764Y48443870D01*
X62509765Y48443867D01*
X62509766Y48443866D01*
X62592445Y48281600D01*
X62699490Y48134265D01*
X62699492Y48134263D01*
X62699494Y48134260D01*
X62828259Y48005495D01*
X62828262Y48005493D01*
X62828265Y48005490D01*
X62975600Y47898445D01*
X63137866Y47815766D01*
X63311068Y47759489D01*
X63490942Y47731000D01*
X63490945Y47731000D01*
X63673055Y47731000D01*
X63673058Y47731000D01*
X63852932Y47759489D01*
X64026134Y47815766D01*
X64188400Y47898445D01*
X64335735Y48005490D01*
X64464510Y48134265D01*
X64571555Y48281600D01*
X64654234Y48443866D01*
X64710511Y48617068D01*
X64730182Y48741268D01*
X64760593Y48805419D01*
X64820861Y48842946D01*
X64891851Y48841932D01*
X64911828Y48833824D01*
X64915866Y48831766D01*
X65089068Y48775489D01*
X65268942Y48747000D01*
X65268945Y48747000D01*
X65451055Y48747000D01*
X65451058Y48747000D01*
X65630932Y48775489D01*
X65804134Y48831766D01*
X65966400Y48914445D01*
X66113735Y49021490D01*
X66242510Y49150265D01*
X66349555Y49297600D01*
X66432234Y49459866D01*
X66488511Y49633068D01*
X66517000Y49812942D01*
X66517000Y49995058D01*
X66488511Y50174932D01*
X66432234Y50348134D01*
X66349555Y50510400D01*
X66242510Y50657735D01*
X66242507Y50657738D01*
X66242505Y50657741D01*
X66113740Y50786506D01*
X66113737Y50786508D01*
X66113735Y50786510D01*
X66070303Y50818065D01*
X66026950Y50874286D01*
X66020875Y50945022D01*
X66054006Y51007814D01*
X66070300Y51021934D01*
X66113735Y51053490D01*
X66242510Y51182265D01*
X66349555Y51329600D01*
X66432234Y51491866D01*
X66488511Y51665068D01*
X66517000Y51844942D01*
X66517000Y52027058D01*
X66488511Y52206932D01*
X66432234Y52380134D01*
X66349555Y52542400D01*
X66242510Y52689735D01*
X66242507Y52689738D01*
X66242505Y52689741D01*
X66113740Y52818506D01*
X66113737Y52818508D01*
X66113735Y52818510D01*
X66070303Y52850065D01*
X66026950Y52906286D01*
X66020875Y52977022D01*
X66054006Y53039814D01*
X66070300Y53053934D01*
X66113735Y53085490D01*
X66242510Y53214265D01*
X66349555Y53361600D01*
X66432234Y53523866D01*
X66488511Y53697068D01*
X66517000Y53876942D01*
X66517000Y54059058D01*
X66488511Y54238932D01*
X66432234Y54412134D01*
X66349555Y54574400D01*
X66242510Y54721735D01*
X66242507Y54721738D01*
X66242505Y54721741D01*
X66113740Y54850506D01*
X66113737Y54850508D01*
X66113735Y54850510D01*
X66070303Y54882065D01*
X66026950Y54938286D01*
X66020875Y55009022D01*
X66054006Y55071814D01*
X66070300Y55085934D01*
X66113735Y55117490D01*
X66242510Y55246265D01*
X66349555Y55393600D01*
X66432234Y55555866D01*
X66488511Y55729068D01*
X66517000Y55908942D01*
X66517000Y56091058D01*
X66488511Y56270932D01*
X66432234Y56444134D01*
X66349555Y56606400D01*
X66242510Y56753735D01*
X66242507Y56753738D01*
X66242505Y56753741D01*
X66113740Y56882506D01*
X66113737Y56882508D01*
X66113735Y56882510D01*
X65966400Y56989555D01*
X65804134Y57072234D01*
X65804133Y57072235D01*
X65804130Y57072236D01*
X65630937Y57128510D01*
X65630933Y57128511D01*
X65630932Y57128511D01*
X65451058Y57157000D01*
X65268942Y57157000D01*
X65089068Y57128511D01*
X65089062Y57128510D01*
X64915869Y57072236D01*
X64753596Y56989553D01*
X64606262Y56882508D01*
X64606259Y56882506D01*
X64477494Y56753741D01*
X64477492Y56753738D01*
X64370447Y56606404D01*
X64287764Y56444131D01*
X64231490Y56270938D01*
X64211818Y56146735D01*
X64181405Y56082582D01*
X64121137Y56045055D01*
X64050147Y56046069D01*
X64030165Y56054180D01*
X64026134Y56056234D01*
X64026131Y56056235D01*
X63852937Y56112510D01*
X63852933Y56112511D01*
X63852932Y56112511D01*
X63673058Y56141000D01*
X63490942Y56141000D01*
X63311068Y56112511D01*
X63311062Y56112510D01*
X63137869Y56056236D01*
X62975596Y55973553D01*
X62828262Y55866508D01*
X62828259Y55866506D01*
X62699494Y55737741D01*
X62699492Y55737738D01*
X62592447Y55590404D01*
X62509764Y55428131D01*
X62453490Y55254938D01*
X62453489Y55254933D01*
X62453489Y55254932D01*
X62425000Y55075058D01*
X62425000Y54892942D01*
X62453489Y54713068D01*
X62453490Y54713063D01*
X62509764Y54539870D01*
X62509765Y54539867D01*
X62509766Y54539866D01*
X62592445Y54377600D01*
X62699490Y54230265D01*
X62699492Y54230263D01*
X62699494Y54230260D01*
X62828258Y54101496D01*
X62828261Y54101494D01*
X62828265Y54101490D01*
X62871696Y54069936D01*
X62915049Y54013713D01*
X62921124Y53942977D01*
X62887992Y53880185D01*
X62871699Y53866067D01*
X62835535Y53839793D01*
X62828258Y53834505D01*
X62699494Y53705741D01*
X62699492Y53705738D01*
X62592447Y53558404D01*
X62509764Y53396130D01*
X62509763Y53396129D01*
X62509579Y53395560D01*
X62509450Y53395373D01*
X62507871Y53391559D01*
X62507069Y53391892D01*
X62469496Y53336961D01*
X62404095Y53309335D01*
X62334140Y53321453D01*
X62281841Y53369467D01*
X62273343Y53386298D01*
X62269584Y53395373D01*
X62255102Y53430336D01*
X62155678Y53579135D01*
X62029135Y53705678D01*
X61880336Y53805102D01*
X61733162Y53866064D01*
X61715003Y53873586D01*
X61715001Y53873587D01*
X61715000Y53873587D01*
X61626645Y53891162D01*
X61539481Y53908500D01*
X61539479Y53908500D01*
X61360521Y53908500D01*
X61360518Y53908500D01*
X61229771Y53882493D01*
X61185000Y53873587D01*
X61184999Y53873587D01*
X61184996Y53873586D01*
X61019662Y53805101D01*
X60870869Y53705681D01*
X60870862Y53705676D01*
X60744324Y53579138D01*
X60744319Y53579131D01*
X60644899Y53430338D01*
X60576414Y53265004D01*
X60541500Y53089482D01*
X53163500Y53089482D01*
X53163500Y54196497D01*
X53183502Y54264618D01*
X53200405Y54285592D01*
X53235678Y54320865D01*
X53335102Y54469664D01*
X53403587Y54635000D01*
X53438500Y54810521D01*
X53438500Y54989479D01*
X53403587Y55165000D01*
X53335102Y55330336D01*
X53235678Y55479135D01*
X53200405Y55514408D01*
X53166379Y55576720D01*
X53163500Y55603503D01*
X53163500Y57156497D01*
X53183502Y57224618D01*
X53200405Y57245592D01*
X53235678Y57280865D01*
X53335102Y57429664D01*
X53403587Y57595000D01*
X53438500Y57770521D01*
X53438500Y57949479D01*
X53403587Y58125000D01*
X53335102Y58290336D01*
X53335101Y58290338D01*
X53335100Y58290340D01*
X53332185Y58295793D01*
X53334433Y58296996D01*
X53316555Y58354102D01*
X53326126Y58404563D01*
X53335505Y58427206D01*
X53363587Y58495000D01*
X53398500Y58670521D01*
X53398500Y58849479D01*
X53385076Y58916969D01*
X66023900Y58916969D01*
X66023900Y58671032D01*
X66055999Y58427214D01*
X66056000Y58427208D01*
X66056001Y58427206D01*
X66119653Y58189654D01*
X66213767Y57962442D01*
X66213768Y57962441D01*
X66213773Y57962431D01*
X66336730Y57749463D01*
X66486447Y57554347D01*
X66486456Y57554337D01*
X66660336Y57380457D01*
X66660346Y57380448D01*
X66660347Y57380447D01*
X66836094Y57245592D01*
X66855462Y57230731D01*
X66937650Y57183280D01*
X67068442Y57107767D01*
X67295654Y57013653D01*
X67533206Y56950001D01*
X67533212Y56950001D01*
X67533213Y56950000D01*
X67561188Y56946317D01*
X67777034Y56917900D01*
X67777041Y56917900D01*
X68022959Y56917900D01*
X68022966Y56917900D01*
X68266794Y56950001D01*
X68504346Y57013653D01*
X68731558Y57107767D01*
X68944541Y57230733D01*
X69139653Y57380447D01*
X69313553Y57554347D01*
X69463267Y57749459D01*
X69586233Y57962442D01*
X69680347Y58189654D01*
X69743999Y58427206D01*
X69776100Y58671034D01*
X69776100Y58916966D01*
X69743999Y59160794D01*
X69680347Y59398346D01*
X69586233Y59625558D01*
X69463267Y59838541D01*
X69313553Y60033653D01*
X69313552Y60033654D01*
X69313543Y60033664D01*
X69139663Y60207544D01*
X69139653Y60207553D01*
X68944537Y60357270D01*
X68731569Y60480227D01*
X68731564Y60480230D01*
X68731558Y60480233D01*
X68504346Y60574347D01*
X68266794Y60637999D01*
X68266792Y60638000D01*
X68266786Y60638001D01*
X68022968Y60670100D01*
X68022966Y60670100D01*
X67777034Y60670100D01*
X67777031Y60670100D01*
X67533213Y60638001D01*
X67533206Y60637999D01*
X67295654Y60574347D01*
X67102761Y60494448D01*
X67068440Y60480232D01*
X67068430Y60480227D01*
X66855462Y60357270D01*
X66660346Y60207553D01*
X66660336Y60207544D01*
X66486456Y60033664D01*
X66486447Y60033654D01*
X66336730Y59838538D01*
X66213773Y59625570D01*
X66213768Y59625560D01*
X66213767Y59625558D01*
X66188725Y59565101D01*
X66119653Y59398346D01*
X66055999Y59160787D01*
X66023900Y58916969D01*
X53385076Y58916969D01*
X53363587Y59025000D01*
X53295102Y59190336D01*
X53295101Y59190338D01*
X53295100Y59190340D01*
X53295099Y59190341D01*
X53228768Y59289613D01*
X53228767Y59289614D01*
X53214079Y59311596D01*
X53195678Y59339135D01*
X53069135Y59465678D01*
X52920336Y59565102D01*
X52774355Y59625570D01*
X52755003Y59633586D01*
X52755001Y59633587D01*
X52755000Y59633587D01*
X52666645Y59651162D01*
X52579481Y59668500D01*
X52579479Y59668500D01*
X52400521Y59668500D01*
X52400518Y59668500D01*
X52269771Y59642493D01*
X52225000Y59633587D01*
X52224999Y59633587D01*
X52224996Y59633586D01*
X52059662Y59565101D01*
X51910869Y59465681D01*
X51910862Y59465676D01*
X51784324Y59339138D01*
X51784319Y59339131D01*
X51684899Y59190338D01*
X51616414Y59025004D01*
X51581500Y58849482D01*
X51000000Y58849482D01*
X51000000Y60693937D01*
X62921600Y60693937D01*
X62921600Y60450064D01*
X62959752Y60209178D01*
X63035115Y59977236D01*
X63145834Y59759937D01*
X63210592Y59670805D01*
X63210594Y59670805D01*
X63763139Y60223351D01*
X63773215Y60199026D01*
X63859386Y60070062D01*
X63969062Y59960386D01*
X64098026Y59874215D01*
X64122348Y59864141D01*
X63569803Y59311596D01*
X63569803Y59311594D01*
X63658936Y59246835D01*
X63876235Y59136116D01*
X64108177Y59060753D01*
X64349063Y59022600D01*
X64592937Y59022600D01*
X64737776Y59045540D01*
X64833822Y59060753D01*
X65065764Y59136116D01*
X65283064Y59246835D01*
X65372195Y59311594D01*
X65372195Y59311596D01*
X64819650Y59864141D01*
X64843974Y59874215D01*
X64972938Y59960386D01*
X65082614Y60070062D01*
X65168785Y60199026D01*
X65178859Y60223350D01*
X65731404Y59670805D01*
X65731406Y59670805D01*
X65796165Y59759936D01*
X65906884Y59977236D01*
X65982247Y60209178D01*
X66020400Y60450064D01*
X66020400Y60693937D01*
X65982247Y60934823D01*
X65906884Y61166765D01*
X65796165Y61384064D01*
X65731406Y61473197D01*
X65731404Y61473197D01*
X65178859Y60920652D01*
X65168785Y60944974D01*
X65082614Y61073938D01*
X64972938Y61183614D01*
X64843974Y61269785D01*
X64819650Y61279861D01*
X65372195Y61832406D01*
X65372195Y61832408D01*
X65283063Y61897166D01*
X65065764Y62007885D01*
X64833822Y62083248D01*
X64592937Y62121400D01*
X64349063Y62121400D01*
X64108177Y62083248D01*
X63876235Y62007885D01*
X63658942Y61897170D01*
X63569803Y61832407D01*
X63569803Y61832406D01*
X64122349Y61279860D01*
X64098026Y61269785D01*
X63969062Y61183614D01*
X63859386Y61073938D01*
X63773215Y60944974D01*
X63763140Y60920651D01*
X63210594Y61473197D01*
X63210593Y61473197D01*
X63145830Y61384058D01*
X63035115Y61166765D01*
X62959752Y60934823D01*
X62921600Y60693937D01*
X51000000Y60693937D01*
X51000000Y70121291D01*
X67149500Y70121291D01*
X67149500Y69878710D01*
X67181160Y69638218D01*
X67243944Y69403905D01*
X67243945Y69403903D01*
X67243946Y69403900D01*
X67336776Y69179788D01*
X67336777Y69179787D01*
X67336782Y69179776D01*
X67458061Y68969715D01*
X67458063Y68969712D01*
X67458064Y68969711D01*
X67605735Y68777262D01*
X67605739Y68777258D01*
X67605744Y68777252D01*
X67777251Y68605745D01*
X67777256Y68605741D01*
X67777262Y68605735D01*
X67969711Y68458064D01*
X67969714Y68458062D01*
X68179775Y68336783D01*
X68179779Y68336782D01*
X68179788Y68336776D01*
X68403900Y68243946D01*
X68638211Y68181162D01*
X68638215Y68181162D01*
X68638217Y68181161D01*
X68700202Y68173001D01*
X68878712Y68149500D01*
X68878719Y68149500D01*
X69121281Y68149500D01*
X69121288Y68149500D01*
X69338637Y68178115D01*
X69361782Y68181161D01*
X69361782Y68181162D01*
X69361789Y68181162D01*
X69596100Y68243946D01*
X69820212Y68336776D01*
X70030289Y68458064D01*
X70222738Y68605735D01*
X70394265Y68777262D01*
X70541936Y68969711D01*
X70663224Y69179788D01*
X70756054Y69403900D01*
X70818838Y69638211D01*
X70850500Y69878712D01*
X70850500Y70121288D01*
X70818838Y70361789D01*
X70756054Y70596100D01*
X70663224Y70820212D01*
X70663218Y70820221D01*
X70663217Y70820225D01*
X70541938Y71030286D01*
X70541936Y71030289D01*
X70394265Y71222738D01*
X70394259Y71222744D01*
X70394255Y71222749D01*
X70222748Y71394256D01*
X70222742Y71394261D01*
X70222738Y71394265D01*
X70030289Y71541936D01*
X70030288Y71541937D01*
X70030285Y71541939D01*
X69820224Y71663218D01*
X69820216Y71663222D01*
X69820212Y71663224D01*
X69596100Y71756054D01*
X69596097Y71756055D01*
X69596095Y71756056D01*
X69361782Y71818840D01*
X69121290Y71850500D01*
X69121288Y71850500D01*
X68878712Y71850500D01*
X68878709Y71850500D01*
X68638217Y71818840D01*
X68403904Y71756056D01*
X68403900Y71756054D01*
X68179786Y71663223D01*
X68179775Y71663218D01*
X67969714Y71541939D01*
X67777262Y71394265D01*
X67777251Y71394256D01*
X67605744Y71222749D01*
X67605735Y71222738D01*
X67458061Y71030286D01*
X67336782Y70820225D01*
X67336777Y70820214D01*
X67243946Y70596100D01*
X67243944Y70596096D01*
X67181160Y70361783D01*
X67149500Y70121291D01*
X51000000Y70121291D01*
X51000000Y73848500D01*
X51020002Y73916621D01*
X51073658Y73963114D01*
X51126000Y73974500D01*
X72848500Y73974500D01*
X72916621Y73954498D01*
G37*
%TD.AperFunction*%
%TD*%
M02*
