M48
; DRILL file KiCad 10.0.1 date 2026-05-03T12:30:56
; FORMAT={-:-/ absolute / inch / decimal}
; #@! TF.CreationDate,2026-05-03T12:30:56+03:00
; #@! TF.GenerationSoftware,Kicad,Pcbnew,10.0.1
; #@! TF.FileFunction,Plated,1,2,PTH
FMAT,2
INCH
; #@! TA.AperFunction,Plated,PTH,ViaDrill
T1C0.0157
; #@! TA.AperFunction,Plated,PTH,ComponentDrill
T2C0.0350
; #@! TA.AperFunction,Plated,PTH,ComponentDrill
T3C0.0394
; #@! TA.AperFunction,Plated,PTH,ComponentDrill
T4C0.0620
%
G90
G05
T1
X0.1866Y2.2963
X0.1866Y2.1963
X0.1866Y2.1063
X0.1866Y2.0063
X0.1866Y1.9063
X0.1866Y1.8063
X0.1866Y1.7063
X0.1866Y1.6063
X0.1866Y1.5063
X0.1866Y1.4063
X0.1866Y1.3063
X0.1866Y1.2063
X0.1866Y1.1063
X0.1866Y1.0063
X0.1866Y0.8963
X0.1866Y0.8063
X0.1866Y0.7063
X0.2Y2.6
X0.2Y2.4
X0.2Y0.6
X0.2Y0.4
X0.2866Y0.7063
X0.3563Y2.2803
X0.3866Y0.7063
X0.4Y2.6
X0.4Y2.4
X0.4Y0.6
X0.4Y0.4
X0.4Y0.2
X0.4303Y2.2803
X0.4866Y0.7063
X0.5043Y2.2827
X0.5717Y2.2815
X0.5827Y2.1295
X0.5827Y1.9457
X0.5898Y0.9012
X0.5966Y0.8063
X0.5966Y0.7063
X0.6Y2.6
X0.6Y2.4
X0.6Y0.6
X0.6Y0.4
X0.6Y0.2
X0.6094Y2.1941
X0.6252Y0.9504
X0.6256Y1.8512
X0.6268Y1.7969
X0.6268Y1.6126
X0.6283Y1.6898
X0.6283Y1.4583
X0.6291Y1.3724
X0.6303Y1.5339
X0.6378Y2.2803
X0.6488Y0.9012
X0.6563Y1.1585
X0.6587Y1.0752
X0.6631Y1.2264
X0.6669Y1.9203
X0.6713Y2.1516
X0.6846Y0.95
X0.6905Y1.1051
X0.6996Y1.8012
X0.7039Y1.3724
X0.7059Y1.1417
X0.7063Y2.2803
X0.7083Y1.2559
X0.7083Y1.0173
X0.7189Y1.8543
X0.7319Y2.0439
X0.7417Y0.9012
X0.7437Y2.1516
X0.7772Y1.8583
X0.7791Y1.1417
X0.7811Y1.3685
X0.785Y1.2559
X0.787Y1.0173
X0.7886Y1.8028
X0.7898Y2.2791
X0.8Y2.6
X0.8Y2.4
X0.8Y1.7
X0.8Y1.5
X0.8Y0.8
X0.8Y0.6
X0.8Y0.4
X0.8Y0.2
X0.8114Y2.2181
X0.8114Y2.1516
X0.8114Y2.0624
X0.8224Y0.9012
X0.8283Y1.8598
X0.8437Y1.976
X0.8559Y1.3705
X0.8579Y1.2559
X0.8614Y2.2791
X0.8638Y1.1417
X0.8642Y1.8012
X0.8646Y2.2276
X0.8697Y1.0193
X0.8736Y2.0602
X0.8961Y1.9803
X0.8976Y1.9149
X0.8992Y0.9012
X0.9Y1.7
X0.9Y1.5
X0.9008Y2.1988
X0.9346Y1.3724
X0.9358Y2.2791
X0.937Y2.1547
X0.9406Y1.2539
X0.9413Y1.8012
X0.9445Y1.1417
X0.948Y1.9276
X0.9484Y2.0394
X0.9524Y1.0173
X0.9705Y0.9012
X1.0Y2.6
X1.0Y2.4
X1.0Y1.7
X1.0Y1.5
X1.0Y0.8
X1.0Y0.6
X1.0Y0.4
X1.0Y0.2
X1.0169Y1.8012
X1.0866Y0.8063
X1.0966Y2.4063
X1.1Y1.7
X1.1Y1.5
X1.1866Y0.8063
X1.2Y2.6
X1.2Y1.7
X1.2Y1.5
X1.2Y0.6
X1.2Y0.4
X1.2Y0.2
X1.2066Y2.4063
X1.2866Y0.8063
X1.3Y2.3
X1.3Y2.2
X1.3Y2.1
X1.3Y2.0
X1.3Y1.9
X1.3Y1.8
X1.3Y1.7
X1.3Y1.6
X1.3Y1.5
X1.3Y1.4
X1.3Y1.3
X1.3Y1.2
X1.3Y1.1
X1.3Y1.0
X1.3Y0.9
X1.3066Y2.4063
X1.3866Y0.8063
X1.3966Y2.4063
X1.4Y2.6
X1.4Y0.6
X1.4Y0.4
X1.4Y0.2
X1.4866Y2.4063
X1.4866Y0.8063
X1.5966Y2.4063
X1.5966Y0.8063
X1.6Y2.6
X1.6Y0.6
X1.6Y0.4
X1.6Y0.2
X1.6866Y2.4063
X1.6966Y0.8063
X1.7Y2.3
X1.7Y2.2
X1.7Y2.1
X1.7Y2.0
X1.7Y1.9
X1.7Y1.8
X1.7Y1.7
X1.7Y1.6
X1.7Y1.5
X1.7Y1.4
X1.7Y1.3
X1.7Y1.2
X1.7Y1.1
X1.7Y1.0
X1.7Y0.9
X1.7866Y2.4963
X1.7866Y2.4063
X1.7966Y0.8063
X1.8Y2.6
X1.8Y1.75
X1.8Y1.45
X1.8Y0.6
X1.8Y0.4
X1.8Y0.2
X1.8453Y0.739
X1.9Y2.35
X1.9Y1.75
X1.9Y1.45
X1.9Y0.85
X1.9Y0.6
X2.0484Y1.4161
X2.0665Y2.3134
X2.0681Y2.278
X2.0681Y2.1614
X2.0681Y2.0425
X2.0681Y1.926
X2.076Y1.3724
X2.0776Y1.2587
X2.0776Y1.1382
X2.0776Y1.0197
X2.09Y1.8
X2.09Y1.69
X2.09Y1.6
X2.1Y2.8
X2.1Y2.6
X2.1Y0.9
X2.1Y0.6
X2.1Y0.4
X2.1Y0.2
X2.1866Y1.6063
X2.19Y2.05
X2.19Y1.93
X2.19Y1.8
X2.2Y2.28
X2.2Y2.16
X2.2Y1.38
X2.2Y1.26
X2.2Y1.14
X2.2Y1.02
X2.2Y0.9
X2.2Y0.8
X2.2295Y2.4992
X2.2342Y0.7339
X2.2866Y1.6063
X2.29Y1.8
X2.3Y2.8
X2.3Y2.6
X2.3Y1.38
X2.3Y1.26
X2.3Y1.14
X2.3Y1.02
X2.3Y0.9
X2.3Y0.6
X2.3Y0.4
X2.3Y0.2
X2.31Y2.28
X2.31Y2.16
X2.31Y2.05
X2.31Y1.93
X2.3795Y2.4992
X2.38Y1.14
X2.3842Y0.7339
X2.3866Y1.6063
X2.39Y1.02
X2.4Y1.93
X2.4Y1.8
X2.4Y1.38
X2.4Y1.26
X2.4Y0.9
X2.41Y2.16
X2.4193Y2.0866
X2.42Y2.28
X2.4311Y1.1776
X2.4866Y1.6063
X2.5Y2.8
X2.5Y2.6
X2.5Y2.28
X2.5Y1.38
X2.5Y0.6
X2.5Y0.4
X2.5Y0.2
X2.5866Y1.6063
X2.6736Y0.7354
X2.6866Y1.6063
X2.7Y2.6
X2.7Y0.6
X2.7Y0.4
X2.7866Y1.6063
X2.7886Y0.7354
T2
X2.4997Y1.262
X2.4997Y1.182
X2.4997Y1.102
X2.4997Y1.022
X2.5032Y2.1647
X2.5032Y2.0847
X2.5032Y2.0047
X2.5032Y1.9247
X2.5697Y1.302
X2.5697Y1.222
X2.5697Y1.142
X2.5697Y1.062
X2.5732Y2.2047
X2.5732Y2.1247
X2.5732Y2.0447
X2.5732Y1.9647
T3
X0.3874Y2.1965
X0.3874Y2.0965
X0.3874Y1.9965
X0.3874Y1.8965
X0.3874Y1.7965
X0.3874Y1.6965
X0.3874Y1.5965
X0.3874Y1.4965
X0.3874Y1.3965
X0.3874Y1.2965
X0.3874Y1.1965
X0.3874Y1.0965
X0.3874Y0.9965
X0.3874Y0.8965
X0.3874Y0.7965
X0.4874Y2.1965
X0.4874Y2.0965
X0.4874Y1.9965
X0.4874Y1.8965
X0.4874Y1.7965
X0.4874Y1.6965
X0.4874Y1.5965
X0.4874Y1.4965
X0.4874Y1.3965
X0.4874Y1.2965
X0.4874Y1.1965
X0.4874Y1.0965
X0.4874Y0.9965
X0.4874Y0.8965
X0.4874Y0.7965
T4
X2.5347Y1.482
X2.5347Y0.842
X2.5382Y2.3847
X2.5382Y1.7447
M30
